<?xml version="1.0" encoding="UTF-8"?>
<svg version="1.1" xmlns="http://www.w3.org/2000/svg" width="2113" height="820">
<path d="M0 0 C4.28445081 -0.00969042 8.56890351 -0.01630444 12.85336072 -0.02244563 C14.87885673 -0.0260687 16.90435089 -0.03102469 18.92983991 -0.03746193 C68.54497312 -0.19257528 113.61042632 10.68082556 154.37825922 40.02166113 C154.93706781 40.42352636 155.4958764 40.8253916 156.07161859 41.23943457 C164.18644837 47.14242622 171.64374681 53.65483622 178.88656 60.59295019 C180.25991418 61.90831331 181.64474161 63.21166962 183.03060297 64.51384863 C189.89137061 71.12533087 195.71165014 78.38774445 201.37825922 86.02166113 C201.77931879 86.56193945 202.18037836 87.10221777 202.59359125 87.65886816 C235.27884968 132.19476163 247.2419944 186.63404405 238.92171625 241.00505957 C231.56078704 284.12412424 212.41150779 318.75035353 182.37825922 350.02166113 C181.86408441 350.55775 181.34990961 351.09383886 180.82015375 351.64617285 C173.73695672 358.9846969 166.46045225 365.77584485 158.37825922 372.02166113 C157.25707116 372.91867869 156.13598289 373.81582098 155.01497797 374.71306738 C137.28941809 388.6682864 117.29641635 399.44906718 97.21126703 409.5875791 C94.42265996 410.99918526 91.64602687 412.43229743 88.87044672 413.86931738 C71.05266175 423.02087659 52.73271398 431.0223078 34.37825922 439.02166113 C33.46842279 439.41859167 32.55858636 439.81552221 31.62117914 440.22448095 C24.87741896 443.16584965 18.12906362 446.09650024 11.37825922 449.02166113 C10.47289423 449.41467413 9.56752924 449.80768713 8.63472894 450.21260962 C-4.03189189 455.70585174 -16.77720064 460.95834616 -29.62174078 466.02166113 C-29.62174078 472.20045183 -22.82885367 477.71525073 -18.71158453 482.01775488 C-17.57486188 483.13894146 -16.43296946 484.25491237 -15.28580328 485.36541113 C-12.93556499 487.70461544 -10.8016503 490.21050482 -8.63736578 492.72087988 C-6.17693809 495.52939133 -3.65199086 498.27627992 -1.12174078 501.02166113 C1.91730456 504.3217946 4.93982381 507.63115873 7.87825922 511.02166113 C10.77911483 514.36666689 13.75650316 517.63771453 16.75325922 520.89666113 C22.80495466 527.47782822 28.83593486 534.0764241 34.69075922 540.83416113 C38.31838918 545.00046468 42.07397169 549.0443821 45.82796625 553.09636816 C50.39396368 558.02775957 54.89459684 563.01531316 59.37825922 568.02166113 C60.8778254 569.68871813 62.37782975 571.35538108 63.87825922 573.02166113 C69.87825922 579.6883278 75.87825922 586.35499446 81.87825922 593.02166113 C82.62204828 593.84795019 83.36583734 594.67423925 84.13216547 595.52556738 C85.61972122 597.17869456 87.10670825 598.83233369 88.59310297 600.48650488 C92.54849514 604.88679178 96.51693119 609.27436488 100.50325922 613.64666113 C103.30583302 616.72475678 106.08793796 619.81467983 108.81575922 622.95916113 C112.24594497 626.9083348 115.78829439 630.75188418 119.33114007 634.59954199 C121.88366375 637.37642482 124.40801668 640.17138128 126.87825922 643.02166113 C130.24148559 646.89983126 133.71161592 650.67693924 137.18636468 654.4547666 C141.6204955 659.27751004 146.00344161 664.14507233 150.37825922 669.02166113 C151.87797049 670.6885876 153.37797243 672.35525262 154.87825922 674.02166113 C157.87825922 677.35499446 160.87825922 680.6883278 163.87825922 684.02166113 C164.62204828 684.84795019 165.36583734 685.67423925 166.13216547 686.52556738 C167.61972122 688.17869456 169.10670825 689.83233369 170.59310297 691.48650488 C174.54849514 695.88679178 178.51693119 700.27436488 182.50325922 704.64666113 C185.30583302 707.72475678 188.08793796 710.81467983 190.81575922 713.95916113 C194.24662155 717.90911374 197.78956192 721.75353212 201.33333734 725.60173925 C203.8655133 728.35621872 206.36853657 731.128999 208.81575922 733.95916113 C211.92790045 737.55124704 215.14698008 741.03718105 218.37825922 744.52166113 C222.16707858 748.60736992 225.89997785 752.72559386 229.54622797 756.93962988 C232.37690182 760.15657906 235.28592937 763.30136793 238.18660882 766.45501074 C241.88859095 770.48149463 245.55839209 774.53557036 249.21029047 778.60759863 C250.64060168 780.2002695 252.07541267 781.78891228 253.51497797 783.37322363 C258.47213398 788.83766491 263.28885065 794.40533443 268.05037836 800.03997168 C270.77163047 803.23628611 273.54520608 806.22578393 276.62825922 809.08416113 C278.88936353 811.25196745 279.31995437 811.68640828 279.87825922 814.89666113 C279.37825922 817.02166113 279.37825922 817.02166113 278.37825922 818.02166113 C275.32460362 818.13526031 272.29308985 818.18284777 269.23847345 818.18901953 C268.26729454 818.19481291 267.29611562 818.2006063 266.29550705 818.20657524 C263.01442089 818.22473117 259.73335208 818.23553456 256.45223382 818.2462705 C254.11041497 818.25743884 251.76859775 818.26895193 249.42678216 818.28078588 C241.71141192 818.31742963 233.99602501 818.34257529 226.28060297 818.36541113 C224.96934796 818.36935699 223.65809296 818.37330286 222.30710295 818.3773683 C209.94656064 818.41379398 197.58601243 818.44540364 185.22543386 818.46647772 C182.36044126 818.47144715 179.4954488 818.47649144 176.63045648 818.48162207 C175.91836354 818.48289274 175.20627059 818.48416341 174.47259907 818.48547259 C162.94487415 818.50681886 151.41743487 818.55579684 139.88985356 818.61586621 C128.05629636 818.67702146 116.22288635 818.71167083 104.38917312 818.72095093 C97.74437763 818.7268593 91.10001158 818.74540276 84.45535997 818.79233679 C78.20160209 818.83596038 71.9486564 818.84650411 65.69477228 818.83170828 C63.40020293 818.83203733 61.10559907 818.84434459 58.81116823 818.8695577 C55.67543928 818.90219449 52.54269039 818.89152144 49.40693048 818.87017187 C48.50097869 818.88987964 47.5950269 818.90958741 46.66162202 818.92989239 C40.47760889 818.8237379 37.4204095 817.09868776 33.02021084 812.7759951 C32.4783668 812.19706489 31.93652277 811.61813468 31.37825922 811.02166113 C30.55197015 810.16701269 29.72568109 809.31236425 28.87435297 808.43181738 C28.19501703 807.65709082 27.51568109 806.88236425 26.81575922 806.08416113 C26.05779047 805.2256455 25.29982172 804.36712988 24.51888422 803.48259863 C23.23714469 802.00906596 21.95576927 800.53521628 20.67513422 799.06072363 C16.98138208 794.8111156 13.20607379 790.6503417 9.37825922 786.52166113 C5.54785354 782.3901858 1.76563445 778.23056666 -1.92252203 773.97087988 C-5.43580116 769.94070451 -9.03920412 765.99019501 -12.62174078 762.02166113 C-14.12202757 760.35525262 -15.62202951 758.6885876 -17.12174078 757.02166113 C-17.86424078 756.19666113 -18.60674078 755.37166113 -19.37174078 754.52166113 C-24.62174078 748.6883278 -29.87174078 742.85499446 -35.12174078 737.02166113 C-35.86552985 736.19537207 -36.60931891 735.369083 -37.37564703 734.51775488 C-38.86320279 732.8646277 -40.35018982 731.21098857 -41.83658453 729.55681738 C-45.79197671 725.15653048 -49.76041276 720.76895737 -53.74674078 716.39666113 C-56.54931459 713.31856547 -59.33141953 710.22864243 -62.05924078 707.08416113 C-65.48942654 703.13498746 -69.03177596 699.29143808 -72.57462164 695.44378027 C-75.68773377 692.05703494 -78.73426161 688.62259864 -81.74674078 685.14666113 C-84.16724153 682.40342695 -86.64374721 679.71281544 -89.12174078 677.02166113 C-92.72186835 673.11184517 -96.26591684 669.16299645 -99.74674078 665.14666113 C-102.16724153 662.40342695 -104.64374721 659.71281544 -107.12174078 657.02166113 C-110.72186835 653.11184517 -114.26591684 649.16299645 -117.74674078 645.14666113 C-120.16724153 642.40342695 -122.64374721 639.71281544 -125.12174078 637.02166113 C-128.72186835 633.11184517 -132.26591684 629.16299645 -135.74674078 625.14666113 C-138.16724153 622.40342695 -140.64374721 619.71281544 -143.12174078 617.02166113 C-146.72186835 613.11184517 -150.26591684 609.16299645 -153.74674078 605.14666113 C-156.16724153 602.40342695 -158.64374721 599.71281544 -161.12174078 597.02166113 C-164.72186835 593.11184517 -168.26591684 589.16299645 -171.74674078 585.14666113 C-174.63441348 581.87396541 -177.60031714 578.67323377 -180.55728766 575.46331152 C-183.82712157 571.90719708 -187.03396121 568.30495488 -190.18424078 564.64275488 C-190.65861578 564.10779394 -191.13299078 563.572833 -191.62174078 563.02166113 C-192.07549078 562.43513769 -192.52924078 561.84861425 -192.99674078 561.24431738 C-194.58766259 559.77287744 -194.58766259 559.77287744 -196.9025025 560.15545019 C-200.44473643 561.28382566 -202.13252314 563.03074814 -204.75455328 565.65837988 C-205.22850028 566.12960272 -205.70244727 566.60082556 -206.19075629 567.08632788 C-207.72111755 568.61614091 -209.23473434 570.1612192 -210.74674078 571.70916113 C-211.26441016 572.2333161 -211.78207953 572.75747107 -212.31543585 573.29750952 C-220.03178602 581.1138834 -227.23553954 589.07438434 -233.62174078 598.02166113 C-234.4703518 599.16611517 -235.32065631 600.30931514 -236.17252203 601.45134863 C-258.68862075 631.92682439 -273.34622949 666.47927113 -280.37174078 703.64666113 C-280.57049811 704.69354101 -280.76925543 705.74042089 -280.97403571 706.81902441 C-283.6914669 721.98678654 -284.90790399 737.14383084 -284.9572663 752.53874907 C-284.9657626 755.09968505 -284.98643305 757.66029801 -285.00980231 760.22113928 C-285.06535763 766.55838385 -285.1015901 772.89570518 -285.13742682 779.23308691 C-285.16868071 784.64202986 -285.20778313 790.05080139 -285.25768134 795.45960554 C-285.27766539 797.97676917 -285.28604113 800.49379964 -285.293982 803.01102575 C-285.30694645 804.54639559 -285.32046558 806.08176089 -285.33463141 807.61712011 C-285.33315855 808.65883619 -285.33315855 808.65883619 -285.33165595 809.72159704 C-285.38195246 813.62923482 -285.80944143 815.39706242 -287.62174078 819.02166113 C-346.69174078 819.02166113 -405.76174078 819.02166113 -466.62174078 819.02166113 C-468.66775779 814.92962712 -468.87414004 813.25724185 -468.88052985 808.81731543 C-468.88683417 807.55626486 -468.89313849 806.29521429 -468.89963385 804.99595007 C-468.89604348 803.61259195 -468.89193895 802.22923509 -468.88736578 800.84587988 C-468.88871712 799.40128388 -468.89066153 797.95668833 -468.89316412 796.51209387 C-468.89611875 793.46470236 -468.89182386 790.41742771 -468.88248297 787.3700498 C-468.87135919 783.56502038 -468.877672 779.76027894 -468.8893542 775.9552606 C-468.95778871 749.72367445 -468.1348113 723.5295383 -464.43424078 697.52166113 C-464.3281449 696.76104376 -464.22204901 696.00042639 -464.1127381 695.21676001 C-452.55097373 613.14310579 -413.03894253 539.99660427 -361.62174078 476.02166113 C-360.87666266 475.09353613 -360.13158453 474.16541113 -359.36392828 473.20916113 C-350.05950581 461.73704166 -340.40749573 450.59637103 -330.30679938 439.82000097 C-328.45627126 437.8450676 -326.61144835 435.86487621 -324.76627203 433.88494238 C-303.75911164 411.39715682 -303.75911164 411.39715682 -293.57877203 402.75994238 C-291.1572109 400.60905474 -288.89799283 398.32554598 -286.62174078 396.02166113 C-283.08860679 392.45082601 -279.48800984 389.05614888 -275.67252203 385.79119238 C-273.34607496 383.7838009 -271.07981393 381.71699475 -268.80924078 379.64666113 C-264.49048421 375.74924666 -260.04412027 372.04865758 -255.52017828 368.39275488 C-252.99223701 366.32474901 -250.50743081 364.21501989 -248.03311774 362.08342871 C-240.7801947 355.8493924 -233.20315644 350.12755488 -225.51920172 344.43865332 C-222.73230309 342.35744389 -219.99158458 340.22057607 -217.24674078 338.08416113 C-199.24370451 324.20153809 -180.33508858 311.6873483 -161.36893317 299.17516455 C-159.85271773 298.17415303 -158.33815387 297.17064076 -156.82388922 296.16668066 C-138.05705658 283.73002389 -118.52812208 272.52576639 -98.62174078 262.02166113 C-97.28296881 261.31324072 -97.28296881 261.31324072 -95.91715094 260.59050879 C-46.11902444 234.45030094 8.05668897 215.29705025 62.37825922 201.02166113 C19.67879999 181.00191467 -30.01545104 172.41715007 -76.62174078 168.02166113 C-77.91731657 167.8894441 -77.91731657 167.8894441 -79.23906561 167.75455603 C-90.13840666 166.76371747 -101.03441363 166.87756893 -111.96939703 166.88884863 C-114.25795107 166.88782691 -116.54650498 166.88648403 -118.83505866 166.88485083 C-125.12382647 166.88211675 -131.41257001 166.8867001 -137.70133444 166.89309057 C-141.70828122 166.89668268 -145.71522613 166.89832617 -149.72217413 166.89934668 C-185.59027527 166.91018754 -221.45737833 167.04161185 -257.32486578 167.24822363 C-258.25610793 167.25358554 -259.18735008 167.25894746 -260.14681169 167.26447186 C-280.48571576 167.38203711 -300.82454384 167.50960164 -321.16331753 167.64784154 C-341.75782994 167.78758373 -362.35237499 167.91188489 -382.94713541 168.00901159 C-384.75864857 168.01757914 -386.57016119 168.02625969 -388.3816733 168.03504309 C-400.52273585 168.09381807 -412.66373333 168.13932778 -424.80491301 168.16471228 C-428.33600232 168.17243718 -431.86702778 168.18479233 -435.39808699 168.20124182 C-439.49755287 168.22010786 -443.59692679 168.22944651 -447.6964347 168.23116812 C-449.19934166 168.23340277 -450.70224789 168.23905589 -452.20512792 168.24832663 C-454.25316024 168.26037878 -456.30125907 168.25888719 -458.34932562 168.25664648 C-459.49517976 168.2595796 -460.6410339 168.26251272 -461.82161089 168.26553473 C-464.62174078 168.02166113 -464.62174078 168.02166113 -467.62174078 166.02166113 C-468.73687638 162.67625435 -468.7503852 160.1708027 -468.75545355 156.64483007 C-468.75771911 155.99509867 -468.75998467 155.34536727 -468.76231888 154.67594704 C-468.76865804 152.49494313 -468.76782957 150.31400137 -468.76700446 148.13298925 C-468.76999595 146.57093094 -468.77339846 145.00887337 -468.77718207 143.44681677 C-468.78602603 139.20105668 -468.78836031 134.95531673 -468.78899786 130.70954832 C-468.78994657 127.16808563 -468.79362433 123.62662766 -468.79716995 120.08516678 C-468.80531558 111.73277836 -468.80775404 103.38040072 -468.80704352 95.02800879 C-468.80644229 86.4034705 -468.81700276 77.77899467 -468.83278718 69.1544722 C-468.8458472 61.75569695 -468.85122808 54.35694217 -468.85058811 46.95815548 C-468.85033272 42.53651708 -468.85320648 38.1149342 -468.86376616 33.69330725 C-468.87342162 29.53681429 -468.87354397 25.38043025 -468.86624953 21.22393354 C-468.86520058 19.69648519 -468.86758485 18.16903014 -468.87360999 16.6415933 C-468.88128921 14.56043007 -468.87671256 12.47964681 -468.86897894 10.39849218 C-468.86952371 9.23263334 -468.87006848 8.0667745 -468.87062975 6.8655866 C-468.62174078 4.02166113 -468.62174078 4.02166113 -466.62174078 1.02166113 C-464.12371654 0.71865721 -461.87127369 0.61492532 -459.36979243 0.63690027 C-458.23007229 0.62917541 -458.23007229 0.62917541 -457.0673275 0.62129449 C-454.49406207 0.60756364 -451.92129827 0.61539154 -449.34801337 0.62293371 C-447.49474585 0.61749973 -445.6414818 0.61075048 -443.78822341 0.60279181 C-438.67292181 0.58466774 -433.55776464 0.58533581 -428.44243845 0.58892127 C-422.93161493 0.58954266 -417.42084093 0.57294558 -411.91004035 0.55840429 C-402.34412698 0.53554572 -392.77825018 0.52371985 -383.21231123 0.51927504 C-369.33027599 0.51281084 -355.44830636 0.48986055 -341.56629752 0.46293174 C-318.97793414 0.41957006 -296.38957623 0.38964359 -273.80118414 0.36809668 C-251.97044075 0.34724213 -230.13972063 0.3200596 -208.30899664 0.2841123 C-207.63978012 0.28301282 -206.9705636 0.28191335 -206.28106779 0.28078055 C-200.22458701 0.27082426 -194.16810637 0.26078505 -188.11162589 0.25064741 C-145.46357007 0.17926752 -102.81550818 0.11637444 -60.16741809 0.06948945 C-56.96429361 0.06594726 -53.76116924 0.0623154 -50.55804488 0.05866178 C-34.13495625 0.04013456 -34.13495625 0.04013456 -26.88683804 0.035593 C-25.94745104 0.03499979 -25.00806405 0.03440659 -24.04021077 0.03379541 C-22.14709559 0.03260055 -20.25398039 0.03142661 -18.36086518 0.03027374 C-12.24055791 0.02579432 -6.12029103 0.0146598 0 0 Z " fill="#2573CC" transform="translate(1154.621740784496,0.9783388711512089)"/>
<path d="M0 0 C8.07611101 0.01153344 16.15222332 0.01676257 24.22834063 0.02170396 C40.73072093 0.03192994 57.23308445 0.04930733 73.73545241 0.07202756 C73.78131349 50.45969843 73.81651398 100.84736718 73.83758307 151.23505484 C73.84008424 157.19503537 73.84267291 163.15501585 73.84531569 169.11499631 C73.84610263 170.89464915 73.84610263 170.89464915 73.84690545 172.71025456 C73.85558832 191.87564702 73.87134654 211.04102737 73.88975801 230.20641266 C73.90851616 249.89813355 73.9195816 269.58984813 73.9236294 289.28157759 C73.92636223 301.41482675 73.93496735 313.54804171 73.95128535 325.68128033 C73.9619254 334.0217701 73.9650373 342.3622424 73.96245517 350.70273845 C73.96118471 355.50181432 73.9630159 360.30083076 73.97386336 365.09989583 C74.0274053 390.03156028 73.96443164 414.93313078 69.61045241 439.57202756 C69.3987239 440.7972009 69.18699538 442.02237424 68.96885085 443.28467405 C55.02966788 521.12158147 22.82315002 595.39214443 -28.26454759 656.07202756 C-28.66686601 656.55585905 -29.06918443 657.03969053 -29.48369431 657.53818357 C-36.90636306 666.45399059 -44.72538273 674.84963016 -52.9557097 683.02393186 C-54.83643287 684.89385897 -56.70611578 686.77435395 -58.57509446 688.65601194 C-64.78590418 694.87325112 -71.04601883 700.78802769 -77.9569304 706.22974241 C-80.21303255 708.03090056 -82.3361813 709.92176381 -84.45204759 711.88452756 C-103.1385444 728.54909976 -125.47375945 742.80153913 -147.26454759 755.07202756 C-148.03943528 755.51143674 -148.81432298 755.95084592 -149.61269212 756.40357053 C-213.75997741 792.60332501 -287.30702254 815.39168589 -361.09975266 819.180426 C-361.89752928 819.22235059 -362.6953059 819.26427517 -363.51725757 819.3074702 C-385.47755775 820.43037637 -407.45043496 820.3659591 -429.4334774 820.34067857 C-435.3482639 820.3355173 -441.26304506 820.34033532 -447.17783189 820.3434509 C-457.06002024 820.34705173 -466.94217832 820.34238459 -476.82436204 820.33276975 C-488.24493993 820.3217865 -499.66544695 820.32549697 -511.08602327 820.33642256 C-520.95257819 820.34548152 -530.81911175 820.34679073 -540.68566948 820.34154522 C-546.55436286 820.33843136 -552.42302274 820.33800234 -558.29171395 820.3446182 C-563.77586446 820.3503743 -569.25992222 820.34642698 -574.74406266 820.33482969 C-576.75691726 820.33217831 -578.76977962 820.33295629 -580.78263116 820.33735502 C-583.52094731 820.34279037 -586.2589626 820.3360022 -588.99725938 820.32599485 C-589.79915419 820.33045629 -590.601049 820.33491774 -591.42724365 820.33951437 C-595.24270785 820.31230947 -597.01141473 820.2407828 -600.26454759 818.07202756 C-600.63303238 815.51479989 -600.63303238 815.51479989 -600.62366033 812.20215356 C-600.62738347 810.94359975 -600.63110662 809.68504593 -600.63494259 808.38835412 C-600.62383408 806.97850202 -600.61244486 805.56865211 -600.60080552 804.1588043 C-600.59941631 802.67092076 -600.59934156 801.1830355 -600.60047477 799.69515175 C-600.59973097 795.59029159 -600.58011134 791.48570082 -600.55751956 787.38091063 C-600.53641522 782.9583438 -600.53256249 778.53575843 -600.52657151 774.11315 C-600.51202759 765.43408971 -600.48130052 756.75515728 -600.44511817 748.07616311 C-600.40343015 737.94687509 -600.37710892 727.8175647 -600.35129186 717.68822593 C-600.30455669 699.57937333 -600.24297654 681.47060072 -600.17348313 663.36182249 C-600.10628367 645.8491483 -600.05056697 628.33648681 -600.00746751 610.82373655 C-599.9604738 591.73635291 -599.90744427 572.64900477 -599.84376854 553.56166881 C-599.83694547 551.51568389 -599.83012251 549.46969897 -599.82329965 547.42371404 C-599.81824817 545.91406772 -599.81824817 545.91406772 -599.81309465 544.37392349 C-599.78990854 537.34318781 -599.77068089 530.31244788 -599.75289941 523.28169668 C-599.73091766 514.66789511 -599.70167912 506.05415035 -599.66392014 497.44040304 C-599.64486027 493.05969655 -599.62852284 488.67903476 -599.6207087 484.29829252 C-599.56844303 456.90908143 -598.99746984 429.45645433 -595.45204759 402.25952756 C-595.32557847 401.26289594 -595.32557847 401.26289594 -595.19655442 400.24613035 C-586.14082008 329.03389604 -562.47688667 260.25173634 -521.26454759 201.07202756 C-520.86171556 200.49049924 -520.45888352 199.90897092 -520.04384446 199.30982053 C-507.86059922 181.78313135 -494.34090256 165.33343291 -479.79482102 149.71997678 C-478.10261516 147.89764278 -476.42180751 146.06513479 -474.74111009 144.23218381 C-463.95987825 132.51589659 -463.95987825 132.51589659 -458.44423509 127.93530881 C-455.96845224 125.8189138 -453.60608594 123.60194162 -451.23476243 121.36987913 C-445.12600163 115.62483127 -438.94709018 110.1493641 -432.26454759 105.07202756 C-431.57651048 104.5438342 -430.88847337 104.01564085 -430.17958665 103.47144163 C-413.85415573 90.95369139 -397.08024902 79.36645617 -379.26454759 69.07202756 C-378.62742845 68.69932737 -377.99030931 68.32662717 -377.33388352 67.94263303 C-300.68255709 23.27653513 -211.13532011 3.13568833 -101.66298509 0.51343381 C-100.32935999 0.49219985 -98.99573547 0.47092915 -97.66211152 0.44962347 C-65.10907818 -0.06332243 -32.55619525 -0.04735591 0 0 Z M-121.32900071 167.19067991 C-159.73762401 169.05264659 -196.81473403 177.00138055 -233.26454759 189.07202756 C-234.16254075 189.36690061 -235.06053391 189.66177366 -235.98573899 189.96558225 C-270.62155031 201.49936943 -301.96821664 220.34183877 -328.85439134 244.88452756 C-331.19036013 247.00469373 -333.56781634 249.06900066 -335.95204759 251.13452756 C-339.4178648 254.2118819 -342.49485225 257.44016818 -345.47939134 260.98218381 C-346.68669842 262.39555206 -347.93062629 263.77831223 -349.20595384 265.13062131 C-400.52654448 319.66465594 -420.20734812 394.428289 -421.82704759 467.47437131 C-421.84711617 468.34297788 -421.86718476 469.21158445 -421.88786149 470.10651243 C-422.56770501 500.65181407 -422.48788617 531.21428478 -422.50336504 561.76556391 C-422.50383262 562.67139418 -422.50430021 563.57722445 -422.50478196 564.51050413 C-422.50525017 565.41806925 -422.50571839 566.32563438 -422.50620079 567.26070148 C-422.51128155 574.72851018 -422.53151315 582.19622923 -422.55444288 589.66400135 C-422.57599999 596.94044178 -422.58614207 604.21684163 -422.58748341 611.49331367 C-422.58852853 615.80819845 -422.5943838 620.12294547 -422.61230302 624.437796 C-422.62869653 628.45696767 -422.63098239 632.47589587 -422.62216401 636.49508893 C-422.62139105 637.96774927 -422.62577027 639.44042247 -422.63562226 640.91305006 C-422.64825378 642.91745982 -422.64070551 644.92196685 -422.63204026 646.92639768 C-422.63350682 648.04767812 -422.63497338 649.16895856 -422.63648438 650.3242172 C-422.48788486 653.08405104 -422.48788486 653.08405104 -420.88253999 654.93630826 C-418.62711961 656.51945813 -417.10286809 656.39223852 -414.36611009 656.30249631 C-413.38287766 656.27462034 -412.39964524 656.24674436 -411.3866179 656.21802366 C-410.3563347 656.16984495 -409.32605149 656.12166624 -408.26454759 656.07202756 C-407.27809251 656.03287229 -406.29163743 655.99371702 -405.27528977 655.95337522 C-334.48541056 652.6326204 -260.41668569 632.00470377 -205.26454759 586.07202756 C-204.73893235 585.6366467 -204.21331712 585.20126585 -203.67177415 584.75269163 C-191.31989424 574.48646857 -180.24203996 563.70239834 -170.26454759 551.07202756 C-169.32149531 549.92823318 -168.37605343 548.78640609 -167.42861009 547.64624631 C-155.52489424 533.22733442 -146.01771138 517.56193077 -137.26454759 501.07202756 C-136.90763841 500.40348752 -136.55072923 499.73494749 -136.18300462 499.04614866 C-113.15454612 455.57438976 -105.15643984 406.92985065 -103.71254563 358.21607053 C-103.6916309 357.51918048 -103.67071617 356.82229043 -103.64916766 356.1042825 C-103.12482241 338.23746287 -103.09992057 320.37005057 -103.09729052 302.4968766 C-103.09656829 299.72690011 -103.09441319 296.95692826 -103.0917933 294.18695295 C-103.08264509 284.49646039 -103.07844745 274.80598133 -103.07924485 265.1154846 C-103.07985199 256.11200908 -103.06915059 247.10859223 -103.05350119 238.10513163 C-103.04045413 230.31934303 -103.03505933 222.53357381 -103.03570026 214.74777436 C-103.03595486 210.11978518 -103.03312082 205.49184914 -103.02252221 200.86387098 C-103.01288227 196.54118506 -103.01273346 192.21860393 -103.02003884 187.89591444 C-103.02108781 186.31038864 -103.0187034 184.7248564 -103.01267838 183.13934171 C-103.00500362 180.98096524 -103.00957175 178.82295549 -103.01730943 176.66458738 C-103.01676466 175.45657531 -103.01621989 174.24856325 -103.01565862 173.00394475 C-103.04334628 169.88130202 -103.04334628 169.88130202 -105.26454759 167.07202756 C-107.97322662 166.67779859 -107.97322662 166.67779859 -111.12392259 166.84155881 C-112.29890306 166.86943479 -113.47388352 166.89731077 -114.68446946 166.92603147 C-116.89922849 167.01634966 -119.1140605 167.10491979 -121.32900071 167.19067991 Z " fill="#2573CC" transform="translate(2039.264547586441,-0.07202756404876709)"/>
<path d="M0 0 C24.37739403 -0.04708472 48.75478107 -0.08216502 73.13221169 -0.10362434 C84.45550701 -0.11386083 95.7787738 -0.12777175 107.10205078 -0.15087891 C116.99147069 -0.1710501 126.8808699 -0.18377153 136.77030981 -0.18817699 C141.98844622 -0.19074502 147.20652353 -0.19661339 152.42464066 -0.21146011 C172.53639798 -0.26633142 192.60145314 -0.17212901 212.68896484 0.90283203 C213.4418111 0.94284324 214.19465735 0.98285446 214.97031713 1.02407813 C266.03061941 3.81744508 316.49146802 12.71343772 365 29 C366.08071777 29.36206543 367.16143555 29.72413086 368.27490234 30.09716797 C389.12690736 37.16429838 409.39605533 45.76255744 428.93017578 55.92822266 C431.24659775 57.12769098 433.57432978 58.30366555 435.90234375 59.48046875 C461.25702216 72.40066886 484.90617493 88.08007136 507 106 C507.96164062 106.76828125 508.92328125 107.5365625 509.9140625 108.328125 C515.52305739 112.84692089 520.90861751 117.55788305 526.19921875 122.4453125 C528.3195 124.37929288 530.46254106 126.25467962 532.640625 128.12109375 C537.50636883 132.36622745 542.06471583 136.91422647 546.6184082 141.48803711 C548.06025221 142.93524385 549.50737116 144.37702026 550.95507812 145.81835938 C556.18225114 151.04105535 561.23557349 156.35063612 566 162 C566.54052002 162.63381592 567.08104004 163.26763184 567.63793945 163.9206543 C625.57268775 232.22077972 660.39760082 318.99066539 670.25 407.6875 C670.33317474 408.43500519 670.41634949 409.18251038 670.50204468 409.95266724 C672.23147044 425.7178925 673.15375324 441.37714265 673.12025452 457.2364502 C673.12069187 458.805309 673.12156978 460.37416772 673.12284368 461.94302607 C673.12505643 466.20527936 673.12111206 470.46750703 673.11606562 474.72975707 C673.11171451 479.34437919 673.11321083 483.95900006 673.1139679 488.57362366 C673.11449019 496.55260048 673.11137421 504.53156907 673.10573006 512.51054382 C673.09757507 524.0465552 673.09499575 535.58256264 673.09374207 547.11857659 C673.09155781 565.83865617 673.08491475 584.55873138 673.07543945 603.27880859 C673.0662491 621.45491514 673.05917622 639.6310205 673.05493164 657.80712891 C673.05466892 658.92902266 673.05440619 660.05091642 673.05413551 661.20680696 C673.0528304 666.83547166 673.05156671 672.46413638 673.05032361 678.09280109 C673.03997051 724.72853709 673.02236929 771.36426832 673 818 C671.43081161 818.0010574 671.43081161 818.0010574 669.82992244 818.00213617 C668.77257331 818.00284873 668.77257331 818.00284873 667.69386359 818.00357569 C666.07030434 818.00466965 664.44674509 818.00576326 662.82318585 818.00685659 C658.12630155 818.01002007 653.42941726 818.01319006 648.73253298 818.01637042 C639.22623573 818.02280078 629.71993845 818.02918467 620.21364103 818.03536374 C614.87106503 818.03883751 609.52848905 818.04234392 604.18591309 818.04586792 C603.13066532 818.04656337 602.07541756 818.04725882 600.98819259 818.04797534 C587.55004001 818.05689039 574.1118922 818.06762964 560.67374372 818.08142221 C552.61314508 818.08946041 544.55255027 818.09388945 536.49194765 818.09499133 C531.7284094 818.09576128 526.96488859 818.09865975 522.20135498 818.10557556 C500.8461508 818.1350981 479.50214276 818.03288524 458.15136719 817.56811523 C456.79386659 817.5401084 456.79386659 817.5401084 455.40894175 817.51153576 C373.47168027 815.77413229 290.6390756 793.18225182 180 726 C179.29053223 725.4730957 178.58106445 724.94619141 177.85009766 724.40332031 C165.47353684 715.16953462 153.66087703 705.42064681 142.2421875 695.0234375 C140.29539507 693.26657604 138.31464118 691.56779748 136.3125 689.875 C127.6394417 682.3170492 119.24663539 673.97442986 111.8359375 665.171875 C110.32484635 663.38428632 108.78730053 661.63443171 107.2265625 659.890625 C48.82897188 594.27148593 10.87945987 505.3515358 -0.12025452 379.88401794 C-0.12069189 378.23180009 -0.12156983 376.57958231 -0.12284368 374.92736489 C-0.1250561 370.43933995 -0.12111253 365.95133935 -0.11606562 361.46331751 C-0.11171401 356.60399357 -0.11321086 351.7446708 -0.1139679 346.88534546 C-0.11449016 338.48349627 -0.11137451 330.08165489 -0.10573006 321.67980766 C-0.09757465 309.53241051 -0.09499571 297.3850171 -0.09374207 285.2376175 C-0.09155788 265.52535289 -0.084915 245.81309243 -0.07543945 226.10083008 C-0.06624893 206.96150737 -0.05917613 187.8221858 -0.05493164 168.68286133 C-0.05466892 167.50149038 -0.05440619 166.32011944 -0.05413551 165.10294937 C-0.05283039 159.17587388 -0.0515667 153.24879837 -0.05032361 147.32172287 C-0.03997072 98.21447904 -0.02236967 49.10723972 0 0 Z M178 165 C177.90594181 191.3676661 177.83572305 217.73530651 177.79275131 244.10310745 C177.77225535 256.35020862 177.74438762 268.59720467 177.69824219 280.84423828 C177.65797221 291.53715717 177.63247344 302.22999983 177.62364602 312.92299247 C177.61849813 318.56814518 177.606681 324.2130801 177.57707977 329.85816193 C177.23156481 398.47804992 186.44555897 466.97677251 226 525 C226.43554199 525.64501465 226.87108398 526.2900293 227.31982422 526.95458984 C233.32339733 535.79260655 239.96108492 543.9704228 247 552 C247.71542969 552.82757812 248.43085938 553.65515625 249.16796875 554.5078125 C259.20585569 565.92049446 269.95660658 576.71390981 282 586 C283.24030067 586.99129063 284.47982877 587.98354837 285.71875 588.9765625 C339.25244293 631.43343275 414.58594417 653.14513446 482.625 653.1875 C483.69878906 653.19974609 484.77257812 653.21199219 485.87890625 653.22460938 C486.90113281 653.22654297 487.92335938 653.22847656 488.9765625 653.23046875 C490.35448975 653.23663208 490.35448975 653.23663208 491.76025391 653.24291992 C494.20315154 653.21467474 494.20315154 653.21467474 496 651 C496.30563161 648.18463339 496.30563161 648.18463339 496.25396729 644.82518005 C496.25708727 644.18425779 496.26020725 643.54333552 496.26342177 642.88299137 C496.27143211 640.72325305 496.26506503 638.56379343 496.25878906 636.40405273 C496.26149884 634.85766434 496.2650597 633.31127723 496.26940918 631.76489258 C496.27857271 627.54074948 496.27496335 623.31670355 496.26865101 619.09255862 C496.26356918 614.62713795 496.2682924 610.16172534 496.27142334 605.69630432 C496.27507433 598.14590994 496.27025274 590.59555448 496.26074219 583.04516602 C496.25120875 575.39084301 496.25096781 567.73659809 496.26074219 560.08227539 C496.42124833 508.64091805 496.42124833 508.64091805 495.09765625 457.22265625 C495.03820957 455.78989255 495.03820957 455.78989255 494.97756195 454.32818413 C494.27485721 438.081396 492.71749179 422.04524255 490 406 C489.82098145 404.92041016 489.64196289 403.84082031 489.45751953 402.72851562 C482.71855146 363.17239617 468.68658698 323.66442444 445 291 C444.30438965 290.03271973 444.30438965 290.03271973 443.59472656 289.04589844 C433.23306678 274.71123083 421.89875807 261.72579522 409.4375 249.1875 C408.95453461 248.69917694 408.47156921 248.21085388 407.97396851 247.70773315 C401.33369953 241.01166242 394.42877203 234.81588411 387 229 C386.34684814 228.48751709 385.69369629 227.97503418 385.02075195 227.44702148 C371.03040757 216.65010398 355.97687409 207.45680452 339.98779297 199.93847656 C338.68279301 199.32236015 337.38212171 198.69697319 336.08642578 198.06152344 C298.59691927 179.68263736 255.78268427 170.55765431 214.5625 166.1875 C213.42828613 166.06342773 212.29407227 165.93935547 211.12548828 165.81152344 C203.56883425 165.08304179 196.10670891 164.9389554 188.51928711 164.9699707 C187.5046917 164.97213844 186.49009628 164.97430618 185.44475555 164.97653961 C182.96315584 164.98215564 180.48158539 164.99002824 178 165 Z " fill="#2573CC" transform="translate(0,2)"/>
<path d="M0 0 C0.33 0 0.66 0 1 0 C1.33 120.12 1.66 240.24 2 364 C37.43375 363.9175 72.8675 363.835 109.375 363.75 C126.02976807 363.72631348 126.02976807 363.72631348 143.02099609 363.70214844 C153.15389428 363.66884513 153.15389428 363.66884513 163.28677368 363.63043213 C167.72829559 363.61372906 172.16968405 363.60755455 176.61123657 363.60845947 C216.93997202 363.60793052 256.33133977 361.35421457 295.9251709 353.41467285 C298.04703352 352.99059994 300.17029766 352.57421428 302.29394531 352.15917969 C319.02036943 348.87645435 335.37581007 345.04975004 351.60107422 339.75830078 C353.76679095 339.07371742 355.933954 338.45373431 358.12890625 337.87109375 C420.69233424 321.19733169 482.15997013 283.53727789 529.265625 239.55078125 C531.85152538 237.13850561 534.47906102 234.78351112 537.125 232.4375 C544.2503276 226.03271114 551.0247241 219.3168836 557.24609375 212.02734375 C558.46225179 210.62158423 559.70676501 209.24005267 560.97265625 207.87890625 C567.65130603 200.69117609 573.53695116 192.96747089 579.40966797 185.12109375 C580.8589679 183.18810053 582.32042537 181.26505465 583.78515625 179.34375 C595.52617598 163.80233059 605.7236796 147.16026023 614.91796875 130.00390625 C615.91508847 128.15725492 616.93612087 126.32695923 617.96875 124.5 C627.47453048 107.35842864 635.34152371 89.13697547 641.50195312 70.53881836 C641.79134766 69.68811768 642.08074219 68.83741699 642.37890625 67.9609375 C642.6219751 67.21634277 642.86504395 66.47174805 643.11547852 65.70458984 C644 64 644 64 647 63 C647.68003 70.6666396 645.30086245 76.51973536 642.4375 83.5625 C641.95007324 84.77832764 641.46264648 85.99415527 640.96044922 87.24682617 C626.18250622 123.64360543 606.7965501 157.74443494 583 189 C582.56123535 189.57766113 582.1224707 190.15532227 581.67041016 190.75048828 C570.773383 205.02674677 558.97468161 218.37337564 546.23339844 231.02734375 C544.36153375 232.88838841 542.50074273 234.76003428 540.640625 236.6328125 C534.44671286 242.83315913 528.20145058 248.72799996 521.30981445 254.15551758 C519.05313807 255.95756705 516.92911252 257.84906339 514.8125 259.8125 C496.12600319 276.4770722 473.79078814 290.72951156 452 303 C451.2251123 303.43940918 450.45022461 303.87881836 449.65185547 304.33154297 C385.50457018 340.53129745 311.95752504 363.31965833 238.16479492 367.10839844 C237.3670183 367.15032302 236.56924168 367.19224761 235.74729002 367.23544264 C213.78698984 368.35834881 191.81411262 368.29393154 169.83107018 368.26865101 C163.91628369 368.26348974 158.00150252 368.26830776 152.0867157 368.27142334 C142.20452735 368.27502417 132.32236927 368.27035703 122.44018555 368.26074219 C111.01960765 368.24975894 99.59910064 368.25346941 88.17852432 368.264395 C78.3119694 368.27345396 68.44543583 368.27476316 58.5788781 368.26951766 C52.71018473 368.26640379 46.84152485 368.26597478 40.97283363 368.27259064 C35.48868312 368.27834674 30.00462536 368.27439942 24.52048492 368.26280212 C22.50763033 368.26015075 20.49476796 368.26092873 18.48191643 368.26532745 C15.74360028 368.27076281 13.00558499 368.26397464 10.26728821 368.25396729 C9.4653934 368.25842873 8.66349859 368.26289017 7.83730394 368.26748681 C4.02183974 368.24028191 2.25313285 368.16875523 -1 366 C-1.36618346 363.4048003 -1.36618346 363.4048003 -1.35352612 360.0379467 C-1.35601587 358.75904182 -1.35850561 357.48013695 -1.36107081 356.16247737 C-1.34858076 354.72988776 -1.33581368 353.29730053 -1.32279968 351.86471558 C-1.31997963 350.35331438 -1.3184795 348.84191024 -1.31819278 347.33050644 C-1.31355172 343.1619256 -1.29007418 338.99362649 -1.26365387 334.82513452 C-1.23845308 330.33572297 -1.23053146 325.84627803 -1.22055054 321.35681152 C-1.20086319 313.5734267 -1.17013837 305.79014753 -1.13199425 298.00683212 C-1.0768596 286.75336669 -1.03825078 275.49989274 -1.003723 264.24634744 C-0.94725807 245.9898624 -0.87735972 227.73345433 -0.79907227 209.47705078 C-0.72303536 191.73879078 -0.65328858 174.00052453 -0.59204102 156.26220703 C-0.58826585 155.1694921 -0.58449068 154.07677716 -0.58060112 152.95094965 C-0.56170185 147.46932119 -0.54292667 141.98769232 -0.52421319 136.50606322 C-0.36871506 91.00396168 -0.19144064 45.50196356 0 0 Z " fill="#327BCF" transform="translate(1440,452)"/>
<path d="M0 0 C-7.08785334 18.84672505 -21.31405882 38.5776908 -39.625 47.5 C-51.62189839 51.71410038 -62.94864861 49.25294335 -74.234375 44.53125 C-84.78062865 40.12002512 -95.7277339 39.41963507 -107 39 C-103.50091173 34.995794 -99.42115835 32.75181517 -94.8125 30.25 C-94.01295898 29.81316895 -93.21341797 29.37633789 -92.38964844 28.92626953 C-65.10329296 14.17616205 -31.55670462 0 0 0 Z " fill="#2673CC" transform="translate(835,195)"/>
<path d="M0 0 C3.68452526 1.23702361 5.63161029 3.601753 8.0859375 6.47265625 C8.56998047 7.01986328 9.05402344 7.56707031 9.55273438 8.13085938 C10.94995965 9.71463008 12.33215662 11.31032938 13.7109375 12.91015625 C14.87743282 14.24363949 16.04407131 15.57699753 17.2109375 16.91015625 C17.7471875 17.52890625 18.2834375 18.14765625 18.8359375 18.78515625 C21.25643825 21.52839043 23.73294392 24.21900193 26.2109375 26.91015625 C29.81106506 30.8199722 33.35511355 34.76882093 36.8359375 38.78515625 C39.25643858 41.52839081 41.7329616 44.21898531 44.2109375 46.91015625 C47.83183884 50.84300466 51.40052675 54.81229637 54.90234375 58.8515625 C57.14105 61.39972275 59.42503962 63.90426218 61.7109375 66.41015625 C64.55617978 69.52922636 67.3829333 72.65771016 70.1484375 75.84765625 C73.57862326 79.79682992 77.12097268 83.6403793 80.66381836 87.48803711 C83.77693049 90.87478244 86.82345832 94.30921874 89.8359375 97.78515625 C92.25643825 100.52839043 94.73294392 103.21900193 97.2109375 105.91015625 C100.81106506 109.8199722 104.35511355 113.76882093 107.8359375 117.78515625 C110.25643825 120.52839043 112.73294392 123.21900193 115.2109375 125.91015625 C118.81106506 129.8199722 122.35511355 133.76882093 125.8359375 137.78515625 C128.25643825 140.52839043 130.73294392 143.21900193 133.2109375 145.91015625 C136.81106506 149.8199722 140.35511355 153.76882093 143.8359375 157.78515625 C146.25643825 160.52839043 148.73294392 163.21900193 151.2109375 165.91015625 C154.81106506 169.8199722 158.35511355 173.76882093 161.8359375 177.78515625 C164.25643825 180.52839043 166.73294392 183.21900193 169.2109375 185.91015625 C172.81106506 189.8199722 176.35511355 193.76882093 179.8359375 197.78515625 C182.25643825 200.52839043 184.73294392 203.21900193 187.2109375 205.91015625 C190.81106506 209.8199722 194.35511355 213.76882093 197.8359375 217.78515625 C200.73013086 221.06524206 203.70312642 224.27283682 206.66625977 227.49047852 C209.19833866 230.24489053 211.70129018 233.01758124 214.1484375 235.84765625 C217.74354302 239.99585493 221.47999028 244.00886248 225.21166992 248.03369141 C229.44250507 252.60275225 233.60090393 257.23197098 237.7109375 261.91015625 C236.7209375 262.24015625 235.7309375 262.57015625 234.7109375 262.91015625 C229.45960695 259.40926922 225.91829004 254.57825188 222.0078125 249.68359375 C219.3788971 246.50922311 216.54903036 243.65925932 213.59765625 240.7890625 C211.15962895 238.36113056 208.93425266 235.78302604 206.69140625 233.17578125 C204.24487899 230.37699267 201.73013472 227.64329171 199.2109375 224.91015625 C195.56654283 220.95176973 191.97179472 216.95838219 188.4453125 212.89453125 C184.91593036 208.85640934 181.30459524 204.89100944 177.7109375 200.91015625 C176.21065071 199.24374774 174.71064878 197.57708272 173.2109375 195.91015625 C172.4684375 195.08515625 171.7259375 194.26015625 170.9609375 193.41015625 C168.7109375 190.91015625 166.4609375 188.41015625 164.2109375 185.91015625 C163.46585938 185.08257813 162.72078125 184.255 161.953125 183.40234375 C160.47801132 181.76275746 159.00402098 180.1221597 157.53125 178.48046875 C153.4099594 173.88984968 149.26216886 169.32571381 145.0859375 164.78515625 C141.50764893 160.89342307 137.98262262 156.963347 134.51953125 152.96875 C132.280825 150.42058975 129.99683538 147.91605032 127.7109375 145.41015625 C124.86569522 142.29108614 122.0389417 139.16260234 119.2734375 135.97265625 C115.84325174 132.02348258 112.30090232 128.1799332 108.75805664 124.33227539 C105.64494451 120.94553006 102.59841668 117.51109376 99.5859375 114.03515625 C96.69174414 110.75507044 93.71874858 107.54747568 90.75561523 104.32983398 C88.22353634 101.57542197 85.72058482 98.80273126 83.2734375 95.97265625 C80.16129455 92.38056836 76.94217915 88.89467343 73.7109375 85.41015625 C69.88048674 81.27872471 66.09831096 77.11905974 62.41015625 72.859375 C58.89687712 68.82919964 55.29347416 64.87869013 51.7109375 60.91015625 C50.21065071 59.24374774 48.71064878 57.57708272 47.2109375 55.91015625 C46.0971875 54.67265625 46.0971875 54.67265625 44.9609375 53.41015625 C20.2109375 25.91015625 20.2109375 25.91015625 17.98046875 23.4296875 C16.41821549 21.69534439 14.85293327 19.96372646 13.28515625 18.234375 C12.49753906 17.36425781 11.70992187 16.49414062 10.8984375 15.59765625 C10.19074219 14.81777344 9.48304688 14.03789063 8.75390625 13.234375 C6.7109375 10.91015625 6.7109375 10.91015625 4.76171875 8.1796875 C2.88317509 5.78704975 2.88317509 5.78704975 0.2890625 4.85546875 C-3.39117044 4.9335343 -4.78487959 6.39336583 -7.5390625 8.78515625 C-8.97765625 10.03232422 -8.97765625 10.03232422 -10.4453125 11.3046875 C-17.16368768 17.4601219 -23.45889193 23.90711934 -29.2890625 30.91015625 C-29.72089844 31.42819824 -30.15273438 31.94624023 -30.59765625 32.47998047 C-36.30587942 39.36581472 -41.7845842 46.36792285 -46.7890625 53.78515625 C-47.18585205 54.366604 -47.5826416 54.94805176 -47.99145508 55.54711914 C-50.50418912 59.35626271 -52.3733868 63.23879592 -54.16796875 67.42822266 C-55.88251034 71.22396085 -57.88515281 74.85565723 -59.85717773 78.52246094 C-72.13486808 101.42750902 -80.21472279 125.01272692 -85.0390625 150.53515625 C-85.23781982 151.58203613 -85.43657715 152.62891602 -85.64135742 153.70751953 C-88.51746829 169.76097674 -89.58962858 185.76312287 -89.703125 202.046875 C-89.7219069 203.79092756 -89.74148504 205.5349717 -89.7618103 207.27900696 C-89.81239798 211.79801389 -89.85240826 216.31705006 -89.88995361 220.83618164 C-89.93046252 225.47614325 -89.98133688 230.11599109 -90.03125 234.75585938 C-90.12713636 243.8072109 -90.21181043 252.85862779 -90.2890625 261.91015625 C-91.2790625 262.24015625 -92.2690625 262.57015625 -93.2890625 262.91015625 C-93.33587441 252.72904364 -93.37117537 242.54795758 -93.39268684 232.36675835 C-93.4030231 227.63671887 -93.4169908 222.90675424 -93.43994141 218.17675781 C-93.67123527 169.11433866 -93.67123527 169.11433866 -88.5390625 144.78515625 C-88.14219238 142.87162354 -88.14219238 142.87162354 -87.73730469 140.91943359 C-76.68585913 88.98550529 -49.70362239 46.38680315 -12.6640625 9.16015625 C-11.8692749 8.36061523 -11.0744873 7.56107422 -10.25561523 6.73730469 C-9.51126221 5.99512695 -8.76690918 5.25294922 -8 4.48828125 C-7.33274902 3.8221582 -6.66549805 3.15603516 -5.97802734 2.46972656 C-3.85400222 0.5084267 -2.91658961 -0.11447365 0 0 Z " fill="#EBF1F9" transform="translate(959.2890625,554.08984375)"/>
<path d="M0 0 C8.07611101 0.01153344 16.15222332 0.01676257 24.22834063 0.02170396 C40.73072093 0.03192994 57.23308445 0.04930733 73.73545241 0.07202756 C73.40545241 1.06202756 73.07545241 2.05202756 72.73545241 3.07202756 C71.32081521 3.07837547 71.32081521 3.07837547 69.87759948 3.08485162 C46.80161588 3.18860119 23.72566025 3.29741411 0.64972472 3.41136682 C-10.51016636 3.46636207 -21.67006061 3.51978386 -32.82997727 3.56934202 C-42.57062696 3.61260177 -52.31125631 3.65897611 -62.05187416 3.70890611 C-67.19699997 3.73517593 -72.34212263 3.76001173 -77.4872725 3.78110158 C-121.05537208 3.95559676 -121.05537208 3.95559676 -164.51454759 6.82202756 C-165.41911698 6.90784086 -166.32368638 6.99365415 -167.25566697 7.08206785 C-262.73767525 16.2083586 -356.45536111 48.32371896 -431.71669602 108.82837522 C-433.17839027 110.00280274 -434.64704288 111.16855465 -436.11611009 112.33374631 C-442.33192816 117.32252249 -448.20824987 122.60840607 -454.02236009 128.05249631 C-456.05820252 129.95845563 -458.11235785 131.82827432 -460.19423509 133.68530881 C-479.01467149 150.49109146 -495.22964976 169.87569693 -510.26454759 190.07202756 C-511.08705003 191.17103391 -511.08705003 191.17103391 -511.92616868 192.29224241 C-519.55089481 202.51452575 -526.50840164 212.98217232 -533.00331712 223.95532835 C-534.2059809 225.9737362 -535.43105717 227.97614213 -536.66689134 229.97437131 C-545.75263612 244.72238604 -552.91058371 260.41080821 -560.26454759 276.07202756 C-561.60289863 272.05697443 -560.51688523 270.89913572 -558.68642259 267.13843381 C-558.26329789 266.26082395 -558.26329789 266.26082395 -557.83162522 265.3654846 C-556.90345168 263.44965458 -555.96001697 261.54187497 -555.01454759 259.63452756 C-554.36403649 258.30833339 -553.71364669 256.98207972 -553.06337571 255.6557678 C-541.29866948 231.76993204 -528.03216777 208.88659565 -511.64198899 187.84644163 C-510.30760525 186.12749426 -508.9921779 184.39579489 -507.68251634 182.65796506 C-498.98265261 171.14659113 -489.62929593 160.27609404 -479.79482102 149.71997678 C-478.10261516 147.89764278 -476.42180751 146.06513479 -474.74111009 144.23218381 C-463.95987825 132.51589659 -463.95987825 132.51589659 -458.44423509 127.93530881 C-455.96845224 125.8189138 -453.60608594 123.60194162 -451.23476243 121.36987913 C-445.12600163 115.62483127 -438.94709018 110.1493641 -432.26454759 105.07202756 C-431.57651048 104.5438342 -430.88847337 104.01564085 -430.17958665 103.47144163 C-413.85415573 90.95369139 -397.08024902 79.36645617 -379.26454759 69.07202756 C-378.62742845 68.69932737 -377.99030931 68.32662717 -377.33388352 67.94263303 C-300.68255709 23.27653513 -211.13532011 3.13568833 -101.66298509 0.51343381 C-100.32935999 0.49219985 -98.99573547 0.47092915 -97.66211152 0.44962347 C-65.10907818 -0.06332243 -32.55619525 -0.04735591 0 0 Z " fill="#F6F9FC" transform="translate(2039.264547586441,-0.07202756404876709)"/>
<path d="M0 0 C-0.54653125 6.61395444 -2.82207916 12.26059401 -5.3125 18.375 C-5.7554541 19.46989746 -6.1984082 20.56479492 -6.65478516 21.69287109 C-11.59325083 33.71180825 -17.17886099 45.38748811 -23 57 C-23.49258301 57.98774414 -23.98516602 58.97548828 -24.49267578 59.99316406 C-34.95267293 80.85794228 -46.98907212 100.33863648 -61 119 C-61.67458252 119.90419678 -61.67458252 119.90419678 -62.36279297 120.82666016 C-68.58903963 129.15111187 -75.15153427 137.18069131 -82 145 C-82.61230469 145.70133057 -83.22460938 146.40266113 -83.85546875 147.12524414 C-90.00623756 154.06968342 -96.47995894 160.66613626 -103.03759766 167.22290039 C-104.87042269 169.05791722 -106.6950701 170.9008125 -108.51953125 172.74414062 C-115.37333997 179.63030484 -122.35917551 185.98580044 -130 192 C-131.83609142 193.55925805 -133.67004964 195.12103933 -135.5 196.6875 C-192.07823482 243.78742228 -262.37513174 275.28545872 -334 291 C-335.01384766 291.22284668 -336.02769531 291.44569336 -337.07226562 291.67529297 C-371.40500973 299.11114031 -405.86814367 302.6456236 -441 302 C-441 301.67 -441 301.34 -441 301 C-439.42593384 300.89510254 -439.42593384 300.89510254 -437.82006836 300.78808594 C-404.01396417 298.50869033 -370.98124304 294.6362513 -337.78515625 287.78125 C-334.70257884 287.14501111 -331.61783225 286.5226034 -328.53125 285.90625 C-318.32634575 283.81268243 -308.43429883 280.82224392 -298.5 277.703125 C-295.28387391 276.69479039 -292.06994446 275.72483328 -288.8125 274.859375 C-226.26633696 258.13538212 -164.84181857 220.53894815 -117.734375 176.55078125 C-115.14847462 174.13850561 -112.52093898 171.78351112 -109.875 169.4375 C-102.7496724 163.03271114 -95.9752759 156.3168836 -89.75390625 149.02734375 C-88.53774821 147.62158423 -87.29323499 146.24005267 -86.02734375 144.87890625 C-79.34869397 137.69117609 -73.46304884 129.96747089 -67.59033203 122.12109375 C-66.1410321 120.18810053 -64.67957463 118.26505465 -63.21484375 116.34375 C-51.47382402 100.80233059 -41.2763204 84.16026023 -32.08203125 67.00390625 C-31.08491153 65.15725492 -30.06387913 63.32695923 -29.03125 61.5 C-19.51502404 44.33959252 -11.72556447 26.10311423 -5.41015625 7.53881836 C-4.97123047 6.26276733 -4.97123047 6.26276733 -4.5234375 4.9609375 C-4.150979 3.84404541 -4.150979 3.84404541 -3.77099609 2.70458984 C-2.92324054 0.83029305 -2.18655975 0 0 0 Z " fill="#EAF1F9" transform="translate(2087,515)"/>
<path d="M0 0 C3.63740794 1.21422144 5.53594185 3.50515506 7.953125 6.33984375 C8.43056152 6.88044434 8.90799805 7.42104492 9.39990234 7.97802734 C10.37689828 9.08507265 11.3494188 10.19608402 12.31738281 11.31103516 C14.29079996 13.57719671 16.31033586 15.80069573 18.328125 18.02734375 C19.7867532 19.65207908 21.24508858 21.27707734 22.703125 22.90234375 C24.20283628 24.56927022 25.70283821 26.23593524 27.203125 27.90234375 C54.203125 57.90234375 54.203125 57.90234375 56.4453125 60.39453125 C57.97020744 62.08827269 59.49627902 63.78095544 61.0234375 65.47265625 C64.40225208 69.21798631 67.77208465 72.96752582 71.078125 76.77734375 C74.48791653 80.69228958 77.99652463 84.51411771 81.51074219 88.33496094 C85.94509503 93.15781286 90.32815401 98.02558398 94.703125 102.90234375 C96.20283628 104.56927022 97.70283821 106.23593524 99.203125 107.90234375 C117.203125 127.90234375 117.203125 127.90234375 119.4453125 130.39453125 C120.97020744 132.08827269 122.49627902 133.78095544 124.0234375 135.47265625 C127.40225208 139.21798631 130.77208465 142.96752582 134.078125 146.77734375 C137.53231804 150.74564924 141.09443058 154.61246934 144.65795898 158.48217773 C147.190232 161.23672467 149.69332703 164.0095945 152.140625 166.83984375 C155.25276624 170.43192966 158.47184586 173.91786367 161.703125 177.40234375 C165.48944188 181.48535397 169.22079549 185.60004092 172.86328125 189.8125 C175.26982726 192.54605013 177.73619203 195.22345077 180.203125 197.90234375 C183.84732051 201.86091636 187.44226342 205.85411278 190.96875 209.91796875 C194.49813214 213.95609066 198.10946726 217.92149056 201.703125 221.90234375 C203.20341179 223.56875226 204.70341372 225.23541728 206.203125 226.90234375 C206.945625 227.72734375 207.688125 228.55234375 208.453125 229.40234375 C215.203125 236.90234375 215.203125 236.90234375 217.43359375 239.3828125 C218.99584701 241.11715561 220.56112923 242.84877354 222.12890625 244.578125 C222.91652344 245.44824219 223.70414063 246.31835938 224.515625 247.21484375 C225.57716797 248.38466797 225.57716797 248.38466797 226.66015625 249.578125 C228.703125 251.90234375 228.703125 251.90234375 230.65234375 254.6328125 C233.18140304 257.43163812 234.00087586 257.44678583 237.703125 257.90234375 C240.90343558 258.03670917 244.09909356 258.03287721 247.30183411 258.02259827 C248.75994516 258.0238799 248.75994516 258.0238799 250.247513 258.02518743 C253.50723114 258.02683555 256.76689792 258.02133175 260.02661133 258.01586914 C262.3622945 258.0155871 264.69797777 258.01574533 267.03366089 258.01631165 C273.37821153 258.01659896 279.72274333 258.01071288 286.06728959 258.00373769 C292.02488985 257.99812569 297.98248938 257.99711482 303.94009193 257.99608582 C315.73928034 257.99389789 327.53846183 257.98724481 339.33764648 257.9777832 C350.79858363 257.96860239 362.2595189 257.96152483 373.72045898 257.95727539 C374.42706332 257.95701267 375.13366765 257.95674994 375.86168424 257.95647926 C379.40655594 257.95517421 382.95142766 257.9539105 386.49629939 257.95266736 C415.89857905 257.94230281 445.30085195 257.92461712 474.703125 257.90234375 C474.373125 258.89234375 474.043125 259.88234375 473.703125 260.90234375 C443.39220543 261.06208559 413.08132942 261.18593895 382.77008504 261.25980106 C379.1903099 261.26855584 375.61053561 261.27761611 372.03076172 261.28686523 C371.31810327 261.28870141 370.60544482 261.29053758 369.87119067 261.2924294 C358.33694885 261.32287576 346.80295164 261.37806046 335.26885486 261.44241332 C323.43082158 261.50791032 311.59291627 261.54676282 299.75470924 261.56096321 C293.10652852 261.56970023 286.45880264 261.59155643 279.81079102 261.64245415 C273.55296467 261.68997629 267.2959211 261.70462235 261.03793144 261.69409752 C258.74174177 261.69602287 256.44552586 261.70994176 254.14949226 261.73678207 C251.01154423 261.7716641 247.876543 261.76322215 244.73852539 261.74412537 C243.83189148 261.76451526 242.92525757 261.78490515 241.9911499 261.80591291 C235.80394599 261.70427799 232.74694771 259.982333 228.34484005 255.65691429 C227.80307408 255.07790601 227.26130812 254.49889773 226.703125 253.90234375 C225.46369141 252.62037109 225.46369141 252.62037109 224.19921875 251.3125 C223.51988281 250.53777344 222.84054687 249.76304687 222.140625 248.96484375 C221.38265625 248.10632813 220.6246875 247.2478125 219.84375 246.36328125 C218.56201047 244.88974858 217.28063505 243.4158989 216 241.94140625 C212.30624787 237.69179822 208.53093958 233.53102432 204.703125 229.40234375 C200.87271932 225.27086842 197.09050023 221.11124928 193.40234375 216.8515625 C189.88906462 212.82138714 186.28566166 208.87087763 182.703125 204.90234375 C181.20283821 203.23593524 179.70283628 201.56927022 178.203125 199.90234375 C177.460625 199.07734375 176.718125 198.25234375 175.953125 197.40234375 C170.703125 191.56901042 165.453125 185.73567708 160.203125 179.90234375 C159.45933594 179.07605469 158.71554687 178.24976563 157.94921875 177.3984375 C156.461663 175.74531032 154.97467597 174.09167119 153.48828125 172.4375 C149.53288908 168.0372131 145.56445302 163.64963999 141.578125 159.27734375 C138.77555119 156.19924809 135.99344625 153.10932505 133.265625 149.96484375 C129.83543924 146.01567008 126.29308982 142.1721207 122.75024414 138.32446289 C119.63713201 134.93771756 116.59060418 131.50328126 113.578125 128.02734375 C111.15762425 125.28410957 108.68111858 122.59349807 106.203125 119.90234375 C102.60299744 115.9925278 99.05894895 112.04367907 95.578125 108.02734375 C93.15762425 105.28410957 90.68111858 102.59349807 88.203125 99.90234375 C84.60299744 95.9925278 81.05894895 92.04367907 77.578125 88.02734375 C75.15762425 85.28410957 72.68111858 82.59349807 70.203125 79.90234375 C66.60299744 75.9925278 63.05894895 72.04367907 59.578125 68.02734375 C57.15762425 65.28410957 54.68111858 62.59349807 52.203125 59.90234375 C48.60299744 55.9925278 45.05894895 52.04367907 41.578125 48.02734375 C39.15762425 45.28410957 36.68111858 42.59349807 34.203125 39.90234375 C30.60299744 35.9925278 27.05894895 32.04367907 23.578125 28.02734375 C20.6904523 24.75464803 17.72454864 21.55391639 14.76757812 18.34399414 C11.49774422 14.7878797 8.29090457 11.1856375 5.140625 7.5234375 C4.66625 6.98847656 4.191875 6.45351563 3.703125 5.90234375 C3.249375 5.31582031 2.795625 4.72929688 2.328125 4.125 C0.73720319 2.65356006 0.73720319 2.65356006 -1.57763672 3.03613281 C-5.11987065 4.16450828 -6.80765735 5.91143076 -9.4296875 8.5390625 C-9.90363449 9.01028534 -10.37758148 9.48150818 -10.8658905 9.9670105 C-12.39625176 11.49682353 -13.90986856 13.04190182 -15.421875 14.58984375 C-15.93954437 15.11399872 -16.45721375 15.63815369 -16.99057007 16.17819214 C-24.70532646 23.99295158 -31.92171604 31.94883552 -38.296875 40.90234375 C-39.20490972 42.15163768 -40.11379396 43.40031451 -41.0234375 44.6484375 C-44.89404392 49.9923848 -48.65767111 55.39794424 -52.296875 60.90234375 C-52.626875 60.24234375 -52.956875 59.58234375 -53.296875 58.90234375 C-46.97952703 46.57688861 -16.67698404 -0.70905544 0 0 Z " fill="#3474C9" transform="translate(959.296875,558.09765625)"/>
<path d="M0 0 C0.33 0 0.66 0 1 0 C1.33 120.12 1.66 240.24 2 364 C68.95655897 363.92078134 68.95655897 363.92078134 135.91308594 363.81982422 C148.84423828 363.81079102 148.84423828 363.81079102 154.89215088 363.80911255 C159.12866294 363.80724443 163.36512521 363.79973033 167.60162354 363.78884888 C173.00005986 363.77516593 178.39842342 363.77101116 183.79687548 363.77385545 C185.78152514 363.77326039 187.76617726 363.76927375 189.75081205 363.76156974 C192.42541873 363.75166698 195.09974022 363.75400346 197.77435303 363.75949097 C198.55623112 363.75366564 199.33810921 363.74784031 200.14368057 363.74183846 C204.23783399 363.76451771 206.23241628 364.11620814 210 366 C140.37 366 70.74 366 -1 366 C-0.67 245.22 -0.34 124.44 0 0 Z " fill="#3F75C7" transform="translate(1440,452)"/>
<path d="M0 0 C0.66 0.33 1.32 0.66 2 1 C1.44573174 6.05769791 -0.98096888 9.76395266 -3.5 14.0625 C-16.34136093 36.72318154 -24.38745248 60.39384669 -29.375 85.9375 C-29.73307739 87.76438354 -29.73307739 87.76438354 -30.09838867 89.62817383 C-33.13923353 106.06633229 -34.29769649 122.44125589 -34.4140625 139.13671875 C-34.4328444 140.88077131 -34.45242254 142.62481545 -34.4727478 144.36885071 C-34.52333548 148.88785764 -34.56334576 153.40689381 -34.60089111 157.92602539 C-34.64140002 162.565987 -34.69227438 167.20583484 -34.7421875 171.84570312 C-34.83807386 180.89705465 -34.92274793 189.94847154 -35 199 C-35.99 199.33 -36.98 199.66 -38 200 C-38.04681191 189.81888739 -38.08211287 179.63780133 -38.10362434 169.4566021 C-38.1139606 164.72656262 -38.1279283 159.99659799 -38.15087891 155.26660156 C-38.38217277 106.20418241 -38.38217277 106.20418241 -33.25 81.875 C-32.98541992 80.59931152 -32.72083984 79.32362305 -32.44824219 78.00927734 C-27.52761113 54.88581358 -19.54485224 33.24106428 -8.625 12.25 C-8.22055664 11.47003662 -7.81611328 10.69007324 -7.39941406 9.88647461 C-5.32800724 6.03039817 -3.35366982 2.90957656 0 0 Z " fill="#EAF1F9" transform="translate(904,617)"/>
<path d="M0 0 C-0.33 0.66 -0.66 1.32 -1 2 C-3.5625 2.65429688 -3.5625 2.65429688 -7 3.21875 C-8.267229 3.42790039 -9.53445801 3.63705078 -10.84008789 3.85253906 C-12.22655202 4.06946952 -13.61319444 4.28526311 -15 4.5 C-15.69850067 4.61049683 -16.39700134 4.72099365 -17.1166687 4.83483887 C-30.3669881 6.92046539 -43.60343141 8.27904923 -57 9 C-58.10520674 9.05956829 -58.10520674 9.05956829 -59.23274088 9.12033999 C-73.23096804 9.85797076 -87.18611898 10.14931306 -101.20214844 10.14526367 C-103.32034869 10.14826605 -105.43854841 10.151671 -107.55674744 10.15544128 C-113.23102077 10.16416107 -118.90527898 10.16661381 -124.57955837 10.16725707 C-128.12922506 10.16797275 -131.67888802 10.17011643 -135.22855377 10.17275429 C-147.62160992 10.18195713 -160.01465539 10.18609424 -172.40771484 10.18530273 C-183.95407818 10.18469843 -195.50039534 10.19533172 -207.04674697 10.2110464 C-216.98599522 10.22409157 -226.92522827 10.22948814 -236.86448503 10.22884732 C-242.79095742 10.2285921 -248.71738839 10.23145909 -254.64385223 10.24202538 C-260.19590399 10.25165908 -265.74787414 10.25181837 -271.29992867 10.24450874 C-273.34060599 10.24345804 -275.38128829 10.24585431 -277.42195702 10.2518692 C-280.19650266 10.25952161 -282.97076138 10.25499016 -285.74530029 10.24723816 C-286.56102186 10.25238172 -287.37674343 10.25752529 -288.21718383 10.26282471 C-293.77172507 10.22827493 -293.77172507 10.22827493 -296 8 C-294.95458794 7.99668985 -293.90917587 7.99337971 -292.83208466 7.98996925 C-267.19824056 7.90837274 -241.56445255 7.81588396 -215.93068695 7.71247292 C-203.53355598 7.66270374 -191.13643048 7.61626231 -178.73925781 7.578125 C-167.91295854 7.54481119 -157.08670673 7.50477532 -146.26046038 7.45720994 C-140.54709179 7.43232852 -134.83375309 7.41044292 -129.12034607 7.39665604 C-107.31075116 7.34194959 -85.53730218 7.16866489 -63.75195312 6.06396484 C-62.93759387 6.02298148 -62.12323462 5.98199812 -61.28419781 5.93977284 C-43.50729597 5.02097712 -25.88715023 3.1389189 -8.38720703 -0.17358398 C-5.1032634 -0.77578473 -3.22687836 -1.07562612 0 0 Z " fill="#2674CC" transform="translate(1736,810)"/>
<path d="M0 0 C3.63740794 1.21422144 5.53594185 3.50515506 7.953125 6.33984375 C8.43056152 6.88044434 8.90799805 7.42104492 9.39990234 7.97802734 C10.37689828 9.08507265 11.3494188 10.19608402 12.31738281 11.31103516 C14.29079996 13.57719671 16.31033586 15.80069573 18.328125 18.02734375 C19.7867532 19.65207908 21.24508858 21.27707734 22.703125 22.90234375 C24.20283628 24.56927022 25.70283821 26.23593524 27.203125 27.90234375 C54.203125 57.90234375 54.203125 57.90234375 56.4453125 60.39453125 C57.97020744 62.08827269 59.49627902 63.78095544 61.0234375 65.47265625 C64.40225208 69.21798631 67.77208465 72.96752582 71.078125 76.77734375 C74.48791653 80.69228958 77.99652463 84.51411771 81.51074219 88.33496094 C85.94509503 93.15781286 90.32815401 98.02558398 94.703125 102.90234375 C96.20283628 104.56927022 97.70283821 106.23593524 99.203125 107.90234375 C108.203125 117.90234375 108.203125 117.90234375 110.4453125 120.39453125 C111.97020744 122.08827269 113.49627902 123.78095544 115.0234375 125.47265625 C119.62853853 130.57729366 124.19444916 135.71229246 128.703125 140.90234375 C125.703125 140.90234375 125.703125 140.90234375 124.125 139.65234375 C123.29742188 138.78609375 123.29742188 138.78609375 122.453125 137.90234375 C121.525 136.93361328 121.525 136.93361328 120.578125 135.9453125 C118.24505624 133.40323966 115.97168112 130.81632213 113.71875 128.203125 C111.25832231 125.39461355 108.73337508 122.64772496 106.203125 119.90234375 C102.60280052 115.99271096 99.05894486 112.04367436 95.578125 108.02734375 C93.15762425 105.28410957 90.68111858 102.59349807 88.203125 99.90234375 C84.60299744 95.9925278 81.05894895 92.04367907 77.578125 88.02734375 C75.15762425 85.28410957 72.68111858 82.59349807 70.203125 79.90234375 C66.60299744 75.9925278 63.05894895 72.04367907 59.578125 68.02734375 C57.15762425 65.28410957 54.68111858 62.59349807 52.203125 59.90234375 C48.60299744 55.9925278 45.05894895 52.04367907 41.578125 48.02734375 C39.15762425 45.28410957 36.68111858 42.59349807 34.203125 39.90234375 C30.60299744 35.9925278 27.05894895 32.04367907 23.578125 28.02734375 C20.6904523 24.75464803 17.72454864 21.55391639 14.76757812 18.34399414 C11.49774422 14.7878797 8.29090457 11.1856375 5.140625 7.5234375 C4.66625 6.98847656 4.191875 6.45351563 3.703125 5.90234375 C3.249375 5.31582031 2.795625 4.72929688 2.328125 4.125 C0.73720319 2.65356006 0.73720319 2.65356006 -1.57763672 3.03613281 C-5.11987065 4.16450828 -6.80765735 5.91143076 -9.4296875 8.5390625 C-9.90363449 9.01028534 -10.37758148 9.48150818 -10.8658905 9.9670105 C-12.39625176 11.49682353 -13.90986856 13.04190182 -15.421875 14.58984375 C-15.93954437 15.11399872 -16.45721375 15.63815369 -16.99057007 16.17819214 C-24.70532646 23.99295158 -31.92171604 31.94883552 -38.296875 40.90234375 C-39.20490972 42.15163768 -40.11379396 43.40031451 -41.0234375 44.6484375 C-44.89404392 49.9923848 -48.65767111 55.39794424 -52.296875 60.90234375 C-52.626875 60.24234375 -52.956875 59.58234375 -53.296875 58.90234375 C-46.97952703 46.57688861 -16.67698404 -0.70905544 0 0 Z " fill="#357DCF" transform="translate(959.296875,558.09765625)"/>
<path d="M0 0 C0 0.66 0 1.32 0 2 C-50.95713727 20.59488518 -106.97460544 28.99283309 -161 28 C-161 27.67 -161 27.34 -161 27 C-159.95062256 26.93006836 -158.90124512 26.86013672 -157.82006836 26.78808594 C-124.01396417 24.50869033 -90.98124304 20.6362513 -57.78515625 13.78125 C-54.70257884 13.14501111 -51.61783225 12.5226034 -48.53125 11.90625 C-38.28809564 9.80421304 -28.34911087 6.80761045 -18.375 3.68359375 C-17.48554687 3.40628418 -16.59609375 3.12897461 -15.6796875 2.84326172 C-13.84820258 2.26691798 -12.02018224 1.67947814 -10.1953125 1.08251953 C-9.30585937 0.79876465 -8.41640625 0.51500977 -7.5 0.22265625 C-6.7059375 -0.03636475 -5.911875 -0.29538574 -5.09375 -0.56225586 C-3 -1 -3 -1 0 0 Z " fill="#DCE8F6" transform="translate(1807,789)"/>
<path d="M0 0 C0.33 0 0.66 0 1 0 C1.00173625 0.76484186 1.0034725 1.52968371 1.00526136 2.31770259 C1.10820569 47.61074477 1.21630002 92.90377214 1.33111694 138.19678586 C1.34488714 143.63062081 1.35861414 149.06445588 1.37231445 154.49829102 C1.37504276 155.58010663 1.37777106 156.66192225 1.38058204 157.77652016 C1.42470213 175.31170728 1.46532022 192.84690087 1.50465261 210.38209931 C1.54506464 228.36401104 1.58922029 246.34591074 1.63687855 264.32780474 C1.66618652 275.43079832 1.69254616 286.53379097 1.71517897 297.63680019 C1.73096135 305.24219725 1.75036769 312.84757957 1.77266841 320.45296029 C1.7854418 324.84613427 1.79657467 329.23929688 1.80341911 333.63248444 C1.80971328 337.64992975 1.82053072 341.66733587 1.8350333 345.6847597 C1.83948114 347.14240347 1.84223106 348.60005357 1.84316199 350.05770383 C1.84466401 352.03093406 1.85280871 354.00415597 1.8613348 355.97736835 C1.86532186 357.62516473 1.86532186 357.62516473 1.86938947 359.30624992 C1.88338476 362.10000819 1.88338476 362.10000819 3 365 C1.68 365.33 0.36 365.66 -1 366 C-0.67 245.22 -0.34 124.44 0 0 Z " fill="#4D75C3" transform="translate(1440,452)"/>
<path d="M0 0 C0.33 0 0.66 0 1 0 C1.54263296 41.59907757 -4.01142499 80.66596284 -14 121 C-15.98 121.495 -15.98 121.495 -18 122 C-17.62643984 116.5833777 -16.71995146 111.78159572 -15.140625 106.58203125 C-12.99969248 99.22413581 -11.41811291 91.83944406 -10 84.3125 C-9.87337982 83.64337585 -9.74675964 82.97425171 -9.61630249 82.28485107 C-8.71887095 77.52764431 -7.85277054 72.76541253 -7 68 C-6.79842285 66.87932129 -6.5968457 65.75864258 -6.38916016 64.60400391 C-2.64158088 43.22539436 -1.37458201 21.63383052 0 0 Z " fill="#BBD3EE" transform="translate(2112,368)"/>
<path d="M0 0 C0.33 0 0.66 0 1 0 C0.68881671 4.10426759 0.37580749 8.20839406 0.0625 12.3125 C-0.06801758 14.03436523 -0.06801758 14.03436523 -0.20117188 15.79101562 C-0.28818359 16.92861328 -0.37519531 18.06621094 -0.46484375 19.23828125 C-0.543396 20.26993408 -0.62194824 21.30158691 -0.70288086 22.36450195 C-0.86270745 24.32011233 -1.03032807 26.27552512 -1.24501038 28.22587585 C-2.19682673 37.25831955 -2.22617444 46.28294675 -2.31640625 55.35546875 C-2.337019 57.11095114 -2.35801646 58.86642905 -2.37937927 60.62190247 C-2.4341544 65.2068007 -2.48375712 69.79174034 -2.53222656 74.37670898 C-2.58277034 79.06953548 -2.63828349 83.76230302 -2.69335938 88.45507812 C-2.80039455 97.6366682 -2.90195711 106.81830981 -3 116 C-4.485 116.495 -4.485 116.495 -6 117 C-6.04681191 106.81888739 -6.08211287 96.63780133 -6.10362434 86.4566021 C-6.1139606 81.72656262 -6.1279283 76.99659799 -6.15087891 72.26660156 C-6.40638184 18.14595383 -6.40638184 18.14595383 -1 1 C-0.67 0.67 -0.34 0.34 0 0 Z " fill="#DFEAF6" transform="translate(872,700)"/>
<path d="M0 0 C1.16557793 3.49673379 0.81324427 4.18060166 -0.44140625 7.5234375 C-0.77527344 8.44898438 -1.10914063 9.37453125 -1.453125 10.328125 C-1.81921875 11.33359375 -2.1853125 12.3390625 -2.5625 13.375 C-7.46340433 27.33305262 -10.30284099 41.48257269 -13 56 C-13.33 56 -13.66 56 -14 56 C-13.98839844 55.24074219 -13.97679687 54.48148438 -13.96484375 53.69921875 C-13.95582031 52.70535156 -13.94679688 51.71148438 -13.9375 50.6875 C-13.92589844 49.70136719 -13.91429687 48.71523438 -13.90234375 47.69921875 C-13.87670138 44.90036151 -13.87670138 44.90036151 -15 42 C-14.56274414 39.36450195 -14.56274414 39.36450195 -13.78515625 36.23828125 C-13.37426758 34.56088867 -13.37426758 34.56088867 -12.95507812 32.84960938 C-12.66052734 31.68236328 -12.36597656 30.51511719 -12.0625 29.3125 C-11.77181641 28.13365234 -11.48113281 26.95480469 -11.18164062 25.74023438 C-10.46166996 22.82494334 -9.734182 19.91173862 -9 17 C-8.67 17.66 -8.34 18.32 -8 19 C-7.34 19 -6.68 19 -6 19 C-5.62875 17.081875 -5.62875 17.081875 -5.25 15.125 C-4.08835439 9.830253 -2.13659734 4.96810741 0 0 Z " fill="#99BDE6" transform="translate(886,656)"/>
<path d="M0 0 C1.44815005 3.87852362 0.55078902 6.79684393 -0.43359375 10.734375 C-0.59038101 11.37240051 -0.74716827 12.01042603 -0.90870667 12.66778564 C-1.40959868 14.69746856 -1.92333879 16.72364235 -2.4375 18.75 C-2.78015039 20.1286944 -3.12195699 21.50759881 -3.46289062 22.88671875 C-4.29883006 26.26030094 -5.14631939 29.63085786 -6 33 C-7.98 33.495 -7.98 33.495 -10 34 C-9.52472053 27.10844773 -7.95330586 20.93527764 -5.9375 14.33203125 C-5.06299681 11.22390115 -4.46501241 8.19211645 -4 5 C-3.67 5.66 -3.34 6.32 -3 7 C-2.34 7 -1.68 7 -1 7 C-0.67 4.69 -0.34 2.38 0 0 Z " fill="#A6C5E9" transform="translate(2104,456)"/>
<path d="M0 0 C0.66 0.33 1.32 0.66 2 1 C1.46231182 6.26090981 -1.22250886 10.32540519 -3.8125 14.8125 C-7.04301786 20.47183599 -10.13597049 26.14509586 -13 32 C-14 29 -14 29 -13.1875 27.09765625 C-12.39696663 25.74282768 -11.60530266 24.38865816 -10.8125 23.03515625 C-9.77413068 21.04539337 -9.77413068 21.04539337 -10.56176758 19.11376953 C-11.12131285 16.41485982 -10.55602324 15.50525867 -9.19921875 13.14453125 C-8.79896484 12.44005859 -8.39871094 11.73558594 -7.98632812 11.00976562 C-7.55771484 10.28466797 -7.12910156 9.55957031 -6.6875 8.8125 C-6.27048828 8.07580078 -5.85347656 7.33910156 -5.42382812 6.58007812 C-2.28828984 1.14414492 -2.28828984 1.14414492 0 0 Z " fill="#9FC1E8" transform="translate(904,617)"/>
<path d="M0 0 C0.33 0 0.66 0 1 0 C0.68881671 4.10426759 0.37580749 8.20839406 0.0625 12.3125 C-0.06801758 14.03436523 -0.06801758 14.03436523 -0.20117188 15.79101562 C-0.74236531 22.8666187 -1.33426864 29.93500439 -2 37 C-2.33 37 -2.66 37 -3 37 C-3.33 35.02 -3.66 33.04 -4 31 C-4.33 31 -4.66 31 -5 31 C-4.06451613 4.06451613 -4.06451613 4.06451613 0 0 Z " fill="#BFD6EF" transform="translate(872,700)"/>
<path d="M0 0 C-0.60688044 5.19219929 -1.72937099 9.91852216 -3.375 14.875 C-3.58382812 15.55046875 -3.79265625 16.2259375 -4.0078125 16.921875 C-4.6484375 18.8671875 -4.6484375 18.8671875 -6 22 C-6.99 22.33 -7.98 22.66 -9 23 C-7.83693879 16.445808 -6.24216846 10.26525929 -4 4 C-3.67 3.01 -3.34 2.02 -3 1 C-1 0 -1 0 0 0 Z " fill="#E7EFF8" transform="translate(2095,491)"/>
<path d="M0 0 C0 3 0 3 -1.74414062 5.0847168 C-2.54013672 5.86500244 -3.33613281 6.64528809 -4.15625 7.44921875 C-5.01347656 8.29677734 -5.87070313 9.14433594 -6.75390625 10.01757812 C-7.66011719 10.89865234 -8.56632812 11.77972656 -9.5 12.6875 C-10.40621094 13.58017578 -11.31242187 14.47285156 -12.24609375 15.39257812 C-14.49085168 17.60189251 -16.74229998 19.80392533 -19 22 C-19.66 21.67 -20.32 21.34 -21 21 C-14.63570899 13.94624413 -8.3566237 7.04654003 -1 1 C-0.67 0.67 -0.34 0.34 0 0 Z " fill="#FAFCFD" transform="translate(1997,666)"/>
<path d="M0 0 C0.95827504 3.04498611 0.99431517 5.02273931 0.22265625 8.109375 C-0.05288086 9.24052734 -0.05288086 9.24052734 -0.33398438 10.39453125 C-0.53314453 11.17183594 -0.73230469 11.94914062 -0.9375 12.75 C-1.13279297 13.54277344 -1.32808594 14.33554687 -1.52929688 15.15234375 C-2.01124079 17.10362885 -2.50452088 19.05210783 -3 21 C-3.33 21 -3.66 21 -4 21 C-4.144375 20.21625 -4.28875 19.4325 -4.4375 18.625 C-4.87798925 16.03578982 -4.87798925 16.03578982 -6 14 C-5.66015625 11.8359375 -5.66015625 11.8359375 -5.0625 9.375 C-4.86785156 8.55773437 -4.67320312 7.74046875 -4.47265625 6.8984375 C-4.31667969 6.27195312 -4.16070313 5.64546875 -4 5 C-3.67 5.66 -3.34 6.32 -3 7 C-2.34 7 -1.68 7 -1 7 C-0.67 4.69 -0.34 2.38 0 0 Z " fill="#9CBFE7" transform="translate(2104,456)"/>
<path d="M0 0 C0.33 0 0.66 0 1 0 C0.67 5.94 0.34 11.88 0 18 C-0.99 18.33 -1.98 18.66 -3 19 C-3.19946435 12.71687298 -2.84752843 7.04155282 -1 1 C-0.67 0.67 -0.34 0.34 0 0 Z " fill="#E8EFF9" transform="translate(872,700)"/>
<path d="M0 0 C1.17791932 3.53375797 0.75415072 4.44851107 -0.43359375 7.88671875 C-0.75263672 8.82451172 -1.07167969 9.76230469 -1.40039062 10.72851562 C-1.74263672 11.70498047 -2.08488281 12.68144531 -2.4375 13.6875 C-2.77587891 14.67556641 -3.11425781 15.66363281 -3.46289062 16.68164062 C-4.30059974 19.12397565 -5.14657083 21.56312271 -6 24 C-9 20.25 -9 20.25 -9 18 C-7.68 17.67 -6.36 17.34 -5 17 C-4.70996094 15.78763672 -4.70996094 15.78763672 -4.4140625 14.55078125 C-4.02347656 12.94783203 -4.02347656 12.94783203 -3.625 11.3125 C-3.36976563 10.25675781 -3.11453125 9.20101563 -2.8515625 8.11328125 C-2.08094511 5.29593234 -1.14501457 2.68331675 0 0 Z " fill="#629ADA" transform="translate(2094,496)"/>
<path d="M0 0 C1.305239 3.91571701 0.32239848 5.03892997 -1.4375 8.6875 C-1.91058594 9.68136719 -2.38367188 10.67523437 -2.87109375 11.69921875 C-3.42990234 12.83810547 -3.42990234 12.83810547 -4 14 C-4.99 14 -5.98 14 -7 14 C-6.54554036 12.58208592 -6.08625056 11.16571954 -5.625 9.75 C-5.24214844 8.56664062 -5.24214844 8.56664062 -4.8515625 7.359375 C-2.67878788 1.33939394 -2.67878788 1.33939394 0 0 Z " fill="#EBF1F9" transform="translate(894,635)"/>
<path d="M0 0 C0.33 0 0.66 0 1 0 C0.41523944 7.09406894 -0.63233995 14.01563899 -2 21 C-2.33 21 -2.66 21 -3 21 C-2.98839844 20.24074219 -2.97679687 19.48148438 -2.96484375 18.69921875 C-2.95582031 17.70535156 -2.94679688 16.71148438 -2.9375 15.6875 C-2.92009766 14.20830078 -2.92009766 14.20830078 -2.90234375 12.69921875 C-2.87670138 9.90036151 -2.87670138 9.90036151 -4 7 C-3.34 6.01 -2.68 5.02 -2 4 C-1.34 4 -0.68 4 0 4 C0 2.68 0 1.36 0 0 Z " fill="#9CBFE7" transform="translate(875,691)"/>
<path d="M0 0 C0.33 0 0.66 0 1 0 C1.11083416 5.43087408 1.11115605 10.66645094 0 16 C-0.66 16.33 -1.32 16.66 -2 17 C-2.3690205 5.47835991 -2.3690205 5.47835991 0 0 Z " fill="#E6EFF8" transform="translate(868,730)"/>
<path d="M0 0 C0 0.66 0 1.32 0 2 C-3.28519475 3.09506492 -5.73663415 3.09960608 -9.1875 3.0625 C-10.81751953 3.04896484 -10.81751953 3.04896484 -12.48046875 3.03515625 C-13.31191406 3.02355469 -14.14335938 3.01195312 -15 3 C-11.07677056 -0.92322944 -5.25785342 -0.10515707 0 0 Z " fill="#F2F6FB" transform="translate(1711,811)"/>
<path d="M0 0 C0.33 0 0.66 0 1 0 C1.21192221 5.19209404 0.5912689 9.126739 -1 14 C-1.66 14 -2.32 14 -3 14 C-2.88512252 12.41590006 -2.75765492 10.83271037 -2.625 9.25 C-2.55539063 8.36828125 -2.48578125 7.4865625 -2.4140625 6.578125 C-2.00149945 4.00933618 -1.28839043 2.24158985 0 0 Z " fill="#F0F5FA" transform="translate(2104,449)"/>
<path d="M0 0 C0.33 0.66 0.66 1.32 1 2 C-2.3 2.66 -5.6 3.32 -9 4 C-9 3.34 -9 2.68 -9 2 C-9.66 1.67 -10.32 1.34 -11 1 C-3.375 -1.125 -3.375 -1.125 0 0 Z " fill="#D2E2F4" transform="translate(1784,796)"/>
<path d="M0 0 C1.13732426 3.40401948 0.83989957 5.77456664 0.0625 9.25 C-0.13214844 10.14203125 -0.32679688 11.0340625 -0.52734375 11.953125 C-0.68332031 12.62859375 -0.83929687 13.3040625 -1 14 C-1.33 14 -1.66 14 -2 14 C-2.144375 13.21625 -2.28875 12.4325 -2.4375 11.625 C-2.87798925 9.03578982 -2.87798925 9.03578982 -4 7 C-3.71887936 4.99199544 -3.38932033 2.98985949 -3 1 C-2.67 1.66 -2.34 2.32 -2 3 C-1.34 3 -0.68 3 0 3 C0 2.01 0 1.02 0 0 Z " fill="#A0C2E8" transform="translate(2107,441)"/>
<path d="M0 0 C1 3 1 3 0.00390625 5.26171875 C-0.47175781 6.06222656 -0.94742188 6.86273437 -1.4375 7.6875 C-2.14712891 8.89986328 -2.14712891 8.89986328 -2.87109375 10.13671875 C-3.24363281 10.75160156 -3.61617187 11.36648438 -4 12 C-4.66 12 -5.32 12 -6 12 C-4.68139111 7.38486888 -2.78644563 3.90102388 0 0 Z " fill="#F7F9FC" transform="translate(2066,563)"/>
<path d="M0 0 C0.33 0 0.66 0 1 0 C1.17835515 4.54805635 0.99785435 7.8794254 -1 12 C-1.66 12 -2.32 12 -3 12 C-2.88541307 10.56163249 -2.75790884 9.12429034 -2.625 7.6875 C-2.55539063 6.88699219 -2.48578125 6.08648437 -2.4140625 5.26171875 C-2 3 -2 3 0 0 Z " fill="#EDF3FA" transform="translate(2099,471)"/>
<path d="M0 0 C0.33 0 0.66 0 1 0 C1.02712066 1.43739513 1.04645067 2.87493863 1.0625 4.3125 C1.07410156 5.11300781 1.08570312 5.91351563 1.09765625 6.73828125 C1 9 1 9 0 12 C-0.66 12 -1.32 12 -2 12 C-2.28571429 3.42857143 -2.28571429 3.42857143 0 0 Z " fill="#ECF2FA" transform="translate(2107,432)"/>
<path d="M0 0 C-0.33 0.99 -0.66 1.98 -1 3 C-4.3 3.33 -7.6 3.66 -11 4 C-7.05423995 0.05423995 -5.48656336 0 0 0 Z " fill="#E9F0F9" transform="translate(1775,798)"/>
<path d="M0 0 C0.66 0.33 1.32 0.66 2 1 C1.67 1.99 1.34 2.98 1 4 C-2.5625 5.6875 -2.5625 5.6875 -6 7 C-6 5.68 -6 4.36 -6 3 C-4.03533587 1.93224776 -2.03144641 0.93446535 0 0 Z " fill="#DDE9F6" transform="translate(1876,757)"/>
<path d="M0 0 C0 0.99 0 1.98 0 3 C-2.97 4.32 -5.94 5.64 -9 7 C-6.98222181 2.96444362 -4.85744506 0 0 0 Z " fill="#EFF4FA" transform="translate(1678,60)"/>
<path d="M0 0 C0 2.97 0 5.94 0 9 C-0.99 9 -1.98 9 -3 9 C-3 6.36 -3 3.72 -3 1 C-1 0 -1 0 0 0 Z " fill="#C7DAF1" transform="translate(2111,416)"/>
<path d="M0 0 C-0.33 0.99 -0.66 1.98 -1 3 C-3.31 3.33 -5.62 3.66 -8 4 C-7.67 3.01 -7.34 2.02 -7 1 C-4 0 -4 0 0 0 Z " fill="#EBF2F9" transform="translate(1791,18)"/>
<path d="M0 0 C0.66 0.33 1.32 0.66 2 1 C1.25 5.75 1.25 5.75 -1 8 C-1.66 6.35 -2.32 4.7 -3 3 C-2.01 2.01 -1.02 1.02 0 0 Z " fill="#9DBFE7" transform="translate(888,648)"/>
<path d="M0 0 C0.96516243 3.00272755 1.22393475 5.04215769 0 8 C-0.99 8.33 -1.98 8.66 -3 9 C-2.4140625 2.84765625 -2.4140625 2.84765625 -2 1 C-1.34 0.67 -0.68 0.34 0 0 Z " fill="#F0F5FA" transform="translate(875,687)"/>
<path d="M0 0 C0.33 0.66 0.66 1.32 1 2 C-1.31 2.33 -3.62 2.66 -6 3 C-6 2.34 -6 1.68 -6 1 C-6.66 0.67 -7.32 0.34 -8 0 C-2.25 -1.125 -2.25 -1.125 0 0 Z " fill="#D4E3F4" transform="translate(1765,801)"/>
<path d="M0 0 C3.125 -0.1875 3.125 -0.1875 6 0 C6 0.66 6 1.32 6 2 C3.36 2.33 0.72 2.66 -2 3 C-1.34 2.01 -0.68 1.02 0 0 Z " fill="#F1F5FB" transform="translate(1753,802)"/>
<path d="M0 0 C0.33 0.99 0.66 1.98 1 3 C-0.32 3.99 -1.64 4.98 -3 6 C-3 3 -3 3 -1.5 1.3125 C-0.7575 0.6628125 -0.7575 0.6628125 0 0 Z " fill="#FBFCFD" transform="translate(943,567)"/>
<path d="M0 0 C0.66 0.33 1.32 0.66 2 1 C0.68 2.32 -0.64 3.64 -2 5 C-2.99 4.67 -3.98 4.34 -5 4 C-3.36587557 2.29159719 -2.13093906 1.06546953 0 0 Z " fill="#F2F6FB" transform="translate(1882,754)"/>
</svg>
