<?xml version="1.0" encoding="UTF-8"?>
<svg version="1.1" xmlns="http://www.w3.org/2000/svg" width="2147" height="818">
<path d="M0 0 C96.33714864 -0.09935762 96.33714864 -0.09935762 143.99121094 -0.12702942 C144.7026345 -0.12744359 145.41405807 -0.12785776 146.14703992 -0.12828448 C161.61164065 -0.13726515 177.07624167 -0.14557541 192.54084313 -0.15319599 C200.12569887 -0.15693769 207.71055453 -0.1608274 215.29541016 -0.16479492 C216.05015718 -0.1651872 216.80490421 -0.16557948 217.58252236 -0.16598364 C242.00519623 -0.17874651 266.42784915 -0.20126454 290.85051034 -0.22889166 C315.96741989 -0.25725223 341.08431785 -0.27567085 366.20124314 -0.28174497 C369.75638502 -0.28260932 373.31152687 -0.28358622 376.8666687 -0.28463173 C377.56630784 -0.284834 378.26594698 -0.28503627 378.98678731 -0.28524467 C390.2070099 -0.28877703 401.42719648 -0.30265646 412.64740444 -0.3204961 C423.95296292 -0.33824734 435.25847535 -0.34464045 446.56405109 -0.34050413 C452.6793202 -0.33859126 458.79448447 -0.34142947 464.90973473 -0.35761642 C470.5252289 -0.37237076 476.14054919 -0.37285319 481.7560519 -0.36269668 C483.77127394 -0.36144411 485.7865075 -0.3651169 487.80170739 -0.37464955 C548.55313079 -0.64495763 604.23418044 22.48927744 647.375 65.125 C677.0819516 95.13961853 696.95131001 135.30418323 703 177 C703.10094971 177.65452148 703.20189941 178.30904297 703.3059082 178.98339844 C707.45838695 209.92402033 703.40026881 242.45284808 694 272 C693.77618652 272.71124023 693.55237305 273.42248047 693.32177734 274.15527344 C680.77253471 313.01200232 650.5851505 349.06337755 617.75585938 372.73144531 C615.87771246 374.088349 614.02570401 375.47727874 612.171875 376.8671875 C559.00911952 416.13739342 491.06594045 440.87290327 430 465 C433.64525152 470.12431523 437.50078993 474.62765586 442.0078125 479.015625 C444.48194622 481.48005624 446.74328681 484.08830595 449.01953125 486.734375 C451.46605768 489.53316263 453.98076721 492.26689817 456.5 495 C460.10035014 498.90960866 463.64418073 502.85867007 467.125 506.875 C469.54550075 509.61823418 472.02200642 512.30884568 474.5 515 C478.10012756 518.90981595 481.64417605 522.85866468 485.125 526.875 C487.54550075 529.61823418 490.02200642 532.30884568 492.5 535 C496.10012756 538.90981595 499.64417605 542.85866468 503.125 546.875 C505.54550075 549.61823418 508.02200642 552.30884568 510.5 555 C514.10012756 558.90981595 517.64417605 562.85866468 521.125 566.875 C523.54550075 569.61823418 526.02200642 572.30884568 528.5 575 C532.10012756 578.90981595 535.64417605 582.85866468 539.125 586.875 C541.54550075 589.61823418 544.02200642 592.30884568 546.5 595 C550.10012756 598.90981595 553.64417605 602.85866468 557.125 606.875 C559.54550075 609.61823418 562.02200642 612.30884568 564.5 615 C568.10012756 618.90981595 571.64417605 622.85866468 575.125 626.875 C577.54550075 629.61823418 580.02200642 632.30884568 582.5 635 C586.10012756 638.90981595 589.64417605 642.85866468 593.125 646.875 C595.54550075 649.61823418 598.02200642 652.30884568 600.5 655 C604.10012756 658.90981595 607.64417605 662.85866468 611.125 666.875 C613.54550075 669.61823418 616.02200642 672.30884568 618.5 675 C622.10012756 678.90981595 625.64417605 682.85866468 629.125 686.875 C631.54550075 689.61823418 634.02200642 692.30884568 636.5 695 C640.10012756 698.90981595 643.64417605 702.85866468 647.125 706.875 C649.54550075 709.61823418 652.02200642 712.30884568 654.5 715 C658.10012756 718.90981595 661.64417605 722.85866468 665.125 726.875 C667.54550075 729.61823418 670.02200642 732.30884568 672.5 735 C676.10012756 738.90981595 679.64417605 742.85866468 683.125 746.875 C685.54550075 749.61823418 688.02200642 752.30884568 690.5 755 C694.10012756 758.90981595 697.64417605 762.85866468 701.125 766.875 C703.54550075 769.61823418 706.02200642 772.30884568 708.5 775 C712.10012756 778.90981595 715.64417605 782.85866468 719.125 786.875 C721.54550208 789.61823569 724.02207715 792.30877915 726.5 795 C730.17451729 798.99252825 733.81138943 803.0109752 737.36328125 807.11328125 C738.56037068 808.49321967 739.76754154 809.86443041 740.98046875 811.23046875 C741.62628906 811.95878906 742.27210938 812.68710937 742.9375 813.4375 C743.81728516 814.42556641 743.81728516 814.42556641 744.71484375 815.43359375 C746 817 746 817 746 818 C715.75742525 818.29688859 685.51492542 818.5267916 655.27122135 818.66384928 C651.6965996 818.68010748 648.12198073 818.69693377 644.54736328 818.71411133 C643.83575408 818.71752136 643.12414487 818.7209314 642.39097175 818.72444477 C630.88497771 818.78093475 619.37983242 818.883389 607.87434104 819.00298635 C596.05892643 819.12477628 584.24395472 819.19680964 572.42793822 819.22315043 C565.79476684 819.23935186 559.16317068 819.27977136 552.53058624 819.37449074 C546.28209064 819.46299863 540.0363001 819.48989936 533.78723717 819.47039986 C531.49907137 819.47396472 529.21081144 819.49967351 526.92318916 819.54967117 C508.76167434 819.92700074 508.76167434 819.92700074 503.02376556 815.14948082 C499.90161712 812.04366205 497.46070475 808.64312368 495 805 C493.83455878 803.62680286 492.65330215 802.26631479 491.4375 800.9375 C490.91027344 800.32777344 490.38304687 799.71804688 489.83984375 799.08984375 C487.43329844 796.35629441 484.96696804 793.67885994 482.5 791 C478.89984677 787.09020819 475.35582336 783.14133464 471.875 779.125 C469.45449858 776.38176506 466.97795822 773.69118757 464.5 771 C460.8558306 767.04140277 457.26086221 763.04823168 453.734375 758.984375 C450.20499286 754.94625309 446.59365774 750.98085319 443 747 C441.49971321 745.33359149 439.99971128 743.66692647 438.5 742 C437.7575 741.175 437.015 740.35 436.25 739.5 C402.5 702 402.5 702 400.2578125 699.5078125 C398.73291756 697.81407106 397.20684598 696.12138831 395.6796875 694.4296875 C392.30087292 690.68435744 388.93104035 686.93481793 385.625 683.125 C382.17148439 679.15747276 378.6099606 675.2915236 375.04736328 671.42236328 C371.93414956 668.0355544 368.88755462 664.60102456 365.875 661.125 C363.45449925 658.38176582 360.97799358 655.69115432 358.5 653 C354.89987244 649.09018405 351.35582395 645.14133532 347.875 641.125 C345.45449858 638.38176506 342.97795822 635.69118757 340.5 633 C336.8558306 629.04140277 333.26086221 625.04823168 329.734375 620.984375 C326.20499286 616.94625309 322.59365774 612.98085319 319 609 C317.49971321 607.33359149 315.99971128 605.66692647 314.5 604 C313.7575 603.175 313.015 602.35 312.25 601.5 C287.5 574 287.5 574 285.2734375 571.5234375 C283.6987273 569.77556329 282.1203499 568.03098862 280.5390625 566.2890625 C279.74242187 565.40992188 278.94578125 564.53078125 278.125 563.625 C277.40570312 562.83351563 276.68640625 562.04203125 275.9453125 561.2265625 C274.18729633 559.21437531 272.56908243 557.161189 271 555 C254.73474783 562.41982863 240.31694678 581.75333548 230 596 C229.51869629 596.65291016 229.03739258 597.30582031 228.54150391 597.97851562 C178.83993841 665.5228953 178.11563251 735.44319435 177 818 C118.59 818 60.18 818 0 818 C0 723.8215 0 723.8215 3.75 697.6875 C3.91846436 696.50003174 4.08692871 695.31256348 4.26049805 694.08911133 C10.34004522 652.89171662 22.92152799 614.46909119 41 577 C41.42667969 576.10958008 41.85335937 575.21916016 42.29296875 574.30175781 C47.96594468 562.51505937 54.12626398 551.12834564 61 540 C61.52609863 539.14647949 62.05219727 538.29295898 62.59423828 537.41357422 C70.55744139 524.55701384 78.93135837 512.10161373 88 500 C88.5347998 499.28505371 89.06959961 498.57010742 89.62060547 497.83349609 C103.99244899 478.68686767 119.18365502 460.20368655 135.48022461 442.66333008 C136.59532393 441.44290089 137.69565897 440.20893854 138.78735352 438.9675293 C145.39701805 431.48249502 152.41441145 424.43347734 159.48413086 417.38549805 C161.56545189 415.30955574 163.64134813 413.22829578 165.71679688 411.14648438 C167.06217938 409.80176248 168.40787194 408.45735071 169.75390625 407.11328125 C170.36246964 406.50269363 170.97103302 405.89210602 171.59803772 405.26301575 C175.33633807 401.54465435 179.1931204 398.01426906 183.18850708 394.57337952 C185.9641236 392.16260654 188.63148494 389.63974728 191.3125 387.125 C196.1064914 382.66495644 201.02510996 378.43690447 206.1328125 374.3359375 C209.41579033 371.66124984 212.61253139 368.89780652 215.8125 366.125 C222.08378812 360.71497903 228.52325432 355.56300694 235.07373047 350.49658203 C237.1523761 348.88161401 239.2192699 347.25234745 241.28515625 345.62109375 C250.63522111 338.25826109 260.15380775 331.22988039 269.93066406 324.44580078 C271.94193513 323.04056868 273.93799095 321.61640093 275.9296875 320.18359375 C302.49014351 301.11664236 330.33293328 283.70724512 359 268 C359.89847656 267.50677246 360.79695313 267.01354492 361.72265625 266.50537109 C416.64156152 236.57776533 476.66276365 215.87482368 537 200 C529.02239683 196.93892612 521.02067062 193.9463447 513 191 C511.59041016 190.48010498 511.59041016 190.48010498 510.15234375 189.94970703 C462.01197827 172.42261982 408.51374216 162.78259462 357.29296875 162.8671875 C355.92542495 162.86615853 354.55788136 162.86481184 353.19033813 162.8631897 C349.35081641 162.8604313 345.51133408 162.86511182 341.67181778 162.87142944 C339.14151135 162.8750661 336.61121085 162.87663881 334.0809021 162.87768555 C306.72266676 162.89143134 279.36536231 163.04750526 252.0078125 163.2265625 C251.18611659 163.23193362 250.36442068 163.23730474 249.51782489 163.24283862 C234.86311047 163.33874243 220.20840681 163.43632486 205.55371475 163.53558731 C166.46427501 163.80024128 127.37559556 164.04132563 88.28515625 164.06640625 C87.57987124 164.06688611 86.87458623 164.06736597 86.14792895 164.06786036 C57.43194241 164.08631195 28.71594879 164.03362523 0 164 C0 109.88 0 55.76 0 0 Z " fill="#0E44AF" transform="translate(723,0)"/>
<path d="M0 0 C25.52408933 -0.04699715 51.04817206 -0.08212323 76.57229614 -0.10362434 C88.42711851 -0.11387891 100.28191379 -0.12782599 112.13671875 -0.15087891 C122.48533842 -0.17099307 132.83393845 -0.18375854 143.18257713 -0.18817699 C148.64756075 -0.19075431 154.11248823 -0.19668602 159.57745361 -0.21146011 C189.91840042 -0.29027325 220.01432591 0.29013843 250.1875 3.8125 C250.92383667 3.89648041 251.66017334 3.98046082 252.41882324 4.06698608 C267.38689365 5.78470191 282.21395891 8.09407285 297 11 C298.2566748 11.24588867 299.51334961 11.49177734 300.80810547 11.74511719 C376.45771607 26.81641819 447.8862522 58.25707461 508 107 C508.95003906 107.75667969 509.90007812 108.51335937 510.87890625 109.29296875 C516.7989997 114.0509386 522.42599998 119.05274964 527.98046875 124.2265625 C530.2305385 126.31675587 532.53414968 128.33369464 534.859375 130.33984375 C539.10180469 134.03757263 543.09582334 137.9477389 547.0625 141.9375 C547.73087891 142.60201172 548.39925781 143.26652344 549.08789062 143.95117188 C553.59746791 148.46951413 557.83814265 153.16175456 562 158 C562.92573352 159.0480688 563.85273572 160.09501895 564.78125 161.140625 C577.38075993 175.4799797 588.78186518 190.87979782 599 207 C599.42700195 207.67144043 599.85400391 208.34288086 600.29394531 209.03466797 C646.0248048 281.36681151 669.39406568 363.71777841 673.11606562 489.27407157 C673.11168692 493.69974814 673.11321273 498.12542356 673.1139679 502.55110168 C673.11448849 510.19164319 673.11139061 517.83217605 673.10573006 525.47271538 C673.09755156 536.51921844 673.09499338 547.56571739 673.09374207 558.61222316 C673.09156145 576.54088225 673.08492839 594.46953675 673.07543945 612.39819336 C673.0662396 629.79890927 673.05917139 647.19962394 673.05493164 664.6003418 C673.05466892 665.67559156 673.05440619 666.75084131 673.05413551 667.8586744 C673.05283033 673.25368359 673.05156666 678.6486928 673.05032361 684.04370201 C673.03998187 728.69580451 673.02239071 773.34790202 673 818 C646.78944991 818.0469659 620.57890624 818.08210825 594.36832237 818.10362434 C582.19507811 818.1138854 570.02186017 818.12784533 557.84863281 818.15087891 C547.22389189 818.17097273 536.59917005 818.18375387 525.97441065 818.18817699 C520.36193832 818.19075764 514.74952053 818.19671183 509.13706589 818.21146011 C485.34032823 818.27155309 461.71631843 818.15927195 438 816 C436.63501216 815.87675983 436.63501216 815.87675983 435.24244881 815.75102997 C430.29778401 815.29643398 425.36855021 814.77252954 420.4375 814.1875 C419.36350952 814.06202789 419.36350952 814.06202789 418.26782227 813.934021 C323.94404857 802.84816941 229.38961645 768.76366053 155.51855469 704.30810547 C154.03844009 703.03311287 152.52338218 701.79904321 151.0078125 700.56640625 C142.40395607 693.53894133 134.55188553 685.76854494 126.6875 677.9375 C126.1276944 677.38287079 125.56788879 676.82824158 124.99111938 676.25680542 C117.84175641 669.15957499 111.27346095 661.89121231 105 654 C104.06530542 652.89809978 103.12393532 651.80177485 102.171875 650.71484375 C94.4952832 641.91152638 87.68675689 632.56979946 81 623 C80.56333008 622.37931641 80.12666016 621.75863281 79.67675781 621.11914062 C28.02538393 547.30805757 -0.3078001 453.78543665 -0.12025452 363.89016724 C-0.12069162 362.31066015 -0.12156908 360.73115313 -0.12284368 359.15164649 C-0.12506134 354.8506699 -0.12110511 350.54971858 -0.11606562 346.2487452 C-0.11172176 341.59591443 -0.11321032 336.94308492 -0.1139679 332.29025269 C-0.11449065 324.24194123 -0.11136989 316.19363793 -0.10573006 308.14532852 C-0.09758127 296.50901788 -0.09499638 284.87271115 -0.09374207 273.23639797 C-0.09155685 254.35437376 -0.08491115 235.47235389 -0.07543945 216.59033203 C-0.06625161 198.25504579 -0.05917749 179.91976073 -0.05493164 161.58447266 C-0.05466892 160.45309247 -0.05440619 159.32171227 -0.05413551 158.15604784 C-0.05283041 152.47988965 -0.05156672 146.80373145 -0.05032361 141.12757325 C-0.0399675 94.08504583 -0.02236363 47.04252314 0 0 Z M177 164 C176.92944334 189.08111359 176.87678604 214.16221197 176.84456348 239.24340534 C176.82919422 250.89301718 176.80829876 262.54256681 176.77368164 274.19213867 C176.7434707 284.36389645 176.72435313 294.53560911 176.71773452 304.70741051 C176.713875 310.07694769 176.70502148 315.446356 176.68280983 320.81585121 C176.38536681 395.74967339 185.5912424 472.36264777 232 534 C232.46937988 534.62632324 232.93875977 535.25264648 233.42236328 535.89794922 C239.01645708 543.31428723 244.93679469 550.31615877 251.296875 557.0859375 C253.37357 559.32468673 255.37725533 561.58856643 257.3671875 563.90234375 C308.7539084 622.8328357 393.57567902 648.06377488 468.97233582 653.47123718 C475.08817944 653.88650673 481.15317153 654.02125532 487.28303528 654.00996399 C488.02572867 654.00924471 488.76842206 654.00852544 489.53362131 654.00778437 C491.35574843 654.00591592 493.17787449 654.00305692 495 654 C495.07047065 628.06749989 495.12317281 602.13501439 495.15543652 576.2024374 C495.17082359 564.15811882 495.19175449 552.11386016 495.22631836 540.06958008 C495.2564733 529.55653067 495.27563405 519.0435247 495.28226548 508.53043324 C495.28613415 502.97770204 495.2950497 497.425095 495.31719017 491.8724041 C495.53934993 433.81941776 489.95855549 375.87606105 464 323 C463.63261719 322.25137695 463.26523437 321.50275391 462.88671875 320.73144531 C429.90647707 254.3922136 370.27678054 207.49421423 301 184 C263.09016104 171.59980634 222.70841376 163.92589617 182.72241211 163.99072266 C181.64873886 163.99206207 180.57506561 163.99340149 179.46885681 163.99478149 C178.65413406 163.9965036 177.83941132 163.99822571 177 164 Z " fill="#0E44AF" transform="translate(0,0)"/>
<path d="M0 0 C1.97322081 0.00028295 3.94644173 0.00012203 5.91966248 -0.0004425 C11.21176647 -0.00072627 16.50384723 0.0051016 21.79594588 0.01213145 C27.35056038 0.01843585 32.90517557 0.01897434 38.45979309 0.02015686 C48.94937492 0.02324947 59.43894617 0.03143461 69.92852336 0.04150635 C81.88278588 0.05273222 93.83704894 0.05819416 105.79131544 0.06320179 C130.35543032 0.07361923 154.91953585 0.09117808 179.48364258 0.11352539 C179.52952409 47.40969426 179.56471443 94.70586075 179.58577324 142.00204752 C179.58827434 147.59893992 179.59086302 153.19583228 179.59350586 158.79272461 C179.59429279 160.46392838 179.59429279 160.46392838 179.59509562 162.16889384 C179.60377367 180.15602778 179.61952917 198.1431488 179.63794817 216.1302751 C179.65671984 234.61741238 179.66777459 253.10454293 179.67181957 271.59168935 C179.67454963 282.97869371 179.68313936 294.36566154 179.69947551 305.75265464 C179.71013233 313.58482657 179.71322377 321.4169799 179.71064533 329.24915853 C179.70937741 333.75279486 179.71117574 338.25636784 179.72205353 342.7599926 C179.78023979 368.11094759 179.11835647 393.25537317 175.73364258 418.42602539 C175.56445312 419.69760498 175.39526367 420.96918457 175.22094727 422.27929688 C167.92435577 475.69513208 151.48382434 525.97414889 127.48364258 574.11352539 C127.05583496 574.97316895 126.62802734 575.8328125 126.18725586 576.71850586 C106.03864545 616.87985742 78.32572615 652.25201301 46.73364258 683.98852539 C46.0366626 684.69017822 45.33968262 685.39183105 44.62158203 686.11474609 C40.07170807 690.65059887 35.36598987 694.93918837 30.48364258 699.11352539 C29.94336426 699.58081055 29.40308594 700.0480957 28.84643555 700.52954102 C20.94781909 707.35233315 12.85442132 713.87830845 4.48364258 720.11352539 C3.48421631 720.85989258 3.48421631 720.85989258 2.46459961 721.62133789 C-15.352373 734.86682359 -34.08184326 746.40065485 -53.51635742 757.11352539 C-54.41306152 757.60852539 -55.30976562 758.10352539 -56.23364258 758.61352539 C-113.14739065 789.77357424 -177.05110112 806.90253269 -241.26635742 814.36352539 C-242.55243896 814.5145874 -243.83852051 814.66564941 -245.16357422 814.82128906 C-249.61064712 815.30712678 -254.06049445 815.71788887 -258.51635742 816.11352539 C-259.44106559 816.19720588 -260.36577375 816.28088636 -261.31850338 816.36710262 C-285.18802068 818.44506245 -309.01222914 818.37922599 -332.95363951 818.31631327 C-338.61895973 818.30361889 -344.28428323 818.30262095 -349.94961548 818.30026245 C-360.62655066 818.29410166 -371.30344378 818.27776581 -381.98036063 818.25756347 C-394.15736044 818.23503397 -406.33436251 818.22416863 -418.51137805 818.2141726 C-443.51306095 818.19339331 -468.51470681 818.1583251 -493.51635742 818.11352539 C-493.56225908 771.63278649 -493.59743942 725.15205001 -493.61848808 678.67129287 C-493.62098912 673.16839443 -493.6235778 667.66549603 -493.6262207 662.16259766 C-493.62674532 661.06719243 -493.62726994 659.9717872 -493.62781046 658.84318788 C-493.63648377 641.16847377 -493.65223658 623.49377284 -493.67066301 605.81906652 C-493.68944802 587.64718823 -493.70049221 569.47531678 -493.70453441 551.30342919 C-493.70726174 540.11450927 -493.71583627 528.92562661 -493.73219036 517.73671819 C-493.74286374 510.03627981 -493.74593498 502.33586034 -493.74336018 494.63541513 C-493.74209476 490.21039201 -493.74386051 485.78543341 -493.75476837 481.36042213 C-493.81656201 454.97765117 -493.25281136 428.62826367 -489.82885742 402.42602539 C-489.66224609 401.13462646 -489.49563477 399.84322754 -489.32397461 398.51269531 C-482.14390594 344.69127887 -465.72202544 293.66506461 -441.51635742 245.11352539 C-441.0885498 244.25388184 -440.66074219 243.39423828 -440.2199707 242.50854492 C-420.08794906 202.38025902 -392.40738479 167.00726563 -360.82885742 135.30102539 C-360.03278076 134.50027588 -359.2367041 133.69952637 -358.41650391 132.87451172 C-353.6108381 128.08183015 -348.67563919 123.52152987 -343.51635742 119.11352539 C-342.55213867 118.26790039 -341.58791992 117.42227539 -340.59448242 116.55102539 C-260.00549863 47.0931167 -158.21747509 11.54733216 -39.51635742 1.11352539 C-38.88374854 1.07364317 -38.25113967 1.03376095 -37.59936082 0.99267018 C-25.05539169 0.21523516 -12.56568206 -0.02570771 0 0 Z M-206.51635742 228.11352539 C-207.89114258 229.20213867 -207.89114258 229.20213867 -209.29370117 230.31274414 C-223.04532637 241.30220646 -236.2639934 253.50968281 -247.24291992 267.28149414 C-249.5665708 270.17607642 -251.97457001 272.98398139 -254.39135742 275.80102539 C-260.29495467 282.88534209 -265.47187512 290.4004603 -270.51635742 298.11352539 C-270.89614746 298.68844727 -271.2759375 299.26336914 -271.66723633 299.85571289 C-307.86185939 355.24470049 -316.7742655 423.69457737 -316.62988281 488.47998047 C-316.62959963 490.30571491 -316.62976122 492.13144946 -316.63032532 493.95718384 C-316.63060819 498.83802635 -316.62479524 503.71884349 -316.61775136 508.59968019 C-316.61143165 513.72853604 -316.61090729 518.85739269 -316.60972595 523.98625183 C-316.60663774 533.66474185 -316.59845875 543.34322035 -316.58837646 553.02170533 C-316.57713666 564.05462896 -316.57168519 575.08755319 -316.56668103 586.12048113 C-316.55627358 608.78483556 -316.53872357 631.44917983 -316.51635742 654.11352539 C-313.81192564 654.12063252 -311.10751284 654.12580389 -308.40307617 654.12988281 C-307.26461243 654.13317219 -307.26461243 654.13317219 -306.10314941 654.13652802 C-242.06930282 654.2088229 -169.66344568 635.76505767 -117.51635742 598.11352539 C-116.87682129 597.66041992 -116.23728516 597.20731445 -115.57836914 596.74047852 C-106.36195822 590.19037999 -97.96163357 583.08641812 -89.82104492 575.24243164 C-87.70958419 573.20981191 -85.55929698 571.28424667 -83.28979492 569.42993164 C-81.02121638 567.53518928 -79.15255662 565.74203707 -77.26635742 563.48852539 C-74.55599505 560.29881946 -71.75457837 557.22920113 -68.89135742 554.17602539 C-14.79280899 494.66762212 2.76406276 415.07906315 2.59716797 336.55859375 C2.5968851 334.66448468 2.59704578 332.77037549 2.59761047 330.87626648 C2.59789455 325.79064866 2.5920615 320.70505497 2.58503652 315.6194427 C2.57873743 310.28369571 2.57819404 304.94794801 2.57701111 299.61219788 C2.57391697 289.53337446 2.5657297 279.45456204 2.55566162 269.37574345 C2.54444059 257.8906841 2.53897501 246.40562419 2.53396618 234.92056072 C2.52354526 211.31820954 2.50598335 187.71586808 2.48364258 164.11352539 C0.55822866 164.11027196 -1.36718684 164.1079478 -3.29260254 164.10601807 C-4.90092579 164.10392775 -4.90092579 164.10392775 -6.54174042 164.1017952 C-74.4203892 164.3694699 -153.3835789 184.52296015 -206.51635742 228.11352539 Z " fill="#0E44AF" transform="translate(1967.516357421875,-0.113525390625)"/>
<path d="M0 0 C-4.75754263 13.0770151 -13.89228313 26.89913074 -25.98046875 34.0625 C-34.03171638 37.80002308 -42.53574459 38.7284645 -50.9921875 35.69140625 C-53.10634588 34.88556335 -55.20900472 34.05395249 -57.31152344 33.21826172 C-65.39239346 30.17290001 -73.44535517 30.02001087 -82 30 C-77.75058049 25.44108871 -72.92436764 23.02160739 -67.4375 20.1875 C-66.41043945 19.65632568 -65.38337891 19.12515137 -64.32519531 18.57788086 C-45.39107571 8.97465704 -21.56869346 -0.4251893 0 0 Z " fill="#0E44AF" transform="translate(868,195)"/>
</svg>
