<svg xmlns="http://www.w3.org/2000/svg" fill="none" viewBox="0 0 32 32" id="Ar-Argentina--Streamline-Flagpack" height="24" width="24">
  <desc>
    AR Argentina Streamline Icon: https://streamlinehq.com
  </desc>
  <path fill="#f7fcff" fill-rule="evenodd" d="M0 4v24h32V4H0Z" clip-rule="evenodd"></path>
  <mask id="a" width="32" height="24" x="0" y="4" maskUnits="userSpaceOnUse" style="mask-type:luminance">
    <path fill="#ffffff" fill-rule="evenodd" d="M0 4v24h32V4H0Z" clip-rule="evenodd"></path>
  </mask>
  <g mask="url(#a)">
    <path fill="#58a5ff" fill-rule="evenodd" d="M0 4v7h32V4H0Zm0 17v7h32v-7H0Z" clip-rule="evenodd"></path>
  </g>
  <path fill="#ffc125" fill-rule="evenodd" d="M15.22 9.504c-.067-.043-.147-.007-.179.08-.148.395-.038.744.051 1.027l.027.088a7.536 7.536 0 0 0 .108.333c.024.073.044.127.06.173a.832.832 0 0 1 .067.368c0 .094-.002.206-.004.327-.009.585-.022 1.407.137 1.75.038.082.23-.048.293-.098.063-.05.039-.322 0-.404-.16-.346-.16-1.053-.16-1.543v-.032a1.25 1.25 0 0 0-.092-.515 8.372 8.372 0 0 1-.055-.163l-.06-.18a6.29 6.29 0 0 1-.046-.146c-.01-.034-.024-.07-.038-.11-.068-.184-.158-.428-.049-.72.033-.088.006-.193-.06-.235Zm1.953.105c-.048-.074-.132-.082-.187-.02-.252.288-.253.666-.254.973v.001l-.001.094v.17l.002.193c0 .08.002.14.004.19a.851.851 0 0 1-.046.374l-.1.3c-.18.533-.432 1.283-.386 1.681.01.096.225.076.298.062.072-.013.13-.275.12-.371-.047-.402.16-1.053.304-1.503l.01-.03c.071-.225.069-.318.065-.522a51.341 51.341 0 0 0-.005-.534l-.003-.122c-.009-.204-.02-.475.167-.688a.217.217 0 0 0 .012-.248Zm1.583.957c.069-.03.144.02.168.112.025.092-.012.192-.08.223-.234.104-.3.362-.349.555-.01.042-.02.08-.031.114l-.045.148-.053.182a9.19 9.19 0 0 0-.048.168c-.053.192-.078.278-.207.451l-.018.023c-.259.346-.634.846-.704 1.242-.017.094-.144.308-.215.285-.072-.024-.276-.112-.26-.207.07-.392.515-.961.832-1.366.066-.084.126-.161.176-.228a.721.721 0 0 0 .148-.323c.013-.048.027-.105.05-.18l.052-.179a7.041 7.041 0 0 1 .075-.245c.087-.284.195-.634.509-.775Zm1.494 2.012c.005-.098-.05-.183-.122-.19-.33-.035-.532.231-.696.448l-.05.066a4.834 4.834 0 0 0-.09.12l-.102.138c-.042.057-.072.102-.098.14a.528.528 0 0 1-.23.22c-.066.035-.144.074-.229.117-.41.208-.987.5-1.166.825-.043.079.12.266.178.325.058.059.238-.072.281-.15.18-.328.673-.593 1.013-.776l.023-.012c.17-.091.217-.159.323-.308.026-.037.056-.08.093-.129l.102-.14c.032-.044.058-.079.084-.112.02-.026.04-.056.063-.09.102-.152.238-.354.483-.329.072.008.135-.065.14-.163Zm.606 2.154c.066.043.092.15.06.238s-.11.124-.176.08c-.22-.145-.402-.025-.54.065-.03.02-.057.038-.083.051a3.44 3.44 0 0 0-.11.063l-.134.078a4.7 4.7 0 0 0-.123.073c-.14.086-.202.124-.385.124h-.025c-.367 0-.897 0-1.157.214-.062.05-.265.082-.303-.002-.038-.083-.135-.338-.073-.39.257-.211.873-.194 1.312-.182.091.002.175.005.246.005.139 0 .18-.027.276-.089.034-.022.075-.049.13-.08l.132-.078a3.82 3.82 0 0 1 .183-.102c.212-.119.474-.265.77-.068Zm-.019 2.82a.223.223 0 0 0 .015-.25c-.216-.336-.5-.338-.73-.34h-.198l-.145.002c-.06 0-.105.004-.143.006a.389.389 0 0 1-.28-.062 10.857 10.857 0 0 1-.224-.132c-.4-.24-.963-.577-1.262-.516-.072.015-.057.3-.047.397.01.097.207.174.279.16.301-.062.79.214 1.127.405l.023.013c.169.096.238.093.392.087.038-.001.082-.003.134-.003l.146-.003h.12a.945.945 0 0 0 .091-.004c.153-.011.357-.026.516.223.048.073.13.08.186.017Zm-.725 2.088c.023.092-.014.193-.083.225-.07.032-.145-.017-.168-.109-.078-.31-.271-.398-.416-.464a1.155 1.155 0 0 1-.086-.041 3.432 3.432 0 0 0-.11-.06l-.137-.071-.126-.064c-.144-.071-.209-.103-.338-.276l-.018-.023c-.26-.346-.634-.846-.93-.94-.072-.022-.232-.192-.215-.287.018-.095.084-.367.155-.345.294.093.721.686 1.025 1.108.063.088.12.169.171.236.098.13.142.15.242.197.036.016.08.036.134.066l.135.07c.046.023.082.043.118.063l.066.036c.213.117.476.26.581.679Zm-1.521 1.976c.073.007.137-.067.143-.163.025-.44-.174-.71-.337-.928l-.05-.067a5.24 5.24 0 0 0-.09-.12l-.103-.135a3.454 3.454 0 0 0-.104-.13.68.68 0 0 1-.165-.308 20.385 20.385 0 0 1-.089-.306c-.156-.547-.375-1.315-.618-1.554-.06-.057-.2.16-.244.237-.044.079.054.318.113.375.245.241.444.897.581 1.35l.01.03c.068.228.118.29.23.431l.097.125.105.136c.033.043.06.078.085.113.019.026.042.053.066.083.114.136.266.317.247.644-.005.097.05.18.123.187Zm-1.632.8c-.032.087-.112.123-.178.08-.066-.043-.094-.148-.061-.235.11-.293.02-.537-.048-.72-.015-.04-.029-.077-.039-.11a6.29 6.29 0 0 0-.046-.147l-.06-.179a5.24 5.24 0 0 0-.054-.163 1.25 1.25 0 0 1-.093-.515v-.033c0-.489 0-1.196-.16-1.542-.039-.083-.062-.354 0-.404.064-.05.255-.18.293-.098.159.342.146 1.165.137 1.75-.002.12-.004.232-.004.327 0 .185.02.24.067.368.017.045.036.1.06.173l.058.176.05.157.027.087c.09.284.199.632.051 1.028Zm-2.132-.025c.048.073.132.082.188.019.251-.287.253-.665.254-.973v-.265l-.002-.192c0-.08-.002-.14-.004-.19-.005-.143-.008-.203.046-.374l.1-.3c.18-.533.432-1.283.386-1.681-.01-.097-.225-.076-.297-.063-.073.014-.13.276-.12.372.046.402-.161 1.053-.304 1.503l-.01.03a1.26 1.26 0 0 0-.065.522l.002.18a51.341 51.341 0 0 0 .002.354l.003.122c.009.204.02.475-.166.688a.216.216 0 0 0-.013.248Zm-1.582-.958c-.07.031-.145-.019-.17-.111-.023-.093.013-.193.082-.224.233-.104.299-.361.348-.554.01-.042.02-.081.031-.115.015-.044.028-.09.045-.148l.053-.181c.02-.065.035-.12.048-.168.054-.192.078-.279.207-.451l.018-.024c.26-.345.634-.845.705-1.241.016-.095.143-.309.215-.285.07.024.275.112.258.207-.07.392-.514.96-.83 1.366a9.21 9.21 0 0 0-.177.228.721.721 0 0 0-.148.323 3.158 3.158 0 0 1-.05.179c-.01.039-.052.18-.052.18a7.041 7.041 0 0 1-.075.244c-.087.285-.194.635-.508.775Zm-1.482-1.98c-.003.098.053.182.126.188.33.027.528-.244.69-.464l.049-.068c.027-.037.055-.074.088-.122l.1-.14.095-.141a.53.53 0 0 1 .228-.226c.066-.037.143-.078.228-.123.407-.218.98-.523 1.154-.852.042-.08-.122-.263-.182-.32-.059-.058-.237.077-.279.156-.176.332-.665.608-1.002.799l-.023.013c-.168.095-.215.163-.319.315-.026.038-.055.081-.091.131a37.53 37.53 0 0 0-.184.257c-.019.026-.04.057-.06.09-.101.155-.234.36-.48.341-.072-.006-.134.069-.138.167Zm-.619-2.185c-.065-.043-.092-.15-.06-.238s.11-.125.176-.081c.22.145.403.026.54-.064.03-.02.057-.038.083-.052a2.44 2.44 0 0 0 .11-.062l.134-.079c.048-.027.088-.051.123-.073.14-.085.202-.124.386-.124h.024c.367 0 .897 0 1.157-.213.062-.051.265-.083.303.001.038.084.136.339.074.39-.258.212-.874.195-1.313.183a7.639 7.639 0 0 0-.245-.005c-.14 0-.18.026-.276.089a3.08 3.08 0 0 1-.13.08l-.133.077a3.82 3.82 0 0 1-.182.103c-.213.119-.474.265-.771.068Zm.02-2.82a.223.223 0 0 0-.015.25c.215.336.499.338.73.34h.198l.144-.002c.06 0 .105-.004.143-.006a.383.383 0 0 1 .28.062c.066.037.142.082.225.132.4.24.963.577 1.261.516.072-.015.057-.3.047-.398-.01-.097-.207-.173-.279-.159-.301.062-.79-.215-1.127-.406l-.023-.013c-.168-.095-.237-.093-.391-.087a3.863 3.863 0 0 1-.135.004l-.146.002h-.12a.945.945 0 0 0-.09.004c-.154.012-.357.027-.517-.222-.047-.074-.13-.081-.186-.017Zm.724-2.088c-.023-.092.014-.193.084-.225s.144.016.167.108c.079.31.272.398.416.464a.992.992 0 0 1 .086.042l.111.06.136.07.126.065c.144.07.21.103.339.276l.017.023c.26.346.634.846.931.94.071.022.232.191.214.286-.018.095-.084.368-.155.345-.294-.092-.721-.686-1.025-1.108-.063-.088-.12-.168-.17-.235a.506.506 0 0 0-.243-.197c-.036-.017-.079-.037-.134-.066l-.135-.07a3.827 3.827 0 0 1-.118-.063l-.066-.037c-.213-.116-.475-.26-.58-.678Zm1.521-1.976c-.073-.007-.137.066-.142.163-.026.44.173.709.336.927l.05.068.09.12.103.135.104.13a.67.67 0 0 1 .166.308l.088.306c.156.546.375 1.315.619 1.553.058.058.2-.159.243-.237.044-.078-.054-.317-.112-.375-.246-.24-.445-.896-.582-1.35l-.01-.03a1 1 0 0 0-.23-.43l-.097-.125a32.667 32.667 0 0 0-.19-.25c-.018-.026-.041-.053-.066-.083-.114-.136-.266-.317-.247-.643.006-.097-.05-.18-.123-.187Z" clip-rule="evenodd"></path>
  <path fill="#984111" d="m15.041 9.584-.07-.026.07.026Zm.051 1.027.072-.022-.072.022Zm0 0-.071.023v.001l.071-.024Zm0 0 .072-.022v-.001l-.072.024Zm0 0-.071.023.071-.022Zm0 0 .072-.022-.072.023Zm.027.088-.071.022.071-.022Zm.05.156-.071.024.142-.047-.071.023Zm.058.177-.071.023.071-.023Zm.06.173.07-.026-.07.026Zm.063.695.075.002-.075-.002Zm0 0-.075-.001.075.001Zm.137 1.75.068-.032-.068.032Zm.294-.502.068-.032-.068.032Zm-.16-1.543h.075-.075Zm0-.032h.075-.075Zm-.093-.515.07-.024-.07.024Zm-.055-.163.071-.024-.071.024Zm-.06-.18-.07.024.142-.047-.071.024Zm-.046-.146-.072.022.072-.022Zm-.038-.11-.07.026.07-.026Zm-.049-.72.07.026-.07-.027Zm1.706-.15-.057-.049.057.05Zm.187.02.063-.041-.063.041Zm-.441.954h-.075.075Zm0 0h.075-.075Zm-.001.094h-.075.075Zm0 .17h-.075.15-.075Zm.002.193h.075-.075Zm.004.19-.075.003.075-.003Zm-.046.374-.072-.023.072.023Zm-.1.3-.07-.025.07.024Zm0 0 .071.025v-.002l-.07-.024Zm0 0-.07-.026v.002l.07.023Zm0 0 .072.023-.072-.024Zm-.386 1.681.074-.008-.074.008Zm.298.062-.014-.073.014.073Zm.12-.371-.075.008.074-.008Zm.304-1.503.072.023v-.007l-.072-.016Zm0 0-.07-.028-.003.011.073.017Zm0 0 .07.028.001-.006-.071-.022Zm.01-.03.07.022-.07-.022Zm.065-.522h-.075v.001l.075-.001Zm0 0h.075v-.002l-.075.002Zm-.003-.18h-.075.075Zm-.002-.195h-.075.15-.075Zm0-.16.075.002-.075-.001Zm-.003-.121.075-.003-.075.003Zm.167-.688-.057-.05.057.05Zm1.763.82-.072.02.072-.02Zm-.168-.11.03.068-.03-.069Zm.087.334-.03-.068.03.068Zm-.348.555.073.019-.073-.02Zm-.031.114.071.023-.071-.023Zm-.045.148-.072-.02.144.041-.072-.02Zm-.053.182.072.021-.072-.02Zm-.048.168.072.02-.072-.02Zm-.207.451.06.045-.06-.045Zm-.018.023.06.045-.06-.045Zm-.704 1.242.073.013-.073-.013Zm-.215.285.023-.072-.023.072Zm-.26-.207-.073-.013.074.013Zm.832-1.366-.06-.046.06.046Zm.176-.228-.06-.045.06.045Zm.148-.323.073.018-.073-.018Zm.05-.18-.072-.02.072.02Zm.052-.179-.072-.021.144.042-.072-.021Zm.048-.157.071.022-.071-.022Zm.027-.088-.071-.023v.001l.07.022Zm0 0 .071.023.001-.004-.072-.019Zm0 0-.072-.022v.003l.072.02Zm1.88 1.046.008-.074-.008.074Zm.123.191.075.004-.075-.004Zm-.818.258-.06-.046v.001l.06.045Zm0 0 .06.046v-.002l-.06-.044Zm0 0-.06-.046.06.046Zm-.05.066-.06-.046.06.046Zm-.09.12-.062-.044.122.088-.06-.044Zm-.102.138-.06-.044.06.044Zm-.098.14.063.041-.063-.042Zm-.23.22-.036-.067.036.066Zm-.229.117-.034-.067.034.067Zm0 0 .034.067-.034-.067Zm0 0 .033.068-.033-.068Zm0 0-.034-.067.034.067Zm0 0 .033.068-.034-.067Zm0 0-.034-.067.033.068Zm-1.166.825-.066-.036.066.036Zm.178.325.053-.053-.053.053Zm.281-.15.066.036-.066-.036Zm1.013-.776.035.066-.035-.066Zm.023-.012.035.066-.035-.066Zm.323-.308-.062-.043.062.043Zm0 0 .06.044-.06-.044Zm.093-.129.06.045-.06-.045Zm.102-.14-.06-.044.12.089-.06-.045Zm.084-.112.06.046-.06-.046Zm.063-.09.062.043v-.002l-.062-.04Zm0 0-.06-.045-.003.005.063.04Zm0 0 .06.046.001-.002-.061-.043Zm0 0 .061.044.001-.002-.062-.041Zm.483-.329-.008.075.008-.075Zm.746 1.99-.041.063.041-.062Zm-.116.32-.041.062.041-.062Zm-.54.064-.04-.063.04.063Zm-.083.051-.035-.066.035.066Zm-.11.063-.038-.065.076.13-.038-.065Zm-.134.078.038.065-.038-.065Zm-.123.073-.039-.064.04.064Zm-.385.124v.075-.075Zm-.025 0v.075-.075Zm-1.157.214-.047-.058.047.058Zm-.303-.002.069-.03-.069.03Zm-.073-.39.048.058-.048-.058Zm1.312-.182.002-.075-.002.075Zm.522-.084.04.063-.04-.063Zm.13-.08-.038-.065.037.065Zm.132-.078-.038-.064.075.13-.037-.066Zm.117-.066-.036-.066.036.066Zm.066-.036-.037-.066.037.066Zm0 0 .036.066-.036-.066Zm.766 2.501.063-.04-.063.04Zm-.73-.339v-.075.075Zm0 0v.075-.075Zm-.071 0-.002.075.002-.075Zm-.127 0-.002-.076.003.15-.001-.075Zm-.145.002v.075-.075Zm-.143.006-.005-.075.005.075Zm-.28-.062-.037.065.037-.065Zm-.224-.132.038-.065-.038.065Zm0 0-.039.064.038-.064Zm0 0-.04.063.001.001.038-.064Zm0 0 .04-.064h-.002l-.039.064Zm-1.262-.516.015.073-.015-.073Zm.232.556.015.074-.015-.074Zm1.127.407-.037.065.037-.066Zm.023.012-.037.066.037-.066Zm.392.087.002.075h.003l-.006-.075Zm0 0-.003-.075h-.003l.005.075Zm.134-.003v.075-.075Zm.146-.003v-.075l.002.15-.002-.075Zm.12 0 .002-.075-.002.075Zm.091-.004-.005-.075.005.075Zm.516.223-.063.04.063-.04Zm-.539 2.105.073-.018-.073.018Zm-.251.116.073-.018-.073.018Zm-.416-.464.031-.068-.005-.002-.026.07Zm0 0-.032.068.006.003.026-.07Zm0 0 .032-.068h-.001l-.031.068Zm-.086-.041-.037.065.037-.065Zm-.11-.06.034-.067-.07.133.035-.066Zm-.137-.071-.035.066.035-.066Zm-.126-.064-.033.067.033-.067Zm-.338-.276-.06.045.06-.045Zm-.018-.023-.06.045.06-.045Zm-.93-.94-.023.072.022-.072Zm-.06-.632.023-.071-.023.071Zm1.025 1.108.06-.043-.06.043Zm.171.236.06-.046-.06.046Zm.242.197.032-.068-.032.068Zm.134.066-.035.066.035-.067Zm.135.07.035-.067-.07.133.035-.067Zm.118.063.037-.065-.037.065Zm.066.036.036-.065-.036.065Zm-.797 2.492-.075-.005.075.005Zm-.143.163.006-.075-.006.075Zm-.194-1.09-.06.044.06-.045Zm-.05-.068-.06.044.06-.044Zm-.09-.12.06-.046-.12.09.06-.044Zm-.103-.135.06-.045-.06.045Zm-.104-.13-.058.047.058-.047Zm-.165-.308.071-.022-.071.022Zm-.089-.306-.073.018v.003l.073-.02Zm0 0 .073-.018v-.003l-.073.021Zm-.618-1.554-.053.054.053-.054Zm-.131.612.052-.053-.052.053Zm.581 1.35-.072.022.072-.021Zm.01.03-.072.023.072-.022Zm.23.431-.058.047.058-.047Zm.097.125.06-.046-.06.046Zm.105.136.06-.046-.12.092.06-.046Zm.085.113.06-.044-.06.044Zm.066.083.058-.048-.058.048Zm.247.644-.075-.005.075.005Zm-1.687 1.067.04-.063-.04.063Zm.178-.08.07.026-.07-.026Zm-.24-.155-.07-.026.07.026Zm-.047-.72.07-.026v-.002l-.07.028Zm0 0-.07.026v.002l.07-.028Zm-.039-.11.072-.022-.072.021Zm-.046-.147.07-.024-.142.047.072-.023Zm-.06-.179.072-.023-.071.023Zm-.054-.163.07-.025-.07.024Zm0 0 .07-.025v-.002l-.07.026Zm0 0-.071.024v.002l.07-.027Zm-.093-.515h-.075.075Zm0-.033h-.075.075Zm-.16-1.542-.068.031.068-.031Zm0-.404.047.058-.046-.058Zm.293-.098-.068.031.068-.031Zm.137 1.75h.075-.075Zm0 0-.075-.002.075.001Zm.063.695.07-.026-.07.026Zm.06.173-.071.023.071-.023Zm.058.176.071-.023-.07.023Zm0 0 .072-.023-.072.023Zm.05.157-.072.021.072-.021Zm.027.087.072-.022-.072.022Zm-1.893 1.022.056.05-.056-.05Zm.254-.973h.075-.075Zm0 0h-.075.075Zm0-.095.075.001h-.075Zm0-.17h.075l-.15.001h.075Zm-.002-.192h.075-.075Zm-.004-.19h-.075v.002l.075-.003Zm0 0h.075v-.005l-.075.004Zm0 0-.075.002v.002l.075-.005Zm.046-.374-.071-.023.071.023Zm.1-.3.07.024-.07-.024Zm.386-1.681.075-.009-.074.009Zm-.297-.063.013.074-.013-.074Zm-.12.372-.074.008.074-.008Zm-.304 1.503-.072-.023.072.023Zm-.01.03-.072-.023.072.023Zm-.065.522.075-.002-.075.002Zm.002.18.075-.001h-.075Zm.002.195.075-.001-.15.001h.075Zm0 .159-.075-.001h.075Zm.003.122.075-.003-.075.003Zm-.166.688-.057-.05.057.05Zm-1.764-.821-.073.019.073-.02Zm.168.111-.03-.068.03.068Zm-.087-.335.03.069-.03-.069Zm.348-.554-.073-.019.073.019Zm.031-.115-.071-.023.072.023Zm.045-.148.072.021-.144-.042.072.021Zm.053-.181.072.021-.072-.021Zm.048-.168-.072-.02.072.02Zm.207-.451-.06-.046.06.046Zm.018-.024-.06-.045.06.045Zm.705-1.241-.074-.013.074.013Zm.215-.285-.024.071.024-.071Zm.258.207-.074-.014.074.014Zm-.83 1.366.058.046-.059-.046Zm-.177.228-.06-.045.06.045Zm-.148.323-.073-.019.073.019Zm0 0 .073.019-.073-.02Zm-.05.179.073.021-.072-.021Zm-.052.18.072.02-.144-.042.072.022Zm-.047.157.071.023-.072-.023Zm-.028.087-.071-.022.071.022Zm0 0-.072-.022v.004l.072.018Zm0 0 .072.022.001-.003-.073-.019Zm-1.864-1.017.006-.074-.006.074Zm-.126-.187-.075-.003.075.003Zm.815-.277.06.044-.06-.044Zm.05-.068-.06-.045.06.045Zm.088-.122.062.044-.062-.044Zm0 0 .062.043-.062-.043Zm.1-.14-.062-.044.062.044Zm.095-.141-.062-.041.062.04Zm.228-.226-.037-.065.037.065Zm.228-.123-.035-.067.034.067Zm0 0 .034.066h.001l-.035-.066Zm0 0-.035-.067.035.067Zm0 0-.034-.067h-.001l.035.067Zm0 0 .034.066h.001l-.035-.066Zm1.154-.852.067.035-.067-.035Zm-.46-.164.065.035-.066-.035Zm-1.003.799-.037-.065.037.065Zm-.023.013-.037-.066.037.066Zm-.319.315-.062-.043.062.043Zm-.091.131-.061-.043.06.043Zm-.1.142.06.044-.122-.087.062.043Zm-.084.115.06.045-.06-.045Zm-.06.09.062.041-.063-.04Zm-.48.341-.005.075.006-.075Zm-.757-2.019.041-.063-.041.063Zm.116-.32.041-.062-.041.063Zm.54-.063-.038-.065-.003.002.041.063Zm0 0 .038.064.003-.002-.041-.062Zm.083-.052-.036-.066.036.066Zm.11-.062.038.065-.076-.13.038.065Zm.134-.079.037.066-.037-.066Zm.123-.073.039.064-.04-.064Zm0 0 .039.064-.04-.064Zm0 0 .04.064.004-.003-.044-.06Zm0 0-.04-.064-.004.003.044.061Zm.386-.124v-.075.075Zm.024 0v-.075.075Zm1.157-.213.048.058-.048-.058Zm.303.001.068-.03-.068.03Zm.074.39.047.058-.047-.058Zm-1.313.183-.002.075.002-.075Zm-.521.084-.041-.063.04.063Zm-.13.08.037.065-.037-.065Zm-.133.077.038.065-.075-.13.037.065Zm-.117.066.036.067-.036-.067Zm-.065.037.037.065-.037-.065Zm0 0-.037-.066-.001.001.038.065Zm0 0 .036.065h.002l-.038-.065Zm-.766-2.502-.063.041.063-.04Zm.014-.25-.057-.049.057.05Zm.715.59v.074-.075Zm0 0v-.076.075Zm.071 0-.001.075.001-.075Zm.128 0 .001.075-.003-.15.002.075Zm.144-.002v-.075.075Zm.143-.006.005.074-.005-.074Zm.28.062.037-.066-.037.066Zm.225.132.044-.06-.005-.004-.04.064Zm0 0-.044.06.006.004.038-.064Zm0 0 .039-.064-.039.064Zm1.261.516-.015-.074.015.074Zm-.232-.557-.015-.073.015.073Zm-1.127-.406.037-.065-.037.065Zm-.023-.013.037-.065-.037.065Zm-.391-.087-.003-.075h-.003l.006.075Zm0 0 .003.075h.002l-.005-.075Zm-.135.004v-.075.075Zm-.146.002.001.075-.002-.15.001.075Zm-.12 0-.001.075.001-.075Zm-.09.004.005.075-.006-.075Zm-.517-.222-.063.04.063-.04Zm.623-2.33.031.068-.031-.068Zm-.084.225-.073.018.073-.018Zm.251-.117.073-.018-.073.018Zm.416.464-.03.068.002.002.028-.07Zm0 0 .031-.068-.003-.002-.028.07Zm.086.042-.037.065.037-.065Zm.111.06-.035.066.07-.133-.035.067Zm.136.07.036-.066-.035.067Zm.126.065-.033.067.033-.067Zm.339.276.06-.045-.06.045Zm.017.023.06-.045-.06.045Zm.931.94.023-.072-.023.071Zm.214.286-.074-.014.074.014Zm-.155.345-.023.072.023-.072Zm-1.025-1.108-.06.044.06-.044Zm-.17-.235-.06.045.06-.045Zm-.243-.197.031-.068-.031.068Zm-.134-.066.035-.066-.035.066Zm-.135-.07-.035.067.07-.133-.035.066Zm-.118-.063.037-.066-.037.066Zm-.066-.037-.036.066.036-.066Zm.798-2.49-.075-.005.075.004Zm.336.926-.06.045.06-.045Zm.05.068.06-.044-.06.044Zm.09.12-.06.046.12-.091-.06.045Zm.103.135.06-.046-.06.046Zm.104.13-.057.048.057-.048Zm.166.308-.072.022.072-.022Zm.088.306-.072.02.072-.02Zm.619 1.553-.053.054.053-.054Zm.243-.237-.065-.037.065.037Zm-.112-.375.052-.053-.052.053Zm-.582-1.35-.072.022.072-.022Zm-.01-.03.073-.022-.072.022Zm-.23-.43-.059.046.059-.047Zm-.097-.125-.06.045.06-.045Zm-.105-.136-.06.045.12-.091-.06.046Zm-.084-.113.06-.044-.06.044Zm-.067-.084-.057.049.057-.049Zm-.247-.643-.075-.005.075.005Zm1.58-.961c.01-.028.025-.042.036-.047a.028.028 0 0 1 .03.004l.082-.126a.18.18 0 0 0-.173-.014.227.227 0 0 0-.116.13l.14.053Zm.052.979c-.09-.285-.19-.61-.053-.979l-.14-.052c-.158.422-.04.794.05 1.076l.143-.045Zm0 0-.143.045.143-.045Zm0-.001-.143.047.142-.047Zm0 .001-.143.045.143-.045Zm0 0-.143.046.143-.047Zm.027.088a10.29 10.29 0 0 0-.027-.088l-.143.045.027.087.143-.044Zm.05.155a6.481 6.481 0 0 1-.05-.155l-.143.044a3.8 3.8 0 0 0 .05.158l.142-.047Zm.058.177a28.21 28.21 0 0 0-.034-.103l-.017-.052-.006-.016-.001-.005v-.001s-.095-.048-.143.047l.142-.047c-.047.094-.142.047-.142.047v.001l.002.005.005.016.017.052.034.102.143-.046Zm.059.17a5.213 5.213 0 0 1-.06-.17l-.142.046c.024.074.044.13.06.175l.142-.05Zm.071.394c0-.095-.005-.161-.017-.22a1.278 1.278 0 0 0-.054-.174l-.141.051a1.1 1.1 0 0 1 .048.152c.01.046.014.1.014.19h.15Zm-.004.329c.002-.122.004-.234.004-.33h-.15c0 .095-.002.205-.004.327l.15.003Zm0 0-.15-.003.15.003Zm.13 1.716c-.072-.156-.109-.433-.124-.756-.016-.318-.01-.668-.006-.96l-.15-.003c-.004.292-.01.646.006.97.015.32.052.626.138.812l.136-.063Zm.178-.125a.8.8 0 0 1-.14.09.176.176 0 0 1-.057.019c-.004 0-.002-.001.004.002a.03.03 0 0 1 .015.014l-.136.063a.118.118 0 0 0 .057.058.14.14 0 0 0 .068.012.316.316 0 0 0 .112-.032.944.944 0 0 0 .17-.109l-.093-.117Zm-.02-.314a.331.331 0 0 1 .019.073.835.835 0 0 1 .006.214.132.132 0 0 1-.008.028c-.002.006-.003.004.003 0l.094.116a.145.145 0 0 0 .041-.057.28.28 0 0 0 .018-.06.655.655 0 0 0 .007-.134.985.985 0 0 0-.014-.133.467.467 0 0 0-.03-.11l-.136.063Zm-.167-1.574c0 .245 0 .546.02.83.02.282.06.558.147.744l.136-.063c-.074-.16-.114-.41-.134-.691-.02-.278-.02-.575-.02-.82h-.15Zm0-.032v.032h.15v-.032h-.15Zm-.09-.49a1.8 1.8 0 0 1 .069.226c.014.068.02.145.02.264h.15a1.43 1.43 0 0 0-.023-.294c-.017-.08-.042-.153-.073-.245l-.142.049Zm-.055-.165.056.165.142-.05a8.05 8.05 0 0 1-.055-.162l-.143.047Zm.084-.226v.001c-.042.092-.14.053-.142.047a.879.879 0 0 0 .007.02l.017.053.034.105.143-.046-.035-.106-.017-.052-.005-.016-.002-.004v-.002c-.002-.006-.1-.045-.143.046v.001l.143-.047Zm-.19-.101.047.148.143-.047a6.253 6.253 0 0 1-.046-.145l-.144.044Zm-.037-.106c.015.04.028.075.037.106l.144-.044a2.12 2.12 0 0 0-.04-.114l-.14.052Zm-.048-.773c-.12.322-.02.59.048.773l.14-.052c-.067-.184-.146-.404-.047-.668l-.14-.053Zm-.031-.145a.094.094 0 0 1 .035.056.151.151 0 0 1-.004.09l.14.052a.3.3 0 0 0 .01-.18.243.243 0 0 0-.1-.144l-.081.126Zm1.863.072c.014-.015.025-.017.033-.016.008 0 .022.006.036.027l.125-.082a.201.201 0 0 0-.146-.095.187.187 0 0 0-.16.067l.112.1Zm-.235.924c0-.313.005-.66.235-.924l-.113-.099c-.273.312-.271.72-.272 1.022h.15Zm0 0h-.15.15Zm0 0h-.15.15Zm0 0h-.15.15Zm0 0h-.15.15Zm0 0h-.15.15Zm0 0h-.15.15Zm0 0h-.15.15Zm0 0h-.15.15Zm0 0h-.15.15Zm0 0h-.15.15Zm0 0h-.15.15Zm0 0h-.15.15Zm0 0h-.15.15Zm0 0h-.15.15Zm0 0h-.15.15Zm-.001.095v-.095h-.15v.093l.15.002Zm0 .168v-.168l-.15-.002v.171h.15Zm.002.194-.001-.113v-.057l-.001-.017v-.007s-.074.076-.15.002l.15-.002c-.076-.074-.15.002-.15.002v.08l.002.112h.15Zm.004.187a4.486 4.486 0 0 1-.004-.188l-.15.001c0 .08.002.143.004.193l.15-.006Zm-.05.4c.028-.089.043-.152.05-.213.005-.06.003-.117 0-.187l-.15.006c.003.072.005.118 0 .166a.885.885 0 0 1-.043.182l.143.046Zm-.1.3c.038-.11.072-.213.1-.3l-.143-.046a12.8 12.8 0 0 1-.099.298l.143.048Zm0 0-.142-.047.143.047Zm0 .002-.14-.051h-.001l.141.051Zm0-.002-.142-.047.143.047Zm-.383 1.65c-.02-.184.027-.459.107-.763.08-.301.187-.62.277-.887l-.143-.048c-.09.267-.198.59-.279.897-.08.304-.135.603-.11.818l.148-.018Zm.21-.003a.643.643 0 0 1-.152.009.17.17 0 0 1-.058-.013c-.008-.004 0-.003 0 .006l-.149.018a.141.141 0 0 0 .082.11.312.312 0 0 0 .113.028.79.79 0 0 0 .192-.011l-.028-.147Zm.059-.29a.613.613 0 0 1-.072.295c-.003.002.002-.003.013-.005l.028.147a.126.126 0 0 0 .066-.037.235.235 0 0 0 .036-.05.745.745 0 0 0 .077-.366l-.148.016Zm.307-1.534c-.071.225-.16.503-.225.775-.064.27-.107.545-.082.76l.149-.018c-.022-.187.016-.44.08-.707.063-.266.15-.539.221-.764l-.143-.046Zm-.002.006.147.033-.146-.033Zm.004-.011.14.056-.14-.056Zm.008-.025-.01.03.143.045.01-.03-.143-.045Zm.062-.498a1.2 1.2 0 0 1-.062.498l.143.045c.037-.115.056-.2.064-.283.009-.083.007-.162.005-.263l-.15.003Zm0-.002h.15-.15Zm0 0h.15-.15Zm-.003-.178c0 .07.002.129.003.18l.15-.003a9.985 9.985 0 0 1-.003-.178h-.15Zm.148-.197v.001c-.07.075-.15.006-.15.002v-.001.08l.002.115.15-.001-.001-.115v-.075l-.001-.004v-.002c0-.005-.08-.074-.15.001h.15Zm-.15-.16v.162l.15-.002v-.157l-.15-.002Zm-.003-.117.003.118.15.002-.003-.126-.15.006Zm.185-.74c-.209.238-.193.54-.185.74l.15-.006c-.009-.208-.016-.449.148-.636l-.113-.099Zm.007-.158a.14.14 0 0 1 .02.083.123.123 0 0 1-.027.074l.113.1a.273.273 0 0 0 .064-.166.29.29 0 0 0-.045-.173l-.125.082Zm1.886 1.009a.247.247 0 0 0-.099-.146.178.178 0 0 0-.173-.015l.061.137c.01-.004.018-.004.03.003a.099.099 0 0 1 .036.059l.145-.038Zm-.123.31a.225.225 0 0 0 .115-.13.305.305 0 0 0 .008-.18l-.145.038a.155.155 0 0 1-.004.09c-.01.027-.024.04-.035.046l.06.137Zm-.306.506c.025-.098.052-.203.1-.296a.429.429 0 0 1 .206-.21l-.061-.136a.58.58 0 0 0-.28.278c-.056.11-.086.23-.11.326l.145.038Zm-.033.118c.012-.036.022-.077.033-.118l-.145-.038c-.011.043-.02.08-.03.11l.142.046Zm-.044.146.044-.146-.143-.045a6.41 6.41 0 0 0-.045.15l.144.041Zm-.053.182a20.191 20.191 0 0 0 .047-.16l.004-.016a.154.154 0 0 1 .002-.006c.001-.006-.056-.094-.144-.043v.001l.144.042v.001c-.088.051-.145-.037-.144-.042l-.002.005a.816.816 0 0 1-.005.016l-.015.053-.031.107.144.043Zm-.048.167.048-.166-.144-.043c-.02.065-.035.12-.048.168l.144.04Zm-.22.476a1.107 1.107 0 0 0 .22-.476l-.144-.04a1.749 1.749 0 0 1-.072.223.961.961 0 0 1-.123.203l.12.09Zm-.017.023.018-.023-.12-.09-.017.023.12.09Zm-.69 1.21c.032-.184.137-.397.27-.613.134-.215.29-.423.42-.597l-.12-.09c-.129.173-.29.387-.427.608-.136.22-.254.453-.291.666l.147.026Zm-.313.343c.058.019.107-.014.133-.035a.638.638 0 0 0 .18-.309l-.148-.025a.505.505 0 0 1-.128.218c-.019.016-.012.001.01.008l-.047.143Zm-.309-.291a.16.16 0 0 0 .04.13c.024.03.058.056.09.076a.89.89 0 0 0 .18.085l.046-.143a.735.735 0 0 1-.145-.068.236.236 0 0 1-.056-.046c-.01-.013-.006-.014-.007-.008l-.148-.026Zm.846-1.4c-.158.203-.35.449-.512.694-.16.242-.296.493-.334.706l.148.026c.032-.18.152-.409.311-.65.158-.239.346-.48.505-.683l-.118-.092Zm.175-.226-.175.227.118.092c.066-.084.127-.162.177-.23l-.12-.09Zm.136-.297c-.018.068-.03.11-.047.152a.691.691 0 0 1-.089.145l.12.09a.838.838 0 0 0 .107-.176c.023-.054.037-.108.054-.174l-.145-.037Zm.05-.182a4.931 4.931 0 0 0-.05.182l.145.037c.012-.047.027-.103.048-.176l-.143-.043Zm.196-.137c-.093.051-.144-.042-.144-.042v.002l-.002.004c0 .004-.003.01-.005.017l-.015.052-.03.104.143.043a17.292 17.292 0 0 0 .047-.158l.004-.016.002-.005v-.001s-.051-.093-.144-.042l.144.042Zm-.096-.201-.048.159.144.042.047-.155-.143-.046Zm.027-.087a9.21 9.21 0 0 1-.027.087l.143.045c.01-.028.018-.058.028-.088l-.144-.044Zm0 0 .143.045-.142-.046Zm0 .003.144.039-.145-.04Zm.55-.824a.805.805 0 0 0-.374.366c-.082.148-.132.314-.176.455l.144.044c.044-.143.09-.294.163-.427a.656.656 0 0 1 .305-.301l-.062-.137Zm1.395 1.964c.008 0 .021.007.035.027.013.02.022.05.02.085l.15.008a.295.295 0 0 0-.044-.174.2.2 0 0 0-.146-.095l-.015.149Zm-.628.419c.083-.11.169-.222.272-.305a.473.473 0 0 1 .356-.114l.015-.15a.622.622 0 0 0-.464.147c-.121.096-.218.225-.299.331l.12.091Zm0 0-.12-.09.12.09Zm0 0-.12-.091.12.092Zm-.052.067.052-.067-.12-.09a6.683 6.683 0 0 1-.05.065l.119.092Zm-.088.118.088-.118-.118-.092a5.259 5.259 0 0 0-.091.122l.12.088Zm-.102.139.06-.08a.4.4 0 0 1 .03-.041l.009-.013.002-.004s-.104.016-.12-.089l.121.088c-.017-.105-.121-.088-.121-.088l-.001.001-.003.004a1.503 1.503 0 0 0-.009.012l-.03.04-.058.08.12.09Zm-.095.136a3.48 3.48 0 0 1 .095-.136l-.12-.09c-.043.058-.074.105-.1.142l.125.084Zm-.258.244a.615.615 0 0 0 .155-.11.925.925 0 0 0 .103-.134l-.125-.084a.79.79 0 0 1-.085.113.475.475 0 0 1-.119.083l.071.132Zm-.23.12.23-.12-.071-.132c-.065.035-.142.074-.227.117l.068.134Zm0 0-.068-.135.068.134Zm0 0-.068-.135.067.134Zm0 0-.068-.135.067.135Zm0 0-.068-.134.067.133Zm-.001 0-.067-.135.067.135Zm-1.133.793c.08-.144.254-.29.47-.429.215-.137.458-.26.663-.365l-.067-.133a7.5 7.5 0 0 0-.676.372c-.22.14-.422.303-.522.483l.132.072Zm.165.236a1.05 1.05 0 0 1-.118-.143.36.36 0 0 1-.04-.077c-.009-.024-.002-.024-.007-.016l-.132-.072c-.026.048-.016.1-.004.136a.502.502 0 0 0 .058.111c.046.07.105.135.137.167l.106-.106Zm.162-.133a.348.348 0 0 1-.167.125c-.016.003-.007-.003.005.008l-.106.106c.04.04.094.04.13.033a.485.485 0 0 0 .27-.2l-.131-.072Zm1.043-.806c-.17.091-.381.205-.573.338-.19.132-.37.288-.47.468l.132.072c.081-.148.238-.288.423-.416.184-.128.389-.238.56-.33l-.072-.132Zm.023-.012-.023.012.071.132.023-.012-.071-.132Zm.297-.285a1.304 1.304 0 0 1-.13.166.665.665 0 0 1-.167.119l.071.132a.817.817 0 0 0 .204-.145c.051-.053.093-.112.145-.185l-.123-.087Zm0 0 .123.087-.123-.087Zm.094-.13-.094.13.123.087c.026-.038.056-.08.092-.128l-.12-.09Zm.223-.051c-.1.02-.125-.083-.121-.088l-.003.004-.01.012-.029.04-.06.082.12.09.061-.083.03-.04.01-.013c0-.002.001-.003.002-.003v-.001l.001-.001c.003-.006-.022-.108-.121-.089v.001l.12.089Zm-.035-.203a5.2 5.2 0 0 0-.086.114l.121.089c.033-.044.058-.079.084-.111l-.119-.092Zm.06-.085a1.6 1.6 0 0 1-.06.085l.119.092c.021-.028.043-.061.065-.093l-.124-.084Zm-.001 0 .126.082-.126-.081Zm.003-.003.12.09-.12-.09Zm-.001.001.122.087-.122-.087Zm.551-.36a.451.451 0 0 0-.351.116 1.182 1.182 0 0 0-.201.246l.124.083c.052-.077.106-.157.175-.216a.302.302 0 0 1 .238-.08l.015-.15Zm.058-.093a.128.128 0 0 1-.027.076c-.013.015-.024.017-.03.017l-.016.149a.186.186 0 0 0 .16-.068.276.276 0 0 0 .063-.166l-.15-.008Zm.812 2.421a.31.31 0 0 0 .009-.18.246.246 0 0 0-.098-.146l-.083.125a.098.098 0 0 1 .035.058.16.16 0 0 1-.004.092l.141.051Zm-.288.118c.054.036.118.04.173.015a.227.227 0 0 0 .115-.133l-.141-.051c-.01.03-.026.043-.037.047-.008.004-.016.005-.027-.003l-.083.125Zm-.458.065a.75.75 0 0 1 .217-.11.285.285 0 0 1 .241.045l.083-.125a.435.435 0 0 0-.361-.066c-.104.026-.195.086-.262.13l.082.126Zm-.088.054a.904.904 0 0 0 .088-.054l-.082-.126c-.03.02-.055.037-.077.048l.07.132Zm-.108.061c.042-.024.075-.043.108-.06l-.071-.133-.113.064.076.13Zm-.134.08.079-.047.04-.023.011-.007.003-.002h.001v-.001h.002c.006-.005.02-.109-.076-.13h-.001l.075.13v.001c-.098-.02-.083-.125-.077-.13h.001l-.004.002a.75.75 0 0 0-.012.008l-.04.023-.077.045.075.13Zm-.121.072a4.49 4.49 0 0 1 .12-.073l-.074-.13-.125.074.079.128Zm-.425.134a.67.67 0 0 0 .235-.034c.064-.023.121-.059.19-.1l-.079-.129a.932.932 0 0 1-.163.088.518.518 0 0 1-.183.025v.15Zm-.025 0h.025v-.15h-.025v.15Zm-1.109.197c.113-.093.292-.144.5-.17.205-.027.425-.027.609-.027v-.15c-.183 0-.412 0-.628.027-.214.028-.43.083-.576.204l.095.116Zm-.42-.029a.158.158 0 0 0 .101.084.324.324 0 0 0 .115.012.47.47 0 0 0 .11-.02.283.283 0 0 0 .094-.047l-.095-.116a.14.14 0 0 1-.043.02.319.319 0 0 1-.075.013.176.176 0 0 1-.06-.005c-.014-.005-.012-.008-.01-.002l-.136.061Zm-.052-.478a.127.127 0 0 0-.04.066.227.227 0 0 0-.007.064c.001.041.01.087.022.13.022.085.058.174.078.218l.137-.061c-.018-.04-.05-.12-.07-.196a.452.452 0 0 1-.016-.116c0-.003 0 .004-.008.01l-.096-.115Zm1.362-.2c-.218-.006-.487-.014-.733.008-.241.02-.48.07-.629.192l.096.115c.109-.09.306-.137.546-.158.236-.02.496-.013.716-.007l.004-.15Zm.244.005c-.07 0-.152-.002-.244-.005l-.004.15a7.7 7.7 0 0 0 .248.005v-.15Zm.235-.077a.552.552 0 0 1-.107.06.363.363 0 0 1-.128.017v.15a.508.508 0 0 0 .18-.026c.049-.018.09-.045.136-.075l-.081-.126Zm.133-.082c-.057.033-.099.06-.133.082l.081.126a2.6 2.6 0 0 1 .127-.078l-.075-.13Zm.207.052c-.102-.027-.075-.13-.075-.13l-.002.001s-.001.002-.003.002a1.499 1.499 0 0 0-.012.008l-.039.022-.076.045.075.13.077-.045c.015-.01.029-.017.04-.023l.011-.007.004-.002v-.001s.027-.103-.075-.13l.075.13Zm.044-.197a3.8 3.8 0 0 0-.12.068l.077.129.114-.065-.07-.132Zm.065-.036a4.503 4.503 0 0 1-.065.036l.071.132.067-.037-.073-.13Zm0 0 .073.132-.073-.132Zm.849-.065a.602.602 0 0 0-.474-.095c-.142.03-.27.102-.375.16l.073.131c.108-.06.217-.12.333-.144a.452.452 0 0 1 .36.073l.083-.125Zm-.11 2.673a.144.144 0 0 1 .02.084.131.131 0 0 1-.028.077l.114.097a.28.28 0 0 0 .064-.166.292.292 0 0 0-.043-.173l-.127.08Zm-.666-.305c.116.001.233.002.347.04a.6.6 0 0 1 .32.265l.126-.081a.749.749 0 0 0-.399-.326c-.14-.047-.28-.047-.393-.048l-.002.15Zm0 0v-.15.15Zm0 0v-.15.15Zm0 0v-.15.15Zm-.073 0h.072l.001-.15h-.07l-.003.15Zm-.124 0h.124l.004-.15h-.13l.002.15Zm-.146.002.085-.001.043-.001h.018s.074-.077-.003-.15l.003.15c-.076-.074-.003-.15-.003-.15h-.06l-.084.002.002.15Zm-.138.006c.038-.003.081-.006.139-.006l-.002-.15c-.061 0-.109.004-.147.006l.01.15Zm-.322-.072c.067.038.12.06.172.07.051.009.099.005.15.002l-.01-.15a.455.455 0 0 1-.114 0 .402.402 0 0 1-.124-.052l-.074.13Zm-.226-.133c.083.05.16.096.226.133l.074-.13-.223-.132-.077.129Zm0 0 .076-.13-.075.13Zm0 0 .077-.129-.077.129Zm-.001 0 .08-.128-.08.127Zm-1.207-.507a.532.532 0 0 1 .233.02c.095.026.201.068.313.12.224.105.461.247.662.367l.077-.129c-.2-.12-.444-.265-.676-.374a2.076 2.076 0 0 0-.338-.128.676.676 0 0 0-.3-.023l.03.147Zm.013.316a1.611 1.611 0 0 1-.007-.218.468.468 0 0 1 .012-.096c.003-.011.006-.015.006-.015s-.008.01-.024.013l-.03-.146a.112.112 0 0 0-.07.048.2.2 0 0 0-.026.06.603.603 0 0 0-.018.13c-.004.09.002.19.008.24l.149-.016Zm.189.094h-.012a.342.342 0 0 1-.102-.031.237.237 0 0 1-.06-.04c-.014-.015-.015-.022-.015-.023l-.15.016a.19.19 0 0 0 .06.114.5.5 0 0 0 .204.106.265.265 0 0 0 .105.005l-.03-.147Zm1.18.414c-.169-.095-.38-.214-.586-.301-.203-.086-.419-.149-.594-.113l.03.147c.126-.026.305.019.506.104.197.083.4.198.57.294l.073-.13Zm.022.013-.023-.013-.074.13.023.014.074-.13Zm.352.077a.796.796 0 0 1-.174-.004.567.567 0 0 1-.178-.073l-.074.13a.71.71 0 0 0 .225.09c.067.013.131.01.206.007l-.005-.15Zm-.003 0 .01.15-.01-.15Zm.14-.003c-.054 0-.099.002-.137.003l.005.15c.039-.001.082-.003.133-.003l-.002-.15Zm.148.147h-.002c-.074-.065-.01-.149-.002-.15h-.017l-.043.001-.085.002.002.15.086-.002h.062c.008-.002.072-.085-.003-.15l.002.15Zm.12-.15h-.123l.003.15h.116l.004-.15Zm.084-.004a.871.871 0 0 1-.084.004l-.004.15c.032.001.067-.002.099-.004l-.011-.15Zm.584.257a.531.531 0 0 0-.302-.24c-.105-.03-.207-.022-.282-.017l.01.15a.644.644 0 0 1 .23.011c.071.02.148.067.218.177l.126-.081Zm.066.009c-.014.016-.026.018-.032.017-.007 0-.02-.005-.034-.026l-.126.081a.197.197 0 0 0 .146.095.188.188 0 0 0 .16-.07l-.114-.097Zm-.72 2.43a.231.231 0 0 0 .115-.132.306.306 0 0 0 .01-.18l-.145.037a.155.155 0 0 1-.005.09.085.085 0 0 1-.038.049l.063.136Zm-.272-.158a.24.24 0 0 0 .099.145c.05.033.113.04.173.013l-.063-.136a.028.028 0 0 1-.029-.003c-.012-.007-.026-.025-.034-.056l-.146.037Zm-.374-.414a.781.781 0 0 1 .214.127.548.548 0 0 1 .16.287l.146-.037a.698.698 0 0 0-.206-.36c-.086-.079-.18-.121-.252-.154l-.062.137Zm.005.002.052-.14-.052.14Zm-.006-.003.064-.136-.064.136Zm-.09-.044c.028.016.06.03.09.045l.063-.137a1.055 1.055 0 0 1-.08-.039l-.074.13Zm-.11-.059c.043.023.077.04.11.059l.073-.13a3.522 3.522 0 0 0-.113-.062l-.07.133Zm-.136-.07.08.041.04.02.013.007.003.002h.001c.007.003.104-.038.07-.132h-.001l-.07.132c-.034-.095.063-.136.069-.133l-.004-.002-.012-.006-.04-.021-.079-.041-.07.132Zm-.124-.064.124.063.07-.132-.128-.065-.066.134Zm-.366-.298c.067.09.12.146.179.19.057.044.116.073.187.108l.066-.134a.947.947 0 0 1-.162-.093.786.786 0 0 1-.15-.161l-.12.09Zm-.017-.023.017.023.12-.09-.017-.023-.12.09Zm-.893-.913a.68.68 0 0 1 .21.124c.076.062.156.141.236.23.16.177.317.385.447.559l.12-.09c-.13-.173-.29-.387-.456-.57a2.338 2.338 0 0 0-.254-.246.824.824 0 0 0-.258-.15l-.046.143Zm-.265-.372a.214.214 0 0 0 .021.127.644.644 0 0 0 .152.19.33.33 0 0 0 .091.055l.046-.143h-.001l-.003-.002a.488.488 0 0 1-.148-.163.125.125 0 0 1-.01-.034v-.003l-.148-.027Zm.251-.403a.106.106 0 0 0-.09.013.169.169 0 0 0-.046.047.515.515 0 0 0-.055.115 1.64 1.64 0 0 0-.06.228l.147.027c.009-.045.029-.133.055-.205a.377.377 0 0 1 .037-.08c.005-.008.007-.008.003-.006a.045.045 0 0 1-.036.004l.045-.143Zm1.063 1.136c-.152-.21-.336-.467-.52-.683a2.78 2.78 0 0 0-.275-.285.803.803 0 0 0-.268-.168l-.045.143a.661.661 0 0 1 .215.138c.082.072.17.165.259.27.18.21.36.46.512.672l.122-.087Zm.17.233a11.2 11.2 0 0 1-.17-.233l-.122.087c.063.088.121.169.172.236l.12-.09Zm.214.175a.549.549 0 0 1-.108-.059.565.565 0 0 1-.106-.116l-.12.09a.71.71 0 0 0 .135.146c.043.033.087.052.136.075l.063-.136Zm.138.067a2.58 2.58 0 0 0-.138-.067l-.063.136c.036.016.077.035.13.064l.07-.133Zm.065.203c-.032-.101.069-.133.069-.133h-.001l-.004-.003-.012-.006-.04-.02a8.295 8.295 0 0 1-.077-.04l-.07.132a11.412 11.412 0 0 0 .118.061l.012.007.004.002h.001s.101-.032.069-.133l-.07.133Zm.19-.068a3.821 3.821 0 0 0-.121-.065l-.07.133c.046.023.081.043.116.062l.074-.13Zm.064.036-.065-.036-.074.13.067.037.072-.131Zm.618.726a.996.996 0 0 0-.27-.488c-.114-.111-.242-.18-.348-.238l-.072.131c.108.059.218.12.315.214.095.093.18.221.23.417l.145-.036Zm-1.526 1.826a.126.126 0 0 1-.028.076c-.013.015-.026.018-.034.017l-.013.15a.19.19 0 0 0 .16-.069.276.276 0 0 0 .065-.165l-.15-.009Zm-.322-.878c.162.218.346.467.322.878l.15.009c.027-.47-.188-.757-.351-.977l-.12.09Zm-.05-.068.05.068.12-.09a7.264 7.264 0 0 1-.049-.066l-.121.088Zm-.089-.119c.035.045.062.082.089.119l.121-.088a5.374 5.374 0 0 0-.09-.122l-.12.091Zm-.104-.135.06.079.031.04.01.012a.067.067 0 0 0 .003.003v.001s.105.014.12-.09l-.12.09c.014-.105.12-.091.12-.091h-.001v-.002l-.003-.003-.01-.012-.03-.04a15.97 15.97 0 0 1-.06-.077l-.12.09Zm-.102-.128c.028.034.061.074.102.128l.12-.09a2.464 2.464 0 0 0-.106-.133l-.116.096Zm-.179-.334a.94.94 0 0 0 .079.198c.029.05.061.09.1.136l.116-.095a.79.79 0 0 1-.086-.115.797.797 0 0 1-.066-.167l-.143.043Zm-.09-.306c.033.113.063.218.09.306l.143-.043-.088-.304-.144.04Zm0-.003.146-.036-.146.036Zm0 0 .146-.036-.146.036Zm0 0 .146-.036-.146.036Zm0 0 .146-.036-.146.036Zm0 0 .146-.036-.146.036Zm0 0 .146-.036-.146.036Zm0 0 .146-.036-.146.036Zm-.598-1.518c.052.05.107.135.163.247.055.11.11.242.161.386.104.288.197.614.275.888l.144-.042c-.078-.272-.172-.604-.278-.897a3.788 3.788 0 0 0-.168-.403 1.095 1.095 0 0 0-.192-.286l-.105.107Zm-.126.22a1.13 1.13 0 0 1 .109-.157.256.256 0 0 1 .052-.05c.006-.004.004-.002-.003-.001a.043.043 0 0 1-.032-.012l.105-.107a.107.107 0 0 0-.082-.031.143.143 0 0 0-.066.022.39.39 0 0 0-.089.081c-.052.062-.101.14-.124.181l.13.074Zm.1.285a.25.25 0 0 1-.035-.053.715.715 0 0 1-.065-.194c-.003-.03.001-.04 0-.038l-.13-.074a.215.215 0 0 0-.019.13.848.848 0 0 0 .081.246.41.41 0 0 0 .063.09l.105-.107Zm.601 1.382a10.646 10.646 0 0 0-.252-.76c-.098-.251-.213-.49-.349-.622l-.105.107c.11.108.217.318.314.569.096.247.18.522.248.75l.144-.044Zm.01.03-.01-.03-.143.043.009.03.143-.043Zm.217.406a1.356 1.356 0 0 1-.125-.174 1.1 1.1 0 0 1-.093-.232l-.143.044c.035.116.067.194.106.262.038.068.082.124.137.193l.118-.093Zm.098.125-.098-.125-.117.093.096.123.119-.09Zm-.014.228-.001-.001c.009-.1.114-.097.119-.092v.001l-.003-.004-.01-.012a29.407 29.407 0 0 0-.091-.12l-.12.091.062.08.03.04.01.013.003.003v.001h.001c.005.006.11.009.12-.09l-.001-.002-.12.092Zm.204.023a4.718 4.718 0 0 0-.085-.115l-.12.092.084.11.121-.087Zm.064.079a1.529 1.529 0 0 1-.064-.08l-.121.089c.02.029.046.058.07.087l.115-.096Zm.264.696c.021-.357-.148-.558-.264-.696l-.115.096c.112.134.247.296.23.591l.15.01Zm.055.108c-.01 0-.022-.006-.035-.026a.137.137 0 0 1-.02-.082l-.15-.009a.287.287 0 0 0 .044.173.198.198 0 0 0 .147.094l.014-.15ZM16.74 22.56a.179.179 0 0 0 .173.014.227.227 0 0 0 .116-.131l-.14-.052c-.01.028-.026.041-.037.046-.01.004-.019.005-.03-.003l-.082.126Zm-.09-.324a.3.3 0 0 0-.01.18.243.243 0 0 0 .1.144l.082-.126a.094.094 0 0 1-.036-.057.151.151 0 0 1 .004-.089l-.14-.052Zm-.049-.668c.068.183.147.403.049.668l.14.052c.12-.321.02-.589-.048-.772l-.14.052Zm.001.002.14-.056-.14.056Zm-.04-.117c.01.037.025.076.04.115l.14-.052a1.943 1.943 0 0 1-.037-.106l-.144.043Zm-.047-.145c.019.056.033.101.046.145l.144-.043a6.804 6.804 0 0 0-.047-.149l-.143.047Zm-.059-.179.035.105.017.053.006.016v.004l.001.001v.001c.002.004.1.045.143-.047l-.143.046c.044-.093.14-.052.142-.047v-.001l-.001-.005a.879.879 0 0 0-.005-.016l-.018-.052a25.38 25.38 0 0 1-.034-.104l-.143.046Zm-.054-.162.054.162.143-.046a8.96 8.96 0 0 0-.055-.165l-.142.049Zm0 0 .142-.049-.142.049Zm0 .002.14-.053-.14.053Zm-.097-.541c0 .125.007.213.024.294.016.08.041.153.073.245l.142-.049a1.8 1.8 0 0 1-.068-.226 1.286 1.286 0 0 1-.021-.264h-.15Zm0-.033v.033h.15v-.033h-.15Zm-.153-1.51c.073.159.113.41.133.69.02.279.02.575.02.82h.15c0-.244 0-.546-.02-.83-.02-.282-.06-.557-.147-.744l-.136.063Zm.022-.495a.144.144 0 0 0-.042.058.274.274 0 0 0-.017.06.654.654 0 0 0-.008.133.985.985 0 0 0 .014.134c.007.04.017.08.03.11l.137-.064a.331.331 0 0 1-.02-.072.835.835 0 0 1-.01-.113.507.507 0 0 1 .012-.13c.003-.005.003-.003-.003.001l-.093-.117Zm.407-.07a.118.118 0 0 0-.057-.059.14.14 0 0 0-.068-.012.316.316 0 0 0-.112.033.944.944 0 0 0-.17.108l.093.117a.8.8 0 0 1 .141-.09.173.173 0 0 1 .056-.018c.005 0 .002 0-.004-.002a.032.032 0 0 1-.015-.015l.136-.063Zm.144 1.781c.005-.292.01-.646-.006-.97-.015-.32-.052-.625-.138-.812l-.136.063c.072.157.11.434.125.756.015.319.01.668.005.961l.15.002Zm0 0-.15-.002.15.003Zm-.004.327c0-.094.002-.205.004-.326l-.15-.003c-.002.122-.004.233-.004.329h.15Zm.062.342a1.056 1.056 0 0 1-.047-.152.933.933 0 0 1-.015-.19h-.15c0 .095.005.16.018.22.012.06.03.11.053.174l.141-.052Zm.061.176a4.784 4.784 0 0 0-.06-.176l-.142.052c.017.045.037.098.06.17l.142-.046Zm.058.176c0-.004-.046-.139-.058-.176l-.142.046.058.177.142-.047Zm0 0-.142.047.142-.047Zm.05.158a7.008 7.008 0 0 0-.05-.158l-.142.047.05.154.143-.043Zm.028.087-.027-.087-.144.043.027.089.144-.045Zm.05 1.076c.157-.422.038-.794-.05-1.076l-.143.045c.09.285.19.61.052.979l.14.052Zm-2.072-.082c-.013.016-.025.018-.032.017-.008 0-.023-.006-.036-.027l-.126.082a.201.201 0 0 0 .147.094.19.19 0 0 0 .16-.067l-.113-.099Zm.236-.923c-.001.312-.005.66-.236.923l.113.1c.273-.312.272-.72.273-1.023h-.15Zm0 0h.15-.15Zm0-.096v.096h.15v-.094l-.15-.002Zm0-.168v.168l.15.002v-.171l-.15.001Zm-.002-.193.002.113v.08s.074-.075.15-.001l-.15.002c.076.074.15-.002.15-.002v-.081l-.002-.112-.15.001Zm-.004-.188c.002.05.004.11.005.188h.15c0-.081-.003-.143-.005-.194l-.15.006Zm0-.003h.15-.15Zm0 .005.15-.009-.15.009Zm.05-.4a1.031 1.031 0 0 0-.049.212c-.006.06-.004.116-.001.186l.15-.006a1.164 1.164 0 0 1 0-.165.885.885 0 0 1 .043-.182l-.143-.046Zm.1-.302c-.038.111-.072.213-.1.301l.143.046c.027-.087.061-.188.099-.299l-.142-.048Zm.383-1.649c.021.184-.027.459-.107.763-.079.3-.186.62-.276.886l.142.048c.09-.266.198-.59.28-.896.08-.304.135-.604.11-.818l-.149.017Zm-.21.003a.643.643 0 0 1 .153-.009.17.17 0 0 1 .057.012c.008.005.001.003 0-.006l.149-.017a.141.141 0 0 0-.082-.11.312.312 0 0 0-.112-.028.79.79 0 0 0-.192.01l.027.148Zm-.058.29a.613.613 0 0 1 .072-.295c.002-.003-.002.003-.014.005l-.027-.147a.126.126 0 0 0-.066.037.235.235 0 0 0-.037.05.742.742 0 0 0-.077.366l.149-.017Zm-.308 1.534c.072-.225.16-.503.225-.775.064-.271.107-.545.083-.76l-.15.017c.022.188-.015.44-.079.708-.063.266-.15.539-.222.764l.143.046Zm-.01.03.01-.03-.143-.046-.01.03.143.046Zm-.061.497a1.974 1.974 0 0 1 .003-.244c.008-.07.024-.144.058-.253l-.143-.046c-.036.116-.055.2-.064.284-.008.082-.006.161-.004.263l.15-.004Zm.002.181-.002-.18-.15.003.002.178.15-.001Zm-.148.196c.07-.075.15-.007.15-.002v-.08l-.002-.114h-.15l.001.116.001.057v.017a.06.06 0 0 0 0 .005v.002c0 .005.081.073.15-.001v-.001l-.15.001Zm.15.16v-.161l-.15.001v.158l.15.002Zm.003.118-.003-.118-.15-.002.003.126.15-.006Zm-.185.74c.209-.238.193-.54.185-.74l-.15.006c.009.208.016.448-.148.635l.113.1Zm-.006.157a.14.14 0 0 1-.02-.082.123.123 0 0 1 .026-.075l-.113-.099a.29.29 0 0 0-.019.338l.126-.082Zm-1.887-1.008c.016.06.05.113.099.145.05.033.113.043.173.016l-.061-.137c-.01.004-.018.004-.03-.004a.099.099 0 0 1-.036-.058l-.145.038Zm.123-.311a.225.225 0 0 0-.115.131.305.305 0 0 0-.008.18l.145-.038a.155.155 0 0 1 .004-.09c.01-.027.025-.041.036-.046l-.062-.137Zm.306-.505a1.423 1.423 0 0 1-.099.295.429.429 0 0 1-.207.21l.062.137a.579.579 0 0 0 .279-.279c.056-.11.086-.23.11-.326l-.145-.037Zm.033-.119-.033.12.146.036c.01-.042.02-.079.03-.11l-.143-.046Zm.044-.146c-.016.058-.03.103-.044.146l.143.046a6.41 6.41 0 0 0 .045-.15l-.144-.042Zm.053-.182a22.733 22.733 0 0 0-.046.16l-.005.017a.154.154 0 0 1-.002.005v.001c-.001.005.056.094.144.042l-.144-.043c.089-.052.146.037.144.042v-.001l.002-.004a.816.816 0 0 1 .005-.017l.015-.053.031-.106-.143-.043Zm.048-.166-.047.166.143.043c.02-.065.035-.12.049-.169l-.145-.04Zm.22-.476c-.068.09-.11.16-.142.233-.03.073-.052.148-.078.243l.145.04c.027-.097.045-.162.071-.223a.984.984 0 0 1 .123-.203l-.12-.09Zm.017-.024-.018.024.12.09.018-.024-.12-.09Zm.69-1.21c-.032.184-.137.398-.27.614-.133.214-.29.423-.42.596l.12.09c.13-.172.29-.386.427-.607.136-.22.254-.454.291-.666l-.147-.026Zm.313-.342c-.057-.02-.107.014-.132.034a.637.637 0 0 0-.18.308l.147.027a.502.502 0 0 1 .128-.219c.02-.016.012 0-.01-.008l.047-.142Zm.31.29a.16.16 0 0 0-.04-.129.385.385 0 0 0-.09-.077.889.889 0 0 0-.18-.084l-.047.142a.73.73 0 0 1 .146.069.236.236 0 0 1 .055.045c.01.014.006.015.008.009l.147.026Zm-.847 1.4c.158-.202.35-.448.512-.693.16-.242.297-.494.334-.706l-.148-.026c-.031.18-.152.408-.311.65-.158.239-.346.48-.505.683l.118.092Zm-.175.227.175-.227-.118-.093c-.065.084-.126.162-.177.23l.12.09Zm-.135.297a.945.945 0 0 1 .046-.152.691.691 0 0 1 .089-.145l-.12-.09a.838.838 0 0 0-.107.176 1.14 1.14 0 0 0-.054.173l.146.038Zm0 0-.146-.037.146.036Zm-.05.181c.022-.075.037-.133.05-.181l-.146-.038a3.292 3.292 0 0 1-.048.176l.144.043Zm-.197.137c.093-.05.144.043.144.043v-.002l.002-.005.005-.016.015-.053.03-.104-.143-.043a17.292 17.292 0 0 0-.046.158l-.005.017-.001.004v.001s.05.094.143.043l-.144-.043Zm.096.202.048-.16-.144-.042c-.017.06-.032.109-.047.156l.143.046Zm-.027.086.027-.086-.143-.046-.027.088.143.044Zm0 0-.143-.044.143.044Zm.001-.003-.145-.037.145.037Zm-.55.825a.805.805 0 0 0 .374-.366 2.39 2.39 0 0 0 .175-.456l-.143-.044a2.264 2.264 0 0 1-.164.428.656.656 0 0 1-.304.3l.061.138Zm-1.381-1.935c-.008-.001-.022-.007-.035-.027a.144.144 0 0 1-.022-.084l-.15-.005a.293.293 0 0 0 .047.172.199.199 0 0 0 .148.093l.012-.15Zm.623-.434a1.694 1.694 0 0 1-.269.31.477.477 0 0 1-.354.123l-.012.15c.19.015.34-.056.462-.157.12-.099.214-.23.294-.338l-.121-.088Zm.05-.069a5.832 5.832 0 0 0-.05.069l.12.088.05-.067-.12-.09Zm.087-.12-.087.12.12.09.09-.123-.123-.087Zm0 0 .123.087-.123-.087Zm.1-.14a6.413 6.413 0 0 0-.1.14l.123.086.098-.14-.121-.087Zm.094-.14a3.632 3.632 0 0 1-.095.14l.123.087c.042-.06.072-.106.097-.144l-.125-.082Zm.253-.25a.626.626 0 0 0-.153.114.951.951 0 0 0-.1.137l.125.082a.8.8 0 0 1 .084-.116.48.48 0 0 1 .118-.086l-.074-.13Zm.23-.123a6.96 6.96 0 0 0-.23.124l.074.13.226-.122-.07-.132Zm0 0 .07.132-.07-.133Zm0 0 .07.132-.07-.132Zm0 0 .07.132-.07-.133Zm0-.001.07.133-.07-.133Zm1.123-.82c-.078.147-.25.296-.465.44a7.994 7.994 0 0 1-.658.38l.07.133c.203-.109.452-.241.671-.388.217-.146.418-.313.515-.495l-.133-.07Zm-.168-.232c.027.026.08.083.12.14.02.03.034.056.041.077.009.023.002.024.007.015l.133.07c.025-.048.014-.1.002-.136a.5.5 0 0 0-.06-.11 1.19 1.19 0 0 0-.138-.164l-.105.108Zm-.16.138a.356.356 0 0 1 .166-.13c.016-.003.006.004-.006-.008l.105-.108c-.042-.04-.096-.038-.132-.03a.491.491 0 0 0-.266.206l.132.07Zm-1.032.83c.168-.096.378-.215.568-.352.19-.136.367-.296.463-.478l-.132-.07c-.08.15-.235.294-.418.426a5.965 5.965 0 0 1-.555.343l.074.13Zm-.023.012.023-.013-.074-.13-.023.012.074.131Zm-.294.292c.053-.077.087-.126.128-.169a.673.673 0 0 1 .166-.123l-.074-.13a.825.825 0 0 0-.201.15c-.05.053-.092.113-.143.188l.124.084Zm-.092.133.092-.133-.124-.085-.09.13.122.088Zm-.223.055c.1-.02.126.081.123.086l.003-.004.009-.013.03-.041.058-.083-.122-.087-.06.083-.029.042-.009.013a.065.065 0 0 0-.002.003v.001h-.001v.001c-.003.005.023.107.122.086l-.122-.087Zm.038.203c.027-.035.053-.07.085-.116l-.123-.087a2.95 2.95 0 0 1-.082.113l.12.09Zm-.058.086c.022-.034.04-.063.058-.086l-.12-.09c-.02.028-.043.062-.064.095l.126.081Zm-.547.375a.455.455 0 0 0 .35-.124c.084-.076.148-.175.197-.25l-.126-.082c-.05.078-.104.16-.172.22a.305.305 0 0 1-.237.086l-.012.15Zm-.058.094a.13.13 0 0 1 .026-.077c.013-.015.025-.018.032-.017l.012-.15a.187.187 0 0 0-.159.072.278.278 0 0 0-.06.167l.15.005Zm-.825-2.452a.31.31 0 0 0-.008.18.246.246 0 0 0 .097.146l.083-.124a.098.098 0 0 1-.035-.058.16.16 0 0 1 .004-.092l-.14-.052Zm.288-.118a.175.175 0 0 0-.173-.014.228.228 0 0 0-.115.132l.141.052c.01-.03.027-.043.037-.048.008-.004.017-.004.027.003l.083-.125Zm.458-.064a.75.75 0 0 1-.217.11.285.285 0 0 1-.24-.046l-.084.125a.435.435 0 0 0 .361.067c.105-.027.195-.087.262-.13l-.082-.126Zm.003-.002.076.13-.076-.13Zm.085-.053a1.782 1.782 0 0 0-.088.055l.082.125c.03-.02.056-.036.078-.048l-.072-.132Zm.108-.06a3.704 3.704 0 0 1-.108.06l.072.132.112-.063-.076-.13Zm.135-.08-.08.047-.039.023-.012.007-.003.002h-.001l-.001.001c-.006.004-.022.108.076.13v-.001l-.075-.13h.001c.098.02.082.125.076.129l.003-.002.012-.007.04-.023.077-.046-.074-.13Zm.12-.072a2.917 2.917 0 0 1-.12.072l.074.13c.05-.028.09-.053.125-.074l-.078-.128Zm0 0 .079.128-.079-.128Zm0 0 .08.128-.08-.128Zm-.004.003.088.122-.088-.122Zm.43-.138a.663.663 0 0 0-.235.035.998.998 0 0 0-.19.1l.078.128a.925.925 0 0 1 .163-.087.518.518 0 0 1 .184-.026v-.15Zm.024 0h-.024v.15h.024v-.15Zm1.11-.196c-.113.093-.293.144-.5.17-.206.026-.426.026-.61.026v.15c.183 0 .412 0 .628-.027.214-.027.43-.082.577-.203l-.096-.116Zm.418.028a.158.158 0 0 0-.1-.083.322.322 0 0 0-.115-.012.47.47 0 0 0-.11.02.283.283 0 0 0-.094.047l.096.116a.14.14 0 0 1 .043-.02.319.319 0 0 1 .074-.013.176.176 0 0 1 .06.005c.015.004.012.007.01.002l.136-.062Zm.053.479a.127.127 0 0 0 .041-.067.227.227 0 0 0 .007-.064.596.596 0 0 0-.022-.129 1.558 1.558 0 0 0-.079-.219l-.136.062c.018.04.05.12.07.196a.452.452 0 0 1 .015.116c0 .002 0-.004.009-.01l.095.115Zm-1.362.2c.219.006.487.013.733-.008.242-.02.481-.07.63-.192l-.096-.116c-.11.09-.307.138-.547.159-.236.02-.495.013-.716.007l-.004.15Zm-.243-.005c.07 0 .152.002.243.005l.005-.15a7.813 7.813 0 0 0-.248-.005v.15Zm-.236.077a.552.552 0 0 1 .107-.06.363.363 0 0 1 .129-.017v-.15a.507.507 0 0 0-.18.025c-.05.018-.09.046-.137.076l.081.126Zm-.133.082c.057-.033.1-.06.133-.082l-.081-.126a2.6 2.6 0 0 1-.126.078l.074.13Zm-.207-.053c.102.027.076.13.076.13l.004-.003.012-.007.039-.023.076-.044-.074-.13-.078.045-.039.023-.012.007c-.002 0-.003.002-.003.002h-.001s-.027.103.075.13l-.075-.13Zm-.044.198a3.8 3.8 0 0 0 .12-.068l-.076-.13-.115.066.071.132Zm-.064.035a3.68 3.68 0 0 1 .064-.035l-.071-.133-.067.037.074.131Zm0 0-.073-.13.072.13Zm0 0-.075-.13.076.13Zm-.85.066c.167.11.327.125.474.095.142-.03.27-.102.375-.16l-.073-.132a1.21 1.21 0 0 1-.332.145.452.452 0 0 1-.36-.073l-.084.125Zm.11-2.673a.144.144 0 0 1-.02-.084.131.131 0 0 1 .028-.077l-.114-.098a.28.28 0 0 0-.063.167.292.292 0 0 0 .043.173l.126-.081Zm.667.304c-.117 0-.234-.002-.347-.04a.6.6 0 0 1-.32-.264l-.126.081a.749.749 0 0 0 .398.325c.14.047.28.047.394.048v-.15Zm0 0v.15-.15Zm0 0v.15-.15Zm.072.001h-.072l-.001.15h.07l.003-.15Zm.124 0h-.124l-.003.15h.13l-.003-.15Zm.146-.002-.085.001h-.043a1.118 1.118 0 0 0-.017.001s-.074.077.002.15l-.003-.15c.077.074.003.15.003.15h.018l.043-.001.083-.001-.001-.15Zm.138-.006a2.073 2.073 0 0 1-.138.006v.15c.063 0 .11-.004.148-.007l-.01-.15Zm.322.071a.543.543 0 0 0-.171-.07.636.636 0 0 0-.151-.001l.01.15a.455.455 0 0 1 .114 0 .402.402 0 0 1 .124.052l.074-.13Zm.227.134c-.083-.05-.16-.096-.227-.134l-.074.13c.065.037.14.082.223.132l.078-.128Zm.005.003-.088.122.088-.122Zm-.006-.003-.076.128.076-.128Zm1.208.506a.532.532 0 0 1-.232-.02 1.934 1.934 0 0 1-.314-.12c-.224-.104-.46-.246-.662-.366l-.077.128c.2.12.444.266.676.374.116.055.231.1.338.129.106.028.21.04.301.022l-.03-.147Zm-.013-.316c.005.046.011.138.008.218a.466.466 0 0 1-.013.097l-.005.015s.007-.01.023-.014l.03.147a.112.112 0 0 0 .07-.048.2.2 0 0 0 .027-.06.603.603 0 0 0 .017-.13 1.77 1.77 0 0 0-.008-.24l-.149.015Zm-.189-.093h.013l.028.004a.342.342 0 0 1 .073.027.234.234 0 0 1 .06.04c.014.014.015.022.015.022l.15-.016a.19.19 0 0 0-.06-.113.384.384 0 0 0-.098-.067.5.5 0 0 0-.106-.039.256.256 0 0 0-.105-.005l.03.147Zm-1.179-.415c.168.095.378.215.585.302.203.086.42.149.594.113l-.03-.147c-.126.026-.305-.02-.506-.104a5.685 5.685 0 0 1-.569-.294l-.074.13Zm-.023-.013.023.013.074-.13-.023-.013-.074.13Zm-.351-.077a.796.796 0 0 1 .173.005.567.567 0 0 1 .178.072l.074-.13a.71.71 0 0 0-.225-.09.93.93 0 0 0-.206-.007l.006.15Zm.002 0-.01-.15.01.15Zm-.14.004c.054 0 .1-.002.138-.004l-.006-.15-.132.004v.15Zm-.147-.148h.001c.074.066.011.15.003.15h-.001.06l.085-.002-.001-.15-.087.001-.043.001h-.018c-.01.001-.072.085.002.15h.001l-.002-.15Zm-.12.15h.122l-.002-.15h-.117l-.003.15Zm-.084.004a.871.871 0 0 1 .084-.004l.003-.15c-.032 0-.066.002-.098.005l.01.15Zm-.585-.256a.53.53 0 0 0 .303.24c.104.03.207.022.282.016l-.011-.15a.643.643 0 0 1-.23-.01.382.382 0 0 1-.218-.178l-.126.082Zm-.066-.009c.014-.017.026-.018.032-.018.007.001.02.006.034.027l.126-.082a.197.197 0 0 0-.146-.094.188.188 0 0 0-.16.07l.114.097Zm.72-2.43a.231.231 0 0 0-.115.132.306.306 0 0 0-.01.179l.146-.037a.155.155 0 0 1 .005-.09c.01-.027.025-.042.037-.048l-.063-.136Zm.272.158a.24.24 0 0 0-.098-.146.177.177 0 0 0-.174-.012l.063.136c.01-.005.019-.004.03.002.01.008.026.026.034.057l.145-.037Zm.374.414a.781.781 0 0 1-.213-.128.548.548 0 0 1-.16-.286l-.146.037a.698.698 0 0 0 .205.36c.086.078.18.12.252.153l.062-.136Zm-.003-.002-.056.14.056-.14Zm.095.047a1.307 1.307 0 0 0-.092-.045l-.062.136a.739.739 0 0 1 .08.04l.074-.131Zm.109.058a3.669 3.669 0 0 1-.109-.058l-.074.13c.035.02.07.039.113.061l.07-.133Zm.137.071a20.275 20.275 0 0 0-.133-.069l-.004-.001-.001-.001c-.008-.004-.104.04-.07.133h.001l.07-.133c.035.094-.06.137-.068.134h-.001l.004.002.012.006.04.02.08.042.07-.133Zm.123.063a4.785 4.785 0 0 1-.123-.063l-.07.133.127.065.066-.135Zm.366.299a.934.934 0 0 0-.179-.191c-.057-.044-.116-.073-.187-.108l-.066.135a.947.947 0 0 1 .162.092.786.786 0 0 1 .15.162l.12-.09Zm.017.023-.017-.023-.12.09.017.023.12-.09Zm.894.913a.679.679 0 0 1-.21-.124 2.187 2.187 0 0 1-.237-.23 7.932 7.932 0 0 1-.447-.56l-.12.09c.13.173.29.388.456.57.083.092.169.178.254.246a.824.824 0 0 0 .259.151l.045-.143Zm.265.372a.214.214 0 0 0-.022-.127.644.644 0 0 0-.152-.19.292.292 0 0 0-.091-.055l-.045.143.003.002a.488.488 0 0 1 .148.163.125.125 0 0 1 .011.034v.002l.148.028Zm-.252.403c.035.01.067.001.09-.013a.17.17 0 0 0 .046-.047.515.515 0 0 0 .055-.115 1.64 1.64 0 0 0 .06-.228l-.147-.028a1.485 1.485 0 0 1-.054.205.377.377 0 0 1-.037.08c-.006.009-.008.009-.004.006a.045.045 0 0 1 .036-.003l-.045.143Zm-1.063-1.136c.152.21.336.467.52.682.092.108.185.207.275.286.089.077.18.14.268.168l.045-.143a.661.661 0 0 1-.214-.138 2.636 2.636 0 0 1-.26-.27c-.179-.21-.36-.461-.512-.673l-.122.088Zm-.17-.234c.05.066.107.146.17.234l.122-.088c-.063-.087-.121-.168-.172-.236l-.12.09Zm-.213-.174c.051.024.08.037.108.058a.565.565 0 0 1 .105.116l.12-.09a.71.71 0 0 0-.135-.145.644.644 0 0 0-.136-.075l-.063.136Zm-.138-.068c.057.03.102.051.137.068l.063-.136a2.422 2.422 0 0 1-.13-.064l-.07.132Zm-.066-.202c.033.1-.069.133-.069.133h.002l.003.002.013.006.039.02.078.041.07-.132a11.412 11.412 0 0 0-.119-.062l-.012-.006-.004-.002s-.102.032-.07.133l.07-.133Zm-.189.068.12.065.07-.133a3.735 3.735 0 0 1-.116-.063l-.074.13Zm-.065-.036.065.036.074-.13a4.53 4.53 0 0 0-.067-.038l-.072.132Zm-.618-.726a.996.996 0 0 0 .27.488c.115.11.242.18.348.238l.072-.132a1.362 1.362 0 0 1-.315-.213.847.847 0 0 1-.23-.418l-.145.037Zm1.527-1.827a.126.126 0 0 1 .027-.075c.014-.016.026-.018.034-.018l.013-.15a.19.19 0 0 0-.16.07.276.276 0 0 0-.064.165l.15.008Zm.321.879c-.162-.218-.345-.467-.322-.879l-.15-.008c-.027.469.188.757.352.976l.12-.09Zm.05.068a6.898 6.898 0 0 0-.05-.068l-.12.09.049.066.121-.088Zm.089.118a5.183 5.183 0 0 1-.089-.118l-.121.088.091.122.119-.092Zm.104.135-.06-.078a9.784 9.784 0 0 0-.031-.04c-.004-.005-.007-.01-.01-.012l-.002-.004h-.001s-.105-.014-.12.09l.12-.09c-.014.104-.119.09-.119.09v.001l.001.001.003.003.01.013.03.04.06.077.119-.09Zm.102.128a3.453 3.453 0 0 1-.102-.128l-.12.091c.044.057.079.099.107.133l.115-.096Zm.18.334a.937.937 0 0 0-.08-.198.848.848 0 0 0-.1-.136l-.115.096a.79.79 0 0 1 .085.114c.02.037.04.084.066.168l.143-.044Zm.088.307a20.894 20.894 0 0 0-.089-.307l-.143.044.088.304.144-.041Zm.6 1.52a.954.954 0 0 1-.164-.246 3.626 3.626 0 0 1-.16-.386 14.014 14.014 0 0 1-.276-.888l-.144.041c.078.273.172.604.278.897.053.147.11.285.168.403.059.117.122.218.192.287l.105-.107Zm.125-.22a1.13 1.13 0 0 1-.108.158.259.259 0 0 1-.053.05c-.005.004-.004.001.004 0 .01 0 .023.004.031.013l-.105.107a.107.107 0 0 0 .082.03.143.143 0 0 0 .066-.021.39.39 0 0 0 .09-.082c.051-.061.1-.14.124-.18L15 13.82Zm-.1-.284a.25.25 0 0 1 .035.053.715.715 0 0 1 .065.193c.004.03-.001.04 0 .038l.13.074a.216.216 0 0 0 .02-.129.848.848 0 0 0-.082-.246.375.375 0 0 0-.063-.09l-.105.107Zm-.6-1.382c.068.226.152.506.251.76.098.25.214.489.35.622l.104-.107c-.11-.108-.216-.318-.314-.57-.096-.247-.18-.521-.248-.749l-.144.044Zm-.01-.03.01.03.143-.044-.01-.03-.143.043Zm-.218-.406c.057.07.094.117.125.173a1.1 1.1 0 0 1 .093.232l.144-.043a1.25 1.25 0 0 0-.106-.263c-.039-.068-.083-.123-.138-.193l-.118.094Zm-.098-.126.098.126.118-.094a6.401 6.401 0 0 1-.096-.123l-.12.091Zm.015-.227c-.009.1-.114.097-.119.092l.003.004.01.012a29.407 29.407 0 0 0 .091.12l.12-.091-.062-.081-.03-.04-.01-.012-.003-.003v-.001l-.001-.001c-.004-.005-.11-.009-.119.091v.001l.12-.091Zm-.205-.023.086.114.119-.091a4.886 4.886 0 0 1-.084-.111l-.121.088Zm-.063-.08c.025.03.046.056.063.08l.121-.088a1.569 1.569 0 0 0-.07-.088l-.114.097Zm-.265-.696c-.02.357.149.558.264.697l.115-.097c-.112-.134-.246-.295-.23-.59l-.149-.01Zm-.054-.108c.008.001.022.007.035.026.012.02.021.049.02.082l.149.01a.287.287 0 0 0-.044-.174.198.198 0 0 0-.147-.093l-.013.15Z"></path>
  <path fill="#ffc125" fill-rule="evenodd" d="M16 9.333a.117.117 0 0 0-.117.111l-.216 4.1h.666l-.216-4.1a.117.117 0 0 0-.117-.11Zm4.979 6.58a.163.163 0 0 0-.148-.163l-3.01-.282v.889l3.01-.283a.163.163 0 0 0 .148-.162Zm-4.862 6.467a.117.117 0 0 1-.234 0l-.216-4.1h.666l-.216 4.1Zm-5.096-6.468c0 .084.064.154.147.162l3.01.283v-.89l-3.01.283a.163.163 0 0 0-.147.162Zm8.397-4.58c.049-.055.12-.05.163.01a.2.2 0 0 1 .003.218l-2.043 3.027-.463-.64 2.34-2.615Zm.04 9.313a.198.198 0 0 0 .01-.216l-1.963-3.122-.48.618 2.272 2.724c.046.056.117.054.162-.004Zm-6.876-.152c-.049.054-.12.05-.164-.01a.2.2 0 0 1-.002-.218l2.042-3.027.463.64-2.34 2.615Zm-.04-9.313a.198.198 0 0 0-.01.215l1.963 3.122.48-.617-2.272-2.725c-.046-.055-.117-.053-.162.005Zm1.518-1.197a.158.158 0 0 1 .075-.17c.058-.032.12-.009.143.052l1.349 3.685-.618.333-.95-3.9Zm6.556 3.465c-.023-.078-.098-.113-.17-.082l-2.883 1.247.25.824 2.723-1.772a.2.2 0 0 0 .08-.217Zm-2.676 8.394a.158.158 0 0 1-.075.17c-.058.031-.12.008-.143-.053l-1.349-3.684.618-.333.95 3.9Zm-6.557-3.465c.024.077.098.113.172.081l2.881-1.246-.25-.825-2.722 1.773a.2.2 0 0 0-.08.217Zm6.419-8.47c.023-.061.086-.083.143-.05a.16.16 0 0 1 .073.172l-1 3.877-.613-.348 1.397-3.651Zm2.781 8.576a.201.201 0 0 0-.077-.218l-2.7-1.837-.26.819 2.866 1.314c.072.033.146-.001.171-.078Zm-6.385 3.435a.096.096 0 0 1-.143.05.16.16 0 0 1-.073-.173l1-3.876.613.347-1.397 3.652Zm-2.781-8.576a.201.201 0 0 0 .077.218l2.7 1.836.26-.818-2.866-1.314c-.072-.033-.147 0-.171.078Z" clip-rule="evenodd"></path>
  <path fill="#984111" d="m15.883 9.444-.075-.004.075.004Zm-.216 4.1-.075-.004-.005.079h.08v-.075Zm.666 0v.075h.08l-.005-.08-.075.005Zm-.216-4.1.075-.004-.075.004Zm4.714 6.306-.007.075.007-.075Zm-3.01-.282.007-.075-.082-.008v.083h.075Zm0 .889h-.075v.082l.082-.008-.007-.074Zm3.01-.283L20.824 16l.007.075Zm-4.714 6.306.075.004-.075-.004Zm-.234 0-.075.004.075-.004Zm-.216-4.1v-.074h-.08l.005.079.075-.004Zm.666 0 .075.005.004-.08h-.079v.076Zm-5.164-2.206.006-.075-.007.075Zm3.01.283-.007.074.082.008v-.082h-.075Zm0-.89h.075v-.082l-.082.008.007.075Zm-3.01.283.006.075-.007-.075Zm8.412-4.408.061-.044-.06.044Zm-.163-.01.056.05-.056-.05Zm.166.228.062.042-.062-.042Zm-2.043 3.027-.06.044.063.086.06-.088-.063-.042Zm-.463-.64-.055-.05-.04.045.035.05.06-.045Zm2.39 6.482.063-.04-.063.04Zm-.01.216.06.046-.06-.046Zm-1.953-3.338.063-.04-.057-.09-.066.084.06.046Zm-.48.618-.06-.046-.036.047.039.047.057-.048Zm2.272 2.724.058-.047-.058.047Zm-6.879-.167.061-.044-.06.044Zm.164.01.055.05-.055-.05Zm-.166-.227-.062-.042.062.042Zm2.042-3.027.061-.044-.063-.087-.06.089.062.042Zm.463.64.056.05.04-.046-.035-.049-.06.044Zm-2.389-6.483-.063.04.063-.04Zm.01-.215.059.046-.06-.046Zm1.953 3.337-.063.04.057.09.065-.084-.059-.046Zm.48-.617.059.046.037-.048-.039-.046-.057.048Zm-2.272-2.725-.058.048.058-.048Zm1.357-1.192.073-.018-.073.018Zm.218-.118.07-.025-.07.025Zm1.349 3.685.035.066.058-.031-.023-.061-.07.026Zm-.618.333-.073.018.023.094.085-.046-.035-.066Zm5.436-.517-.03-.069.03.07Zm.171.082-.071.021.071-.021Zm-3.052 1.165-.03-.069-.062.027.02.064.072-.022Zm.25.824-.073.022.03.095.083-.054-.04-.063Zm2.722-1.772.04.063-.04-.063Zm-2.67 8.347-.037-.066.036.066Zm.074-.17-.073.017.073-.017Zm-.218.117-.07.026.07-.026Zm-1.349-3.684-.036-.066-.057.03.023.061.07-.025Zm.618-.333.073-.018-.023-.094-.085.046.035.066Zm-5.436.516-.03-.069.03.07Zm-.171-.081-.072.021.072-.021Zm3.052-1.165.03.068.062-.026-.02-.064-.072.021Zm-.25-.825.072-.021-.029-.096-.083.055.04.062Zm-2.722 1.773-.04-.063.04.063Zm6.481-8.304.037-.065-.037.065Zm-.143.05-.07-.026.07.027Zm.216.123.073.019-.073-.019Zm-1 3.877-.037.065.085.048.025-.095-.073-.018Zm-.613-.348-.07-.026-.024.06.057.032.037-.066Zm4.101 4.707-.042.062.042-.062Zm.077.218.072.023-.072-.023Zm-2.776-2.055.042-.062-.084-.056-.03.096.072.023Zm-.261.819-.072-.023-.02.063.06.028.032-.068Zm2.866 1.314.031-.069-.031.069Zm-6.357 3.407.037-.065-.037.065Zm.143-.05.07.026-.07-.026Zm-.216-.123-.073-.019.073.02Zm1-3.876.037-.066-.086-.048-.024.095.073.019Zm.613.347.07.027.023-.06-.056-.032-.037.065Zm-4.101-4.706.042-.062-.042.062Zm-.077-.218-.072-.023.072.023Zm2.776 2.054-.042.062.083.056.03-.095-.07-.023Zm.26-.818.072.022.02-.063-.06-.028-.031.069Zm-2.865-1.314-.031.068.031-.068Zm4.37-3.816a.042.042 0 0 1 .042-.04v-.15a.192.192 0 0 0-.192.182l.15.008Zm-.216 4.1.216-4.1-.15-.008-.216 4.1.15.008Zm.591-.08h-.666v.15h.666v-.15Zm-.291-4.02.216 4.1.15-.008-.216-4.1-.15.008ZM16 9.408c.022 0 .04.018.042.04l.15-.008A.192.192 0 0 0 16 9.258v.15Zm4.824 6.417c.045.004.08.042.08.087h.15a.238.238 0 0 0-.216-.237l-.014.15Zm-3.01-.283 3.01.283.014-.15-3.01-.282-.014.15Zm.082.815v-.89h-.15v.89h.15ZM20.824 16l-3.01.282.014.15 3.01-.283-.014-.15Zm.08-.088a.088.088 0 0 1-.08.087l.014.15a.238.238 0 0 0 .216-.237h-.15ZM16 22.566c.102 0 .186-.08.192-.182l-.15-.008a.042.042 0 0 1-.042.04v.15Zm-.192-.182c.005.102.09.182.192.182v-.15a.042.042 0 0 1-.042-.04l-.15.008Zm-.216-4.1.216 4.1.15-.008-.216-4.1-.15.009Zm.741-.078h-.666v.15h.666v-.15Zm-.141 4.178.216-4.1-.15-.007-.216 4.1.15.007ZM11.175 16a.088.088 0 0 1-.079-.087h-.15c0 .123.093.225.216.237l.013-.15Zm3.01.283L11.175 16l-.014.15 3.01.282.015-.149Zm-.081-.814v.889h.15v-.89h-.15Zm-2.928.357 3.01-.283-.014-.149-3.01.282.013.15Zm-.08.087c0-.045.034-.083.08-.087l-.014-.15a.238.238 0 0 0-.216.237h.15Zm8.546-4.614a.183.183 0 0 0-.135-.079.178.178 0 0 0-.145.063l.112.1c.011-.013.02-.013.023-.013.004 0 .013.002.024.017l.121-.088Zm.004.304a.275.275 0 0 0-.004-.304l-.121.088a.126.126 0 0 1 0 .132l.125.084Zm-2.042 3.027 2.042-3.027-.125-.084-2.042 3.027.125.084Zm-.586-.638.463.64.121-.088-.463-.64-.121.088Zm2.344-2.71-2.34 2.616.112.1 2.34-2.615-.112-.1Zm.042 9.188a.124.124 0 0 1-.005.13l.119.092a.273.273 0 0 0 .013-.302l-.127.08Zm-1.963-3.122 1.963 3.122.127-.08-1.963-3.122-.127.08Zm-.357.624.48-.618-.119-.092-.48.618.12.092Zm2.27 2.63-2.271-2.724-.115.096 2.271 2.725.116-.096Zm.045-.002c-.01.014-.02.015-.023.016-.003 0-.011-.001-.021-.013l-.116.096a.177.177 0 0 0 .141.067.181.181 0 0 0 .138-.074l-.119-.092Zm-7.041-.073a.18.18 0 0 0 .135.08.178.178 0 0 0 .144-.063l-.111-.1c-.011.012-.02.013-.023.012-.004 0-.013-.002-.024-.017l-.121.088Zm-.004-.303a.275.275 0 0 0 .004.303l.121-.088a.126.126 0 0 1 0-.131l-.125-.084Zm2.042-3.027-2.042 3.027.124.084 2.043-3.027-.125-.084Zm.586.637-.463-.64-.121.089.463.64.121-.089Zm-2.345 2.71 2.34-2.616-.111-.1-2.34 2.616.111.1Zm-.042-9.188a.124.124 0 0 1 .005-.13l-.118-.091a.273.273 0 0 0-.013.301l.127-.08Zm1.964 3.122-1.963-3.122-.127.08 1.963 3.122.127-.08Zm.357-.623-.48.617.118.092.48-.617-.119-.092Zm-2.27-2.631 2.271 2.725.115-.096-2.271-2.725-.116.096Zm-.046.003c.011-.014.02-.016.024-.016.003 0 .011 0 .021.013l.116-.096a.177.177 0 0 0-.141-.067.181.181 0 0 0-.138.074l.119.092Zm1.5-1.48a.233.233 0 0 0-.113.255l.146-.036a.084.084 0 0 1 .037-.087l-.07-.132Zm.248.094a.174.174 0 0 0-.102-.106.177.177 0 0 0-.147.012l.071.132c.012-.006.02-.005.023-.003.004 0 .01.005.014.016l.141-.051Zm1.35 3.684-1.35-3.684-.14.051 1.348 3.684.141-.051Zm-.654.425.618-.333-.07-.132-.619.333.071.132ZM13.987 10l.949 3.9.146-.036-.95-3.9-.145.036Zm6.488 3.434c.018-.008.032-.006.042-.001.01.004.021.015.028.035l.143-.043a.204.204 0 0 0-.106-.128.199.199 0 0 0-.166 0l.059.137Zm-2.882 1.247 2.882-1.247-.06-.138-2.881 1.247.06.138Zm.292.733-.25-.824-.143.044.25.824.143-.044Zm2.61-1.813-2.723 1.772.082.126 2.723-1.773-.082-.125Zm.05-.133a.126.126 0 0 1-.05.133l.082.125a.275.275 0 0 0 .111-.301l-.143.043ZM17.9 22.08a.233.233 0 0 0 .112-.255l-.146.035a.084.084 0 0 1-.038.087l.072.132Zm-.25-.094a.173.173 0 0 0 .25.093l-.072-.132a.03.03 0 0 1-.023.004c-.003-.002-.01-.005-.013-.017l-.141.052ZM16.304 18.3l1.349 3.685.14-.052-1.349-3.684-.14.051Zm.653-.424-.619.333.072.132.618-.333-.071-.132Zm1.057 3.948-.949-3.9-.146.035.95 3.9.145-.035Zm-6.488-3.435a.052.052 0 0 1-.042.002.057.057 0 0 1-.028-.036l-.143.043a.204.204 0 0 0 .106.128.2.2 0 0 0 .166 0l-.06-.137Zm2.882-1.246-2.882 1.246.06.138 2.881-1.247-.06-.137Zm-.292-.734.25.824.143-.043-.25-.824-.143.043Zm-2.61 1.814 2.722-1.773-.081-.125-2.723 1.772.082.126Zm-.05.132a.126.126 0 0 1 .05-.132l-.082-.126a.275.275 0 0 0-.111.301l.143-.043Zm6.527-8.564a.177.177 0 0 0-.146-.015.174.174 0 0 0-.104.104l.14.054c.004-.012.01-.016.014-.017.003-.001.01-.002.022.005l.074-.131Zm.109.257a.235.235 0 0 0-.109-.257l-.074.13a.086.086 0 0 1 .037.09l.146.037Zm-1 3.876 1-3.876-.146-.037-1 3.876.146.037Zm-.723-.3.613.347.074-.13-.613-.348-.074.13Zm1.364-3.744-1.397 3.652.14.053 1.397-3.651-.14-.054Zm2.732 8.447a.126.126 0 0 1 .048.133l.143.046a.276.276 0 0 0-.107-.303l-.084.124Zm-2.7-1.837 2.7 1.837.084-.125-2.7-1.836-.084.125Zm-.146.78.26-.819-.143-.045-.26.818.142.046Zm2.825 1.222-2.866-1.313-.062.136 2.866 1.314.062-.137Zm.069-.032a.058.058 0 0 1-.028.035.045.045 0 0 1-.04-.003l-.063.137a.198.198 0 0 0 .165.002.203.203 0 0 0 .109-.125l-.143-.046Zm-6.494 3.573a.176.176 0 0 0 .146.016.174.174 0 0 0 .104-.105l-.14-.053c-.004.011-.01.015-.014.016-.003.001-.01.003-.023-.004l-.073.13Zm-.109-.257a.235.235 0 0 0 .109.257l.073-.13a.086.086 0 0 1-.036-.09l-.146-.037Zm1-3.876-1 3.876.146.038 1-3.877-.146-.037Zm.723.3-.614-.347-.073.131.613.347.074-.13Zm-1.364 3.744 1.397-3.651-.14-.054-1.397 3.652.14.053Zm-2.732-8.446a.126.126 0 0 1-.048-.134l-.143-.045a.276.276 0 0 0 .107.303l.084-.124Zm2.7 1.836-2.7-1.836-.084.124 2.7 1.836.084-.124Zm.146-.78-.26.82.143.045.26-.819-.143-.045Zm-2.825-1.222 2.866 1.314.062-.137-2.866-1.313-.062.136Zm-.069.032c.007-.02.018-.03.027-.034.01-.005.024-.006.042.002l.062-.136a.198.198 0 0 0-.165-.003.203.203 0 0 0-.109.126l.143.045Z"></path>
  <path fill="#ffc125" fill-rule="evenodd" stroke="#984111" stroke-width=".15" d="M16 18.456c1.067 0 1.933-1.139 1.933-2.544s-.866-2.544-1.933-2.544c-1.068 0-1.934 1.14-1.934 2.544 0 1.405.866 2.544 1.934 2.544Z" clip-rule="evenodd"></path>
  <path fill="#984111" d="m15.814 15.248-.126-.108a.748.748 0 0 0-.185-.124.213.213 0 0 0-.082-.019c-.117 0-.284.098-.494.297l-.078-.142c.231-.219.42-.33.572-.33.04 0 .08.009.122.026a.859.859 0 0 1 .217.144l.124.108c.03.024.048.036.048.036.16 0 .17.759.056.992a.626.626 0 0 1-.116.165l-.087.085c-.04.04-.052.064-.052.093 0 .005.048.02.155.014l.073-.006a.959.959 0 0 1 .11-.009v.175a.86.86 0 0 0-.1.009 2.036 2.036 0 0 1-.076.006c-.188.012-.295-.023-.295-.19 0-.095.035-.16.103-.23l.086-.084a.464.464 0 0 0 .087-.122c.035-.072.056-.257.053-.454a1.623 1.623 0 0 0-.026-.274.298.298 0 0 1-.09-.057Z"></path>
  <path fill="#984111" fill-rule="evenodd" d="m16.352 15.187-.071.062a.3.3 0 0 1-.09.057 1.637 1.637 0 0 0-.026.274c-.003.197.019.382.053.454a.464.464 0 0 0 .087.122 2.65 2.65 0 0 0 .086.084c.069.07.103.136.103.23 0 .167-.107.202-.294.19a2.021 2.021 0 0 1-.077-.006.952.952 0 0 0-.1-.009v-.175a.75.75 0 0 1 .11.009l.073.006c.107.007.155-.01.155-.014 0-.029-.013-.052-.052-.093a1.772 1.772 0 0 0-.026-.025l-.06-.06a.626.626 0 0 1-.117-.165c-.113-.233-.103-.992.056-.992l.001-.001a.53.53 0 0 0 .047-.035 6.746 6.746 0 0 0 .124-.108.862.862 0 0 1 .217-.144.316.316 0 0 1 .122-.027c.152 0 .341.112.572.331l-.078.142c-.21-.2-.376-.297-.494-.297a.213.213 0 0 0-.081.019.75.75 0 0 0-.186.124l-.054.047Zm-.157.107-.001.004v-.003l.001-.001Z" clip-rule="evenodd"></path>
  <path fill="#984111" d="m15.657 16.99.042.063-.042-.062Zm.693.003-.047.058.047-.058Zm.048.038.067.035.028-.055-.048-.038-.047.058Zm-.028.055-.067-.035.067.035Zm-.734.008.063-.041-.063.04Zm-.04-.063-.042-.062-.061.041.04.062.063-.04Zm.21.046-.032-.067-.082.04.055.072.06-.045Zm.398-.003.064.04.041-.067-.068-.038-.037.065Zm-.593-.063.047.057-.047-.057Zm-.013.01-.048-.058-.048.04.03.055.066-.037Zm.012.021.066-.036-.066.036Zm.773-.001.068.03-.068-.03Zm.009-.02.068.03.021-.045-.035-.037-.054.052Zm-.01-.01.053-.053-.054.052Zm-.867-.116.048.058-.048-.058Zm.974.01.054-.051-.054.052Zm.046.048-.054.053.054-.053Zm.035.037.069.03.02-.046-.035-.036-.054.052Zm-.02.046-.069-.03.068.03Zm-.03.066.068.031-.068-.03Zm-1.04.014-.066.036.065-.036Zm-.043-.076.065-.037-.065.037Zm-.03-.055-.049-.058-.048.04.03.054.066-.036Zm.047-.04-.047-.058.047.058Zm.562-.143a.713.713 0 0 0-.4.126l.083.125a.564.564 0 0 1 .317-.1v-.15Zm.381.132a.595.595 0 0 0-.381-.132v.15c.11 0 .205.033.288.099l.093-.117Zm.048.038-.048-.038-.093.117.048.039.093-.117Zm-.009.148.029-.054-.133-.07-.029.055.133.07Zm-.42.328c.193 0 .327-.148.42-.328l-.133-.069c-.087.168-.183.247-.287.247v.15Zm-.443-.314c.112.175.257.314.443.314v-.15c-.105 0-.21-.079-.317-.245l-.126.081Zm-.04-.062.04.062.126-.081-.04-.062-.126.081Zm.083-.144-.062.041.083.125.062-.041-.083-.125Zm.4.22c-.02 0-.071-.013-.15-.116l-.119.09c.09.118.18.176.269.176v-.15Zm.125-.113c-.066.105-.11.113-.125.113v.15c.09 0 .175-.06.252-.184l-.128-.08Zm-.125.067a.3.3 0 0 1 .152.038l.073-.131a.451.451 0 0 0-.225-.057v.15Zm-.176.042a.392.392 0 0 1 .176-.042v-.15a.544.544 0 0 0-.242.058l.066.134Zm-.181-.076a.553.553 0 0 1 .357-.141v-.15a.702.702 0 0 0-.453.176l.095.115Zm-.013.01.012-.01-.095-.115-.013.01.096.116Zm.03-.072-.012-.022-.131.073.012.022.13-.073Zm.34.318c-.081 0-.2-.067-.34-.318l-.131.073c.145.26.302.395.471.395v-.15Zm.299-.314c-.114.252-.222.314-.299.314v.15c.171 0 .317-.138.435-.402l-.137-.062Zm.008-.02-.009.02.137.062.01-.02-.138-.061Zm.004.072.01.011.109-.104-.01-.011-.109.104Zm-.311-.135c.12 0 .221.043.311.135l.108-.104a.565.565 0 0 0-.419-.181v.15Zm0-.3c-.2 0-.384.074-.548.21l.095.116a.702.702 0 0 1 .453-.176v-.15Zm.527.227a.714.714 0 0 0-.527-.227v.15c.162 0 .302.06.42.181l.107-.104Zm.046.047-.046-.047-.108.104.046.048.108-.105Zm.035.037-.035-.037-.108.105.035.036.108-.104Zm-.006.129.02-.047-.136-.06-.021.046.137.06Zm-.03.066.03-.066-.137-.061-.03.066.137.061Zm-.572.49c.267 0 .45-.216.572-.49l-.137-.061c-.118.264-.264.402-.435.402v.15Zm-.602-.47c.15.267.345.47.602.47v-.15c-.17 0-.326-.134-.471-.394l-.131.073Zm-.043-.077.043.076.13-.073-.042-.076-.13.073Zm-.03-.055.03.055.131-.073-.03-.055-.131.073Zm.066-.134-.049.04.096.116.048-.04-.095-.116Zm.06-.05-.06.05.095.116.061-.05-.095-.116Zm-.41-1.54.04.064-.04-.064Zm0 .428-.04.064.04-.063Zm.553 0 .04.064-.04-.063Zm0-.428-.04.064.04-.064Zm-.472.127-.04-.063.04.063Zm.39 0-.04.063.04-.063Zm0 .175-.04-.063.04.063Zm-.39 0-.04.063.04-.063Zm1.253-.302.04.064-.04-.064Zm0 .428-.04.064.04-.063Zm.552 0-.04-.063.04.063Zm0-.428-.04.064.04-.064Zm-.471.127-.04-.063.04.063Zm.39 0-.04.063.04-.063Zm0 .175-.04-.063.04.063Zm-.39 0-.04.063.04-.063Zm-1.374-.238a.443.443 0 0 1 .236-.063v-.15a.592.592 0 0 0-.317.086l.08.127Zm-.098.15c0-.058.037-.112.098-.15l-.08-.127a.334.334 0 0 0-.168.277H15Zm.098.151c-.06-.038-.098-.092-.098-.15h-.15c0 .127.081.222.167.277l.08-.127Zm.236.063a.443.443 0 0 1-.236-.063l-.08.127a.59.59 0 0 0 .316.086v-.15Zm.235-.063a.443.443 0 0 1-.235.063v.15c.116 0 .228-.03.316-.086l-.08-.127Zm.098-.15c0 .058-.037.112-.098.15l.081.127a.334.334 0 0 0 .167-.277h-.15Zm-.098-.151c.06.038.098.092.098.15h.15a.334.334 0 0 0-.167-.277l-.08.127Zm-.235-.063c.092 0 .175.024.235.063l.081-.127a.592.592 0 0 0-.316-.086v.15Zm-.236.063c-.06.039-.098.092-.098.15h.15c0 .01-.005-.002.029-.024l-.081-.126Zm.236-.063a.443.443 0 0 0-.236.063l.08.126a.294.294 0 0 1 .156-.039v-.15Zm.235.063a.443.443 0 0 0-.235-.063v.15c.067 0 .122.018.155.039l.08-.126Zm.098.15c0-.058-.037-.111-.098-.15l-.08.126c.033.022.028.034.028.024h.15Zm-.098.151c.061-.039.098-.092.098-.15h-.15c0-.01.005.002-.028.024l.08.126Zm-.235.063a.443.443 0 0 0 .235-.063l-.08-.126a.296.296 0 0 1-.155.039v.15Zm-.236-.063a.44.44 0 0 0 .236.063v-.15a.295.295 0 0 1-.155-.039l-.081.126Zm-.098-.15c0 .058.037.111.098.15l.08-.126c-.033-.022-.028-.034-.028-.024H15Zm1.431-.151a.443.443 0 0 1 .236-.063v-.15a.592.592 0 0 0-.317.086l.081.127Zm-.097.15c0-.058.037-.112.097-.15l-.08-.127a.334.334 0 0 0-.167.277h.15Zm.097.151c-.06-.038-.097-.092-.097-.15h-.15c0 .127.08.222.166.277l.081-.127Zm.236.063a.443.443 0 0 1-.236-.063l-.08.127a.59.59 0 0 0 .316.086v-.15Zm.236-.063a.443.443 0 0 1-.236.063v.15a.59.59 0 0 0 .316-.086l-.08-.127Zm.097-.15c0 .058-.037.112-.097.15l.08.127a.334.334 0 0 0 .167-.277H17Zm-.097-.151c.06.038.097.092.097.15h.15a.334.334 0 0 0-.166-.277l-.081.127Zm-.236-.063c.092 0 .175.024.236.063l.08-.127a.592.592 0 0 0-.316-.086v.15Zm-.236.063c-.06.039-.097.092-.097.15h.15c0 .01-.006-.002.028-.024l-.08-.126Zm.236-.063a.443.443 0 0 0-.236.063l.081.126a.294.294 0 0 1 .155-.039v-.15Zm.236.063a.443.443 0 0 0-.236-.063v.15c.068 0 .122.018.155.039l.08-.126Zm.097.15c0-.058-.037-.111-.097-.15l-.081.126c.034.022.028.034.028.024H17Zm-.097.151c.06-.039.097-.092.097-.15h-.15c0-.01.006.002-.028.024l.08.126Zm-.236.063a.443.443 0 0 0 .236-.063l-.081-.126a.295.295 0 0 1-.155.039v.15Zm-.236-.063a.44.44 0 0 0 .236.063v-.15a.296.296 0 0 1-.155-.039l-.08.126Zm-.097-.15c0 .058.036.111.097.15l.081-.126c-.034-.022-.028-.034-.028-.024h-.15Z"></path>
</svg>