<svg xmlns="http://www.w3.org/2000/svg" fill="none" viewBox="0 0 24 24" id="Au-Australia--Streamline-Flagpack" height="24" width="24">
  <desc>
    AU Australia Streamline Icon: https://streamlinehq.com
  </desc>
  <path fill="#2e42a5" fill-rule="evenodd" d="M0 3v18h24V3H0Z" clip-rule="evenodd" stroke-width="0.75"></path>
  <g clip-path="url(#a)">
    <path fill="#2e42a5" d="M0 3h13.5v10.5H0z" stroke-width="0.75"></path>
    <path fill="#f7fcff" d="m-1.5030000000000001 12.75 2.9699999999999998 1.30275L13.567499999999999 4.4174999999999995l1.5675 -1.9364999999999999 -3.1769999999999996 -0.43499999999999994 -4.9350000000000005 4.151999999999999 -3.9727499999999996 2.7975L-1.5030000000000001 12.75Z" stroke-width="0.75"></path>
    <path fill="#f50100" d="m-1.0965 13.662749999999999 1.5134999999999998 0.756L14.571749999999998 2.30025h-2.12475l-13.5435 11.3625Z" stroke-width="0.75"></path>
    <path fill="#f7fcff" d="m15.003 12.75 -2.9699999999999998 1.30275L-0.0675 4.4174999999999995l-1.5675 -1.9364999999999999 3.1769999999999996 -0.43499999999999994 4.9350000000000005 4.151999999999999 3.9727499999999996 2.7975L15.003 12.75Z" stroke-width="0.75"></path>
    <path fill="#f50100" d="m14.90175 13.40475 -1.5134999999999998 0.756 -6.026999999999999 -5.1885 -1.78725 -0.579 -7.359 -5.90625H0.33975l7.35525 5.766 1.9537499999999999 0.6945 5.253 4.45725Z" stroke-width="0.75"></path>
    <path fill="#f50100" fill-rule="evenodd" d="M7.48875 3h-1.5v4.5H0v1.5h5.9887500000000005v4.5h1.5v-4.5H13.5v-1.5H7.48875V3Z" clip-rule="evenodd" stroke-width="0.75"></path>
    <path fill="#f7fcff" fill-rule="evenodd" d="M4.8637500000000005 3h3.75v3.375H13.5v3.75h-4.8862499999999995L8.625 13.5h-3.75l-0.01125 -3.375H0v-3.75h4.8637500000000005V3Zm1.125 4.5H0v1.5h5.9887500000000005v4.5h1.5v-4.5H13.5v-1.5H7.48875V3h-1.5v4.5Z" clip-rule="evenodd" stroke-width="0.75"></path>
  </g>
  <path fill="#f7fcff" d="m6.75 18.375 -0.9765 0.90225 0.0975 -1.326 -1.3147499999999999 -0.20025 1.09725 -0.7515000000000001 -0.66225 -1.15275 1.2705 0.39L6.75 15l0.48750000000000004 1.236 1.27125 -0.3885 -0.66225 1.1520000000000001 1.09725 0.7515000000000001 -1.314 0.20025 0.09675 1.326L6.75 18.375ZM16.5 12.75l-0.651 0.6015 0.0645 -0.8835 -0.8759999999999999 -0.13424999999999998 0.73125 -0.501 -0.44175 -0.768 0.8474999999999999 0.25949999999999995L16.5 10.5l0.3255 0.8242499999999999 0.8474999999999999 -0.25949999999999995 -0.4425 0.768 0.732 0.501 -0.8759999999999999 0.1335 0.0645 0.88425L16.5 12.75Zm1.5 -6 -0.651 0.6015 0.0645 -0.88425 -0.8759999999999999 -0.1335 0.73125 -0.501 -0.44175 -0.768 0.8474999999999999 0.25949999999999995L18 4.5l0.3255 0.8242499999999999 0.8474999999999999 -0.25949999999999995 -0.4425 0.768 0.732 0.501 -0.8759999999999999 0.1335 0.0645 0.88425L18 6.75Zm3.75 3 -0.651 0.6015 0.0645 -0.8835 -0.8759999999999999 -0.13424999999999998 0.73125 -0.501 -0.44175 -0.768 0.8474999999999999 0.25949999999999995L21.75 7.5l0.3255 0.8242499999999999 0.8474999999999999 -0.25949999999999995 -0.4425 0.768 0.732 0.501 -0.8759999999999999 0.1335 0.0645 0.88425L21.75 9.75Zm-3 9.75 -0.651 0.6015 0.0645 -0.8835 -0.8759999999999999 -0.13424999999999998 0.73125 -0.501 -0.44175 -0.768 0.8474999999999999 0.25949999999999995L18.75 17.25l0.3255 0.8242499999999999 0.8474999999999999 -0.25949999999999995 -0.4425 0.768 0.732 0.501 -0.8759999999999999 0.1335 0.0645 0.88425L18.75 19.5Zm2.625 -5.8125 -0.6615 0.34725 0.12675 -0.73575 -0.5355 -0.52125 0.7395 -0.10799999999999998L21.375 12l0.33 0.6697500000000001 0.74025 0.10724999999999998 -0.5355 0.522 0.12675 0.7364999999999999 -0.6615 -0.34800000000000003Z" stroke-width="0.75"></path>
  <defs>
    <clipPath id="a">
      <path fill="#ffffff" d="M0 3h13.5v10.5H0z" stroke-width="0.75"></path>
    </clipPath>
  </defs>
</svg>