<svg xmlns="http://www.w3.org/2000/svg" fill="none" viewBox="0 0 24 24" id="Ba-Bosnia-And-Herzegovina--Streamline-Flagpack" height="24" width="24">
  <desc>
    BA Bosnia And Herzegovina Streamline Icon: https://streamlinehq.com
  </desc>
  <path fill="#2e42a5" fill-rule="evenodd" d="M0 3h24v18H0V3Z" clip-rule="evenodd" stroke-width="0.75"></path>
  <path fill="#feca00" fill-rule="evenodd" d="M6.75 3h15v18L6.75 3Z" clip-rule="evenodd" stroke-width="0.75"></path>
  <path fill="#f7fcff" fill-rule="evenodd" d="m4.5809999999999995 5.0954999999999995 -0.8819999999999999 0.4635 0.16875 -0.9825 -0.7132499999999999 -0.6945 0.9855 -0.14325 0.44099999999999995 -0.8932500000000001 0.44099999999999995 0.8925 0.9855 0.14400000000000002 -0.7132499999999999 0.69525 0.168 0.9817499999999999 -0.8812500000000001 -0.4635Zm2.61525 3.21 -0.8819999999999999 0.4635 0.168 -0.9825 -0.7124999999999999 -0.6945 0.9855 -0.14325 0.44099999999999995 -0.8932500000000001 0.44025 0.8925 0.98625 0.14400000000000002 -0.7132499999999999 0.69525 0.168 0.9817499999999999 -0.8812500000000001 -0.4635Zm2.4509999999999996 3.1229999999999998 -0.8812500000000001 0.4635 0.168 -0.9817499999999999 -0.7124999999999999 -0.69525 0.98475 -0.14250000000000002 0.44099999999999995 -0.8939999999999999 0.44099999999999995 0.8932500000000001 0.9855 0.14325 -0.7124999999999999 0.69525 0.168 0.9825 -0.8819999999999999 -0.46425Zm2.4015 2.9939999999999998 -0.8812500000000001 0.46275 0.168 -0.9817499999999999 -0.7124999999999999 -0.69525 0.98475 -0.14250000000000002 0.44099999999999995 -0.8939999999999999 0.44099999999999995 0.8932500000000001 0.9855 0.14325 -0.7124999999999999 0.69525 0.168 0.9825 -0.8819999999999999 -0.46425Zm2.58675 3.0802500000000004 -0.8812500000000001 0.4635 0.168 -0.9825 -0.7124999999999999 -0.6945 0.9855 -0.14325 0.44025 -0.8932500000000001 0.44099999999999995 0.8925 0.9855 0.14400000000000002 -0.7124999999999999 0.69525 0.168 0.9817499999999999 -0.8819999999999999 -0.4635Zm2.85975 2.9805 -0.8819999999999999 0.4635 0.16875 -0.9817499999999999 -0.7132499999999999 -0.69525 0.9855 -0.14325 0.44099999999999995 -0.8932500000000001 0.44025 0.8932500000000001 0.98625 0.14325 -0.7132499999999999 0.69525 0.168 0.9825 -0.8812500000000001 -0.46425Z" clip-rule="evenodd" stroke-width="0.75"></path>
</svg>