<svg xmlns="http://www.w3.org/2000/svg" fill="none" viewBox="0 0 32 32" id="Br-Brazil--Streamline-Flagpack" height="24" width="24">
  <desc>
    BR Brazil Streamline Icon: https://streamlinehq.com
  </desc>
  <path fill="#009933" fill-rule="evenodd" d="M0 4v24h32V4H0Z" clip-rule="evenodd"></path>
  <mask id="a" width="32" height="24" x="0" y="4" maskUnits="userSpaceOnUse" style="mask-type:luminance">
    <path fill="#ffffff" fill-rule="evenodd" d="M0 4v24h32V4H0Z" clip-rule="evenodd"></path>
  </mask>
  <g mask="url(#a)">
    <g filter="url(#b)">
      <path fill="#ffd221" fill-rule="evenodd" d="m15.927 7.704 12.202 8.504L15.76 24.17 3.809 16.043l12.118-8.339Z" clip-rule="evenodd"></path>
      <path fill="url(#c)" fill-rule="evenodd" d="m15.927 7.704 12.202 8.504L15.76 24.17 3.809 16.043l12.118-8.339Z" clip-rule="evenodd"></path>
    </g>
    <path fill="#2e42a5" fill-rule="evenodd" d="M16 21.2a5 5 0 1 0 0-10 5 5 0 0 0 0 10Z" clip-rule="evenodd"></path>
    <mask id="d" width="10" height="11" x="11" y="11" maskUnits="userSpaceOnUse" style="mask-type:luminance">
      <path fill="#ffffff" fill-rule="evenodd" d="M16 21.2a5 5 0 1 0 0-10 5 5 0 0 0 0 10Z" clip-rule="evenodd"></path>
    </mask>
    <g mask="url(#d)">
      <path fill="#f7fcff" fill-rule="evenodd" d="m14.38 18.57-.223.117.042-.248-.18-.176.25-.037.111-.226.112.226.25.037-.181.176.042.248-.223-.117Zm2 0-.223.117.042-.248-.18-.176.25-.037.111-.226.112.226.25.037-.181.176.042.248-.223-.117Zm0 1.2-.223.117.042-.248-.18-.177.25-.036.111-.226.112.226.25.037-.181.176.042.248-.223-.117Zm-1-4.2-.223.117.042-.248-.18-.176.25-.037.111-.226.112.226.25.037-.181.176.042.248-.223-.117Zm0 2-.223.117.042-.248-.18-.176.25-.037.111-.226.112.226.25.037-.181.176.042.248-.223-.117Zm-1.4-1-.223.117.042-.248-.18-.176.25-.037.111-.226.112.226.25.037-.181.176.043.248-.224-.117Zm-1.4.8-.223.117.042-.248-.18-.176.25-.037.111-.226.112.226.25.037-.181.176.042.248-.223-.117Zm4.6-3.4-.223.117.042-.248-.18-.177.25-.036.111-.226.112.226.25.037-.181.176.042.248-.223-.117Z" clip-rule="evenodd"></path>
      <path fill="#f7fcff" d="m9.925 14.997.15-1.994c4.798.362 8.585 1.94 11.313 4.745l-1.434 1.395c-2.364-2.433-5.692-3.819-10.03-4.146Z"></path>
      <path fill="#009933" d="m12.29 14.603.051-.498c3.093.32 5.746 1.505 7.95 3.552l-.34.366c-2.124-1.971-4.675-3.11-7.661-3.42Z"></path>
    </g>
  </g>
  <defs>
    <linearGradient id="c" x1="32" x2="32" y1="28" y2="4" gradientUnits="userSpaceOnUse">
      <stop stop-color="#ffc600"></stop>
      <stop offset="1" stop-color="#ffde42"></stop>
    </linearGradient>
    <filter id="b" width="24.32" height="16.467" x="3.809" y="7.704" color-interpolation-filters="sRGB" filterUnits="userSpaceOnUse">
      <feFlood flood-opacity="0" result="BackgroundImageFix"></feFlood>
      <feColorMatrix in="SourceAlpha" result="hardAlpha" values="0 0 0 0 0 0 0 0 0 0 0 0 0 0 0 0 0 0 127 0"></feColorMatrix>
      <feOffset></feOffset>
      <feColorMatrix values="0 0 0 0 0.0313726 0 0 0 0 0.368627 0 0 0 0 0 0 0 0 0.28 0"></feColorMatrix>
      <feBlend in2="BackgroundImageFix" result="effect1_dropShadow_1660_11698"></feBlend>
      <feBlend in="SourceGraphic" in2="effect1_dropShadow_1660_11698" result="shape"></feBlend>
    </filter>
  </defs>
</svg>