<svg xmlns="http://www.w3.org/2000/svg" fill="none" viewBox="0 0 24 24" id="Ca-Canada--Streamline-Flagpack" height="24" width="24">
  <desc>
    CA Canada Streamline Icon: https://streamlinehq.com
  </desc>
  <g clip-path="url(#a)">
    <path fill="#f7fcff" fill-rule="evenodd" d="M6 0h12v24H6V0Z" clip-rule="evenodd" stroke-width="0.75"></path>
    <path fill="#e31d1c" fill-rule="evenodd" d="m11.982000000000001 6.999750000000001 0.018000000000000002 12h-0.44999999999999996l0.276 -2.9699999999999998c-2.0175 0.48450000000000004 -2.943 0.6045 -2.77575 0.36 0.1665 -0.24375000000000002 0.29775 -0.5895 0.39375000000000004 -1.0379999999999998L6.75 12.9555a1.2449999999999999 1.2449999999999999 0 0 0 0.771 -0.28125c0.23025 -0.183 0.11474999999999999 -0.81675 -0.34575 -1.9004999999999999l1.35975 0.264 0.51525 -0.74625 1.026 1.4324999999999999h0.46125l-0.46125 -3.2805 0.82725 0.61575 1.0785 -2.0595Zm0 0 1.1145 2.0595 0.82725 -0.61575 -0.46125 3.2805h0.46125l1.026 -1.4324999999999999 0.5145000000000001 0.74625 1.3605 -0.264c-0.4605 1.08375 -0.5760000000000001 1.7175 -0.34500000000000003 1.9004999999999999 0.23025 0.18225 0.48750000000000004 0.276 0.7702499999999999 0.28125l-2.69475 2.3962499999999998c0.09675 0.4485 0.22799999999999998 0.7942499999999999 0.3945 1.0379999999999998 0.16725 0.2445 -0.7582499999999999 0.1245 -2.77575 -0.36l0.27525 2.9699999999999998H12l-0.018000000000000002 -12ZM18 0h6v24h-6V0ZM0 0h6v24H0V0Z" clip-rule="evenodd" stroke-width="0.75"></path>
  </g>
  <defs>
    <clipPath id="a">
      <path fill="#ffffff" d="M0 0h24v24H0z" stroke-width="0.75"></path>
    </clipPath>
  </defs>
</svg>