<svg xmlns="http://www.w3.org/2000/svg" fill="none" viewBox="0 0 32 32" id="Hr-Croatia-Hrvatska--Streamline-Flagpack" height="24" width="24">
  <desc>
    HR Croatia Hrvatska Streamline Icon: https://streamlinehq.com
  </desc>
  <path fill="#f7fcff" fill-rule="evenodd" d="M0 4v24h32V4H0Z" clip-rule="evenodd"></path>
  <mask id="a" width="32" height="24" x="0" y="4" maskUnits="userSpaceOnUse" style="mask-type:luminance">
    <path fill="#ffffff" fill-rule="evenodd" d="M0 4v24h32V4H0Z" clip-rule="evenodd"></path>
  </mask>
  <g mask="url(#a)">
    <path fill="#e31d1c" fill-rule="evenodd" d="M0 4v8h32V4H0Z" clip-rule="evenodd"></path>
    <path fill="#3d58db" fill-rule="evenodd" d="M0 20v8h32v-8H0Z" clip-rule="evenodd"></path>
    <path fill="#e31d1c" d="M10.077 10.398h11.4v4h-11.4z"></path>
    <path fill="#f7fcff" stroke="#e31d1c" stroke-width="1.125" d="M10.652 12.96h10.129c.017.769.022 2.11.022 3.402a666.915 666.915 0 0 1-.007 2.944l-.001.197v.029l-.001.003a4.95 4.95 0 0 1-.147.591 5.46 5.46 0 0 1-.692 1.433c-.694 1.014-1.955 2.056-4.305 2.056-2.347 0-3.547-1.04-4.186-2.045a5.167 5.167 0 0 1-.738-2.018l-.002-.017v-.045l-.003-.196-.008-.709a3401.71 3401.71 0 0 1-.06-5.625Zm.07 6.559Z"></path>
    <mask id="b" width="12" height="13" x="10" y="12" maskUnits="userSpaceOnUse" style="mask-type:luminance">
      <path fill="#ffffff" stroke="#ffffff" stroke-width="1.125" d="M10.652 12.96h10.129c.017.769.022 2.11.022 3.402a666.915 666.915 0 0 1-.007 2.944l-.001.197v.029l-.001.003a4.95 4.95 0 0 1-.147.591 5.46 5.46 0 0 1-.692 1.433c-.694 1.014-1.955 2.056-4.305 2.056-2.347 0-3.547-1.04-4.186-2.045a5.167 5.167 0 0 1-.738-2.018l-.002-.017v-.045l-.003-.196-.008-.709a3401.71 3401.71 0 0 1-.06-5.625Zm.07 6.559Z"></path>
    </mask>
    <g mask="url(#b)">
      <path fill="#f50100" fill-rule="evenodd" d="M10.498 13.04h2.11v2.142h-2.11V13.04Zm4.22 2.142h-2.11v2.142h-2.11v2.142h2.11v2.142h-2.11v2.142h2.11v-2.142h2.11v2.142h2.109v-2.142h2.109v2.142h2.11v-2.142h-2.11v-2.142h2.11v-2.142h-2.11v-2.142h2.11V13.04h-2.11v2.142h-2.11V13.04h-2.109v2.142Zm0 2.142v-2.142h2.109v2.142h-2.11Zm0 2.142v-2.142h-2.11v2.142h2.11Zm2.109 0v2.142h-2.11v-2.142h2.11Zm0 0v-2.142h2.109v2.142h-2.11Z" clip-rule="evenodd"></path>
    </g>
    <path fill="#56c6f5" fill-rule="evenodd" stroke="#ffffff" stroke-width=".5" d="M10.453 12.162s.653-.348 1.21-.528c.556-.18.995-.277.995-.277l-.828-3.052-1.658-.62-.94 1.548 1.221 2.93Z" clip-rule="evenodd"></path>
    <path fill="#ffffff" d="m10.181 10.49.19-.091c.197.42.457.55.812.418.364-.135.512-.392.46-.798l.209-.028c.064.505-.139.857-.596 1.027-.464.173-.834-.012-1.075-.527Z"></path>
    <path fill="#feca00" fill-rule="evenodd" d="m10.633 9.542-.183.11a.054.054 0 0 1-.08-.057l.04-.209-.186-.102a.054.054 0 0 1 .008-.099l.202-.069-.004-.213a.054.054 0 0 1 .09-.042l.16.14.182-.11c.04-.024.09.011.081.057l-.041.21.187.102a.054.054 0 0 1-.01.099l-.2.068.004.213a.054.054 0 0 1-.09.042l-.16-.14Z" clip-rule="evenodd"></path>
    <path fill="#56c6f5" fill-rule="evenodd" stroke="#ffffff" stroke-width=".5" d="M14.54 11.076s.557-.05 1.142-.038c.585.01 1.08.015 1.08.015l.285-3.01-1.253-1.13-1.392 1.157.139 3.006Z" clip-rule="evenodd"></path>
    <path fill="#feca00" fill-rule="evenodd" d="M15.75 10.585c.483 0 .529-.52.529-.876-.123-.197-.099-.337-.494-.337s-.44.119-.556.337c0 .355.039.876.521.876Zm.543-1.472c.482 0 .529-.521.529-.876-.124-.197-.099-.338-.494-.338-.396 0-.44.12-.556.338 0 .355.039.876.521.876Zm-1.055 0c.483 0 .529-.521.529-.876-.123-.197-.099-.338-.494-.338s-.44.12-.556.338c0 .355.039.876.521.876Z" clip-rule="evenodd"></path>
    <path fill="#2e42a5" stroke="#ffffff" stroke-width=".5" d="m12.445 11.605-.072-.245-.867-2.943-.041-.14.1-.105 1.24-1.284.149-.154.175.124 1.363.968.094.067.01.115.252 2.925.023.26-.261.011h-.006l-.018.001-.068.003-.233.014a9.168 9.168 0 0 0-.604.057 5.574 5.574 0 0 0-.63.143 11.99 11.99 0 0 0-.26.074l-.076.024-.02.006-.006.002h-.001l-.243.077Zm0 0 .243-.077-.243.077Z"></path>
    <mask id="c" width="5" height="6" x="11" y="6" maskUnits="userSpaceOnUse" style="mask-type:luminance">
      <path fill="#ffffff" stroke="#ffffff" stroke-width=".5" d="m12.445 11.605-.072-.245-.867-2.943-.041-.14.1-.105 1.24-1.284.149-.154.175.124 1.363.968.094.067.01.115.252 2.925.023.26-.261.011h-.006l-.018.001-.068.003-.233.014a9.168 9.168 0 0 0-.604.057 5.574 5.574 0 0 0-.63.143 11.99 11.99 0 0 0-.26.074l-.076.024-.02.006-.006.002h-.001l-.243.077Zm0 0 .243-.077-.243.077Z"></path>
    </mask>
    <g mask="url(#c)">
      <path fill="#c51918" d="m12.437 10.638-.251-.59c.538-.236 1.447-.38 2.403-.437l.037.642c-.89.052-1.73.184-2.19.385Zm-.423-1.428-.25-.59c.537-.235 1.694-.426 2.65-.482l.037.641c-.89.053-1.978.23-2.437.431Z"></path>
    </g>
    <path fill="#2e42a5" stroke="#ffffff" stroke-width=".5" d="m18.969 11.607.068-.252.795-2.949.036-.132-.092-.101-1.168-1.28-.15-.163-.18.128-1.362.968-.095.067-.01.115-.252 2.925-.022.26.261.011h.006l.018.001.068.003.232.014c.188.013.42.031.605.057.177.025.422.085.63.143.103.028.194.055.26.074l.076.024.02.006.005.002h.002l.249.079Zm0 0-.25-.079.25.079Z"></path>
    <mask id="d" width="5" height="6" x="16" y="6" maskUnits="userSpaceOnUse" style="mask-type:luminance">
      <path fill="#ffffff" stroke="#ffffff" stroke-width=".5" d="m18.969 11.607.068-.252.795-2.949.036-.132-.092-.101-1.168-1.28-.15-.163-.18.128-1.362.968-.095.067-.01.115-.252 2.925-.022.26.261.011h.006l.018.001.068.003.232.014c.188.013.42.031.605.057.177.025.422.085.63.143.103.028.194.055.26.074l.076.024.02.006.005.002h.002l.249.079Zm0 0-.25-.079.25.079Z"></path>
    </mask>
    <g mask="url(#d)">
      <path fill="#feca00" fill-rule="evenodd" d="M18.398 10.467s.294-.164.336-.44c.042-.276.497-.616.27-.575-.228.04-.098.072-.427 0-.329-.072-.755-.12-.755-.322 0-.203.212-.363.039-.363-.174 0-.543-.192-.469-.045.074.146-.17-.02-.048.284.122.304-.026.61.048.691.074.08-.048.476-.048.476s.045.147.124-.073c.078-.22.25-.374.164-.187s-.196.632-.098.554a.696.696 0 0 0 .196-.367c0-.073.247-.359.247-.143s-.233.386-.116.386c.116 0 .18.046.254-.17.073-.216.25-.359.323-.216.073.143.057.135-.04.322-.098.188 0 .188 0 .188Z" clip-rule="evenodd"></path>
      <path fill="#c51918" fill-rule="evenodd" d="m17.707 8.867-.11-.184c.197-.12.378-.153.536-.085.072.03.126.065.268.165l.018.013c.147.103.225.145.273.145v.214c-.11 0-.205-.051-.393-.183l-.018-.013a1.316 1.316 0 0 0-.23-.144c-.087-.037-.2-.017-.344.072Zm-.346 1.396c.062 0 .113-.05.113-.11a.112.112 0 0 0-.113-.112.112.112 0 0 0-.113.111c0 .062.05.112.113.112Zm.323.104c0 .06-.05.11-.112.11a.112.112 0 0 1-.113-.11c0-.062.05-.112.113-.112.062 0 .113.05.113.112Zm.267.102c.062 0 .112-.05.112-.11a.112.112 0 0 0-.112-.112.112.112 0 0 0-.113.111c0 .062.05.111.113.111Zm.465.067c0 .062-.05.111-.113.111a.112.112 0 0 1-.112-.11c0-.062.05-.112.112-.112.063 0 .113.05.113.111Z" clip-rule="evenodd"></path>
    </g>
    <path fill="#56c6f5" stroke="#ffffff" stroke-width=".5" d="m21.353 12.186-.108.249-.24-.128-.006-.004-.02-.01-.08-.041a10.62 10.62 0 0 0-.278-.136 6.985 6.985 0 0 0-.783-.32 12.96 12.96 0 0 0-.901-.254l-.055-.013-.014-.004h-.004l-.259-.058.073-.255.846-2.976.034-.121.119-.045 1.658-.62.194-.072.107.177.94 1.548.066.111-.051.119-1.238 2.853Z"></path>
    <mask id="e" width="5" height="6" x="18" y="7" maskUnits="userSpaceOnUse" style="mask-type:luminance">
      <path fill="#ffffff" stroke="#ffffff" stroke-width=".5" d="m21.353 12.186-.108.249-.24-.128-.006-.004-.02-.01-.08-.041a10.62 10.62 0 0 0-.278-.136 6.985 6.985 0 0 0-.783-.32 12.96 12.96 0 0 0-.901-.254l-.055-.013-.014-.004h-.004l-.259-.058.073-.255.846-2.976.034-.121.119-.045 1.658-.62.194-.072.107.177.94 1.548.066.111-.051.119-1.238 2.853Z"></path>
    </mask>
    <g mask="url(#e)">
      <path fill="#feca00" fill-rule="evenodd" d="m21.128 9.09-.142.158a.054.054 0 0 1-.095-.03l-.021-.213-.209-.043a.054.054 0 0 1-.02-.097l.173-.125-.067-.202a.054.054 0 0 1 .074-.067l.194.088.142-.16a.054.054 0 0 1 .094.032l.022.212.208.043c.046.01.06.07.02.097l-.172.125.067.202a.054.054 0 0 1-.074.066l-.194-.087Z" clip-rule="evenodd"></path>
      <path fill="#e31d1c" d="m18.995 10.487.212-.829c.941.249 1.922.567 2.641.875l-.327.79c-.68-.291-1.623-.597-2.526-.836Z"></path>
      <path fill="#ffffff" d="m19.283 9.722.05-.208c.902.223 1.86.58 2.557.913l-.09.194a14.12 14.12 0 0 0-2.517-.9Zm-.267.854.05-.208c.902.224 1.736.528 2.432.86l-.09.194a12.772 12.772 0 0 0-2.392-.846Z"></path>
      <path fill="#272727" d="m19.423 10.175.193-.087c.082.19.182.232.35.15.396-.192 1.38.077 1.38.44 0 .142-.082.228-.207.223a.66.66 0 0 1-.258-.086 5.487 5.487 0 0 1-.044-.022 1.327 1.327 0 0 0-.164-.079l.07-.204c.045.016.052.02.188.089l.042.02a.543.543 0 0 0 .174.065c.003 0-.012.015-.012-.006 0-.16-.8-.379-1.079-.243-.278.135-.505.04-.633-.26Z"></path>
    </g>
  </g>
</svg>