<svg xmlns="http://www.w3.org/2000/svg" fill="none" viewBox="0 0 32 32" id="Ec-Ecuador--Streamline-Flagpack" height="24" width="24">
  <desc>
    EC Ecuador Streamline Icon: https://streamlinehq.com
  </desc>
  <path fill="#2e42a5" fill-rule="evenodd" d="M0 4v24h32V4H0Z" clip-rule="evenodd"></path>
  <mask id="a" width="32" height="24" x="0" y="4" maskUnits="userSpaceOnUse" style="mask-type:luminance">
    <path fill="#ffffff" fill-rule="evenodd" d="M0 4v24h32V4H0Z" clip-rule="evenodd"></path>
  </mask>
  <g mask="url(#a)">
    <path fill="#feca00" fill-rule="evenodd" d="M0 4v12h32V4H0Z" clip-rule="evenodd"></path>
    <path fill="#e31d1c" fill-rule="evenodd" d="M0 22v6h32v-6H0Z" clip-rule="evenodd"></path>
    <path fill="#7b2900" fill-rule="evenodd" d="M9.717 9.714s4.156-1.877 4.534-1.664c.378.213.47.821.795.821.327 0 .983-.192 1.257-.192.274 0 .545.192.545.192h1.17v-.65l5.31 1.493s-3.097.405-3.33.405c-.234 0 0 .334 0 .334s-.442-.334-1.114-.334c-.672 0-2.036.694-2.036.694l.496 1.067-.496.313-.545-.313s.035-.877-.2-.877c-.234 0-.405.563-.405.877 0 .313-.652.313-.652.313l.291-.587s.29-.973-.29-.973-3.226-.514-3.226-.514l-.676.334.242-.739h-1.67Z" clip-rule="evenodd"></path>
    <path fill="#e31d1c" fill-rule="evenodd" d="M11.501 19.775c-.649-1.458 0-4.688 0-4.688l1.26.661c-.149.754-.172 2.178.3 3.343.471 1.165 2.255 2.083 2.255 2.083s.9.2-.468.345c-1.367.144-2.698-.286-3.347-1.744Zm3.232 5.742c-.406 0 .813-2.709.813-2.709l.375-.753s.046 3.19-.211 3.462c-.165.175-.353.126-.574.068a1.536 1.536 0 0 0-.403-.068Z" clip-rule="evenodd"></path>
    <path fill="#2e42a5" fill-rule="evenodd" d="M10.327 19.299c-.544-2.177.304-5.133.304-5.133l.854.61c-.126 1.125-.126 4.036.596 5.297.722 1.261 3.887 1.791 3.887 1.791s-.624.462-1.77.677c-1.145.216-3.328-1.065-3.871-3.242Zm3.629 5.919.502-1.793.707-.866h.51s-.717 3.081-1.217 3.081c-.325 0-.228-.178-.12-.376.059-.107.12-.22.12-.313 0-.267-.502.267-.502.267Z" clip-rule="evenodd"></path>
    <path fill="#feca00" fill-rule="evenodd" d="M9.498 19.671c-.27-1.873.27-6.35.27-6.35l.853.609c-.386 1.085-.266 4.196 0 5.741s2.785 2.477 2.785 2.477-.624.462-1.77.677c-1.144.216-1.868-1.28-2.138-3.154Zm4.189 3.745c-.486 0 .211-.697.211-.697h1.164s-.398.984-.89.984c-.246 0-.245-.072-.245-.144.001-.072.002-.143-.24-.143Z" clip-rule="evenodd"></path>
    <path fill="#e31d1c" fill-rule="evenodd" d="M20.366 19.775c.648-1.458 0-4.688 0-4.688l-1.261.661c.15.754.173 2.178-.299 3.343s-2.255 2.083-2.255 2.083-.9.2.467.345c1.367.144 2.699-.286 3.348-1.744Zm-3.232 5.742c.406 0-.813-2.709-.813-2.709l-.376-.753s-.046 3.19.212 3.462c.165.175.353.126.573.068.124-.033.258-.068.404-.068Z" clip-rule="evenodd"></path>
    <path fill="#2e42a5" fill-rule="evenodd" d="M21.54 19.299c.543-2.177-.305-5.133-.305-5.133l-.853.61c.125 1.125.125 4.036-.596 5.297-.722 1.261-3.888 1.791-3.888 1.791s.625.462 1.77.677c1.145.216 3.328-1.065 3.872-3.242Zm-3.63 5.919-.501-1.793-.708-.866h-.509s.717 3.081 1.217 3.081c.325 0 .228-.178.12-.376-.059-.107-.12-.22-.12-.313 0-.267.502.267.502.267Z" clip-rule="evenodd"></path>
    <path fill="#feca00" fill-rule="evenodd" d="M22.369 19.671c.27-1.873-.27-6.35-.27-6.35l-.853.609c.386 1.085.266 4.196 0 5.741s-2.786 2.477-2.786 2.477.625.462 1.77.677c1.145.216 1.87-1.28 2.139-3.154Zm-4.189 3.745c.486 0-.212-.697-.212-.697h-1.163s.398.984.89.984c.246 0 .245-.072.244-.144 0-.072-.001-.143.241-.143Z" clip-rule="evenodd"></path>
    <path fill="#6fae21" d="m10.203 14.446.091-.552 1.601.104-1.214-1.258.41-.39 1.642 1.702-1.405-2.64.486-.289 1.278 1.88-.61-1.954.525-.209 1.965 3.92-.754-.049.074.237.642.17-.146.544-.298-.079.278.891-.483-.71.841 1.58-2.066-2.14-2.857-.758Zm11.723 0-.091-.552-1.601.104 1.214-1.258-.409-.39-1.642 1.702 1.404-2.64-.486-.289-1.278 1.88.61-1.954-.525-.209-1.965 3.92.754-.049-.074.237-.642.17.146.544.298-.079-.278.891.483-.71-.841 1.58 2.066-2.14 2.857-.758Z"></path>
    <path fill="#171401" d="m11.067 25.311-.412-.385 12.19-12.835.412.386-12.19 12.834Z"></path>
    <path fill="#cececc" fill-rule="evenodd" d="m22.535 12.19.625.59.353-.975-.978.385ZM11.377 25.309l-.718-.472-.233.967.95-.495Z" clip-rule="evenodd"></path>
    <path fill="#171401" d="m10.16 23.399-.412-.386 12.19-12.835.413.386L10.16 23.4Z"></path>
    <path fill="#cececc" fill-rule="evenodd" d="m21.629 10.277.625.59.352-.975-.977.385ZM10.47 23.396l-.718-.472-.233.968.95-.496Z" clip-rule="evenodd"></path>
    <path fill="#171401" d="m21.253 25.311.413-.385L9.476 12.09l-.413.386 12.19 12.834Z"></path>
    <path fill="#cececc" fill-rule="evenodd" d="m9.785 12.19-.625.59-.352-.975.977.385Zm11.159 13.119.718-.472.232.967-.95-.495Z" clip-rule="evenodd"></path>
    <path fill="#171401" d="m22.387 23.85.412-.387-12.19-12.835-.413.386 12.19 12.835Z"></path>
    <path fill="#cececc" fill-rule="evenodd" d="m10.918 10.727-.625.59-.352-.975.977.385Zm11.159 13.119.718-.471.232.967-.95-.495Z" clip-rule="evenodd"></path>
    <path fill="#b74e01" d="M13.667 20.375H18.2v2.25h-4.533z"></path>
    <path fill="#7db8ff" stroke="#feca00" stroke-width=".5" d="M15.948 21.287c.899 0 1.675-.578 2.215-1.435.541-.86.868-2.032.868-3.315 0-1.282-.327-2.455-.868-3.315-.54-.857-1.316-1.435-2.215-1.435-.899 0-1.676.578-2.215 1.435-.542.86-.869 2.033-.869 3.315 0 1.283.327 2.455.869 3.315.54.857 1.316 1.435 2.215 1.435Z"></path>
    <mask id="b" width="8" height="11" x="12" y="11" maskUnits="userSpaceOnUse" style="mask-type:luminance">
      <path fill="#ffffff" stroke="#ffffff" stroke-width=".5" d="M15.948 21.287c.899 0 1.675-.578 2.215-1.435.541-.86.868-2.032.868-3.315 0-1.282-.327-2.455-.868-3.315-.54-.857-1.316-1.435-2.215-1.435-.899 0-1.676.578-2.215 1.435-.542.86-.869 2.033-.869 3.315 0 1.283.327 2.455.869 3.315.54.857 1.316 1.435 2.215 1.435Z"></path>
    </mask>
    <g mask="url(#b)">
      <path fill="#6fae21" fill-rule="evenodd" d="M12.88 16.61h1.612s1.108.246.554.44c-.554.192-.554.256-.554.532v1.499c0 .215.394.676-.437.676-.83 0-1.547-3.416-1.547-3.416l.372.27Zm6.3.186s-1.498.296-2.524.197c-1.026-.098-1.477-.197-1.477-.197s.715.372.97.684c.254.311.774.85 1.304.85s1.344.503 1.344.503l.382-2.037Z" clip-rule="evenodd"></path>
      <path fill="#f7fcff" fill-rule="evenodd" d="M13.319 14.136s1.235.238 1.532.596c.297.357-.393.714 1.406.357 1.8-.357 3.227-.98 3.227 0s-.157 1.884-.931 1.884h-3.444c-2.361 0-3.648.722-3.483-.44.165-1.162 1.693-2.397 1.693-2.397Z" clip-rule="evenodd"></path>
    </g>
  </g>
</svg>