<svg xmlns="http://www.w3.org/2000/svg" fill="none" viewBox="0 0 32 32" id="Eg-Egypt--Streamline-Flagpack" height="24" width="24">
  <desc>
    EG Egypt Streamline Icon: https://streamlinehq.com
  </desc>
  <path fill="#f7fcff" fill-rule="evenodd" d="M0 4v24h32V4H0Z" clip-rule="evenodd"></path>
  <mask id="a" width="32" height="24" x="0" y="4" maskUnits="userSpaceOnUse" style="mask-type:luminance">
    <path fill="#ffffff" fill-rule="evenodd" d="M0 4v24h32V4H0Z" clip-rule="evenodd"></path>
  </mask>
  <g mask="url(#a)">
    <path fill="#bf2714" fill-rule="evenodd" d="M0 4v8h32V4H0Z" clip-rule="evenodd"></path>
    <path fill="#272727" fill-rule="evenodd" d="M0 20v8h32v-8H0Z" clip-rule="evenodd"></path>
    <path fill="#c09302" d="m12.26 14.22 1 .046-.252 5.47-.998-.046.25-5.47Zm1.044.34.998.056-.25 4.435-.999-.056.251-4.435Z"></path>
    <path fill="#c09302" d="m14.348 14.892.997.082-.25 3.056-.997-.082.25-3.056Zm5.392-.672-1 .046.252 5.47.998-.046-.25-5.47Zm-1.044.34-.998.056.25 4.435.999-.056-.251-4.435Z"></path>
    <path fill="#c09302" d="m17.652 14.892-.997.082.25 3.056.997-.082-.25-3.056Zm-1.679 4.435-.975-.224.413-1.8.975.223-.413 1.8Z"></path>
    <path fill="#c09302" d="m16.72 19.327.974-.224-.412-1.8-.975.223.412 1.8Z"></path>
    <path fill="#c09302" d="M16.472 19.31h-1v-1.767h1v1.767Zm-1.837-4.397 1 .025-.06 2.38-.999-.024.059-2.38Zm1.739 0 1 .025-.06 2.38-.999-.024.059-2.38Z"></path>
    <path fill="#c09302" d="m13.338 19.923.26-.966c1.06.285 1.875.427 2.43.427.556 0 1.371-.142 2.432-.427l.26.966c-1.139.306-2.031.46-2.691.46-.66 0-1.553-.154-2.691-.46Zm-1.056-5.7c-.066-.66.32-1.108.976-1.051.215.019.457.082.78.192l.185.064c.443.158.563.199.588.204-.098-.022.191-.545.258-.633.008.056-.026.048-.106.032l-.902-.18.642-.66a1.17 1.17 0 0 1 .865-.344c.035 0 .068-.002.177-.008l.17-.009c.624-.02 1.071.156 1.071.798 0 .23.03.599.077.879.016.094.047.182-.044.22.003-.033.222-.119.562-.26l.04-.018c.988-.412 1.103-.45 1.422-.257.212.129.414.36.64.707l-.837.547c-.146-.223-.262-.358-.317-.396.126.088-.298.228-.522.322l-.04.017c-.77.321-.87.36-1.09.36-.599 0-.813-.613-.872-1.49-.185.607-.735 1.373-1.19 1.373-.198 0-.102.032-.927-.261l-.172-.06a2.692 2.692 0 0 0-.544-.143.46.46 0 0 1 .04-.04l-.93.095Z"></path>
  </g>
</svg>