<svg xmlns="http://www.w3.org/2000/svg" fill="none" viewBox="0 0 32 32" id="Ir-Iran--Streamline-Flagpack" height="24" width="24">
  <desc>
    IR Iran Streamline Icon: https://streamlinehq.com
  </desc>
  <path fill="#f7fcff" fill-rule="evenodd" d="M3.1748 7.6769v16.6462h22.1949V7.6769H3.1748Z" clip-rule="evenodd"></path>
  <mask id="a" width="32" height="24" x="0" y="4" maskUnits="userSpaceOnUse" style="mask-type:luminance">
    <path fill="#ffffff" fill-rule="evenodd" d="M3.1748 7.6769v16.6462h22.1949V7.6769H3.1748Z" clip-rule="evenodd"></path>
  </mask>
  <g mask="url(#a)">
    <path fill="#5eaa22" fill-rule="evenodd" d="M3.1748 7.6769v5.5487h22.1949V7.6769H3.1748Z" clip-rule="evenodd"></path>
    <path fill="#e31d1c" fill-rule="evenodd" d="M3.1748 18.7744v5.5487h22.1949v-5.5487H3.1748Z" clip-rule="evenodd"></path>
    <path fill="#f7fcff" fill-rule="evenodd" d="M6.3653 19.0463v.4397h-1.616v-.4397h1.616Zm-2.7972 1.1041h-.1443v-.1754h.3149v.6152h.4023v.0048h.3891v-1.2776h-.2483v.8379h-.0389v-.9044h-.2483v.8996h-.0069v-.8996h-.249v.2843h-.5639v1.055h.3926v-.4398Zm1.0404.247h.2497v-.4363h.2774v.6339h.7789v-1.0729h-.4002v.4397h.1512v.1935h-.283v-.6339h-.774v.876Zm1.5897-.247h.1436v.4398h-.3926v-1.0543h.5646v-.2843h.249v.8982h.0069v-.8996h.2483v.9044h.0382v-.8379h.2496v1.2776H6.916v-.0048h-.4022v-.6152h-.3156v.1754Zm2.9415-1.1041v.4397H7.5236v-.4397h1.6161Zm-1.7576 1.3511h.249v-.4363h.2775v.6339h.7803v-1.0729h-.4002v.4397h.1519v.1935h-.283v-.6339h-.7755v.876Zm1.6397-.247h.1436v.4398h-.3933v-1.0543h.5646v-.2843h.2497v.8982h.0055v-.8996h.2497v.9044h.0382v-.8379h.2483v1.2776H9.739v-.0048h-.4023v-.6152h-.3149v.1754Zm2.9422-1.1042v.4398h-1.6175v-.4398h1.6161Zm-1.7583 1.3512h.2497v-.4363h.2775v.6339h.7803v-1.073h-.4009v.4398h.1519v.1935h-.283v-.6339h-.7754v.876Zm1.5898-.247h.1435v.4398h-.3925v-1.0543h.5645v-.2844h.249v.8982h.007v-.8995h.2483v.9044h.0381v-.8379h.2497v1.2776h-.3898v-.0048h-.4023v-.6152h-.3155v.1754Zm2.9422-1.1042v.4398h-1.6161v-.4398h1.6161Zm-1.7576 1.3511h.249v-.4362h.2774v.6339h.7803v-1.073h-.4002v.4398h.1519v.1935h-.2829v-.634h-.7755v.876Zm1.5897-.2469h.1436v.4398h-.3926v-1.0543h.5646v-.2844h.249v.8982h.0062v-.8996h.249v.9045h.0382v-.8379h.249v1.2776h-.3898v-.0048h-.4023v-.6153h-.3149v.1755Zm2.9422-1.1042v.4398h-1.616v-.4398h1.616Zm-1.7575 1.3511h.249v-.4362h.2774v.6339h.7803v-1.073h-.4002v.4398h.1512v.1935h-.283v-.634h-.7747v.876Zm1.6389-.2469h.1436v.4398h-.3926v-1.0543h.5646v-.2844h.249v.8982h.0069v-.8996h.2483v.9045h.0382v-.8379h.249v1.2776h-.3891v-.0049h-.4023v-.6152h-.3156v.1755Zm2.9422-1.1042v.4398h-1.616v-.4398h1.616Zm-1.7575 1.3511h.249v-.4362h.2774v.6339h.7803v-1.073h-.4002v.4398h.1519v.1935h-.283v-.634h-.7754v.876Zm1.6396-.2469h.1436v.4397h-.3933v-1.0542h.5646v-.2844h.249v.8982h.0069v-.8996h.2483v.9045h.0382v-.8379h.2497v1.2776h-.3898v-.0049h-.4023v-.6152h-.3149v.1755Zm2.9422-1.1042v.4397h-1.6167v-.4397h1.616Zm-1.7582 1.3511h.2497v-.4363h.2774v.634h.7796v-1.073h-.4002v.4397h.1519v.1936h-.283v-.634h-.7754v.876Zm1.6396-.2469h.1436v.4397h-.3926v-1.0542h.5639v-.2844h.2497v.8982h.0056v-.8996h.2496v.9045h.0382v-.8379h.2483v1.2776h-.3891v-.0049h-.4023v-.6152h-.3149v.1755Zm2.9422-1.1042v.4397h-1.6167v-.4397h1.616Zm-1.7582 1.3512h.2483v-.4363h.2774v.6339h.781v-1.0729h-.4002v.4397h.1512v.1935H25v-.6339h-.7747v.876Zm1.589-.247h.1436v.4398h-.3919v-1.0543h.5646v-.2843h.249v.8982h.0069v-.8996h.2483v.9044h.0382v-.8379h.2497v1.2776h-.3898v-.0048h-.4023v-.6152h-.3156v.1754Zm2.9422-1.1042v.4398h-1.6161v-.4398h1.6161Zm-1.7569 1.3512h.249v-.4363h.2775v.6339h.7803v-1.0729h-.4002v.4397h.1519v.1935h-.283v-.6339h-.7755v.876Zm1.7382-.247h.1436v.4398h-.3926v-1.0543h.5646v-.2843h.249v.8982h.0069v-.8996h.2483v.9044h.0382v-.8379h.2497v1.2776h-.3898v-.0048h-.4023v-.6152h-.3156v.1754Zm2.9422-1.1042v.4398h-1.6161v-.4398H31.68Zm-1.7576 1.3512h.2497v-.4363h.2775v.6339h.7803v-1.073h-.4009v.4398h.1519v.1935h-.283v-.6339h-.7755v.876ZM3.5105 11.4168v.4397H1.8944v-.4397h1.6161ZM.7119 12.521H.569v-.1755h.3149v.6152h.4023v.0048h.3891V11.688h-.249v.8378h-.0382v-.9044h-.249v.8996h-.0069v-.8996H.8839v.2843H.32v1.055h.3919v-.4398Zm1.0411.2469h.249v-.4363h.2774v.6339h.7803v-1.0729h-.4002v.4397h.1519v.1935h-.283v-.6339H1.753v.876Zm1.5897-.2469h.1442v.4397h-.3932v-1.0543h.5645v-.2843h.249v.8982h.007v-.8989h.2483v.9044h.0381v-.8378h.249v1.2775h-.3898v-.0048h-.4016v-.6152h-.3155v.1755Zm2.9422-1.1042v.4397H4.6688v-.4397h1.6161Zm-1.7576 1.3511h.249v-.4363h.2775v.6339h.7802v-1.0729h-.4002v.4397h.1512v.1935h-.2822v-.6339h-.7755v.876Zm1.639-.2469h.1435v.4397h-.3925v-1.0543h.5645v-.2843h.249v.8982h.007v-.8989h.2483v.9044h.0381v-.8378h.2497v1.2775h-.3898v-.0048h-.4022v-.6152h-.3156v.1755Zm2.9422-1.1042v.4397H7.4924v-.4397h1.6161Zm-1.7576 1.3511h.249v-.4363h.2775v.6339h.7803v-1.0729h-.4002v.4397h.1519v.1935h-.283v-.6339h-.7762v.876Zm1.5897-.2469h.1436v.4397h-.3926v-1.0543h.5646v-.2843h.249v.8982h.0063v-.8989h.249v.9044h.0381v-.8378h.249v1.2775h-.3898v-.0048h-.4023v-.6152h-.3149v.1755Zm2.9422-1.1042v.4397h-1.616v-.4397h1.616Zm-1.7575 1.3511h.249v-.4363h.2774v.6339h.7803v-1.0729h-.4002v.4397h.1512v.1935h-.2823v-.6339h-.7761v.876Zm1.5897-.247h.1436v.4398h-.3926v-1.0543h.5646v-.2843h.2483v.8982h.0069v-.8989h.249v.9044h.0382v-.8378h.249v1.2775h-.3898v-.0048h-.4023v-.6152h-.3149v.1755Zm2.9422-1.1042v.4398h-1.6161v-.4398h1.6161Zm-1.7582 1.3512h.2483v-.4363h.2774v.6339h.781v-1.0729h-.4002v.4397h.1512v.1935h-.283v-.6339h-.7747v.876Zm1.6389-.2469h.1436v.4397h-.3919v-1.0543h.5646v-.2843h.249v.8982h.0062v-.8989h.249v.9044h.0382v-.8378h.249v1.2775h-.3898v-.0048h-.4023v-.6152h-.3149v.1755Zm2.9422-1.1042v.4397H15.864v-.4397h1.6161Zm-1.7575 1.3511h.249v-.4363h.2774v.6339h.7803v-1.0729h-.3988v.4397h.1512v.1935h-.283v-.6339h-.7747v.876Zm1.6389-.247h.1436v.4398h-.3919v-1.0543h.5646v-.2843h.249v.8982h.0069v-.8989h.2483v.9044h.0382v-.8378h.249v1.2775h-.3891v-.0048h-.4023v-.6152h-.3156v.1755Zm2.9422-1.1042v.4398h-1.6161v-.4398h1.6161Zm-1.7575 1.3512h.249v-.4363h.2774v.6339h.7803v-1.073h-.4002v.4398h.1519v.1935h-.283v-.6339h-.7754v.876Zm1.6389-.247h.1436v.4398h-.3912v-1.0543h.5646v-.2844h.249v.8982h.0069v-.8988h.2483v.9044h.0382v-.8378h.2497v1.2775h-.3898v-.0048h-.4023v-.6152h-.3156v.1755Zm2.9422-1.1042v.4398h-1.6161v-.4398h1.6161Zm-1.7575 1.3511h.2496v-.4362h.2775v.6339h.7803v-1.073h-.4009v.4398h.1519v.1935h-.283v-.634h-.7754v.876Zm1.5897-.2469h.1435v.4398h-.3918v-1.0543h.5645v-.2844h.249v.8982h.007v-.8988h.2483v.9044h.0381v-.8378h.249v1.2775h-.3891v-.0048h-.4022v-.6152h-.3156v.1755Zm2.9422-1.1042v.4398h-1.6161v-.4398h1.6161Zm-1.7576 1.3511h.249v-.4362h.2775v.6339h.7802v-1.073h-.4002v.4398h.1512v.1935h-.2822v-.634h-.7755v.876Zm1.7382-.2469h.1435v.4398h-.3919v-1.0543h.5646v-.2844h.249v.8982h.007v-.8988h.2483v.9044h.0381v-.8378h.249v1.2775h-.3891v-.0048h-.4023v-.6152h-.3155v.1755Zm2.9422-1.1042v.4398h-1.6161v-.4398h1.6161Zm-1.7576 1.3511h.249v-.4362h.2774v.6339h.7803v-1.073h-.4002v.4398h.1512v.1935h-.2823v-.634h-.7754v.876Z" clip-rule="evenodd"></path>
    <path fill="#e31d1c" fill-rule="evenodd" d="M13.3054 13.399s.2969.1561.6.1561.6082-.1561.6082-.1561v.2081s-.3329.1561-.6284.1561c-.2947 0-.5798-.1561-.5798-.1561v-.2081Zm-2.1848 2.4553c0-1.2325 1.6937-2.0391 1.6937-2.0391s-.9786.5243-.9786 1.9878.5084 2.0974.5084 2.0974-1.2235-.8122-1.2235-2.0461Zm5.7138-.0672c0-1.2332-1.6924-1.9719-1.6924-1.9719s.9794.5243.9794 1.9878-.5084 2.0974-.5084 2.0974 1.2214-.8808 1.2214-2.1133Zm-4.5569.3364c-.0652-1.2319.9592-2.3361.9592-2.3361s-.3724.5078-.2961 1.9691c.0263.5015.224 1.2485.473 1.6882v-3.5775h1.0404v3.6088c.2497-.4113.4418-1.1119.4682-1.621.0763-1.4614-.2782-2.0669-.2782-2.0669s1.0245 1.1035.96 2.3354c-.0389.7331-.6035 1.5085-1.0536 2.0162.2192.0486.5126.1082.9155.1873.0084.0451-.0811.043-.2601.0388-.3011-.0108-.6026.0021-.9016.0389-.1845.1886-.3121.3003-.3121.3003l-.0521-.0652c-.0176.0213-.0347.0431-.0513.0652s-.1276-.111-.3121-.2996c-.2991-.037-.6006-.0502-.9017-.0396-.1789.0042-.2684.007-.2601-.0381.4037-.0798.6964-.1387.9156-.1873-.4509-.5084-1.0148-1.2831-1.0536-2.0169Z" clip-rule="evenodd"></path>
  </g>
</svg>