<svg xmlns="http://www.w3.org/2000/svg" fill="none" viewBox="0 0 24 24" id="Mx-Mexico--Streamline-Flagpack" height="24" width="24">
  <desc>
    MX Mexico Streamline Icon: https://streamlinehq.com
  </desc>
  <path fill="#d9071e" fill-rule="evenodd" d="M16.5 3h7.5v18H16.5V3Z" clip-rule="evenodd" stroke-width="0.75"></path>
  <path fill="#006923" fill-rule="evenodd" d="M0 3h9v18H0V3Z" clip-rule="evenodd" stroke-width="0.75"></path>
  <path fill="#ffffff" fill-rule="evenodd" d="M7.5 3h9v18H7.5V3Z" clip-rule="evenodd" stroke-width="0.75"></path>
  <path fill="#A8AC71" fill-rule="evenodd" d="M9.792 9.2565c-0.08025 0.34125 -0.028499999999999998 0.42224999999999996 0.357 0.42224999999999996 0.02025 0 0.052500000000000005 0.056249999999999994 0.08625000000000001 0.11775 0.037500000000000006 0.0675 0.0795 0.14100000000000001 0.11249999999999999 0.15225 -0.014249999999999999 0.018750000000000003 -0.1605 0.2835 -0.16125 0.75 0 0.096 0.04425 0.255 0.08700000000000001 0.40650000000000003 0.04725 0.165 0.0915 0.32325 0.07425000000000001 0.3855 -0.028499999999999998 0.10200000000000001 -0.156 -0.009000000000000001 -0.255 -0.0945 -0.056249999999999994 -0.0495 -0.10350000000000001 -0.09 -0.11699999999999999 -0.07875 -0.07050000000000001 0.06 -0.10724999999999998 -0.41025 -0.129 -0.6937500000000001 -0.00975 -0.126 -0.0165 -0.21599999999999997 -0.0225 -0.20550000000000002a0.72525 0.72525 0 0 1 -0.045 -0.18675c-0.021 -0.14250000000000002 -0.042 -0.28275 -0.21149999999999997 -0.28275h-0.43499999999999994v0.32025s0.252 0 0.252 0.5962500000000001c0.00375 0.08925 0.1215 0.87225 0.40725 0.87675 -0.16725 0.00375 -0.1665 0.037500000000000006 -0.165 0.056249999999999994v0.00375c0 0.48 0.4005 0.5309999999999999 0.7747499999999999 0.396 0.22499999999999998 -0.081 0.4635 -0.24 0.6427499999999999 -0.43574999999999997 0.252 -0.276 0.2835 -0.63375 -0.048 -0.8302499999999999 -0.11775 -0.06975 -0.246 -0.09675 -0.42524999999999996 -0.10649999999999998 0.035250000000000004 -0.10500000000000001 0.0022500000000000003 -0.19875 -0.024 -0.27225 -0.0225 -0.0615 -0.039 -0.10799999999999998 -0.006 -0.135 0.37575000000000003 -0.3045 0.40950000000000003 -0.585 0.13574999999999998 -0.8370000000000001a0.98325 0.98325 0 0 1 -0.10500000000000001 -0.12225c-0.066 -0.08625000000000001 -0.1365 -0.17625 -0.22499999999999998 -0.2025a4.3125 4.3125 0 0 1 0.165 -0.29625l-0.6427499999999999 -0.38625c-0.11699999999999999 0.19425 -0.0975 0.34575 -0.08025 0.47850000000000004 0.009000000000000001 0.07275000000000001 0.018000000000000002 0.1395 0.003 0.20400000000000001Zm0.6990000000000001 1.9994999999999998 -0.012 0.012750000000000001 0.0075 -0.0075a0.036000000000000004 0.036000000000000004 0 0 1 0.0045000000000000005 -0.00525Zm-0.3405 0.2355h0.0015l0.0075 -0.0022500000000000003 -0.0075 0.0015h-0.0015Zm-0.32625 0.24975000000000003h-0.025500000000000002Z" clip-rule="evenodd" stroke-width="0.75"></path>
  <path fill="#FCCA3D" fill-rule="evenodd" d="M10.788 8.9355s-0.51525 0.399 -0.41850000000000004 0.8250000000000001c0.096 0.42599999999999993 1.1115 0 0.9885 -0.41250000000000003 -0.123 -0.41250000000000003 -0.5700000000000001 -0.41250000000000003 -0.5700000000000001 -0.41250000000000003Z" clip-rule="evenodd" stroke-width="0.75"></path>
  <path fill="#8F4620" fill-rule="evenodd" d="M14.449499999999999 12.302249999999999s0.6937500000000001 -2.05575 -0.40875000000000006 -3.12c-1.1025 -1.065 -2.3775 -0.9930000000000001 -2.3775 -0.9930000000000001s-0.36675 0.27225 0 0.48c0.3675 0.20850000000000002 0.21375 0.40725 0.21375 0.40725s-0.615 -0.624 -1.0230000000000001 -0.25875c-0.40800000000000003 0.3645 0.381 0.309 0.29775 0.5835 -0.08325 0.27449999999999997 -0.43724999999999997 1.4925 0.0795 2.10825 0.5175 0.615 -0.489 0.48225 -0.28425 0.48225s0.9299999999999999 0.14250000000000002 0.9299999999999999 0c0 -0.14325 0.252 0.5565 0.46799999999999997 0.5565 0.21525 0 0.3825 -0.246 0.3825 -0.246s0.30225 0.246 0.486 0.246c0.1845 0 0.82725 -0.16125 0.82725 -0.16125l-1.215 -1.0230000000000001s0.07350000000000001 -0.4515 -0.099 -0.5489999999999999 1.3815 0.8654999999999999 1.5030000000000001 1.17675c0.12225 0.3105 0.21975 0.3105 0.21975 0.3105Z" clip-rule="evenodd" stroke-width="0.75"></path>
  <path fill="#9FAB2F" d="M8.2995 11.79525s0.11249999999999999 -0.35924999999999996 0.23325 -0.384c0.10500000000000001 -0.021750000000000002 0.324 0.17250000000000001 0.324 0.17250000000000001 0.39 2.16675 1.33425 3.0134999999999996 2.8995 3.0134999999999996 1.584 0 2.544 -0.6435 3.1042500000000004 -2.64225 0 0 0.29775 -0.3045 0.40275000000000005 -0.27 0.11399999999999999 0.036000000000000004 0.25725000000000003 0.43875 0.25725000000000003 0.43875 -0.6427499999999999 2.2935 -1.857 3.3142499999999995 -3.7649999999999997 3.3142499999999995 -1.9252500000000001 0 -3.0075 -1.155 -3.4559999999999995 -3.6427500000000004Z" stroke-width="0.75"></path>
  <path fill="#2FC2DC" fill-rule="evenodd" d="M10.000499999999999 13.242750000000001s2.25375 0.47775 3.1425 0.47775c0.8895 0 -0.78 0.726 -1.43175 0.726 -0.28500000000000003 0 -0.6285 -0.17250000000000001 -1.0305 -0.51825 -0.07200000000000001 -0.06225 -0.0022500000000000003 -0.201 -0.22199999999999998 -0.2025 -0.306 -0.003 -0.68625 -0.07500000000000001 -0.6495 -0.1185 0.0345 -0.04125 0.48 -0.05399999999999999 0.43724999999999997 -0.09975 -0.07125000000000001 -0.07500000000000001 -0.246 -0.26475 -0.246 -0.26475Z" clip-rule="evenodd" stroke-width="0.75"></path>
  <path fill="#F9AA51" d="M11.12475 13.575000000000001h1.2494999999999998s0.12525 0 0.12525 0.12525v0.55275s0 0.12525 -0.12525 0.12525h-1.2494999999999998s-0.12525 0 -0.12525 -0.12525v-0.55275s0 -0.12525 0.12525 -0.12525" stroke-width="0.75"></path>
  <path fill="#259485" d="M9.131250000000001 12.102s0 -0.28125 0.19125 -0.4305c0.21749999999999997 -0.17175 0.42299999999999993 0 0.42299999999999993 0 0.7995000000000001 1.1385 1.9942499999999999 1.5134999999999998 3.6652499999999995 1.1219999999999999 0 0 0.5002500000000001 0.1635 0.5249999999999999 0.27075 0.03225 0.1365 -0.354 0.45975 -0.354 0.45975 -1.9537499999999999 0.4575 -3.46425 -0.0165 -4.4505 -1.422Z" stroke-width="0.75"></path>
  <path fill="#FCCA3D" fill-rule="evenodd" d="M12.44325 12.262500000000001s-0.9105 0.48 -0.60675 0.48c0.30375 0 1.491 0.23925000000000002 1.26 0 -0.23099999999999998 -0.24 -0.6525 -0.48 -0.6525 -0.48Zm-1.07625 -0.5715s-0.17250000000000001 -0.49950000000000006 -0.5325 -0.49950000000000006 -0.25875 0.41025 -0.43124999999999997 0.41025c-0.17325000000000002 0 0.16125 0.28800000000000003 0.30974999999999997 0.28800000000000003 0.14925 0 0.654 -0.19875 0.654 -0.19875Z" clip-rule="evenodd" stroke-width="0.75"></path>
</svg>