<svg xmlns="http://www.w3.org/2000/svg" fill="none" viewBox="0 0 24 24" id="Ma-Morocco--Streamline-Flagpack" height="24" width="24">
  <desc>
    MA Morocco Streamline Icon: https://streamlinehq.com
  </desc>
  <path fill="#c51918" fill-rule="evenodd" d="M0 3h24v16.5a1.5 1.5 0 0 1 -1.5 1.5H1.5a1.5 1.5 0 0 1 -1.5 -1.5V3Z" clip-rule="evenodd" stroke-width="0.75"></path>
  <path fill="#e31d1c" fill-rule="evenodd" d="M0 3h24v18H0V3Z" clip-rule="evenodd" stroke-width="0.75"></path>
  <path fill="#579d20" fill-rule="evenodd" d="M16.8615 17.7195 12.124500000000001 5.0257499999999995h-0.20550000000000002L7.3462499999999995 17.7195l4.749 -2.8537500000000002 4.76625 2.8537500000000002Zm-5.2612499999999995 -8.553 0.50775 -1.9785 0.5265 2.0355 1.51425 4.242 0.88875 2.0542499999999997 -1.9192500000000001 -1.35225 -1.0245000000000002 -0.6134999999999999 -1.008 0.6060000000000001 -1.875 1.35975 0.867 -2.09625 1.5225 -4.257Z" clip-rule="evenodd" stroke-width="0.75"></path>
  <path fill="#579d20" fill-rule="evenodd" d="m9.496500000000001 13.10475 2.622 1.7429999999999999 2.44725 -1.7429999999999999 4.64625 -3.92775H4.7895l4.707 3.92775Zm0.05474999999999999 -1.49925 -1.7827499999999998 -1.09125H16.185l-1.5307499999999998 0.9697499999999999 -2.5477499999999997 1.93275 -2.556 -1.81125Z" clip-rule="evenodd" stroke-width="0.75"></path>
</svg>