<svg xmlns="http://www.w3.org/2000/svg" fill="none" viewBox="0 0 24 24" id="Nz-New-Zealand-Aotearoa--Streamline-Flagpack" height="24" width="24">
  <desc>
    NZ New Zealand Aotearoa Streamline Icon: https://streamlinehq.com
  </desc>
  <path fill="#2e42a5" fill-rule="evenodd" d="M0 3v18h24V3H0Z" clip-rule="evenodd" stroke-width="0.75"></path>
  <g clip-path="url(#a)">
    <path fill="#2e42a5" d="M0 3h13.5v10.5H0z" stroke-width="0.75"></path>
    <path fill="#f7fcff" d="m-1.5030000000000001 12.75 2.9699999999999998 1.30275L13.567499999999999 4.41675l1.5675 -1.9364999999999999 -3.1769999999999996 -0.43499999999999994 -4.9350000000000005 4.151999999999999 -3.9727499999999996 2.7975L-1.5030000000000001 12.75Z" stroke-width="0.75"></path>
    <path fill="#f50100" d="m-1.0965 13.662749999999999 1.5134999999999998 0.756L14.571749999999998 2.30025h-2.12475l-13.5435 11.3625Z" stroke-width="0.75"></path>
    <path fill="#f7fcff" d="m15.003 12.75 -2.9699999999999998 1.30275L-0.0675 4.41675l-1.5675 -1.9364999999999999 3.1769999999999996 -0.43499999999999994 4.9350000000000005 4.151999999999999 3.9727499999999996 2.7975L15.003 12.75Z" stroke-width="0.75"></path>
    <path fill="#f50100" d="m14.90175 13.40475 -1.5134999999999998 0.756 -6.026999999999999 -5.1885 -1.78725 -0.579 -7.359 -5.90625H0.33975l7.35525 5.766 1.9537499999999999 0.6945 5.253 4.45725Z" stroke-width="0.75"></path>
    <path fill="#f50100" fill-rule="evenodd" d="M7.48875 3h-1.5v4.5H0v1.5h5.9887500000000005v4.5h1.5v-4.5H13.5v-1.5H7.48875V3Z" clip-rule="evenodd" stroke-width="0.75"></path>
    <path fill="#f7fcff" fill-rule="evenodd" d="M4.8637500000000005 3h3.75v3.375H13.5v3.75h-4.8862499999999995L8.625 13.5h-3.75l-0.01125 -3.375H0v-3.75h4.8637500000000005V3Zm1.125 4.5H0v1.5h5.9887500000000005v4.5h1.5v-4.5H13.5v-1.5H7.48875V3h-1.5v4.5Z" clip-rule="evenodd" stroke-width="0.75"></path>
  </g>
  <path fill="#f50100" fill-rule="evenodd" d="m18.075000000000003 8.602500000000001 -0.195 1.1355 1.02 -0.5355 1.02 0.53625 -0.195 -1.13625 0.8250000000000001 -0.804 -1.1400000000000001 -0.165L18.9 6.6000000000000005l-0.51 1.03275 -1.1400000000000001 0.16575 0.8250000000000001 0.804Zm-3 4.199999999999999 -0.195 1.1355 1.02 -0.5355 1.02 0.5355 -0.195 -1.1355 0.8250000000000001 -0.804 -1.1400000000000001 -0.165 -0.51 -1.0334999999999999 -0.51 1.03275 -1.1400000000000001 0.16575 0.8250000000000001 0.804Zm2.49525 4.79475 -0.25275000000000003 1.4729999999999999 1.32225 -0.69525 1.32225 0.69525 -0.252 -1.4729999999999999 1.0695 -1.0425 -1.47825 -0.21525L18.63975 15l-0.6615 1.3395000000000001 -1.47825 0.21525 1.0702500000000001 1.0425Zm2.559 -3.6622500000000002 0.195 -1.134L19.5 11.99625l1.1385 -0.165 0.51 -1.032 0.50925 1.032 1.1385 0.165 -0.8242499999999999 0.80325 0.195 1.13475 -1.0185 -0.5355 -1.01925 0.5355Z" clip-rule="evenodd" stroke-width="0.75"></path>
  <path fill="#f7fcff" d="m17.88 9.73875 -0.14775 -0.025500000000000002 -0.051000000000000004 0.30000000000000004 0.26849999999999996 -0.14250000000000002 -0.06975 -0.132Zm0.195 -1.13625 0.14775 0.025500000000000002 0.013499999999999998 -0.07725 -0.056249999999999994 -0.055499999999999994 -0.10500000000000001 0.10724999999999998Zm0.8250000000000001 0.6000000000000001 0.06975 -0.13274999999999998 -0.06975 -0.037500000000000006 -0.06975 0.037500000000000006 0.06975 0.13274999999999998Zm1.02 0.53625 -0.06975 0.13274999999999998 0.26849999999999996 0.14100000000000001 -0.051000000000000004 -0.30000000000000004 -0.14775 0.026250000000000002Zm-0.195 -1.13625 -0.10500000000000001 -0.10724999999999998 -0.056249999999999994 0.055499999999999994 0.013499999999999998 0.07725 0.14775 -0.025500000000000002Zm0.8250000000000001 -0.804 0.10500000000000001 0.10724999999999998 0.21749999999999997 -0.21149999999999997 -0.30075 -0.04425 -0.021750000000000002 0.14850000000000002Zm-1.1400000000000001 -0.165 -0.135 0.066 0.035250000000000004 0.07050000000000001 0.078 0.01125 0.021750000000000002 -0.14850000000000002ZM18.9 6.6000000000000005l0.135 -0.06675 -0.135 -0.27225 -0.135 0.27225 0.135 0.06675Zm-0.51 1.03275 0.021750000000000002 0.14850000000000002 0.078 -0.01125 0.035250000000000004 -0.07050000000000001 -0.135 -0.06675Zm-1.1400000000000001 0.16575 -0.021750000000000002 -0.14850000000000002 -0.30000000000000004 0.04425 0.21749999999999997 0.21149999999999997 0.10425000000000001 -0.10724999999999998Zm-2.37 6.1395 -0.14775 -0.02475 -0.051000000000000004 0.30000000000000004 0.26849999999999996 -0.14250000000000002 -0.06975 -0.13274999999999998Zm0.195 -1.1355 0.14775 0.025500000000000002 0.013499999999999998 -0.07725 -0.056249999999999994 -0.055499999999999994 -0.10500000000000001 0.10724999999999998Zm0.8250000000000001 0.6000000000000001 0.06975 -0.13274999999999998 -0.06975 -0.037500000000000006 -0.06975 0.037500000000000006 0.06975 0.13274999999999998Zm1.02 0.5355 -0.06975 0.1335 0.26849999999999996 0.14100000000000001 -0.051000000000000004 -0.30000000000000004 -0.14775 0.025500000000000002Zm-0.195 -1.1355 -0.10500000000000001 -0.10724999999999998 -0.056249999999999994 0.055499999999999994 0.013499999999999998 0.07725 0.14775 -0.025500000000000002Zm0.8250000000000001 -0.804 0.10500000000000001 0.10724999999999998 0.21749999999999997 -0.21149999999999997 -0.30075 -0.04425 -0.021750000000000002 0.14850000000000002Zm-1.1400000000000001 -0.165 -0.135 0.066 0.035250000000000004 0.07050000000000001 0.078 0.01125 0.021750000000000002 -0.14850000000000002ZM15.899999999999999 10.8l0.135 -0.06675 -0.135 -0.27225 -0.135 0.27225 0.135 0.06675Zm-0.51 1.03275 0.021750000000000002 0.14850000000000002 0.078 -0.01125 0.035250000000000004 -0.07050000000000001 -0.135 -0.06675Zm-1.1400000000000001 0.16575 -0.021750000000000002 -0.14850000000000002 -0.30000000000000004 0.04425 0.21749999999999997 0.21149999999999997 0.10425000000000001 -0.10724999999999998Zm3.0675 7.07175 -0.14775 -0.025500000000000002 -0.051750000000000004 0.30000000000000004 0.26925 -0.14250000000000002 -0.06975 -0.132Zm0.25275000000000003 -1.4729999999999999 0.14775 0.025500000000000002 0.013499999999999998 -0.078 -0.056999999999999995 -0.05474999999999999 -0.10500000000000001 0.10724999999999998Zm1.0695 0.7777499999999999 0.06975 -0.13274999999999998 -0.06975 -0.037500000000000006 -0.06975 0.037500000000000006 0.06975 0.13274999999999998Zm1.32225 0.69525 -0.06975 0.13274999999999998 0.27 0.14175 -0.052500000000000005 -0.30000000000000004 -0.14775 0.025500000000000002Zm-0.252 -1.4729999999999999 -0.10500000000000001 -0.10724999999999998 -0.056249999999999994 0.05474999999999999 0.013499999999999998 0.078 0.14775 -0.025500000000000002Zm1.0695 -1.0425 0.10500000000000001 0.10724999999999998 0.21749999999999997 -0.21225 -0.30000000000000004 -0.043500000000000004 -0.0225 0.14850000000000002Zm-1.47825 -0.21525 -0.135 0.06675 0.035250000000000004 0.07050000000000001 0.078 0.01125 0.021750000000000002 -0.14850000000000002ZM18.63975 15l0.135 -0.06675 -0.135 -0.27225 -0.135 0.27225 0.135 0.06675Zm-0.6615 1.3395000000000001 0.0225 0.14850000000000002 0.07725 -0.01125 0.035250000000000004 -0.07050000000000001 -0.135 -0.06675ZM16.5 16.55475l-0.021750000000000002 -0.14850000000000002 -0.30000000000000004 0.043500000000000004 0.21749999999999997 0.21225 0.10425000000000001 -0.10724999999999998Zm3.82425 -3.7545 0.14775 0.025500000000000002 0.013499999999999998 -0.07725 -0.056999999999999995 -0.055499999999999994 -0.10500000000000001 0.10724999999999998Zm-0.195 1.13475 -0.14775 -0.025500000000000002 -0.051000000000000004 0.30000000000000004 0.26849999999999996 -0.14250000000000002 -0.06975 -0.132ZM19.5 11.997l-0.021750000000000002 -0.14775 -0.30000000000000004 0.043500000000000004 0.21749999999999997 0.21225 0.10425000000000001 -0.10799999999999998Zm1.1385 -0.165 0.0225 0.14850000000000002 0.07725 -0.01125 0.035250000000000004 -0.07125000000000001 -0.135 -0.066Zm0.51 -1.032 0.13424999999999998 -0.06675 -0.135 -0.27225 -0.13424999999999998 0.27225 0.135 0.06675Zm0.50925 1.032 -0.135 0.066 0.035250000000000004 0.07125000000000001 0.078 0.01125 0.021750000000000002 -0.14850000000000002Zm1.1385 0.165 0.10500000000000001 0.10799999999999998 0.21749999999999997 -0.21225 -0.30075 -0.043500000000000004 -0.021750000000000002 0.14775Zm-0.8242499999999999 0.80325 -0.10500000000000001 -0.10724999999999998 -0.056249999999999994 0.055499999999999994 0.013499999999999998 0.07725 0.14775 -0.025500000000000002Zm0.195 1.13475 -0.06975 0.13274999999999998 0.26849999999999996 0.14100000000000001 -0.051000000000000004 -0.29925 -0.14775 0.025500000000000002Zm-1.0185 -0.5355 0.06975 -0.13274999999999998 -0.06975 -0.037500000000000006 -0.06975 0.037500000000000006 0.06975 0.13274999999999998Zm-3.12 -3.636 0.195 -1.1355 -0.29625 -0.05025 -0.195 1.1355 0.2955 0.05025Zm0.80175 -0.6937500000000001 -1.02 0.5355 0.1395 0.26549999999999996 1.02 -0.5355 -0.1395 -0.26549999999999996Zm1.1595 0.5355 -1.02 -0.5355 -0.1395 0.26549999999999996 1.02 0.53625 0.1395 -0.26625Zm-0.41250000000000003 -0.97725 0.195 1.1355 0.2955 -0.05025 -0.195 -1.1355 -0.2955 0.05025Zm0.86775 -0.9367500000000001 -0.8250000000000001 0.804 0.21000000000000002 0.21525 0.8250000000000001 -0.80475 -0.21000000000000002 -0.21449999999999997Zm-1.05675 0.09 1.1400000000000001 0.16575 0.043500000000000004 -0.29700000000000004 -1.1400000000000001 -0.165 -0.043500000000000004 0.29625Zm-0.6224999999999999 -1.11525 0.51 1.0334999999999999 0.26849999999999996 -0.13274999999999998 -0.51 -1.0334999999999999 -0.26849999999999996 0.13274999999999998Zm-0.2415 1.0334999999999999 0.51 -1.0334999999999999 -0.26849999999999996 -0.13274999999999998 -0.51 1.0334999999999999 0.26849999999999996 0.13274999999999998Zm-1.2525 0.2475 1.1400000000000001 -0.165 -0.043500000000000004 -0.29775 -1.1400000000000001 0.16575 0.043500000000000004 0.29700000000000004Zm0.9075 0.54825 -0.8250000000000001 -0.804 -0.20925000000000002 0.21449999999999997 0.8250000000000001 0.80475 0.21000000000000002 -0.21525Zm-3.1515 5.46825 0.195 -1.1355 -0.2955 -0.05025 -0.195 1.1355 0.2955 0.05025Zm0.8025 -0.6937500000000001 -1.02 0.5355 0.1395 0.26625 1.02 -0.53625 -0.1395 -0.26549999999999996Zm1.1595 0.5355 -1.02 -0.5355 -0.1395 0.26549999999999996 1.02 0.53625 0.1395 -0.26625Zm-0.41250000000000003 -0.97725 0.195 1.1355 0.2955 -0.05025 -0.195 -1.1355 -0.2955 0.05025Zm0.86775 -0.9367500000000001 -0.8250000000000001 0.804 0.21000000000000002 0.21525 0.8250000000000001 -0.80475 -0.21000000000000002 -0.21449999999999997Zm-1.05675 0.09 1.1400000000000001 0.16575 0.043500000000000004 -0.29700000000000004 -1.1400000000000001 -0.165 -0.043500000000000004 0.29625Zm-0.6224999999999999 -1.11525 0.51 1.0334999999999999 0.26849999999999996 -0.13274999999999998 -0.51 -1.0334999999999999 -0.26849999999999996 0.13274999999999998Zm-0.2415 1.0334999999999999 0.51 -1.0334999999999999 -0.26849999999999996 -0.13274999999999998 -0.51 1.0334999999999999 0.26849999999999996 0.13274999999999998Zm-1.2525 0.2475 1.1400000000000001 -0.165 -0.043500000000000004 -0.29775 -1.1400000000000001 0.16575 0.043500000000000004 0.29700000000000004Zm0.9075 0.54825 -0.8250000000000001 -0.804 -0.20925000000000002 0.21449999999999997 0.8250000000000001 0.80475 0.21000000000000002 -0.21525Zm2.286 6.400500000000001 0.25275000000000003 -1.4729999999999999 -0.2955 -0.05025 -0.25275000000000003 1.47225 0.2955 0.051000000000000004Zm1.1047500000000001 -0.8534999999999999 -1.32225 0.69525 0.1395 0.26549999999999996 1.32225 -0.69525 -0.1395 -0.26549999999999996Zm1.4625 0.69525 -1.323 -0.69525 -0.1395 0.26549999999999996 1.32225 0.69525 0.14024999999999999 -0.26549999999999996Zm-0.47025 -1.3147499999999999 0.252 1.4729999999999999 0.29625 -0.051000000000000004 -0.25275000000000003 -1.47225 -0.2955 0.05025Zm1.113 -1.17525 -1.0702500000000001 1.0425 0.21000000000000002 0.21525 1.0695 -1.04325 -0.21000000000000002 -0.21525Zm-1.395 0.0405 1.4775 0.21525 0.043500000000000004 -0.29700000000000004 -1.47825 -0.21525 -0.043500000000000004 0.29700000000000004Zm-0.7747499999999999 -1.422 0.66075 1.34025 0.27 -0.13274999999999998 -0.66225 -1.34025 -0.26849999999999996 0.13274999999999998Zm-0.39225 1.34025 0.66075 -1.34025 -0.26849999999999996 -0.13274999999999998 -0.6615 1.34025 0.26925 0.13274999999999998Zm-1.5915 0.29700000000000004L18 16.488l-0.04275 -0.29700000000000004 -1.479 0.21525 0.043500000000000004 0.29700000000000004Zm1.15275 0.7875000000000001 -1.0695 -1.044 -0.21000000000000002 0.21525 1.0702500000000001 1.0425 0.21000000000000002 -0.21449999999999997Zm2.502 -4.71525 -0.195 1.134 0.29625 0.051000000000000004 0.19425 -1.13475 -0.2955 -0.05025Zm-0.7815000000000001 -0.6705 0.8250000000000001 0.8025 0.20850000000000002 -0.21449999999999997 -0.8235000000000001 -0.8025 -0.21000000000000002 0.21449999999999997Zm1.2225 -0.42150000000000004 -1.1392499999999999 0.165 0.043500000000000004 0.29700000000000004 1.1385 -0.165 -0.04275 -0.29700000000000004Zm0.396 -0.9502499999999999 -0.50925 1.032 0.26925 0.13274999999999998 0.50925 -1.032 -0.26925 -0.13274999999999998Zm0.7785 1.032 -0.51 -1.032 -0.26849999999999996 0.13274999999999998 0.51 1.032 0.26849999999999996 -0.13274999999999998Zm1.026 0.084 -1.1392499999999999 -0.16575 -0.04275 0.29700000000000004 1.1385 0.165 0.043500000000000004 -0.29625Zm-0.741 1.059 0.8242499999999999 -0.80325 -0.21000000000000002 -0.21525 -0.8235000000000001 0.80325 0.20925000000000002 0.21525Zm0.23775000000000002 1.00125 -0.195 -1.134 -0.2955 0.05025 0.195 1.13475 0.2955 -0.051000000000000004Zm-1.236 -0.37725 1.0185 0.5355 0.1395 -0.26549999999999996 -1.0185 -0.5355 -0.1395 0.26549999999999996Zm-0.879 0.5355 1.0185 -0.5355 -0.1395 -0.26549999999999996 -1.01925 0.5355 0.14024999999999999 0.26549999999999996Z" stroke-width="0.75"></path>
  <defs>
    <clipPath id="a">
      <path fill="#ffffff" d="M0 3h13.5v10.5H0z" stroke-width="0.75"></path>
    </clipPath>
  </defs>
</svg>