<svg xmlns="http://www.w3.org/2000/svg" fill="none" viewBox="0 0 32 32" id="Pa-Panama--Streamline-Flagpack" height="24" width="24">
  <desc>
    PA Panama Streamline Icon: https://streamlinehq.com
  </desc>
  <path fill="#f7fcff" fill-rule="evenodd" d="M0 4v24h32V4H0Z" clip-rule="evenodd"></path>
  <mask id="a" width="32" height="24" x="0" y="4" maskUnits="userSpaceOnUse" style="mask-type:luminance">
    <path fill="#ffffff" fill-rule="evenodd" d="M0 4v24h32V4H0Z" clip-rule="evenodd"></path>
  </mask>
  <g mask="url(#a)">
    <path fill="#e31d1c" fill-rule="evenodd" d="M16 4v12h16V4H16Zm7.02 19.15-2.302 1.424.894-2.392-1.957-1.81h2.374l.992-2.587.757 2.587h2.377l-1.713 1.81.839 2.392-2.26-1.425Z" clip-rule="evenodd"></path>
    <path fill="#2e42a5" fill-rule="evenodd" d="M9.02 12.365 6.719 13.79l.894-2.392-1.957-1.81H8.03L9.021 7l.757 2.587h2.377l-1.713 1.81.839 2.393-2.26-1.425ZM0 16v12h16V16H0Z" clip-rule="evenodd"></path>
  </g>
</svg>