<svg xmlns="http://www.w3.org/2000/svg" fill="none" viewBox="0 0 32 32" id="Pt-Portugal--Streamline-Flagpack" height="24" width="24">
  <desc>
    PT Portugal Streamline Icon: https://streamlinehq.com
  </desc>
  <path fill="#ef0000" fill-rule="evenodd" d="M8 4h24v24H8V4Z" clip-rule="evenodd"></path>
  <path fill="#2f8d00" fill-rule="evenodd" d="M0 4h12v24H0V4Z" clip-rule="evenodd"></path>
  <mask id="a" width="16" height="16" x="4" y="8" maskUnits="userSpaceOnUse" style="mask-type:luminance">
    <path fill="#ffffff" fill-rule="evenodd" d="M11.905 23.807c-4.26 0-7.715-3.495-7.715-7.807s3.454-7.807 7.715-7.807c4.26 0 7.714 3.495 7.714 7.807s-3.454 7.807-7.714 7.807Z" clip-rule="evenodd"></path>
  </mask>
  <g mask="url(#a)">
    <path fill="#ffe017" fill-rule="evenodd" d="M11.428 8h1v2.699h-1V8Zm0 13.494h1V24h-1v-2.506Z" clip-rule="evenodd"></path>
    <path fill="#ffe017" d="m4.314 16.404-.28-.717c3.086-1.232 5.415-2.026 6.995-2.384 2.318-.525 4.865-.914 7.641-1.166l.068.768c-2.744.25-5.259.633-7.543 1.15-1.533.348-3.83 1.13-6.88 2.349Z"></path>
    <path fill="#ffe017" d="m19.14 11.664-.226.736c-2.332-.736-4.231-1.052-5.691-.954l-.05-.77c1.567-.105 3.554.226 5.968.988Zm.808 4.116-.431.636c-1.19-.826-2.654-1.24-4.404-1.24v-.771c1.898 0 3.512.457 4.835 1.375Z"></path>
    <path fill="#ffe017" d="m19.302 16.01.197.746c-2.563.694-4.969 1.088-7.218 1.18-2.265.094-4.905-.302-7.922-1.182l.211-.741c2.944.86 5.505 1.242 7.68 1.153 2.19-.09 4.541-.475 7.052-1.155Z"></path>
    <path fill="#ffe017" d="m19.012 19.636-1.205 1.235c-2.288-2.287-4.303-3.922-6.032-4.904-1.758-1-4.051-2.014-6.876-3.04l.58-1.633c2.907 1.057 5.284 2.108 7.135 3.16 1.88 1.069 4.009 2.796 6.398 5.182Zm-13.554.699-.456-.618a9.275 9.275 0 0 1 1.188-.722c.85-.431 1.703-.7 2.517-.725l.119-.002v.771c-.032 0-.064 0-.096.002-.686.02-1.439.258-2.198.644a8.55 8.55 0 0 0-1.074.65Z"></path>
    <path fill="#ffe017" d="m5.812 20.602.192-.746c2.54.67 4.498 1.003 5.865 1.003 1.362 0 3.388-.394 6.067-1.183l.212.74c-2.741.808-4.83 1.214-6.279 1.214-1.444 0-3.46-.343-6.057-1.027Zm-.989-6.908 1.207-1.232 1.767 1.774-1.207 1.232-1.767-1.774Z"></path>
    <path fill="#ffe017" d="m14.836 19.848.898-1.478 2.803 1.745-.897 1.478-2.804-1.745Z"></path>
  </g>
  <path fill="#f9e813" fill-rule="evenodd" d="M4.19 16c0 4.312 3.454 7.807 7.715 7.807 4.26 0 7.714-3.495 7.714-7.807s-3.454-7.807-7.714-7.807S4.19 11.688 4.19 16Zm14.477.096c0 3.727-2.985 6.747-6.667 6.747s-6.667-3.02-6.667-6.747C5.333 12.37 8.318 9.35 12 9.35s6.667 3.02 6.667 6.746Z" clip-rule="evenodd"></path>
  <path fill="#ffffff" d="M7.657 11.185v6.26c.412 2.479 1.8 3.718 4.165 3.718s3.753-1.24 4.166-3.717v-6.26H7.657Z"></path>
  <path fill="#c51918" d="M7.085 10.607h9.474v6.887l-.008.048c-.458 2.752-2.08 4.2-4.729 4.2s-4.271-1.448-4.729-4.2l-.008-.048v-6.887Z"></path>
  <path fill="#f7fcff" d="M9.252 12.71h5.14v4.441s-.381 2.294-2.57 2.294c-2.188 0-2.57-2.294-2.57-2.294v-4.44Z"></path>
  <path fill="#f9e813" fill-rule="evenodd" d="M8 11.085h.723v.481H8v-.482Z" clip-rule="evenodd"></path>
  <path fill="#060101" fill-rule="evenodd" d="M7.619 11.277h1.333v.241H7.62v-.24Z" clip-rule="evenodd"></path>
  <path fill="#f9e813" fill-rule="evenodd" d="M7.619 11.47h.723v.241h-.723v-.24Zm.761 0h.724v.241H8.38v-.24Zm-.761.578H8.1v.723h-.482v-.723Zm.952 0h.482v.723h-.482v-.723Zm-.381 0h.241v.723h-.24v-.723Z" clip-rule="evenodd"></path>
  <path fill="#060101" fill-rule="evenodd" d="M7.619 11.855h1.333v.241H7.62v-.24Zm0 .579h1.333v.241H7.62v-.24Z" clip-rule="evenodd"></path>
  <path fill="#f9e813" fill-rule="evenodd" d="M7.81 11.663h.24v.24h-.24v-.24Zm.761 0h.241v.24h-.24v-.24Zm-.381-.193h.241v.482h-.24v-.482Zm3.429-.385h.723v.481h-.723v-.482Z" clip-rule="evenodd"></path>
  <path fill="#060101" fill-rule="evenodd" d="M11.238 11.277h1.333v.241h-1.333v-.24Z" clip-rule="evenodd"></path>
  <path fill="#f9e813" fill-rule="evenodd" d="M11.238 11.47h.723v.241h-.723v-.24Zm.762 0h.723v.241H12v-.24Zm-.762.578h.482v.723h-.482v-.723Zm.952 0h.482v.723h-.482v-.723Zm-.38 0h.24v.723h-.24v-.723Z" clip-rule="evenodd"></path>
  <path fill="#060101" fill-rule="evenodd" d="M11.238 11.855h1.333v.241h-1.333v-.24Zm0 .579h1.333v.241h-1.333v-.24Z" clip-rule="evenodd"></path>
  <path fill="#f9e813" fill-rule="evenodd" d="M11.428 11.663h.241v.24h-.24v-.24Zm.762 0h.241v.24h-.24v-.24Zm-.38-.193h.24v.482h-.24v-.482Zm3.237-.385h.723v.481h-.723v-.482Z" clip-rule="evenodd"></path>
  <path fill="#060101" fill-rule="evenodd" d="M14.666 11.277H16v.241h-1.334v-.24Z" clip-rule="evenodd"></path>
  <path fill="#f9e813" fill-rule="evenodd" d="M14.666 11.47h.723v.241h-.723v-.24Zm.762 0h.723v.241h-.723v-.24Zm-.762.578h.482v.723h-.482v-.723Zm.953 0h.482v.723h-.482v-.723Zm-.381 0h.241v.723h-.241v-.723Z" clip-rule="evenodd"></path>
  <path fill="#060101" fill-rule="evenodd" d="M14.666 11.855H16v.241h-1.334v-.24Zm0 .579H16v.241h-1.334v-.24Z" clip-rule="evenodd"></path>
  <path fill="#f9e813" fill-rule="evenodd" d="M14.857 11.663h.24v.24h-.24v-.24Zm.762 0h.24v.24h-.24v-.24Zm-.381-.193h.241v.482h-.241v-.482Zm-.191 3.084h.723v.482h-.723v-.482Z" clip-rule="evenodd"></path>
  <path fill="#060101" fill-rule="evenodd" d="M14.666 14.747H16v.241h-1.334v-.24Z" clip-rule="evenodd"></path>
  <path fill="#f9e813" fill-rule="evenodd" d="M14.666 14.94h.723v.24h-.723v-.24Zm.762 0h.723v.24h-.723v-.24Zm-.762.578h.482v.723h-.482v-.723Zm.953 0h.482v.723h-.482v-.723Zm-.381 0h.241v.723h-.241v-.723Z" clip-rule="evenodd"></path>
  <path fill="#060101" fill-rule="evenodd" d="M14.666 15.325H16v.241h-1.334v-.24Zm0 .579H16v.24h-1.334v-.24Z" clip-rule="evenodd"></path>
  <path fill="#f9e813" fill-rule="evenodd" d="M14.857 15.132h.24v.241h-.24v-.24Zm.762 0h.24v.241h-.24v-.24Zm-.381-.192h.241v.482h-.241v-.482ZM8 14.554h.723v.482H8v-.482Z" clip-rule="evenodd"></path>
  <path fill="#060101" fill-rule="evenodd" d="M7.619 14.747h1.333v.241H7.62v-.24Z" clip-rule="evenodd"></path>
  <path fill="#f9e813" fill-rule="evenodd" d="M7.619 14.94h.723v.24h-.723v-.24Zm.761 0h.724v.24H8.38v-.24Zm-.761.578H8.1v.723h-.482v-.723Zm.952 0h.482v.723h-.482v-.723Zm-.381 0h.241v.723h-.24v-.723Z" clip-rule="evenodd"></path>
  <path fill="#060101" fill-rule="evenodd" d="M7.619 15.325h1.333v.241H7.62v-.24Zm0 .579h1.333v.24H7.62v-.24Z" clip-rule="evenodd"></path>
  <path fill="#f9e813" fill-rule="evenodd" d="M7.81 15.132h.24v.241h-.24v-.24Zm.761 0h.241v.241h-.24v-.24Zm-.381-.192h.241v.482h-.24v-.482Zm.274 3.964.464-.554.37.31-.465.554-.37-.31Z" clip-rule="evenodd"></path>
  <path fill="#060101" fill-rule="evenodd" d="m8.366 19.32.858-1.022.184.155-.857 1.022-.185-.155Z" clip-rule="evenodd"></path>
  <path fill="#f9e813" fill-rule="evenodd" d="m8.514 19.444.465-.554.184.155-.464.554-.185-.155Zm.49-.584.465-.554.184.155-.465.554-.184-.155Zm-.047.955.31-.369.554.465-.31.37-.554-.466Zm.613-.729.31-.37.553.465-.31.37-.554-.465Zm-.246.291.155-.184.554.464-.155.185-.554-.465Z" clip-rule="evenodd"></path>
  <path fill="#060101" fill-rule="evenodd" d="m8.81 19.691.856-1.021.185.155-.857 1.021-.185-.155Zm.442.372.857-1.021.185.154-.857 1.022-.185-.155Z" clip-rule="evenodd"></path>
  <path fill="#f9e813" fill-rule="evenodd" d="m8.784 19.421.155-.184.185.155-.155.184-.185-.155Zm.49-.583.155-.185.184.155-.154.185-.185-.155Zm-.393.168.155-.185.37.31-.155.185-.37-.31Zm6.097-.54.465.554-.37.31-.464-.554.37-.31Z" clip-rule="evenodd"></path>
  <path fill="#060101" fill-rule="evenodd" d="m14.586 18.298.857 1.022-.185.155-.857-1.022.185-.155Z" clip-rule="evenodd"></path>
  <path fill="#f9e813" fill-rule="evenodd" d="m14.438 18.422.465.554-.185.155-.465-.554.185-.155Zm.49.584.464.554-.184.155-.465-.554.185-.155Zm-.933-.212.31.37-.554.464-.31-.37.554-.464Zm.612.729.31.37-.554.464-.31-.369.554-.465Zm-.245-.292.155.185-.554.465-.154-.185.553-.465Z" clip-rule="evenodd"></path>
  <path fill="#060101" fill-rule="evenodd" d="M14.143 18.67 15 19.69l-.185.155-.857-1.021.185-.155Zm-.443.371.857 1.022-.185.155-.857-1.022.185-.155Z" clip-rule="evenodd"></path>
  <path fill="#f9e813" fill-rule="evenodd" d="m14.413 18.692.155.184-.185.155-.155-.184.185-.155Zm.49.583.154.185-.184.155-.155-.185.185-.155Zm-.098-.415.155.184-.369.31-.155-.184.37-.31Z" clip-rule="evenodd"></path>
  <path fill="#013399" fill-rule="evenodd" d="M12.558 13.205h-1.32v.961s.098.497.66.497.66-.497.66-.497v-.961Zm-.748.385a.192.192 0 0 1-.191.193.192.192 0 0 1-.19-.193c0-.106.085-.193.19-.193s.19.087.19.193Zm-.191.964c.105 0 .19-.086.19-.193a.192.192 0 0 0-.19-.193.192.192 0 0 0-.19.193c0 .107.085.193.19.193Zm.762-.193a.192.192 0 0 1-.19.193.192.192 0 0 1-.191-.193c0-.106.085-.193.19-.193.106 0 .19.087.19.193Zm-.476-.193c.105 0 .19-.086.19-.192a.192.192 0 0 0-.19-.193.192.192 0 0 0-.19.193c0 .106.085.192.19.192Zm.476-.578a.192.192 0 0 1-.19.193.192.192 0 0 1-.191-.193c0-.106.085-.193.19-.193.106 0 .19.087.19.193Zm.177 1.735h-1.32v.962s.098.496.66.496.66-.496.66-.496v-.962Zm-.748.386a.192.192 0 0 1-.191.192.192.192 0 0 1-.19-.192c0-.107.085-.193.19-.193s.19.086.19.193Zm-.191.964c.105 0 .19-.087.19-.193a.192.192 0 0 0-.19-.193.192.192 0 0 0-.19.193c0 .106.085.193.19.193Zm.762-.193a.192.192 0 0 1-.19.193.192.192 0 0 1-.191-.193c0-.107.085-.193.19-.193a.19.19 0 0 1 .19.193Zm-.476-.193c.105 0 .19-.086.19-.193a.192.192 0 0 0-.19-.193.192.192 0 0 0-.19.193c0 .107.085.193.19.193Zm.476-.578a.192.192 0 0 1-.19.192.192.192 0 0 1-.191-.192c0-.107.085-.193.19-.193a.19.19 0 0 1 .19.193Zm1.892-.386h-1.32v.962s.097.496.66.496c.562 0 .66-.496.66-.496v-.962Zm-.75.386a.192.192 0 0 1-.19.192.192.192 0 0 1-.19-.192c0-.107.085-.193.19-.193s.19.086.19.193Zm-.19.964c.105 0 .19-.087.19-.193a.192.192 0 0 0-.19-.193.192.192 0 0 0-.19.193c0 .106.085.193.19.193Zm.762-.193a.192.192 0 0 1-.19.193.192.192 0 0 1-.19-.193c0-.107.085-.193.19-.193s.19.086.19.193Zm-.476-.193c.105 0 .19-.086.19-.193a.192.192 0 0 0-.19-.193.192.192 0 0 0-.19.193c0 .107.085.193.19.193Zm.476-.578a.192.192 0 0 1-.19.192.192.192 0 0 1-.19-.192c0-.107.085-.193.19-.193s.19.086.19.193Zm-3.251-.386h-1.32v.962s.098.496.66.496.66-.496.66-.496v-.962Zm-.749.386a.192.192 0 0 1-.19.192.192.192 0 0 1-.19-.192.19.19 0 0 1 .19-.193c.105 0 .19.086.19.193Zm-.19.964c.105 0 .19-.087.19-.193a.192.192 0 0 0-.19-.193.192.192 0 0 0-.19.193c0 .106.084.193.19.193Zm.761-.193a.192.192 0 0 1-.19.193.192.192 0 0 1-.19-.193c0-.107.085-.193.19-.193s.19.086.19.193Zm-.476-.193a.19.19 0 0 0 .19-.193.192.192 0 0 0-.19-.193.192.192 0 0 0-.19.193c0 .107.085.193.19.193Zm.476-.578a.192.192 0 0 1-.19.192.192.192 0 0 1-.19-.192c0-.107.085-.193.19-.193s.19.086.19.193Zm1.892 1.735h-1.32v.961s.098.497.66.497.66-.497.66-.497v-.961Zm-.748.385a.192.192 0 0 1-.191.193.192.192 0 0 1-.19-.193c0-.106.085-.192.19-.192s.19.086.19.192Zm-.191.964c.105 0 .19-.086.19-.193a.192.192 0 0 0-.19-.192.192.192 0 0 0-.19.192c0 .107.085.193.19.193Zm.762-.193a.192.192 0 0 1-.19.193.192.192 0 0 1-.191-.193c0-.106.085-.192.19-.192a.19.19 0 0 1 .19.192Zm-.476-.192c.105 0 .19-.087.19-.193a.192.192 0 0 0-.19-.193.192.192 0 0 0-.19.193c0 .106.085.193.19.193Zm.476-.579a.192.192 0 0 1-.19.193.192.192 0 0 1-.191-.193c0-.106.085-.192.19-.192a.19.19 0 0 1 .19.192Z" clip-rule="evenodd"></path>
</svg>