<svg xmlns="http://www.w3.org/2000/svg" fill="none" viewBox="0 0 32 32" id="Kr-Korea-South--Streamline-Flagpack" height="24" width="24">
  <desc>
    KR Korea South Streamline Icon: https://streamlinehq.com
  </desc>
  <path fill="#f7fcff" fill-rule="evenodd" d="M0 4v24h32V4H0Z" clip-rule="evenodd"></path>
  <mask id="a" width="32" height="24" x="0" y="4" maskUnits="userSpaceOnUse" style="mask-type:luminance">
    <path fill="#ffffff" fill-rule="evenodd" d="M0 4v24h32V4H0Z" clip-rule="evenodd"></path>
  </mask>
  <g mask="url(#a)">
    <path fill="#3d58db" fill-rule="evenodd" d="M16 22.22c3.203 0 5.799-2.758 5.799-6.16 0-3.4-2.596-6.158-5.799-6.158-3.203 0-5.8 2.758-5.8 6.159s2.597 6.158 5.8 6.158Z" clip-rule="evenodd"></path>
    <mask id="b" width="12" height="14" x="10" y="9" maskUnits="userSpaceOnUse" style="mask-type:luminance">
      <path fill="#ffffff" fill-rule="evenodd" d="M16 22.22c3.203 0 5.799-2.758 5.799-6.16 0-3.4-2.596-6.158-5.799-6.158-3.203 0-5.8 2.758-5.8 6.159s2.597 6.158 5.8 6.158Z" clip-rule="evenodd"></path>
    </mask>
    <g mask="url(#b)">
      <path fill="#e31d1c" fill-rule="evenodd" d="M22.002 16.532s-.326-2.903-2.736-3.061c-2.41-.158-3.06 2.13-3.2 2.735-.14.606-.491 2.223-3.03 2.223-2.537 0-2.766-4.11-2.766-4.11V9.471h11.732v7.06Z" clip-rule="evenodd"></path>
    </g>
    <path fill="#272727" fill-rule="evenodd" d="m7.3 6.052.914.828-4.24 4.952-.915-.828L7.3 6.052Zm1.508 1.34.915.827-4.088 4.88-.915-.827 4.088-4.88Zm2.417 2.183-.915-.828-4.1 4.917.916.828 4.1-4.917Zm14.139-3.87-.916.825 1.588 1.862.915-.824-1.587-1.863Zm2.821 3.427-.915.824 1.588 1.863.915-.824-1.588-1.863Zm-6.757.08.915-.824 1.587 1.863-.915.825-1.587-1.863Zm3.737 2.603-.915.824 1.587 1.863.915-.824-1.587-1.863Zm-2.17-3.984.916-.824 4.418 5.38-.915.825-4.419-5.38Zm3.06 10.412-.923-.827-1.6 1.87.922.827 1.6-1.87Zm-2.692 3.291-.922-.828-1.601 1.87.923.828 1.6-1.87Zm4.683-1.501.923.827-1.6 1.87-.923-.827 1.6-1.87Zm-1.636 4.195-.923-.828-1.601 1.87.923.828 1.6-1.87Zm-2.444-2.25.923.828-1.67 1.997-.924-.828 1.671-1.997Zm3.665-2.5-.923-.827-1.671 1.997.923.827 1.67-1.997ZM6.406 18.89l.916-.826 4.084 4.68-.915.826-4.085-4.68Zm.953 4.093.915-.825L10 24.054l-.915.825-1.726-1.896Zm-3.05-2.292-.915.825L7.5 26.259l.915-.825-4.106-4.743Zm.651-.539.916-.825L7.37 21.08l-.915.825-1.496-1.754Z" clip-rule="evenodd"></path>
  </g>
</svg>