<svg xmlns="http://www.w3.org/2000/svg" fill="none" viewBox="0 0 32 32" id="Za-South-Africa--Streamline-Flagpack" height="24" width="24">
  <desc>
    ZA South Africa Streamline Icon: https://streamlinehq.com
  </desc>
  <path fill="#f7fcff" fill-rule="evenodd" d="M0 4h32v24H0V4Z" clip-rule="evenodd"></path>
  <path fill="#e31d1c" fill-rule="evenodd" d="M0 4v8h32V4H0Z" clip-rule="evenodd"></path>
  <path fill="#3d58db" fill-rule="evenodd" d="M0 20v8h32v-8H0Z" clip-rule="evenodd"></path>
  <mask id="a" width="32" height="24" x="0" y="4" maskUnits="userSpaceOnUse" style="mask-type:alpha">
    <path fill="#5eaa22" fill-rule="evenodd" d="M0 4v24h32V4H0Z" clip-rule="evenodd"></path>
  </mask>
  <g mask="url(#a)">
    <mask id="b" width="36" height="38" x="-2" y="-3" fill="#000000" maskUnits="userSpaceOnUse">
      <path fill="#ffffff" d="M-2-3h36v38H-2z"></path>
      <path fill-rule="evenodd" d="M15.429 14 0 2v28l15.429-12H32v-4H15.429Z" clip-rule="evenodd"></path>
    </mask>
    <path fill="#5eaa22" fill-rule="evenodd" d="M15.429 14 0 2v28l15.429-12H32v-4H15.429Z" clip-rule="evenodd"></path>
    <path fill="#f7fcff" d="M0 2 1.228.421-2-2.089V2h2Zm15.429 12L14.2 15.579l.541.421h.687v-2ZM0 30h-2v4.09l3.228-2.511L0 30Zm15.429-12v-2h-.687l-.541.421L15.429 18ZM32 18v2h2v-2h-2Zm0-4h2v-2h-2v2ZM-1.228 3.579l15.429 12 2.456-3.158-15.43-12-2.455 3.158ZM2 30V2h-4v28h4Zm12.2-13.579-15.428 12 2.456 3.158 15.429-12L14.2 16.42ZM32 16H15.429v4H32v-4Zm-2-2v4h4v-4h-4Zm-14.571 2H32v-4H15.429v4Z" mask="url(#b)"></path>
    <path fill="#272727" stroke="#feca00" stroke-width="2" d="M.6 9.2-1 8v16l1.6-1.2 8-6 1.067-.8-1.067-.8-8-6Z"></path>
  </g>
</svg>