<svg xmlns="http://www.w3.org/2000/svg" fill="none" viewBox="0 0 32 32" id="Tn-Tunisia--Streamline-Flagpack" height="24" width="24">
  <desc>
    TN Tunisia Streamline Icon: https://streamlinehq.com
  </desc>
  <path fill="#e31d1c" fill-rule="evenodd" d="M0 4v24h32V4H0Z" clip-rule="evenodd"></path>
  <mask id="a" width="32" height="24" x="0" y="4" maskUnits="userSpaceOnUse" style="mask-type:luminance">
    <path fill="#ffffff" fill-rule="evenodd" d="M0 4v24h32V4H0Z" clip-rule="evenodd"></path>
  </mask>
  <g mask="url(#a)">
    <path fill="#f7fcff" fill-rule="evenodd" d="M16 24a8 8 0 1 0 0-16 8 8 0 0 0 0 16Z" clip-rule="evenodd"></path>
    <path fill="#e31d1c" fill-rule="evenodd" d="M17.403 21.65s-4.217-1.15-4.217-5.677c0-4.527 4.217-5.776 4.217-5.776-1.744-.674-6.846.361-6.846 5.776 0 5.416 5.245 6.391 6.846 5.678Zm-.232-6.662-2.092.765 2.248.785.076 2.105 1.368-1.635 2.256.16-1.625-1.326.979-1.915-1.913.644-1.325-1.656.028 2.073Z" clip-rule="evenodd"></path>
  </g>
</svg>