<svg xmlns="http://www.w3.org/2000/svg" fill="none" viewBox="0 0 32 32" id="Tr-Turkey--Streamline-Flagpack" height="24" width="24">
  <desc>
    TR Turkey Streamline Icon: https://streamlinehq.com
  </desc>
  <path fill="#e31d1c" fill-rule="evenodd" d="M0 4v24h32V4H0Z" clip-rule="evenodd"></path>
  <mask id="a" width="32" height="24" x="0" y="4" maskUnits="userSpaceOnUse" style="mask-type:luminance">
    <path fill="#ffffff" fill-rule="evenodd" d="M0 4v24h32V4H0Z" clip-rule="evenodd"></path>
  </mask>
  <g mask="url(#a)">
    <path fill="#f7fcff" fill-rule="evenodd" d="M16.025 20.114c-2.141-.528-3.818-2.32-3.799-4.948.019-2.459 1.508-4.538 3.862-5.1 2.354-.563 4.426.631 4.426.631-.65-1.536-2.91-2.614-4.764-2.611-3.449.005-7.126 2.803-7.158 7.08-.032 4.435 3.938 6.961 7.43 6.955 2.799-.004 4.127-1.92 4.402-2.734 0 0-2.257 1.254-4.399.727Zm4.878-5.787-2.133.783 2.407.85-.041 2.537 1.586-1.904 2.62.19L23.266 15l1.363-1.904-2.22.747-1.586-1.763.08 2.248Z" clip-rule="evenodd"></path>
  </g>
</svg>