<svg xmlns="http://www.w3.org/2000/svg" fill="none" viewBox="0 0 32 32" id="Uy-Uruguay--Streamline-Flagpack" height="24" width="24">
  <desc>
    UY Uruguay Streamline Icon: https://streamlinehq.com
  </desc>
  <path fill="#f7fcff" fill-rule="evenodd" d="M0 4v24h32V4H0Z" clip-rule="evenodd"></path>
  <mask id="a" width="32" height="24" x="0" y="4" maskUnits="userSpaceOnUse" style="mask-type:luminance">
    <path fill="#ffffff" fill-rule="evenodd" d="M0 4v24h32V4H0Z" clip-rule="evenodd"></path>
  </mask>
  <g mask="url(#a)">
    <path fill="#2e42a5" d="M0 6h32v3H0zm0 6h32v3H0zm0 6h32v3H0zm0 5h32v3H0z"></path>
    <path fill="#f7fcff" d="M0 4h14v14H0z"></path>
    <path fill="#ffc125" fill-rule="evenodd" d="M4.782 6.582a.134.134 0 0 0-.143.123c-.027.353.284.674.456.852l.017.017c.027.029.055.056.09.09l.104.101c.149.148.181.287.218.442l.009.038.05.233c.078.388.188.929.428 1.105.059.043.47-.213.515-.272a.742.742 0 0 1 .112-.093c.092-.068.2-.148.162-.176-.251-.185-.442-.632-.69-1.277-.133-.303-.48-.496-.767-.656-.246-.136-.449-.249-.438-.386a.13.13 0 0 0-.123-.14Zm4.048.1a.134.134 0 0 0-.181-.053c-.311.169-.411.605-.466.846l-.006.024a29.579 29.579 0 0 1-.055.266c-.042.206-.14.308-.251.423l-.027.029a6.815 6.815 0 0 1-.169.168c-.282.277-.675.664-.693.961-.004.073.436.279.509.284.026.002.08.022.138.044.109.04.234.086.237.04.018-.312.29-.716.694-1.275.183-.276.155-.672.133-1-.02-.28-.035-.512.086-.578a.13.13 0 0 0 .05-.18Zm2.586 2.349c.07.018.114.09.096.162a.13.13 0 0 1-.16.096c-.133-.034-.28.146-.456.364-.208.256-.458.564-.78.641-.677.133-1.15.243-1.376.459-.035.032-.095-.088-.146-.19a.738.738 0 0 0-.072-.127c-.05-.054-.231-.504-.178-.554.215-.206.767-.22 1.162-.23.09-.003.17-.005.238-.01l.04-.001c.158-.01.3-.017.472-.139l.117-.084.105-.073.02-.014c.205-.138.575-.389.918-.3Zm-9.093.443a.134.134 0 0 0-.015.188c.23.269.677.276.925.28h.151l.145-.001c.21-.002.331.073.467.158l.033.02c.058.036.126.08.2.13.33.218.79.523 1.084.478.072-.011.182-.484.172-.556-.004-.026.005-.083.014-.145.016-.114.036-.247-.01-.24-.309.047-.76-.134-1.391-.414-.308-.12-.69-.012-1.006.078-.27.078-.494.141-.583.037a.13.13 0 0 0-.186-.013Z" clip-rule="evenodd"></path>
    <path fill="#984111" d="m4.64 6.705-.075-.006.074.006Zm.142-.123-.005.075.005-.075Zm.313.975.054-.052-.054.052Zm.017.017.054-.052-.054.052Zm.09.09-.053.054.106-.107-.053.053Zm.104.101-.053.054.053-.054Zm.218.442-.073.017.073-.017Zm.009.038-.073.018.073-.018Zm.05.233-.074.015v.005l.073-.02Zm0 0 .073-.015-.001-.004-.073.02Zm.428 1.105-.044.06.044-.06Zm.515-.272.06.045-.06-.045Zm.112-.093-.042-.062-.003.002.045.06Zm0 0 .041.063.004-.002-.045-.06Zm.162-.176-.044.06.044-.06Zm-.69-1.277.07-.027-.002-.003-.068.03Zm-.767-.656-.037.066.037-.066Zm-.438-.386-.075-.006.075.006Zm3.744-.094-.036-.066.036.066Zm.18.053.066-.037-.065.037Zm-.646.793.073.017-.073-.017Zm-.006.024.073.016-.073-.016Zm-.026.124-.074-.015.147.03-.073-.015Zm-.029.142.074.015-.074-.015Zm-.251.423-.054-.052.054.052Zm-.027.029-.055-.052.055.052Zm-.169.168-.052-.053.052.053Zm-.693.961.075.005-.075-.005Zm.509.284-.005.075.005-.075Zm.138.044.026-.07-.026.07Zm.237.04-.075-.005.075.004Zm.694-1.275.061.044.002-.002-.063-.042Zm.133-1 .075-.005-.075.005Zm.086-.578-.036-.066.036.066Zm2.637 2.17.019-.073-.019.073Zm-.064.258-.018.073.018-.073Zm-.456.364-.059-.047.059.047Zm-.78.641.015.074h.003l-.018-.074Zm-1.376.459-.052-.055.052.055Zm-.146-.19-.07.027.003.006.067-.034Zm0 0 .07-.029-.003-.005-.067.033Zm0 0 .067-.034-.067.033Zm-.072-.127-.055.05.055-.05Zm-.178-.554.051.054-.051-.054Zm1.162-.23.002.074-.002-.075Zm0 0-.002-.076h-.001l.003.075Zm.238-.01-.004-.074.004.075Zm.04-.001-.005-.075.004.075Zm.472-.139-.043-.06.043.06Zm.117-.084-.043-.06.043.06Zm0 0-.043-.061.043.06Zm.105-.073.042.062-.042-.062Zm.02-.014.042.062-.042-.062Zm-8.19.33.057-.048-.057.049Zm.015-.187.049.056-.05-.056Zm.91.468-.001.075v-.075Zm.024 0 .002-.075-.002.075Zm.127 0 .001.075-.001-.15v.075Zm.145-.001v.075-.075Zm.467.158.04-.064-.04.064Zm.033.02-.04.064.04-.064Zm.2.13-.041.062.041-.062Zm1.084.478.011.074-.01-.074Zm.172-.556.074-.01-.074.01Zm.014-.145.074.01-.074-.01Zm-.01-.24-.012-.074.011.074Zm-1.391-.414.03-.069h-.003l-.027.069Zm-1.006.078.02.072-.02-.072Zm-.583.037.057-.05-.057.05ZM4.714 6.71a.06.06 0 0 1 .063-.054l.01-.15a.21.21 0 0 0-.222.192l.15.012Zm.435.794a2.403 2.403 0 0 1-.294-.35c-.091-.14-.153-.291-.14-.444l-.15-.012c-.016.2.065.386.165.539.1.153.226.283.311.371l.108-.104Zm.017.017-.017-.017-.108.104.017.018.108-.105Zm.088.089a4.177 4.177 0 0 1-.088-.089l-.108.105.091.091.105-.107Zm.104.101a14.298 14.298 0 0 0-.09-.089l-.01-.009-.003-.002V7.61s-.107.001-.106.107l.106-.107c0 .106-.105.107-.105.107v.001l.003.003.01.009a41.055 41.055 0 0 1 .09.088l.105-.107Zm.239.478c-.037-.157-.073-.314-.239-.478l-.105.107c.133.131.162.251.198.405l.146-.034Zm.009.038-.01-.038-.145.034.009.039.146-.035Zm.05.235c-.018-.087-.034-.168-.05-.235l-.146.035c.015.064.031.142.049.23l.147-.03Zm-.001-.004-.145.039.145-.04Zm.4 1.063c-.099-.072-.18-.23-.247-.436a5.722 5.722 0 0 1-.152-.623l-.147.03c.04.193.087.43.156.64.067.206.16.407.302.51l.088-.12Zm.41-.256-.019.017a2.21 2.21 0 0 1-.21.137c-.056.032-.11.06-.154.077a.265.265 0 0 1-.047.015h-.003c.001 0 .012.002.023.01l-.088.121c.019.014.04.018.053.02.015 0 .03-.001.041-.003a.406.406 0 0 0 .077-.024 1.46 1.46 0 0 0 .173-.086 2.355 2.355 0 0 0 .23-.15.272.272 0 0 0 .045-.044l-.12-.09Zm.128-.108-.071.054a.335.335 0 0 0-.056.054l.12.09.007-.008a2.487 2.487 0 0 1 .09-.07l-.09-.12Zm.003-.002.083.125-.083-.125Zm.16-.054a.057.057 0 0 1-.023-.04c-.001-.014.003-.024.004-.024 0 0-.005.007-.02.022a1.47 1.47 0 0 1-.124.098l.09.12c.045-.033.099-.073.137-.109a.245.245 0 0 0 .051-.064.106.106 0 0 0 .011-.058.093.093 0 0 0-.038-.066l-.088.121Zm-.716-1.31c.124.322.235.599.347.818.111.218.228.39.369.492l.088-.12c-.11-.082-.215-.228-.324-.44a8.812 8.812 0 0 1-.34-.803l-.14.053Zm-.734-.617c.145.08.299.166.433.268a.927.927 0 0 1 .302.352l.137-.06a1.075 1.075 0 0 0-.348-.411c-.144-.11-.308-.2-.45-.28l-.074.13Zm-.476-.458c-.008.11.07.194.152.258.085.067.203.133.324.2l.073-.131a2.554 2.554 0 0 1-.305-.187c-.078-.06-.096-.101-.094-.128l-.15-.012Zm-.053-.06c.033.002.055.03.053.06l.15.012a.206.206 0 0 0-.193-.221l-.01.15Zm3.908.038a.06.06 0 0 1 .08.023l.13-.073a.21.21 0 0 0-.282-.082l.072.132Zm-.43.796c.029-.12.066-.283.134-.436.067-.153.161-.287.296-.36l-.072-.132c-.176.096-.288.264-.362.431a2.512 2.512 0 0 0-.141.464l.146.033Zm-.005.024.006-.023-.146-.034-.006.024.146.033Zm-.026.123.026-.123-.146-.033-.027.126.147.03Zm-.028.142.016-.083.009-.042.002-.013.001-.003v-.001s-.059-.089-.147-.03l.147.03c-.088.058-.147-.03-.147-.03v.005c-.002.003-.002.008-.003.013l-.009.042-.016.082.147.03Zm-.271.46c.112-.116.224-.232.27-.46l-.146-.03c-.038.183-.123.272-.232.386l.108.104Zm-.027.029.027-.029-.108-.103-.028.028.109.104Zm-.17.17a7.56 7.56 0 0 0 .17-.17l-.109-.104c-.045.048-.102.104-.166.167l.105.107Zm-.67.912c.006-.123.095-.278.23-.446.133-.164.298-.327.44-.466l-.105-.107c-.14.138-.313.307-.452.48-.136.168-.253.356-.263.53l.15.009Zm.438.204c.001 0-.006 0-.025-.007a2.21 2.21 0 0 1-.23-.101 1.317 1.317 0 0 1-.148-.088.264.264 0 0 1-.038-.03c-.003-.005-.004-.005-.003-.003.001.001.006.01.005.025l-.15-.009a.103.103 0 0 0 .014.055.165.165 0 0 0 .024.033.407.407 0 0 0 .061.052 2.358 2.358 0 0 0 .418.209c.02.006.042.012.062.014l.01-.15Zm.16.048-.085-.03a.335.335 0 0 0-.075-.018l-.01.15.01.002a2.504 2.504 0 0 1 .107.037l.052-.14Zm.135.106c0-.013.007-.03.021-.04.012-.01.022-.01.022-.01s-.008 0-.03-.006a1.47 1.47 0 0 1-.149-.05l-.052.14c.053.02.116.044.167.056a.245.245 0 0 0 .082.008.106.106 0 0 0 .055-.022.093.093 0 0 0 .034-.067l-.15-.009ZM8.5 8.395c-.203.28-.374.523-.497.737-.122.212-.202.403-.212.577l.15.009c.008-.138.073-.304.192-.511.118-.206.285-.444.488-.724L8.5 8.395Zm.118-.951c.011.165.023.34.01.509a.927.927 0 0 1-.13.445l.125.083c.101-.153.142-.336.155-.517.014-.18 0-.367-.01-.53l-.15.01Zm.125-.649c-.097.053-.126.164-.135.268-.009.108 0 .243.01.38l.15-.01a2.554 2.554 0 0 1-.01-.357c.008-.099.033-.136.056-.15l-.071-.13Zm.021-.077a.056.056 0 0 1-.021.077l.071.132a.206.206 0 0 0 .081-.282l-.13.073Zm2.82 2.493a.21.21 0 0 0-.15-.253l-.037.145c.03.008.05.04.042.072l.146.036Zm-.25.15a.206.206 0 0 0 .25-.15l-.145-.036a.056.056 0 0 1-.068.041l-.037.146Zm-.38.34c.09-.111.167-.206.237-.27.073-.065.116-.076.143-.07l.037-.145c-.107-.027-.204.035-.28.105-.081.072-.166.177-.254.285l.117.094Zm-.82.666c.178-.043.332-.148.466-.271.133-.123.25-.269.354-.396l-.117-.094a3.6 3.6 0 0 1-.34.38.926.926 0 0 1-.398.236l.035.145Zm-1.343.44c.1-.096.261-.173.49-.243.226-.07.51-.13.85-.196l-.03-.147a8.763 8.763 0 0 0-.865.2c-.234.072-.422.157-.548.277l.103.109Zm-.264-.211c.025.05.055.11.084.154.013.02.032.045.054.062.012.008.03.02.055.02a.092.092 0 0 0 .071-.025l-.103-.109a.057.057 0 0 1 .043-.015.045.045 0 0 1 .023.008s-.006-.006-.018-.024a1.474 1.474 0 0 1-.075-.138l-.134.067Zm-.003-.006.14-.056-.14.056Zm.003.006.134-.067-.134.067Zm-.06-.11.007.01a2.486 2.486 0 0 1 .053.1l.134-.068-.041-.08a.334.334 0 0 0-.043-.063l-.11.102Zm-.175-.659a.103.103 0 0 0-.028.05.165.165 0 0 0-.005.04.38.38 0 0 0 .01.08c.011.055.032.121.055.186a2.348 2.348 0 0 0 .108.252.27.27 0 0 0 .035.052l.11-.102-.013-.022a2.214 2.214 0 0 1-.099-.23 1.32 1.32 0 0 1-.05-.166.265.265 0 0 1-.006-.05v-.003a.048.048 0 0 1-.014.022l-.103-.109Zm1.212-.25c-.197.004-.438.01-.657.042-.215.03-.429.088-.555.208l.103.109c.09-.085.26-.138.473-.169.209-.03.441-.036.64-.04l-.004-.15Zm-.001 0 .006.15-.006-.15Zm.236-.009a7.469 7.469 0 0 1-.235.008l.004.15c.089-.002.171-.004.24-.008l-.009-.15Zm.04-.002-.04.002.01.15.038-.002-.008-.15Zm.434-.125c-.153.109-.276.116-.434.125l.008.15c.161-.01.322-.018.512-.152l-.086-.123Zm.116-.084-.116.084.086.123.118-.085-.088-.122Zm0 0 .088.122-.087-.122Zm.107-.074a4.264 4.264 0 0 0-.106.074l.087.122.103-.072-.084-.124Zm.02-.014-.02.014.084.124.02-.014-.084-.124Zm.979-.311c-.195-.05-.391-.003-.56.069-.168.072-.317.173-.42.242l.085.124c.103-.07.241-.162.395-.228.154-.066.314-.1.462-.062l.038-.145Zm-9.07.655a.06.06 0 0 1 .007-.083l-.099-.113a.21.21 0 0 0-.022.293l.114-.097Zm.869.254a2.404 2.404 0 0 1-.454-.04c-.164-.034-.315-.098-.415-.214l-.114.097c.13.153.319.227.498.265.18.037.36.04.483.042l.002-.15Zm.025 0h-.025l-.002.15h.024l.003-.15Zm.125 0h-.125l-.003.15h.13l-.002-.15Zm.145-.001h-.085l-.042.001h-.018s-.075.076.001.15l-.001-.15c.075.075.002.15.002.15h.019a8.382 8.382 0 0 1 .126-.001l-.001-.15Zm.506.169c-.137-.085-.273-.17-.506-.17v.15c.188 0 .293.064.427.147l.08-.127Zm.033.02a9.46 9.46 0 0 0-.033-.02l-.079.127.034.021.078-.128Zm.202.131a6.81 6.81 0 0 0-.202-.13l-.078.127c.056.035.123.079.198.128l.082-.125Zm1.032.467c-.122.018-.291-.036-.484-.133a5.72 5.72 0 0 1-.548-.334l-.082.125c.164.11.365.242.562.342.194.099.402.174.574.148l-.022-.148Zm.109-.472-.002.026a2.198 2.198 0 0 1-.106.409.26.26 0 0 1-.023.044l-.002.003a.05.05 0 0 1 .024-.01l.022.148a.103.103 0 0 0 .052-.024.187.187 0 0 0 .027-.031.408.408 0 0 0 .038-.07 1.46 1.46 0 0 0 .061-.184 2.359 2.359 0 0 0 .056-.269.272.272 0 0 0 .001-.063l-.148.021Zm.013-.166-.012.089a.335.335 0 0 0-.001.077l.148-.02v-.012l.002-.029.012-.083-.149-.022ZM5.5 9.86a.057.057 0 0 1-.044-.012c-.012-.01-.015-.019-.015-.02a1.47 1.47 0 0 1-.016.186l.148.023c.008-.056.018-.122.02-.175a.257.257 0 0 0-.01-.081.106.106 0 0 0-.033-.05.093.093 0 0 0-.073-.019l.023.148Zm-1.433-.42c.316.14.59.257.824.333.233.076.437.114.609.087l-.023-.148c-.136.021-.313-.008-.54-.082a8.814 8.814 0 0 1-.809-.327l-.06.137Zm-.955.082c.16-.045.329-.093.496-.116a.927.927 0 0 1 .462.036l.055-.14a1.075 1.075 0 0 0-.537-.044c-.18.024-.36.075-.517.12l.041.144Zm-.66.013c.071.084.186.089.29.076.107-.013.237-.05.37-.089l-.041-.144a2.34 2.34 0 0 1-.348.084c-.098.012-.14-.003-.157-.024l-.114.097Zm-.08-.005a.056.056 0 0 1 .08.005l.114-.097a.206.206 0 0 0-.293-.02l.099.112Z"></path>
    <path fill="#ffc125" fill-rule="evenodd" d="M4.756 15.245a.134.134 0 0 1-.143-.122c-.028-.353.283-.675.455-.852l.017-.018a4.48 4.48 0 0 1 .09-.09l.104-.1c.15-.149.182-.287.218-.443l.009-.038a7.53 7.53 0 0 0 .05-.233c.078-.387.188-.928.428-1.104.059-.043.47.213.515.272a.74.74 0 0 0 .112.092c.093.07.2.15.162.177-.251.185-.442.632-.69 1.276-.133.304-.48.496-.767.656-.246.137-.449.25-.438.387a.13.13 0 0 1-.122.14Zm4.047-.1a.134.134 0 0 1-.18.054c-.312-.17-.412-.605-.467-.846l-.006-.024a4.205 4.205 0 0 1-.026-.124l-.028-.142c-.043-.206-.141-.309-.252-.424l-.027-.028a7.62 7.62 0 0 0-.17-.17c-.287-.282-.691-.679-.691-.96 0-.127.435-.278.508-.283a.736.736 0 0 0 .139-.044c.108-.04.233-.087.236-.04.018.312.29.715.695 1.274.182.277.155.672.132 1-.02.281-.035.513.086.579a.13.13 0 0 1 .05.179Zm2.586-2.348a.134.134 0 0 0 .096-.162.13.13 0 0 0-.16-.096c-.133.034-.279-.146-.456-.364-.208-.256-.458-.564-.78-.642-.677-.132-1.15-.242-1.376-.458-.034-.033-.094.087-.146.19a.683.683 0 0 1-.072.127c-.05.053-.23.504-.178.554.215.206.767.22 1.162.23.09.003.17.005.238.009l.04.002c.159.009.3.017.472.138l.118.085.104.073.02.013c.205.139.575.39.918.301Zm-9.093-.443a.134.134 0 0 1-.015-.188c.23-.27.678-.276.925-.28h.152l.144.001c.21.001.331-.074.467-.158l.033-.02c.058-.036.126-.08.2-.13.33-.219.79-.523 1.084-.478.072.01.182.483.172.556-.004.026.005.082.014.145.017.114.036.247-.01.24-.309-.048-.76.134-1.391.414-.308.12-.69.012-1.006-.079-.27-.077-.494-.14-.583-.036a.13.13 0 0 1-.186.013Z" clip-rule="evenodd"></path>
    <path fill="#984111" d="m4.613 15.123-.075.006.075-.006Zm.143.122-.005-.074.005.074Zm.312-.974.054.052-.054-.052Zm.017-.018.054.052-.054-.052Zm.09-.09-.052-.053.105.107-.053-.054Zm.104-.1-.053-.054.053.053Zm.218-.443-.073-.017.073.018Zm.009-.038-.073-.017.073.017Zm.05-.233-.074-.015.001-.004.073.02Zm0 0 .073.015-.001.005-.072-.02Zm.428-1.104-.044-.06.044.06Zm.515.272.06-.045-.06.045Zm.112.092-.042.063-.003-.003.045-.06Zm0 0 .042-.062.003.002-.045.06Zm.162.177-.044-.06.044.06Zm-.69 1.276.07.027-.001.003-.07-.03Zm-.767.656-.037-.065.037.065Zm-.438.387-.075.006.075-.006Zm3.744.094-.036.066.036-.066Zm.18-.053.066.036-.065-.036Zm-.646-.793.073-.017-.073.017Zm-.006-.024.073-.017-.073.017Zm-.026-.124-.074.014.147-.03-.073.016Zm-.028-.142.073-.015-.073.015Zm-.252-.424-.054.052.054-.052Zm-.027-.028-.054.052.054-.052Zm-.17-.17-.053.053.052-.054Zm0 0 .051-.055-.052.054Zm0 0-.053.053.052-.054Zm-.183-1.243-.005-.075.005.075Zm.139-.044.026.07-.026-.07Zm.236-.04-.075.005.075-.005Zm.695 1.274.06-.044.002.003-.062.041Zm.132 1 .075.006-.075-.005Zm.086.579-.036.066.036-.066Zm2.637-2.17.019.073-.019-.073Zm-.063-.258-.02-.073.02.073Zm-.457-.364-.059.047.059-.047Zm-.78-.642.015-.073h.003l-.018.073Zm-1.376-.458-.052.054.052-.054Zm-.146.19-.07-.027.003-.006.067.034Zm0 0 .07.028-.003.006-.067-.034Zm0 0 .067.034-.067-.034Zm-.072.127-.055-.051.055.05Zm-.178.554.052-.054-.052.054Zm1.162.23.002-.075-.002.075Zm0 0-.002.075.002-.075Zm.238.009-.004.075.004-.075Zm.04.002-.005.075.004-.075Zm.472.138-.043.061.043-.06Zm.118.085-.044.06.043-.06Zm0 0-.044.06.044-.06Zm.104.073.042-.063-.042.063Zm.02.013.042-.062-.042.062Zm-8.19-.33.057.049-.057-.049Zm.015.188.05-.057-.05.057Zm.91-.468-.001-.075.001.075Zm.024 0 .002.074-.002-.075Zm.128 0v-.076l-.001.15v-.075Zm.144.001v-.075.075Zm.467-.158.04.064-.04-.064Zm.033-.02-.039-.064.04.063Zm.2-.13-.041-.063.041.063Zm1.084-.478.012-.074-.012.074Zm.172.556.074.01-.074-.01Zm.014.145.074-.011-.074.01Zm-.01.24-.012.074.011-.075Zm-1.391.414.03.068-.003.002-.027-.07Zm-1.006-.079.02-.072-.02.072Zm-.583-.036.057.049-.057-.049Zm2.205 2.776a.06.06 0 0 0 .064.053l.01.15a.21.21 0 0 1-.223-.191l.15-.012Zm.435-.794c-.086.09-.202.21-.294.349-.091.14-.152.292-.14.445l-.15.011c-.016-.2.065-.385.165-.538.1-.153.226-.283.311-.371l.108.104Zm.017-.018-.017.018-.108-.104.017-.018.108.104Zm.088-.088a4.207 4.207 0 0 0-.088.088l-.108-.104a4.2 4.2 0 0 1 .092-.091l.104.107Zm.104-.101a12.346 12.346 0 0 1-.09.088l-.01.01-.003.002v.001s-.107-.001-.106-.107l.106.107c0-.106-.105-.108-.105-.108l.003-.003.01-.01a6.742 6.742 0 0 0 .09-.087l.105.107Zm.239-.478c-.037.157-.073.314-.239.478l-.105-.107c.133-.132.162-.252.198-.406l.146.035Zm.009-.038-.01.038-.145-.035.009-.038.146.035Zm.05-.236c-.018.087-.034.168-.05.236l-.146-.035c.015-.064.031-.143.05-.23l.146.03Zm-.001.005-.145-.039.145.039Zm.4-1.064c-.099.073-.18.231-.247.436-.066.201-.112.429-.152.623l-.147-.03c.04-.192.087-.429.156-.64.068-.206.16-.406.302-.51l.089.121Zm.411.257s-.004-.005-.02-.017a2.204 2.204 0 0 0-.364-.214.277.277 0 0 0-.047-.016h-.003a.047.047 0 0 0 .024-.01l-.09-.12a.103.103 0 0 1 .054-.02.168.168 0 0 1 .041.003.395.395 0 0 1 .077.023c.052.02.114.053.173.086a2.323 2.323 0 0 1 .23.151.273.273 0 0 1 .045.044l-.12.09Zm.127.107a2.698 2.698 0 0 1-.071-.054.333.333 0 0 1-.056-.053l.12-.09.008.007a2.5 2.5 0 0 0 .09.07l-.09.12Zm.003.003.084-.125-.084.125Zm.16.054a.057.057 0 0 0-.023.04.042.042 0 0 0 .004.024s-.005-.008-.02-.023a1.461 1.461 0 0 0-.124-.098l.09-.12c.045.034.099.074.137.11a.232.232 0 0 1 .051.064.106.106 0 0 1 .011.058.093.093 0 0 1-.037.066l-.09-.121Zm-.716 1.31c.124-.323.235-.599.347-.818.112-.219.229-.39.369-.492l.089.12c-.112.082-.216.227-.324.44-.109.211-.217.48-.341.803l-.14-.054Zm-.734.617c.145-.08.299-.166.433-.269a.927.927 0 0 0 .302-.352l.138.06a1.074 1.074 0 0 1-.349.412c-.144.11-.308.2-.45.28l-.074-.131Zm-.476.458c-.008-.11.07-.195.152-.259.085-.067.203-.132.324-.2l.073.132c-.124.07-.23.128-.305.186-.078.061-.096.102-.094.13l-.15.01Zm-.052.06a.056.056 0 0 0 .052-.06l.15-.012a.206.206 0 0 1-.192.221l-.01-.15Zm3.907-.038a.06.06 0 0 0 .08-.024l.13.073a.21.21 0 0 1-.282.083l.072-.132Zm-.43-.797c.029.121.066.284.134.437.067.153.161.287.296.36l-.072.132c-.176-.096-.288-.265-.362-.432a2.505 2.505 0 0 1-.141-.463l.146-.034Zm-.005-.024.006.024-.146.034-.006-.024.146-.034Zm-.026-.122.026.122-.146.034a4.345 4.345 0 0 1-.027-.127l.147-.029Zm-.028-.142.017.083.008.041.002.013.001.004v.001s-.058.088-.147.03l.147-.03c-.088-.059-.147.03-.147.03v-.006l-.003-.013a51.465 51.465 0 0 0-.025-.123l.147-.03Zm-.27-.46c.11.116.223.231.27.46l-.147.03c-.038-.183-.123-.273-.232-.387l.108-.104Zm-.028-.029.027.028-.108.104-.027-.028.108-.104Zm-.172-.172c.064.063.124.122.172.172l-.109.104a7.515 7.515 0 0 0-.168-.17l.105-.106Zm0 0-.105.107.105-.107Zm0 0-.105.107.104-.108Zm-.668-.906a.43.43 0 0 0 .059.194c.039.075.095.156.162.239.133.165.303.331.447.473l-.105.107a5.998 5.998 0 0 1-.459-.486 1.64 1.64 0 0 1-.178-.263.583.583 0 0 1-.076-.264h.15Zm.438-.208h-.008a1.598 1.598 0 0 0-.247.088.783.783 0 0 0-.144.082.18.18 0 0 0-.035.034c-.007.009-.004.01-.004.004h-.15c0-.037.015-.069.033-.093a.328.328 0 0 1 .065-.064.93.93 0 0 1 .172-.099c.062-.028.126-.052.18-.07a.604.604 0 0 1 .128-.032l.01.15Zm.16-.049c-.03.011-.059.022-.085.03a.333.333 0 0 1-.075.019l-.01-.15.01-.002a.454.454 0 0 0 .028-.009l.08-.028.052.14Zm.135-.105a.055.055 0 0 0 .022.04c.01.01.021.01.022.01 0 0-.009 0-.03.005-.04.01-.094.03-.15.05l-.052-.14c.053-.02.116-.043.167-.056a.247.247 0 0 1 .082-.008.106.106 0 0 1 .055.023.093.093 0 0 1 .034.067l-.15.009Zm.709 1.313a8.937 8.937 0 0 1-.497-.736c-.122-.213-.202-.404-.212-.577l.15-.009c.008.138.073.304.192.511.119.206.286.444.488.723l-.121.088Zm.118.952c.012-.165.023-.341.01-.51a.927.927 0 0 0-.13-.444l.125-.083c.101.153.142.335.155.516.014.181.001.368-.01.531l-.15-.01Zm.125.649c-.097-.053-.125-.165-.134-.268-.01-.109 0-.243.01-.381l.149.01c-.01.142-.018.264-.01.358.009.098.033.136.057.149l-.072.132Zm.021.076a.056.056 0 0 0-.021-.076l.072-.132a.206.206 0 0 1 .08.281l-.13-.073Zm2.82-2.492a.21.21 0 0 1-.15.253l-.037-.146c.03-.007.05-.04.042-.071l.146-.036Zm-.25-.15a.206.206 0 0 1 .25.15l-.145.036a.056.056 0 0 0-.068-.042l-.037-.145Zm-.38-.34c.09.111.167.205.237.269.073.066.116.077.143.07l.037.145c-.107.028-.203-.034-.28-.104-.081-.073-.166-.178-.254-.285l.117-.095Zm-.82-.667c.178.043.332.15.466.272.133.123.25.268.354.395l-.117.095a3.584 3.584 0 0 0-.339-.38.928.928 0 0 0-.4-.236l.036-.146Zm-1.342-.44c.1.096.26.173.489.244.227.07.51.13.85.196l-.029.147a8.92 8.92 0 0 1-.865-.2c-.235-.072-.423-.158-.55-.278l.105-.108Zm-.265.212c.025-.05.055-.11.084-.154a.245.245 0 0 1 .054-.062.107.107 0 0 1 .055-.021.093.093 0 0 1 .072.026l-.104.108c.01.01.025.017.043.015.015 0 .023-.007.023-.007s-.006.006-.018.024a1.472 1.472 0 0 0-.075.138l-.134-.067Zm-.003.006.14.055-.14-.055Zm.003-.006.134.067-.134-.067Zm-.06.109.007-.01a.46.46 0 0 0 .014-.024l.039-.075.134.067-.041.08a.335.335 0 0 1-.043.064l-.11-.102Zm-.175.66a.103.103 0 0 1-.028-.05.165.165 0 0 1-.005-.041c0-.025.004-.052.01-.08.011-.055.032-.12.055-.185a2.364 2.364 0 0 1 .108-.252.271.271 0 0 1 .035-.052l.11.102-.013.022a2.2 2.2 0 0 0-.148.396.265.265 0 0 0-.007.049v.004a.047.047 0 0 0-.013-.022L8.265 12Zm1.212.25c-.197-.005-.438-.011-.657-.042-.215-.031-.429-.088-.555-.209l.104-.108c.089.085.258.138.472.168.21.03.441.036.64.041l-.004.15Zm0 0 .005-.15-.006.15Zm.236.009a7.575 7.575 0 0 0-.236-.009l.004-.15c.089.003.171.005.24.009l-.008.15Zm.039.002-.04-.002.01-.15.038.002-.008.15Zm.434.124c-.153-.108-.276-.115-.434-.124l.008-.15c.161.009.322.017.512.152l-.086.122Zm.117.085-.117-.085.086-.122.118.085-.087.121Zm0 0 .087-.122-.087.122Zm.106.074a4.19 4.19 0 0 1-.106-.074l.087-.122.103.072-.084.124Zm.02.013-.02-.013.084-.124.02.013-.084.124Zm.979.312c-.195.05-.391.003-.56-.07-.168-.071-.317-.173-.419-.242l.084-.124c.103.07.241.163.395.229.154.066.314.1.462.061l.038.146Zm-9.07-.655a.06.06 0 0 0 .007.082l-.099.113a.21.21 0 0 1-.022-.293l.114.098Zm.87-.254a2.422 2.422 0 0 0-.455.039c-.164.034-.315.098-.415.215l-.114-.098c.131-.152.32-.227.498-.264.18-.038.36-.04.483-.042l.002.15Zm.024 0h-.025l-.002-.15h.024l.003.15Zm.125 0h-.125l-.003-.15h.13l-.002.15Zm.145.001a11.175 11.175 0 0 1-.14-.002h-.005s-.074-.076.001-.15l-.001.15c.076-.074.002-.15.002-.15h.018l.042.001.084.001-.001.15Zm.506-.17c-.136.086-.273.171-.506.17v-.15c.188.001.293-.063.427-.147l.08.128Zm.034-.02a4.335 4.335 0 0 0-.034.02l-.079-.127.034-.02.079.127Zm.202-.13a7.52 7.52 0 0 1-.202.13l-.079-.127c.056-.035.123-.08.198-.129l.083.125Zm1.03-.467c-.12-.019-.29.035-.483.133a5.74 5.74 0 0 0-.547.333l-.083-.125c.164-.108.365-.242.563-.342.193-.098.4-.174.574-.147l-.023.148Zm.11.472-.002-.026a2.217 2.217 0 0 0-.051-.245 1.311 1.311 0 0 0-.055-.164.263.263 0 0 0-.023-.044l-.002-.003c.002.001.01.008.024.01l.023-.148c.023.003.04.015.051.024.011.01.02.02.027.03a.478.478 0 0 1 .038.071 2.36 2.36 0 0 1 .117.452c.002.02.004.044.001.063l-.148-.02Zm.014.166c-.005-.031-.01-.062-.012-.09a.335.335 0 0 1-.002-.076l.148.02v.012l.003.028c.002.024.006.052.011.084l-.148.022Zm.075.154a.057.057 0 0 0-.044.013c-.012.009-.015.019-.015.019s.002-.008.001-.03a1.47 1.47 0 0 0-.017-.156l.148-.022c.008.055.018.122.02.174 0 .025 0 .056-.01.082a.106.106 0 0 1-.033.049.093.093 0 0 1-.073.02l.023-.149Zm-1.432.42c.315-.14.589-.257.823-.332.233-.076.437-.114.609-.088l-.023.149c-.136-.021-.312.008-.54.081a8.831 8.831 0 0 0-.809.327l-.06-.137Zm-.956-.082c.16.046.329.094.496.116a.929.929 0 0 0 .463-.035l.054.14c-.17.066-.357.068-.537.044-.18-.024-.36-.076-.517-.12l.041-.145Zm-.66-.013c.072-.084.186-.088.29-.075.107.013.237.05.37.088l-.04.144a2.578 2.578 0 0 0-.349-.084c-.098-.012-.14.004-.157.025l-.114-.098Zm-.08.005c.025.021.06.018.08-.005l.114.098a.206.206 0 0 1-.293.02l.1-.113Z"></path>
    <path fill="#ffc125" fill-rule="evenodd" d="M7 6.06a.256.256 0 0 0-.253.22l-.414 2.937h1.334l-.414-2.938A.256.256 0 0 0 7 6.06Zm3.494 1.446a.256.256 0 0 0-.335-.023l-2.37 1.785.943.943 1.785-2.37a.256.256 0 0 0-.023-.335Zm1.227 3.24a.256.256 0 0 1 0 .507l-2.938.414v-1.334l2.938.414Zm-1.227 3.748c.09-.09.1-.233.023-.335l-1.785-2.37-.943.943 2.37 1.785a.256.256 0 0 0 .335-.023Zm-3.24 1.227a.256.256 0 0 1-.507 0l-.414-2.938h1.334l-.414 2.938Zm-3.748-1.227c.09.09.233.1.335.023l2.37-1.785-.943-.943-1.785 2.37a.256.256 0 0 0 .023.335Zm-1.227-3.24a.256.256 0 0 1 0-.507l2.938-.414v1.334l-2.938-.414Zm1.227-3.748c-.09.09-.1.233-.023.335l1.785 2.37.943-.943-2.37-1.785a.256.256 0 0 0-.335.023Z" clip-rule="evenodd"></path>
    <path fill="#984111" d="m6.747 6.28-.075-.011.075.01Zm-.414 2.937-.074-.01-.012.085h.086v-.075Zm1.334 0v.075h.086l-.012-.085-.074.01Zm-.414-2.938.074-.01-.074.01Zm2.906 1.204-.045-.06.045.06Zm-2.37 1.785-.045-.06-.069.052.061.06.053-.052Zm.943.943-.053.053.061.06.052-.068-.06-.045Zm1.785-2.37-.06-.045.06.045Zm1.204 2.906-.01.074.01-.074Zm0 .506.01.074-.01-.074Zm-2.938.414h-.075v.086l.085-.012-.01-.074Zm0-1.334.01-.074-.085-.012v.086h.075Zm1.734 3.826.06-.045-.06.045Zm-.023.335.053.053-.053-.053Zm-1.762-2.705.06-.045-.052-.069-.061.061.053.053Zm-.943.943-.053-.053-.06.061.068.052.045-.06Zm2.37 1.785.045-.06-.045.06Zm-2.906 1.204-.074-.01.074.01Zm-.506 0-.075.01.075-.01Zm-.414-2.938v-.075h-.086l.012.085.074-.01Zm1.334 0 .074.01.012-.085h-.086v.075ZM3.84 14.517l-.045-.06.045.06Zm-.335-.023-.053.053.053-.053Zm2.705-1.762.045.06.069-.052-.061-.061-.053.053Zm-.943-.943.053-.053-.061-.06-.052.068.06.045Zm-1.785 2.37.06.045-.06-.045Zm-1.204-2.906-.01.074.01-.074Zm0-.506-.01-.075.01.075Zm2.938-.414h.075v-.086l-.085.012.01.074Zm0 1.334-.01.074.085.012v-.086h-.075ZM3.483 7.84l.06-.045-.06.045Zm.023-.335-.053-.053.053.053Zm1.762 2.705-.06.045.052.069.06-.061-.052-.053Zm.943-.943.053.053.06-.061-.068-.052-.045.06ZM3.84 7.483l-.045.06.045-.06ZM6.82 6.29A.18.18 0 0 1 7 6.134v-.15a.33.33 0 0 0-.328.285l.149.02Zm-.413 2.937L6.82 6.29l-.149-.021-.413 2.938.148.02Zm1.259-.085H6.333v.15h1.334v-.15ZM7.179 6.29l.413 2.937.149-.02-.414-2.938-.148.02Zm-.18-.156a.18.18 0 0 1 .18.156l.148-.021A.33.33 0 0 0 7 5.984v.15Zm3.205 1.409a.18.18 0 0 1 .237.016l.106-.106a.33.33 0 0 0-.433-.03l.09.12Zm-2.37 1.785 2.37-1.785-.09-.12-2.37 1.785.09.12Zm.951.83-.943-.943-.106.106.943.943.106-.106Zm1.672-2.362-1.785 2.37.12.09 1.785-2.37-.12-.09Zm-.016-.237a.18.18 0 0 1 .016.237l.12.09a.33.33 0 0 0-.03-.433l-.106.106ZM12.016 11a.33.33 0 0 0-.285-.327l-.02.149a.18.18 0 0 1 .155.179h.15Zm-.285.328a.33.33 0 0 0 .285-.327h-.15a.18.18 0 0 1-.156.179l.021.148Zm-2.938.414 2.938-.414-.02-.148-2.939.413.021.149Zm-.085-1.408v1.334h.15v-1.334h-.15Zm3.023.34-2.938-.414-.02.149 2.937.413.021-.149Zm-1.274 3.531a.18.18 0 0 1-.016.237l.106.106a.33.33 0 0 0 .03-.433l-.12.09Zm-1.785-2.37 1.785 2.37.12-.09-1.785-2.37-.12.09Zm-.83.951.943-.943-.106-.106-.943.943.106.106Zm2.362 1.672-2.37-1.785-.09.12 2.37 1.785.09-.12Zm.237-.016a.18.18 0 0 1-.237.016l-.09.12a.33.33 0 0 0 .433-.03l-.106-.106ZM7 16.016a.33.33 0 0 0 .327-.285l-.148-.02a.18.18 0 0 1-.18.155v.15Zm-.328-.285a.33.33 0 0 0 .328.285v-.15a.18.18 0 0 1-.179-.156l-.149.021Zm-.413-2.938.413 2.938.149-.02-.413-2.939-.149.021Zm1.408-.085H6.333v.15h1.334v-.15Zm-.34 3.023.414-2.938-.149-.02-.413 2.937.148.021Zm-3.531-1.274a.18.18 0 0 1-.237-.016l-.106.106a.33.33 0 0 0 .433.03l-.09-.12Zm2.37-1.785-2.37 1.785.09.12 2.37-1.785-.09-.12Zm-.951-.83.943.943.106-.106-.943-.943-.106.106Zm-1.672 2.362 1.785-2.37-.12-.09-1.785 2.37.12.09Zm.016.237a.18.18 0 0 1-.016-.237l-.12-.09a.33.33 0 0 0 .03.433l.106-.106ZM1.984 11a.33.33 0 0 0 .285.327l.02-.148a.18.18 0 0 1-.155-.18h-.15Zm.285-.328a.33.33 0 0 0-.285.328h.15a.18.18 0 0 1 .156-.179l-.021-.149Zm2.938-.413-2.938.413.02.149 2.938-.413-.02-.149Zm.085 1.408v-1.334h-.15v1.334h.15Zm-3.023-.34 2.938.414.02-.149-2.937-.413-.021.148Zm1.274-3.531a.18.18 0 0 1 .016-.237l-.106-.106a.33.33 0 0 0-.03.433l.12-.09Zm1.785 2.37-1.785-2.37-.12.09 1.785 2.37.12-.09Zm.83-.951-.943.943.106.106.943-.943-.106-.106ZM3.796 7.543l2.37 1.785.09-.12-2.37-1.785-.09.12Zm-.237.016a.18.18 0 0 1 .237-.016l.09-.12a.33.33 0 0 0-.433.03l.106.106Z"></path>
    <path fill="#ffc125" fill-rule="evenodd" stroke="#984111" stroke-width=".15" d="M7 12.842c1.068 0 1.933-.854 1.933-1.908 0-1.053-.865-1.908-1.933-1.908s-1.933.855-1.933 1.908c0 1.054.865 1.908 1.933 1.908Z" clip-rule="evenodd"></path>
    <path fill="#984111" d="m6.813 10.437-.125-.082a.81.81 0 0 0-.186-.093.277.277 0 0 0-.081-.014c-.118 0-.284.073-.494.223l-.078-.107c.23-.164.42-.248.572-.248.04 0 .08.007.122.02a.923.923 0 0 1 .217.108l.124.081.048.027c.16 0 .169.57.056.744a.498.498 0 0 1-.116.124l-.087.064c-.04.03-.052.048-.052.07 0 .003.048.015.155.01l.073-.005a1.27 1.27 0 0 1 .11-.006v.131c-.019 0-.03 0-.1.006a2.859 2.859 0 0 1-.077.005c-.188.009-.294-.017-.294-.142 0-.071.034-.12.103-.173.011-.008.07-.05.086-.063a.37.37 0 0 0 .087-.092c.034-.053.056-.192.053-.34a.918.918 0 0 0-.026-.205.325.325 0 0 1-.09-.043Z"></path>
    <path fill="#984111" fill-rule="evenodd" d="m7.351 10.39-.07.046a.325.325 0 0 1-.09.044.918.918 0 0 0-.026.205c-.003.148.018.287.053.34a.37.37 0 0 0 .087.092l.053.04.033.023c.068.053.103.102.103.173 0 .125-.107.151-.295.142a2.862 2.862 0 0 1-.077-.005 1.281 1.281 0 0 0-.1-.006v-.131c.025 0 .034 0 .11.006l.074.005c.106.005.154-.007.154-.01 0-.022-.012-.04-.051-.07l-.026-.02a2.97 2.97 0 0 1-.061-.044.498.498 0 0 1-.117-.124c-.112-.175-.103-.744.056-.744h.002a.55.55 0 0 0 .046-.027l.066-.043.058-.038a.924.924 0 0 1 .218-.108.408.408 0 0 1 .122-.02c.152 0 .34.084.572.248l-.078.107c-.21-.15-.377-.223-.494-.223a.277.277 0 0 0-.082.014.81.81 0 0 0-.186.093l-.054.035Zm-.156.08-.002.003.001-.002Z" clip-rule="evenodd"></path>
    <path fill="#984111" d="m6.665 11.723.034.067-.034-.067Zm.677 0 .038-.064-.038.065Zm.069.042.061.043.046-.066-.069-.041-.038.064Zm-.046.066-.062-.043.062.043Zm-.723.007.057-.048-.057.048Zm-.063-.073-.033-.067-.086.043.062.073.057-.049Zm.252.052-.023-.072-.13.04.104.089.049-.057Zm.354-.002.054.052.082-.084-.111-.039-.025.071Zm-.574-.042-.039-.064-.071.043.05.066.06-.045Zm.771 0 .064.039.036-.058-.055-.041-.045.06Zm-.859-.122.04.063-.04-.063Zm.958.008-.046.06.046-.06Zm.046.036.046-.06-.046.06Zm.052.04.065.039.034-.057-.053-.041-.046.06Zm-.034.057-.064-.038.064.038Zm-.03.05.065.038-.064-.038Zm-1.03.012-.06.045.06-.045Zm-.043-.057.06-.045-.06.045Zm-.049-.066-.04-.063-.069.043.049.065.06-.045Zm.07-.043-.04-.064.04.064Zm.553-.124a.851.851 0 0 0-.384.091l.067.135a.7.7 0 0 1 .317-.076v-.15Zm.364.095a.696.696 0 0 0-.364-.095v.15c.11 0 .205.025.287.074l.077-.129Zm.07.042-.07-.042-.077.13.069.04.077-.128Zm-.024.173.046-.066-.123-.086-.046.066.123.086Zm-.41.25c.172 0 .307-.102.41-.25l-.123-.086c-.087.126-.183.185-.287.185v.15Zm-.431-.237c.12.141.264.236.43.236v-.15c-.104 0-.21-.059-.316-.183l-.114.097Zm-.063-.073.063.073.114-.097-.063-.073-.114.097Zm.11-.159-.086.043.067.134.086-.042-.067-.135Zm.384.168c-.032 0-.078-.013-.137-.063l-.097.114a.36.36 0 0 0 .234.1v-.15Zm.115-.06c-.047.05-.085.06-.115.06v.15a.307.307 0 0 0 .223-.106l-.108-.104Zm-.115.1c.055 0 .103.009.145.023l.049-.142a.59.59 0 0 0-.194-.03v.15Zm-.163.026a.542.542 0 0 1 .163-.025v-.15c-.071 0-.14.01-.208.031l.045.144Zm.163.066c-.1 0-.216-.058-.345-.228l-.12.091c.144.189.298.287.465.287v-.15Zm.302-.222c-.101.167-.204.222-.302.222v.15c.169 0 .313-.1.43-.293l-.128-.079Zm-.302 0c.129 0 .234.034.321.1l.09-.12a.667.667 0 0 0-.411-.13v.15Zm-.366.104a.696.696 0 0 1 .366-.105v-.15a.846.846 0 0 0-.444.127l.078.128Zm.366-.405a.998.998 0 0 0-.532.155l.079.127a.848.848 0 0 1 .453-.132v-.15Zm.51.168a.815.815 0 0 0-.51-.168v.15a.67.67 0 0 1 .419.136l.092-.118Zm.047.035-.046-.035-.092.118.046.036.092-.119Zm.052.041-.052-.04-.092.118.052.04.092-.118Zm-.015.155.034-.057-.13-.077-.033.057.129.077Zm-.03.05.03-.05-.13-.077-.029.05.129.076Zm-.564.374c.244 0 .43-.151.564-.375l-.129-.077c-.118.198-.264.302-.435.302v.15Zm-.592-.356c.16.213.355.356.592.356v-.15c-.17 0-.326-.101-.471-.296l-.12.09Zm-.042-.057.042.057.12-.09-.042-.057-.12.09Zm-.05-.066.05.066.12-.09-.049-.066-.12.09Zm.091-.152-.07.043.08.128.069-.043-.079-.128Zm.06-.037-.06.037.079.128.06-.038-.078-.127Zm-.418-1.134.032.067-.032-.067Zm0 .361-.032.068.032-.068Zm.536 0 .033.068-.033-.068Zm0-.361-.032.067.032-.067Zm-.525.178-.07-.03.07.03Zm.006-.01.057.05-.057-.05Zm.048-.033-.033-.068.033.068Zm.406 0 .033-.068-.033.068Zm.048.033-.056.05.056-.05Zm.007.01-.07.029.07-.03Zm0 .005-.07-.03.07.03Zm-.007.01-.056-.05.056.05Zm-.048.033.033.068-.033-.068Zm-.406 0-.033.068.033-.068Zm-.048-.033-.056.05.056-.05Zm-.006-.01-.07.03.07-.03Zm1.322-.183-.032-.068.032.068Zm0 .361-.032.068.032-.068Zm.537 0-.033-.067.033.067Zm0-.361-.033.067.033-.067Zm-.526.178-.07-.03.07.03Zm.007-.01-.057-.05.057.05Zm.047-.033.033.068-.033-.068Zm.407 0-.033.068.033-.068Zm.047.033-.056.05.056-.05Zm.007.01-.069.029.069-.03Zm0 .005-.069-.03.069.03Zm-.007.01-.056-.05.056.05Zm-.047.033-.033-.068.033.068Zm-.407 0 .033-.068-.033.068Zm-.047-.033-.057.05.057-.05Zm-.007-.01-.07.03.07-.03Zm-1.312-.116a.559.559 0 0 1 .236-.047v-.15a.707.707 0 0 0-.3.062l.064.135ZM6 10.633c0-.043.037-.083.097-.113l-.064-.135c-.074.035-.183.113-.183.248H6Zm.097.114c-.06-.03-.097-.07-.097-.114h-.15c0 .136.11.214.183.249l.064-.135Zm.236.046a.56.56 0 0 1-.236-.046l-.064.135c.084.04.19.061.3.061v-.15Zm.236-.046a.56.56 0 0 1-.236.046v.15c.11 0 .216-.02.3-.061l-.064-.135Zm.097-.114c0 .044-.036.084-.097.114l.065.135c.073-.035.182-.113.182-.249h-.15Zm-.097-.113c.06.03.097.07.097.113h.15c0-.135-.109-.213-.182-.248l-.065.135Zm-.236-.047a.56.56 0 0 1 .236.047l.065-.135a.707.707 0 0 0-.3-.062v.15Zm-.326.128a.081.081 0 0 0-.007.032h.15v.007a.067.067 0 0 1-.005.02l-.138-.059Zm.019-.03a.11.11 0 0 0-.02.03l.139.059a.04.04 0 0 1-.006.01l-.113-.099Zm.071-.05a.223.223 0 0 0-.071.05l.113.1s.005-.007.023-.015l-.065-.136Zm.236-.048a.559.559 0 0 0-.236.047l.065.136a.414.414 0 0 1 .171-.033v-.15Zm.236.047a.559.559 0 0 0-.236-.047v.15a.39.39 0 0 1 .17.033l.066-.136Zm.071.051a.223.223 0 0 0-.071-.05l-.065.134c.018.01.024.016.024.015l.112-.099Zm.02.03a.111.111 0 0 0-.02-.03l-.112.1c0-.001-.004-.005-.006-.011l.138-.059Zm.006.032a.081.081 0 0 0-.006-.032l-.138.059a.063.063 0 0 1-.006-.027h.15Zm-.006.033a.082.082 0 0 0 .006-.033h-.15a.073.073 0 0 1 .006-.026l.138.059Zm-.02.03a.113.113 0 0 0 .02-.03l-.138-.06c.002-.006.005-.009.006-.01l.112.1Zm-.071.05a.223.223 0 0 0 .071-.05l-.112-.1s-.006.007-.024.015l.065.136Zm-.236.047a.56.56 0 0 0 .236-.046l-.065-.136a.412.412 0 0 1-.17.032v.15Zm-.236-.046a.56.56 0 0 0 .236.046v-.15a.412.412 0 0 1-.17-.032l-.066.136Zm-.071-.051a.218.218 0 0 0 .071.05l.065-.135c-.018-.008-.024-.015-.023-.014l-.113.099Zm-.02-.03c.005.01.012.02.02.03l.113-.1.006.01-.138.06ZM6 10.633c0 .011.002.022.007.033l.138-.06a.063.063 0 0 1 .005.027H6Zm1.43-.113a.559.559 0 0 1 .236-.047v-.15a.707.707 0 0 0-.3.062l.065.135Zm-.097.113c0-.043.037-.083.098-.113l-.065-.135c-.073.035-.183.113-.183.248h.15Zm.098.114c-.061-.03-.098-.07-.098-.114h-.15c0 .136.11.214.183.249l.065-.135Zm.235.046a.56.56 0 0 1-.235-.046l-.065.135c.085.04.191.061.3.061v-.15Zm.236-.046a.56.56 0 0 1-.236.046v.15c.11 0 .216-.02.301-.061l-.065-.135ZM8 10.633c0 .044-.037.084-.098.114l.065.135c.073-.035.183-.113.183-.249H8Zm-.098-.113c.061.03.098.07.098.113h.15c0-.135-.11-.213-.183-.248l-.065.135Zm-.236-.047c.093 0 .176.018.236.047l.065-.135a.707.707 0 0 0-.3-.062v.15Zm-.326.128a.081.081 0 0 0-.007.032h.15a.074.074 0 0 1-.005.027l-.138-.059Zm.02-.03a.111.111 0 0 0-.02.03l.138.059a.039.039 0 0 1-.006.01l-.113-.099Zm.07-.05a.223.223 0 0 0-.07.05l.112.1s.006-.007.024-.015l-.065-.136Zm.236-.048a.559.559 0 0 0-.235.047l.065.136a.414.414 0 0 1 .17-.033v-.15Zm.236.047a.559.559 0 0 0-.236-.047v.15a.4.4 0 0 1 .171.033l.065-.136Zm.072.051a.223.223 0 0 0-.072-.05l-.065.134c.018.01.024.016.024.015l.113-.099Zm.019.03a.11.11 0 0 0-.02-.03l-.112.1a.04.04 0 0 1-.006-.011l.138-.059Zm.007.032a.081.081 0 0 0-.007-.032l-.138.059a.063.063 0 0 1-.005-.027H8Zm-.007.033A.082.082 0 0 0 8 10.633h-.15a.07.07 0 0 1 .005-.026l.138.059Zm-.02.03a.112.112 0 0 0 .02-.03l-.138-.06.006-.01.113.1Zm-.07.05a.223.223 0 0 0 .07-.05l-.112-.1s-.006.007-.024.015l.065.136Zm-.237.047a.56.56 0 0 0 .236-.046l-.065-.136a.412.412 0 0 1-.17.032v.15Zm-.235-.046a.56.56 0 0 0 .235.046v-.15a.412.412 0 0 1-.17-.032l-.065.136Zm-.072-.051a.223.223 0 0 0 .072.05l.065-.135c-.018-.008-.024-.015-.024-.014l-.113.099Zm-.02-.03c.005.01.012.02.02.03l.113-.1.006.01-.138.06Zm-.006-.033c0 .011.002.022.007.033l.138-.06a.064.064 0 0 1 .005.027h-.15Z"></path>
  </g>
</svg>