<svg xmlns="http://www.w3.org/2000/svg" fill="none" viewBox="0 0 24 24" id="Uz-Uzbekistan--Streamline-Flagpack" height="24" width="24">
  <desc>
    UZ Uzbekistan Streamline Icon: https://streamlinehq.com
  </desc>
  <g clip-path="url(#a)">
    <path fill="#14DC5A" fill-rule="evenodd" d="M0 15h24v6H0v-6Z" clip-rule="evenodd" stroke-width="0.75"></path>
    <path fill="#0099B5" fill-rule="evenodd" d="M0 3h24v7.5H0V3Z" clip-rule="evenodd" stroke-width="0.75"></path>
    <path fill="#f7fcff" stroke="#c51918" d="M-1.5 10.125h-0.375v5.25h27.75v-5.25H-1.5Z" stroke-width="0.75"></path>
    <path fill="#f7fcff" fill-rule="evenodd" d="m10.905750000000001 5.2545 -0.50475 0.28049999999999997 0.14400000000000002 -0.5700000000000001 -0.483 -0.41850000000000004h0.6315l0.21149999999999997 -0.54 0.24825000000000003 0.54h0.5385l-0.42299999999999993 0.41850000000000004 0.20325000000000001 0.5700000000000001 -0.56625 -0.28049999999999997Zm-2.706 1.7182499999999998 0.50475 -0.28049999999999997 0.56625 0.28049999999999997 -0.2025 -0.5700000000000001 0.42224999999999996 -0.41925h-0.5385l-0.2475 -0.53925 -0.21225 0.54h-0.6315l0.483 0.41850000000000004 -0.14400000000000002 0.5700000000000001Zm-1.87875 1.248 -0.50475 0.28049999999999997 0.14400000000000002 -0.5700000000000001 -0.48375 -0.41925h0.6315l0.21225 -0.53925 0.2475 0.54h0.53925l-0.42299999999999993 0.41850000000000004 0.2025 0.5700000000000001 -0.5655 -0.28049999999999997Zm2.3834999999999997 0 -0.50475 0.28049999999999997 0.14400000000000002 -0.5700000000000001 -0.483 -0.41925h0.6315l0.21149999999999997 -0.53925 0.24825000000000003 0.54h0.5385l-0.42299999999999993 0.41850000000000004 0.20325000000000001 0.5700000000000001 -0.56625 -0.28049999999999997Zm2.235 0 -0.50475 0.28049999999999997 0.14400000000000002 -0.5700000000000001 -0.483 -0.41925h0.6315l0.21149999999999997 -0.53925 0.24825000000000003 0.54h0.5385l-0.42299999999999993 0.41850000000000004 0.20325000000000001 0.5700000000000001 -0.56625 -0.28049999999999997Zm-0.50475 -1.248 0.50475 -0.28049999999999997 0.56625 0.28049999999999997 -0.2025 -0.5700000000000001 0.42224999999999996 -0.41925h-0.5385l-0.2475 -0.53925 -0.21225 0.54h-0.6315l0.483 0.41850000000000004 -0.14400000000000002 0.5700000000000001Zm2.25 1.5284999999999997 0.504 -0.28049999999999997 0.567 0.28049999999999997 -0.20325000000000001 -0.5700000000000001 0.42299999999999993 -0.41925h-0.5385l-0.249 -0.53925 -0.21149999999999997 0.54h-0.6315l0.48375 0.41850000000000004 -0.14475 0.5700000000000001Zm0.504 -1.809 -0.50475 0.28049999999999997 0.14475 -0.5700000000000001 -0.48375 -0.41925h0.6315l0.21149999999999997 -0.53925 0.249 0.54h0.5385l-0.42299999999999993 0.41850000000000004 0.2025 0.5700000000000001 -0.56625 -0.28049999999999997Zm-0.53775 -1.15725 0.50475 -0.28049999999999997 0.56625 0.28049999999999997 -0.20325000000000001 -0.5700000000000001 0.42299999999999993 -0.41850000000000004h-0.5385l-0.24825000000000003 -0.54 -0.21225 0.54h-0.6315l0.48375 0.41850000000000004 -0.14400000000000002 0.5700000000000001Zm2.811 2.685 -0.50475 0.28125 0.14400000000000002 -0.5700000000000001 -0.48375 -0.41925h0.6315l0.21225 -0.53925 0.2475 0.54h0.53925l-0.42299999999999993 0.41850000000000004 0.2025 0.5700000000000001 -0.5655 -0.28049999999999997Zm-0.50475 -1.24725 0.50475 -0.28049999999999997 0.56625 0.28049999999999997 -0.20325000000000001 -0.5700000000000001 0.42299999999999993 -0.41925h-0.5385l-0.24825000000000003 -0.53925 -0.21225 0.54h-0.6315l0.48375 0.41850000000000004 -0.14400000000000002 0.5700000000000001Zm0.471 -1.7175 -0.50475 0.27975 0.14400000000000002 -0.5700000000000001 -0.48375 -0.41850000000000004h0.6315l0.21225 -0.54 0.24825000000000003 0.54h0.5385l-0.42299999999999993 0.41850000000000004 0.20325000000000001 0.5700000000000001 -0.56625 -0.28049999999999997ZM4.41375 9.18s-1.8119999999999998 -0.49125 -1.7775 -2.3085C2.67 5.0535000000000005 4.5 4.5817499999999995 4.5 4.5817499999999995c-0.74775 -0.2835 -2.9587499999999998 0.09675 -3 2.271 -0.0405 2.175 2.217 2.6025 2.91375 2.3272500000000003Z" clip-rule="evenodd" stroke-width="0.75"></path>
  </g>
  <defs>
    <clipPath id="a">
      <path fill="#ffffff" d="M0 0h24v24H0z" stroke-width="0.75"></path>
    </clipPath>
  </defs>
</svg>